<svg id="Capa_1" enable-background="new 0 0 512 512" height="512" viewBox="0 0 512 512" width="512" xmlns="http://www.w3.org/2000/svg" xmlns:xlink="http://www.w3.org/1999/xlink"><linearGradient id="SVGID_1_" gradientUnits="userSpaceOnUse" x1="74.981" x2="437.019" y1="437.019" y2="74.981"><stop offset="0" stop-color="#364aff"/><stop offset="1" stop-color="#fc54ff"/></linearGradient><radialGradient id="SVGID_2_" cx="256" cy="256" gradientUnits="userSpaceOnUse" r="258.6"><stop offset=".095" stop-color="#8d00db" stop-opacity=".66"/><stop offset=".2822" stop-color="#9f0de1" stop-opacity=".523"/><stop offset=".6541" stop-color="#cc30f0" stop-opacity=".252"/><stop offset="1" stop-color="#fc54ff" stop-opacity="0"/></radialGradient><linearGradient id="SVGID_3_" gradientUnits="userSpaceOnUse" x1="-477.07" x2="444.841" y1="989.07" y2="67.159"><stop offset="0" stop-color="#fc54ff"/><stop offset="1" stop-color="#fff"/></linearGradient><linearGradient id="SVGID_4_" gradientUnits="userSpaceOnUse" x1="-94.676" x2="331.553" y1="610.531" y2="184.302"><stop offset="0" stop-color="#fc54ff"/><stop offset=".138" stop-color="#fc59ff" stop-opacity=".931"/><stop offset=".2922" stop-color="#fc66ff" stop-opacity=".854"/><stop offset=".4542" stop-color="#fd7cff" stop-opacity=".773"/><stop offset=".6216" stop-color="#fd9cff" stop-opacity=".689"/><stop offset=".7932" stop-color="#fec4ff" stop-opacity=".603"/><stop offset=".9659" stop-color="#fff4ff" stop-opacity=".517"/><stop offset="1" stop-color="#fff" stop-opacity=".5"/></linearGradient><linearGradient id="lg1"><stop offset="0" stop-color="#fc54ff"/><stop offset=".215" stop-color="#fc59ff"/><stop offset=".4551" stop-color="#fc66ff"/><stop offset=".7073" stop-color="#fd7cff"/><stop offset=".9663" stop-color="#fd9bff"/><stop offset="1" stop-color="#fda0ff"/></linearGradient><linearGradient id="SVGID_5_" gradientUnits="userSpaceOnUse" x1="110.103" x2="511.457" xlink:href="#lg1" y1="554.366" y2="153.011"/><linearGradient id="SVGID_6_" gradientUnits="userSpaceOnUse" x1="-39.232" x2="423.653" xlink:href="#lg1" y1="481.828" y2="18.943"/><linearGradient id="SVGID_7_" gradientUnits="userSpaceOnUse" x1="-167.694" x2="465.032" xlink:href="#lg1" y1="808.844" y2="176.118"/><linearGradient id="SVGID_8_" gradientUnits="userSpaceOnUse" x1="-30.777" x2="621.466" xlink:href="#lg1" y1="531.653" y2="-120.59"/><linearGradient id="lg2"><stop offset="0" stop-color="#b31de7"/><stop offset=".2047" stop-color="#ba22e9"/><stop offset=".498" stop-color="#cd30ef"/><stop offset=".8432" stop-color="#ec48fa"/><stop offset="1" stop-color="#fc54ff"/></linearGradient><linearGradient id="SVGID_9_" gradientUnits="userSpaceOnUse" x1="166.388" x2="350.985" xlink:href="#lg2" y1="233.317" y2="48.72"/><linearGradient id="SVGID_10_" gradientTransform="matrix(0 -1 1 0 0 512)" gradientUnits="userSpaceOnUse" x1="185.553" x2="370.15" xlink:href="#lg2" y1="73.257" y2="257.854"/><linearGradient id="SVGID_11_" gradientTransform="matrix(-1 0 0 -1 512 512)" gradientUnits="userSpaceOnUse" x1="318.419" x2="133.821" xlink:href="#lg2" y1="81.286" y2="265.884"/><linearGradient id="SVGID_12_" gradientTransform="matrix(0 1 -1 0 512 0)" gradientUnits="userSpaceOnUse" x1="351.569" x2="166.971" xlink:href="#lg2" y1="239.274" y2="54.675"/><linearGradient id="lg3"><stop offset="0" stop-color="#b31de7"/><stop offset=".5223" stop-color="#fc54ff"/><stop offset=".625" stop-color="#fc59ff"/><stop offset=".7397" stop-color="#fc66ff"/><stop offset=".8602" stop-color="#fd7cff"/><stop offset=".9839" stop-color="#fd9bff"/><stop offset="1" stop-color="#fda0ff"/></linearGradient><linearGradient id="SVGID_13_" gradientUnits="userSpaceOnUse" x1="47.192" x2="483.025" xlink:href="#lg3" y1="464.807" y2="28.974"/><linearGradient id="SVGID_14_" gradientUnits="userSpaceOnUse" x1="176.423" x2="394.569" xlink:href="#lg3" y1="335.577" y2="117.431"/><g><circle cx="256" cy="256" fill="url(#SVGID_1_)" r="256"/><circle cx="256" cy="256" fill="url(#SVGID_2_)" r="256"/><circle cx="256" cy="256" fill="url(#SVGID_3_)" r="196"/><path d="m271 422c-108.248 0-196-87.752-196-196 0-25.5 4.873-49.86 13.733-72.206-18.223 29.759-28.733 64.754-28.733 102.206 0 108.248 87.752 196 196 196 82.748 0 153.516-51.28 182.267-123.794-34.448 56.255-96.471 93.794-167.267 93.794z" fill="url(#SVGID_4_)" opacity=".6"/><path d="m416.961 195.75c-7.665-.119-15.33-.23-22.994-.332.544 40.388.544 80.775 0 121.163 7.665-.102 15.33-.213 22.994-.332 8.464-.137 15.448-6.973 15.558-15.25.391-30 .391-60 0-90-.11-8.277-7.094-15.11-15.558-15.249z" fill="url(#SVGID_5_)"/><path d="m301 79.481c-7.5-.098-15-.171-22.5-.22-7.19 48.618-14.818 97.302-22.5 145.989 25.606-10.25 51.174-20.453 76.648-30.467-8.469-.06-15.371-6.964-15.432-15.432-.208-28.104-.53-56.208-.967-84.313-.137-8.461-6.972-15.447-15.249-15.557z" fill="url(#SVGID_6_)"/><path d="m256 286.75c7.682 48.687 15.31 97.371 22.5 145.989 7.5-.049 15-.122 22.5-.22 8.277-.109 15.112-7.095 15.25-15.558.437-28.104.759-56.208.967-84.313.06-8.469 6.963-15.371 15.432-15.432-25.475-10.013-51.043-20.216-76.649-30.466z" fill="url(#SVGID_7_)"/><path d="m393.967 195.419c-28.104-.374-56.209-.634-84.313-.78-8.469-.041-15.357-6.943-15.393-15.425-.13-28.155-.331-56.31-.604-84.465-.089-8.481-6.879-15.432-15.156-15.488-22.5-.147-45-.073-67.5.22-8.277.109-15.112 7.094-15.25 15.558-.437 28.104-.759 56.208-.967 84.313-.06 8.469-6.963 15.371-15.432 15.432-28.104.208-56.209.53-84.313.967-8.463.138-15.448 6.972-15.558 15.25-.391 30-.391 60 0 90 .11 8.276 7.095 15.111 15.558 15.25 28.104.437 56.209.759 84.313.967 8.469.06 15.371 6.963 15.432 15.432.208 28.104.53 56.208.967 84.313.138 8.464 6.972 15.447 15.25 15.558 22.5.294 45 .367 67.5.22 8.277-.055 15.067-7.009 15.156-15.488.273-28.155.474-56.31.604-84.465.037-8.482 6.925-15.383 15.393-15.426 28.104-.145 56.209-.405 84.313-.78 8.463-.118 15.432-6.978 15.528-15.307.34-30.183.34-60.366 0-90.549-.096-8.329-7.065-15.189-15.528-15.307z" fill="url(#SVGID_8_)"/><path d="m250.196 105.021c-10.079 12.306-20.244 24.646-30.464 36.992-4.169 5.033-.689 12.603 5.784 12.572 20.322-.1 40.645-.1 60.967 0 6.473.032 9.953-7.537 5.784-12.572-10.22-12.346-20.385-24.686-30.464-36.992-3.025-3.694-8.581-3.694-11.607 0z" fill="url(#SVGID_9_)"/><path d="m105.022 261.804c12.306 10.079 24.646 20.244 36.992 30.464 5.033 4.169 12.603.689 12.572-5.784-.1-20.323-.1-40.645 0-60.968.031-6.473-7.539-9.951-12.572-5.784-12.346 10.22-24.686 20.385-36.992 30.464-3.696 3.027-3.696 8.581 0 11.608z" fill="url(#SVGID_10_)"/><path d="m261.804 406.978c10.078-12.306 20.244-24.646 30.464-36.992 4.168-5.032.689-12.604-5.784-12.572-20.322.1-40.645.1-60.967 0-6.473-.032-9.953 7.539-5.784 12.572 10.22 12.347 20.385 24.687 30.464 36.992 3.025 3.696 8.581 3.696 11.607 0z" fill="url(#SVGID_11_)"/><path d="m406.978 250.196c-12.306-10.078-24.646-20.244-36.992-30.464-5.033-4.168-12.603-.69-12.572 5.784.1 20.323.1 40.645 0 60.968-.031 6.474 7.539 9.953 12.572 5.784 12.346-10.22 24.686-20.385 36.992-30.464 3.696-3.027 3.696-8.581 0-11.608z" fill="url(#SVGID_12_)"/><path d="m256 194.5c-33.822.02-61.479 27.677-61.5 61.5.021 33.823 27.677 61.478 61.5 61.5 33.823-.022 61.479-27.677 61.5-61.5-.021-33.822-27.677-61.479-61.5-61.5z" fill="url(#SVGID_13_)"/><path d="m256 225.25c-16.965.002-30.747 13.786-30.75 30.75.003 16.964 13.785 30.748 30.75 30.75 16.965-.002 30.747-13.786 30.75-30.75-.003-16.963-13.785-30.747-30.75-30.75z" fill="url(#SVGID_14_)"/></g></svg>