<svg id="Capa_1" enable-background="new 0 0 512 512" height="512" viewBox="0 0 512 512" width="512" xmlns="http://www.w3.org/2000/svg" xmlns:xlink="http://www.w3.org/1999/xlink"><linearGradient id="SVGID_1_" gradientUnits="userSpaceOnUse" x1="74.981" x2="437.019" y1="437.019" y2="74.981"><stop offset="0" stop-color="#ff4c4c"/><stop offset="1" stop-color="#fff200"/></linearGradient><radialGradient id="SVGID_2_" cx="256" cy="256" gradientUnits="userSpaceOnUse" r="256"><stop offset="0" stop-color="#ff4c4c"/><stop offset=".1081" stop-color="#ff544e" stop-opacity=".887"/><stop offset=".2693" stop-color="#ff6853" stop-opacity=".718"/><stop offset=".4637" stop-color="#ff895c" stop-opacity=".514"/><stop offset=".6838" stop-color="#ffb767" stop-opacity=".283"/><stop offset=".9228" stop-color="#fff276" stop-opacity=".033"/><stop offset=".9537" stop-color="#fffa78" stop-opacity="0"/></radialGradient><linearGradient id="lg1"><stop offset="0" stop-color="#ffb11d"/><stop offset="1" stop-color="#feffd6"/></linearGradient><linearGradient id="SVGID_3_" gradientUnits="userSpaceOnUse" x1="-22.227" x2="508.48" xlink:href="#lg1" y1="507.611" y2="-23.096"/><linearGradient id="SVGID_4_" gradientUnits="userSpaceOnUse" x1="25.453" x2="444.325" xlink:href="#lg1" y1="585.686" y2="166.814"/><linearGradient id="lg2"><stop offset="0" stop-color="#ffcb00"/><stop offset="1" stop-color="#fff"/></linearGradient><linearGradient id="SVGID_5_" gradientUnits="userSpaceOnUse" x1="-251.131" x2="430.889" xlink:href="#lg2" y1="594.911" y2="-87.109"/><linearGradient id="SVGID_6_" gradientUnits="userSpaceOnUse" x1="-341.921" x2="450.584" xlink:href="#lg2" y1="874.427" y2="81.923"/><linearGradient id="SVGID_7_" gradientUnits="userSpaceOnUse" x1="39.357" x2="218.957" xlink:href="#lg1" y1="231.384" y2="51.784"/><linearGradient id="SVGID_8_" gradientUnits="userSpaceOnUse" x1="12.455" x2="192.59" xlink:href="#lg1" y1="242.313" y2="62.177"/><linearGradient id="SVGID_9_" gradientUnits="userSpaceOnUse" x1="38.555" x2="216.406" xlink:href="#lg1" y1="291.229" y2="113.379"/><linearGradient id="SVGID_10_" gradientUnits="userSpaceOnUse" x1="11.475" x2="189.906" xlink:href="#lg1" y1="301.921" y2="123.49"/><linearGradient id="SVGID_11_" gradientUnits="userSpaceOnUse" x1="39.651" x2="214.595" xlink:href="#lg1" y1="350.67" y2="175.726"/><linearGradient id="SVGID_12_" gradientUnits="userSpaceOnUse" x1="12.511" x2="188.193" xlink:href="#lg1" y1="360.994" y2="185.313"/><linearGradient id="SVGID_13_" gradientUnits="userSpaceOnUse" x1="150.183" x2="327.827" xlink:href="#lg1" y1="302" y2="124.355"/><linearGradient id="SVGID_14_" gradientUnits="userSpaceOnUse" x1="120.431" x2="298.084" xlink:href="#lg1" y1="314.87" y2="137.217"/><linearGradient id="SVGID_15_" gradientUnits="userSpaceOnUse" x1="150.702" x2="327.794" xlink:href="#lg1" y1="240.37" y2="63.278"/><linearGradient id="SVGID_16_" gradientUnits="userSpaceOnUse" x1="121.219" x2="298.164" xlink:href="#lg1" y1="253.05" y2="76.106"/><linearGradient id="SVGID_17_" gradientUnits="userSpaceOnUse" x1="211.815" x2="388.93" xlink:href="#lg1" y1="301.776" y2="124.66"/><linearGradient id="SVGID_18_" gradientUnits="userSpaceOnUse" x1="182.264" x2="359.01" xlink:href="#lg1" y1="314.334" y2="137.588"/><linearGradient id="SVGID_19_" gradientUnits="userSpaceOnUse" x1="212.251" x2="387.659" xlink:href="#lg1" y1="239.658" y2="64.25"/><linearGradient id="SVGID_20_" gradientUnits="userSpaceOnUse" x1="183.022" x2="357.857" xlink:href="#lg1" y1="251.804" y2="76.969"/><linearGradient id="SVGID_21_" gradientUnits="userSpaceOnUse" x1="273.569" x2="449.868" xlink:href="#lg1" y1="301.571" y2="125.272"/><linearGradient id="SVGID_22_" gradientUnits="userSpaceOnUse" x1="244.298" x2="419.797" xlink:href="#lg1" y1="313.828" y2="138.33"/><linearGradient id="SVGID_23_" gradientUnits="userSpaceOnUse" x1="273.919" x2="447.362" xlink:href="#lg1" y1="239.275" y2="65.832"/><linearGradient id="SVGID_24_" gradientUnits="userSpaceOnUse" x1="245.029" x2="417.409" xlink:href="#lg1" y1="250.891" y2="78.511"/><linearGradient id="SVGID_25_" gradientUnits="userSpaceOnUse" x1="335.445" x2="510.64" xlink:href="#lg1" y1="301.384" y2="126.188"/><linearGradient id="SVGID_26_" gradientUnits="userSpaceOnUse" x1="306.534" x2="480.445" xlink:href="#lg1" y1="313.351" y2="139.44"/><linearGradient id="SVGID_27_" gradientUnits="userSpaceOnUse" x1="334.186" x2="512.237" xlink:href="#lg1" y1="363.077" y2="185.026"/><linearGradient id="SVGID_28_" gradientUnits="userSpaceOnUse" x1="304.968" x2="482.157" xlink:href="#lg1" y1="375.767" y2="198.578"/><linearGradient id="SVGID_29_" gradientUnits="userSpaceOnUse" x1="335.71" x2="506.896" xlink:href="#lg1" y1="239.214" y2="68.029"/><linearGradient id="SVGID_30_" gradientUnits="userSpaceOnUse" x1="307.235" x2="476.823" xlink:href="#lg1" y1="250.318" y2="80.73"/><linearGradient id="SVGID_31_" gradientUnits="userSpaceOnUse" x1="100.592" x2="279.082" xlink:href="#lg1" y1="230.091" y2="51.6"/><linearGradient id="SVGID_32_" gradientUnits="userSpaceOnUse" x1="73.74" x2="252.453" xlink:href="#lg1" y1="240.51" y2="61.798"/><linearGradient id="SVGID_33_" gradientUnits="userSpaceOnUse" x1="99.949" x2="277.841" xlink:href="#lg1" y1="290.964" y2="113.072"/><linearGradient id="SVGID_34_" gradientUnits="userSpaceOnUse" x1="72.883" x2="251.098" xlink:href="#lg1" y1="301.349" y2="123.135"/><linearGradient id="SVGID_35_" gradientUnits="userSpaceOnUse" x1="10.639" x2="693.302" xlink:href="#lg1" y1="533.317" y2="-149.346"/><linearGradient id="SVGID_36_" gradientUnits="userSpaceOnUse" x1="-81.357" x2="578.092" xlink:href="#lg1" y1="608.544" y2="-50.905"/><g><circle cx="256" cy="256" fill="url(#SVGID_1_)" r="256"/><circle cx="256" cy="256" fill="url(#SVGID_2_)" r="256"/><path d="m194.519 240.664c-43.612 25.615-87.2 51.016-129.781 75.336.463 15 1.1 30 1.91 45 .923 16.543 15.322 30.47 31.852 30.994 32.5.983 65 1.661 97.5 2.036-1.111-51.122-1.605-102.245-1.481-153.366z" fill="url(#SVGID_3_)"/><path d="m163.778 240.711c-.148 40.77.296 81.539 1.333 122.309.459 16.873 14.357 30.809 30.889 31.009l1.287.015c3.978.045 7.76-1.533 10.53-4.387 2.039-2.101 4.083-4.204 6.132-6.309 2.783-2.86 6.601-4.452 10.601-4.432 15.941.085 31.882.105 47.823.061 3.999-.011 7.825 1.593 10.623 4.462 2.06 2.111 4.115 4.222 6.165 6.331 2.785 2.865 6.575 4.455 10.554 4.421 37.929-.318 75.858-1.051 113.787-2.198 16.53-.522 30.929-14.451 31.852-30.994.81-15 1.447-30 1.91-45-93.587-23.519-188.795-49.984-283.486-75.288z" fill="url(#SVGID_4_)"/><path d="m98.5 120.006c-16.53.524-30.929 14.451-31.852 30.994-2.971 55-3.607 110-1.91 165 33.152.52 66.304.905 99.456 1.155 9.238-66.174 20.361-132.61 31.806-199.184-32.5.374-65 1.053-97.5 2.035z" fill="url(#SVGID_5_)"/><path d="m413.5 120.006c-72.5-2.192-145-2.871-217.5-2.036-16.532.2-30.43 14.136-30.889 31.009-1.426 56.058-1.731 112.116-.917 168.175 94.356.71 188.711.326 283.067-1.155 1.698-55 1.061-110-1.91-165-.922-16.541-15.321-30.469-31.851-30.993z" fill="url(#SVGID_6_)"/><path d="m81.437 158.126c-.231 5.019-.444 10.038-.639 15.058-.163 4.158 3.136 7.463 7.35 7.394 10.173-.176 20.346-.336 30.519-.48 4.215-.058 7.718-3.507 7.836-7.706.144-5.067.302-10.135.472-15.202-15.179.265-30.359.577-45.538.936z" fill="url(#SVGID_7_)"/><path d="m120.292 134.555c-10.052.23-20.105.486-30.157.768-4.162.118-7.73 3.588-7.952 7.745-.266 5.019-.515 10.038-.745 15.058-.193 4.156 3.071 7.453 7.271 7.367 10.139-.211 20.278-.403 30.417-.576 4.201-.072 7.71-3.529 7.85-7.727.17-5.067.354-10.135.551-15.202.16-4.198-3.073-7.529-7.235-7.433z" fill="url(#SVGID_8_)"/><path d="m79.52 218.356c-.089 5.019-.16 10.038-.213 15.058-.045 4.156 3.374 7.515 7.619 7.501 10.247-.035 20.494-.068 30.741-.096 4.245-.013 7.702-3.422 7.734-7.622.039-5.067.092-10.135.157-15.202-15.346.103-30.692.223-46.038.361z" fill="url(#SVGID_9_)"/><path d="m118.292 195.277c-10.201.115-20.401.243-30.602.384-4.224.061-7.747 3.48-7.85 7.637-.124 5.019-.231 10.038-.319 15.058-.074 4.156 3.318 7.501 7.558 7.475 10.238-.07 20.475-.134 30.713-.192 4.241-.021 7.713-3.443 7.767-7.643.066-5.067.144-10.135.236-15.202.074-4.198-3.279-7.565-7.503-7.517z" fill="url(#SVGID_10_)"/><path d="m79.307 278.586c.053 5.019.124 10.038.213 15.058.074 4.156 3.58 7.566 7.813 7.61 10.222.106 20.444.202 30.667.288 4.234.037 7.612-3.34 7.558-7.538-.066-5.067-.118-10.135-.157-15.202-15.365-.061-30.729-.133-46.094-.216z" fill="url(#SVGID_11_)"/><path d="m117.625 256c-10.25 0-20.5 0-30.75 0-4.245.001-7.689 3.373-7.674 7.529.018 5.019.053 10.038.106 15.058.044 4.156 3.532 7.553 7.771 7.583 10.238.07 20.475.134 30.713.192 4.24.025 7.641-3.36 7.609-7.559-.039-5.067-.066-10.135-.079-15.202-.01-4.198-3.45-7.602-7.696-7.601z" fill="url(#SVGID_12_)"/><path d="m202.289 217.636c-.027 5.115-.049 10.23-.065 15.345-.014 4.236 3.42 7.669 7.665 7.665 10.247-.01 20.494-.016 30.741-.019 4.245-.002 7.687-3.444 7.688-7.689.002-5.125.005-10.25.009-15.375-15.346.007-30.692.031-46.038.073z" fill="url(#SVGID_13_)"/><path d="m240.699 194.51c-10.201.012-20.401.039-30.602.077-4.224.016-7.679 3.467-7.711 7.704-.038 5.115-.07 10.23-.097 15.346-.023 4.236 3.401 7.665 7.642 7.657 10.238-.019 20.475-.032 30.713-.038 4.241-.002 7.681-3.444 7.683-7.691.004-5.125.008-10.249.014-15.375.004-4.246-3.418-7.688-7.642-7.68z" fill="url(#SVGID_14_)"/><path d="m202.872 156.253c-.07 5.115-.135 10.23-.194 15.346-.05 4.237 3.33 7.655 7.545 7.634 10.173-.048 20.346-.08 30.519-.096 4.215-.006 7.636-3.451 7.642-7.696.008-5.125.018-10.25.028-15.375-15.181.016-30.361.078-45.54.187z" fill="url(#SVGID_15_)"/><path d="m240.921 133.019c-10.052.025-20.105.077-30.157.154-4.162.033-7.596 3.497-7.665 7.735-.081 5.115-.157 10.23-.227 15.345-.06 4.238 3.302 7.649 7.503 7.626 10.139-.057 20.278-.096 30.417-.115 4.201-.006 7.612-3.453 7.619-7.698.01-5.125.021-10.25.032-15.375.007-4.244-3.36-7.682-7.522-7.672z" fill="url(#SVGID_16_)"/><path d="m263.673 217.564c.004 5.125.007 10.25.009 15.375.002 4.246 3.443 7.688 7.688 7.689 10.247.003 20.494.009 30.741.019 4.245.003 7.679-3.429 7.665-7.665-.016-5.115-.038-10.23-.065-15.345-15.346-.043-30.692-.067-46.038-.073z" fill="url(#SVGID_17_)"/><path d="m301.903 194.586c-10.201-.038-20.401-.064-30.602-.077-4.224-.006-7.646 3.435-7.642 7.68.005 5.125.01 10.25.014 15.375.003 4.244 3.443 7.689 7.683 7.691 10.238.006 20.475.019 30.713.038 4.241.01 7.665-3.421 7.642-7.657-.027-5.115-.059-10.23-.097-15.346-.032-4.234-3.487-7.689-7.711-7.704z" fill="url(#SVGID_18_)"/><path d="m263.59 156.066c.01 5.125.019 10.25.028 15.375.006 4.243 3.427 7.691 7.642 7.696 10.173.016 20.346.048 30.519.096 4.215.019 7.595-3.397 7.545-7.634-.059-5.115-.124-10.23-.194-15.346-15.181-.109-30.361-.171-45.54-.187z" fill="url(#SVGID_19_)"/><path d="m301.236 133.173c-10.052-.077-20.105-.128-30.157-.154-4.162-.01-7.529 3.428-7.521 7.673.012 5.125.022 10.25.032 15.375.007 4.245 3.418 7.691 7.619 7.698 10.139.019 20.278.058 30.417.115 4.201.023 7.563-3.391 7.503-7.626-.07-5.115-.146-10.23-.227-15.345-.07-4.24-3.504-7.703-7.666-7.736z" fill="url(#SVGID_20_)"/><path d="m325.057 217.684c.035 5.109.063 10.218.083 15.326.017 4.232 3.467 7.669 7.711 7.675 10.247.016 20.494.035 30.741.057 4.244.009 7.671-3.394 7.642-7.602-.035-5.08-.081-10.16-.139-15.24-15.346-.09-30.692-.162-46.038-.216z" fill="url(#SVGID_21_)"/><path d="m363.106 194.97c-10.201-.09-20.401-.166-30.602-.23-4.224-.027-7.611 3.385-7.572 7.617.049 5.109.09 10.218.125 15.327.028 4.233 3.484 7.673 7.725 7.686 10.238.032 20.475.07 30.713.115 4.241.018 7.649-3.378 7.6-7.585-.058-5.08-.127-10.159-.208-15.24-.068-4.206-3.556-7.65-7.781-7.69z" fill="url(#SVGID_22_)"/><path d="m324.307 156.378c.09 5.109.174 10.218.25 15.327.062 4.234 3.524 7.688 7.739 7.72 10.173.08 20.346.176 30.519.288 4.215.046 7.554-3.326 7.447-7.533-.127-5.08-.266-10.159-.417-15.24-15.179-.234-30.358-.421-45.538-.562z" fill="url(#SVGID_23_)"/><path d="m361.551 133.941c-10.052-.179-20.105-.333-30.157-.461-4.162-.053-7.462 3.338-7.378 7.572.104 5.109.201 10.218.292 15.326.073 4.231 3.533 7.693 7.734 7.731 10.139.096 20.278.211 30.417.346 4.201.053 7.513-3.309 7.387-7.516-.15-5.08-.313-10.16-.486-15.24-.146-4.206-3.647-7.684-7.809-7.758z" fill="url(#SVGID_24_)"/><path d="m386.442 217.996c.066 5.067.118 10.135.157 15.202.033 4.199 3.489 7.608 7.734 7.622 10.247.029 20.494.061 30.741.096 4.244.013 7.663-3.347 7.619-7.501-.053-5.019-.124-10.038-.213-15.058-15.346-.139-30.692-.259-46.038-.361z" fill="url(#SVGID_25_)"/><path d="m424.31 195.661c-10.201-.141-20.401-.269-30.602-.384-4.225-.047-7.578 3.317-7.503 7.517.092 5.067.171 10.135.236 15.202.054 4.198 3.525 7.618 7.767 7.643 10.238.058 20.475.122 30.713.192 4.241.027 7.633-3.319 7.558-7.475-.089-5.019-.195-10.038-.319-15.058-.103-4.157-3.626-7.575-7.85-7.637z" fill="url(#SVGID_26_)"/><path d="m386.599 278.802c-.039 5.067-.092 10.135-.157 15.202-.054 4.199 3.325 7.576 7.558 7.538 10.222-.086 20.444-.183 30.667-.288 4.233-.044 7.739-3.454 7.813-7.61.089-5.019.16-10.038.213-15.058-15.365.083-30.729.155-46.094.216z" fill="url(#SVGID_27_)"/><path d="m425.125 256c-10.25 0-20.5 0-30.75 0-4.246 0-7.686 3.402-7.697 7.601-.013 5.067-.039 10.135-.079 15.202-.032 4.198 3.369 7.585 7.609 7.559 10.238-.058 20.475-.122 30.713-.192 4.24-.031 7.727-3.427 7.771-7.583.053-5.019.089-10.038.107-15.058.015-4.158-3.429-7.528-7.674-7.529z" fill="url(#SVGID_28_)"/><path d="m385.025 157.189c.171 5.067.328 10.135.472 15.202.118 4.198 3.621 7.646 7.836 7.706 10.173.144 20.346.304 30.519.48 4.214.071 7.513-3.236 7.35-7.394-.195-5.019-.408-10.038-.639-15.058-15.179-.358-30.359-.67-45.538-.936z" fill="url(#SVGID_29_)"/><path d="m421.866 135.323c-10.053-.282-20.105-.538-30.157-.768-4.162-.095-7.395 3.234-7.234 7.433.197 5.067.38 10.135.551 15.202.14 4.199 3.649 7.657 7.85 7.727 10.139.173 20.278.365 30.417.576 4.201.085 7.464-3.209 7.271-7.367-.231-5.019-.479-10.038-.745-15.058-.223-4.156-3.792-7.627-7.953-7.745z" fill="url(#SVGID_30_)"/><path d="m142.155 156.94c-.15 5.08-.289 10.16-.417 15.24-.107 4.208 3.233 7.58 7.447 7.533 10.173-.112 20.346-.208 30.519-.288 4.215-.031 7.677-3.488 7.739-7.72.076-5.109.16-10.218.25-15.327-15.18.141-30.359.328-45.538.562z" fill="url(#SVGID_31_)"/><path d="m180.606 133.48c-10.052.128-20.105.282-30.157.461-4.162.076-7.663 3.553-7.808 7.759-.174 5.08-.336 10.16-.486 15.24-.126 4.206 3.186 7.571 7.387 7.516 10.139-.135 20.278-.25 30.417-.346 4.201-.039 7.661-3.498 7.734-7.731.09-5.109.188-10.218.292-15.326.084-4.233-3.216-7.627-7.379-7.573z" fill="url(#SVGID_32_)"/><path d="m140.905 217.9c-.058 5.08-.104 10.16-.139 15.24-.029 4.209 3.397 7.61 7.642 7.602 10.247-.022 20.494-.041 30.741-.057 4.245-.005 7.694-3.443 7.711-7.675.021-5.109.049-10.218.083-15.326-15.346.054-30.692.126-46.038.216z" fill="url(#SVGID_33_)"/><path d="m179.495 194.74c-10.201.064-20.401.141-30.602.23-4.224.037-7.713 3.482-7.781 7.69-.081 5.08-.15 10.16-.208 15.24-.049 4.208 3.359 7.604 7.6 7.585 10.238-.045 20.475-.083 30.713-.115 4.241-.013 7.697-3.453 7.725-7.686.035-5.109.076-10.218.125-15.327.04-4.232-3.347-7.645-7.572-7.617z" fill="url(#SVGID_34_)"/><path d="m140.766 278.86c.035 5.08.081 10.16.139 15.24.049 4.208 3.529 7.642 7.762 7.672 71.556.47 143.111.47 214.667 0 4.234-.029 7.714-3.465 7.762-7.672.058-5.08.104-10.16.139-15.24-76.824.27-153.646.27-230.469 0z" fill="url(#SVGID_35_)"/><path d="m363.625 256c-71.75 0-143.5 0-215.25 0-4.246 0-7.689 3.412-7.679 7.62.012 5.08.035 10.16.069 15.24.029 4.208 3.499 7.635 7.739 7.655 71.664.314 143.327.314 214.991 0 4.24-.02 7.71-3.448 7.739-7.655.035-5.08.058-10.16.069-15.24.011-4.207-3.433-7.62-7.678-7.62z" fill="url(#SVGID_36_)"/></g></svg>