<svg id="Capa_1" enable-background="new 0 0 512 512" height="512" viewBox="0 0 512 512" width="512" xmlns="http://www.w3.org/2000/svg" xmlns:xlink="http://www.w3.org/1999/xlink"><linearGradient id="SVGID_1_" gradientUnits="userSpaceOnUse" x1="74.981" x2="437.019" y1="437.019" y2="74.981"><stop offset="0" stop-color="#0072ff"/><stop offset="1" stop-color="#00e5a1"/></linearGradient><radialGradient id="SVGID_2_" cx="256" cy="256" gradientUnits="userSpaceOnUse" r="256"><stop offset="0" stop-color="#0072ff"/><stop offset=".1353" stop-color="#0a7dfd" stop-opacity=".865"/><stop offset=".3702" stop-color="#2599f6" stop-opacity=".63"/><stop offset=".6764" stop-color="#50c7ec" stop-opacity=".324"/><stop offset="1" stop-color="#85ffe0" stop-opacity="0"/></radialGradient><linearGradient id="lg1"><stop offset="0" stop-color="#00babd"/><stop offset=".206" stop-color="#36c9cb"/><stop offset=".4863" stop-color="#79dbdc"/><stop offset=".7216" stop-color="#aae9e9"/><stop offset=".8998" stop-color="#c9f1f1"/><stop offset="1" stop-color="#d4f4f4"/></linearGradient><linearGradient id="SVGID_3_" gradientUnits="userSpaceOnUse" x1="208.358" x2="349.962" xlink:href="#lg1" y1="444.805" y2="303.201"/><linearGradient id="SVGID_4_" gradientUnits="userSpaceOnUse" x1="256" x2="256" y1="343.018" y2="398.236"><stop offset="0" stop-color="#00babd"/><stop offset=".1007" stop-color="#07bcbf" stop-opacity=".897"/><stop offset=".6764" stop-color="#2ec7c9" stop-opacity=".308"/><stop offset=".9777" stop-color="#3dcbcd" stop-opacity="0"/></linearGradient><linearGradient id="lg2"><stop offset="0" stop-color="#00babd"/><stop offset=".2895" stop-color="#41ccce"/><stop offset=".7805" stop-color="#aae9e9"/><stop offset="1" stop-color="#d4f4f4"/></linearGradient><linearGradient id="SVGID_5_" gradientUnits="userSpaceOnUse" x1="78.492" x2="383.559" xlink:href="#lg2" y1="674.112" y2="369.045"/><linearGradient id="SVGID_6_" gradientUnits="userSpaceOnUse" x1="66.079" x2="363.037" xlink:href="#lg2" y1="572.106" y2="275.148"/><linearGradient id="SVGID_7_" gradientUnits="userSpaceOnUse" x1="-12.662" x2="335.431" y1="375.56" y2="27.468"><stop offset="0" stop-color="#00babd"/><stop offset=".1571" stop-color="#1bc2c4"/><stop offset=".4961" stop-color="#62d5d6"/><stop offset=".988" stop-color="#d1f3f3"/><stop offset="1" stop-color="#d4f4f4"/></linearGradient><linearGradient id="SVGID_8_" gradientUnits="userSpaceOnUse" x1="65.531" x2="410.99" xlink:href="#lg1" y1="469.116" y2="123.657"/><radialGradient id="SVGID_9_" cx="256" cy="333.712" gradientUnits="userSpaceOnUse" r="15.201"><stop offset="0" stop-color="#fff"/><stop offset="1" stop-color="#85ffe0"/></radialGradient><linearGradient id="SVGID_10_" gradientUnits="userSpaceOnUse" x1="116.891" x2="382.627" y1="358.985" y2="93.25"><stop offset="0" stop-color="#85ffe0"/><stop offset=".1143" stop-color="#a1ffe7"/><stop offset=".2819" stop-color="#c3fff0"/><stop offset=".4534" stop-color="#ddfff6"/><stop offset=".628" stop-color="#f0fffb"/><stop offset=".8076" stop-color="#fbfffe"/><stop offset="1" stop-color="#fff"/></linearGradient><linearGradient id="SVGID_11_" gradientUnits="userSpaceOnUse" x1="9.235" x2="318.775" y1="466.641" y2="157.102"><stop offset="0" stop-color="#00e5a1"/><stop offset=".651" stop-color="#a9f6df"/><stop offset="1" stop-color="#fff"/></linearGradient><linearGradient id="SVGID_12_" gradientUnits="userSpaceOnUse" x1="50.555" x2="248.172" y1="362.391" y2="164.775"><stop offset="0" stop-color="#00e5a1"/><stop offset=".5832" stop-color="#7eeed2"/><stop offset="1" stop-color="#d4f4f4"/></linearGradient><g><circle cx="256" cy="256" fill="url(#SVGID_1_)" r="256"/><circle cx="256" cy="256" fill="url(#SVGID_2_)" r="256"/><path d="m295.276 388.751c-3.401-10.668-6.846-21.345-10.322-32.029-9.594-10.209-19.255-20.447-28.954-30.698-9.699 10.25-19.359 20.489-28.954 30.698-3.476 10.683-6.921 21.361-10.322 32.029-2.666 8.344-10.268 13.922-18.912 13.824.043 2.557.087 5.113.133 7.67 38.704.456 77.407.456 116.111 0 .046-2.557.09-5.113.133-7.67-8.645.097-16.247-5.477-18.913-13.824z" fill="url(#SVGID_3_)"/><path d="m295.276 388.751c-3.401-10.668-6.846-21.345-10.322-32.029-9.594-10.209-19.255-20.447-28.954-30.698-9.699 10.25-19.359 20.489-28.954 30.698-3.476 10.683-6.921 21.361-10.322 32.029-2.666 8.344-10.268 13.922-18.912 13.824.043 2.557.087 5.113.133 7.67 38.704.456 77.407.456 116.111 0 .046-2.557.09-5.113.133-7.67-8.645.097-16.247-5.477-18.913-13.824z" fill="url(#SVGID_4_)"/><path d="m369.031 401.676c-18.281.396-36.562.696-54.843.9-.086 5.113-.177 10.227-.273 15.339 18.195-.226 36.39-.559 54.585-.999 4.14-.101 7.632-3.596 7.791-7.798.158-4.203-3.097-7.53-7.26-7.442z" fill="url(#SVGID_5_)"/><path d="m321.573 410.151c.087-4.232-3.221-7.621-7.385-7.575-57.073.636-114.146.337-171.219-.9-4.163-.089-7.418 3.24-7.26 7.442.158 4.203 3.651 7.697 7.791 7.798 56.805 1.372 113.61 1.705 170.415.999 4.14-.052 7.572-3.534 7.658-7.764z" fill="url(#SVGID_6_)"/><path d="m88.5 111.738c-11.03.407-20.553 9.73-21.159 20.762-3.627 67.333-4.457 134.667-2.492 202 .329 11.035 9.773 20.208 20.985 20.459 30.478.65 60.955 1.126 91.433 1.427-1.247-82.339-.836-164.678 1.234-247.017-30.001.5-60.001 1.289-90.001 2.369z" fill="url(#SVGID_7_)"/><path d="m156.601 335.795c-1.022-68.562-.59-137.123 1.296-205.685.322-11.24 9.572-20.552 20.603-20.741 81.667-1.359 163.333-.57 245 2.368 11.03.407 20.552 9.73 21.159 20.762 3.627 67.333 4.457 134.667 2.492 202-.329 11.035-9.772 20.208-20.984 20.459-82.967 1.771-165.934 2.246-248.9 1.427-11.213-.112-20.491-9.349-20.666-20.59z" fill="url(#SVGID_8_)"/><path d="m263.649 333.71c-.005 4.243-3.431 7.691-7.649 7.69-4.218.001-7.643-3.445-7.649-7.69-.005-4.245 3.419-7.685 7.649-7.685 4.229 0 7.654 3.439 7.649 7.685z" fill="url(#SVGID_9_)"/><path d="m112.905 279.678c-11.471-51.265-21.822-102.205-30.22-152.7 115.543-3.837 231.086-3.837 346.628 0 3.121 60.899 4.154 121.799 3.098 182.699-106.232-8.865-212.837-19.557-319.506-29.999z" fill="url(#SVGID_10_)"/><path d="m96.191 294.738c-5.906-28.383-11.437-56.665-16.465-84.83.556-27.644 1.543-55.287 2.959-82.93 100.361 76.455 224.027 143.782 349.726 182.699.001.054-117.258 1.271-211.539.935-41.511-5.212-83.082-10.556-124.681-15.874z" fill="url(#SVGID_11_)"/><path d="m79.966 199.075c-.892 36.867-1.018 73.734-.379 110.601 0 .005 76.747.899 156.625.961-33.222-57.912-89.915-100.069-156.246-111.562z" fill="url(#SVGID_12_)"/></g></svg>