<svg id="Capa_1" enable-background="new 0 0 512 512" height="512" viewBox="0 0 512 512" width="512" xmlns="http://www.w3.org/2000/svg" xmlns:xlink="http://www.w3.org/1999/xlink"><linearGradient id="SVGID_1_" gradientUnits="userSpaceOnUse" x1="74.981" x2="437.02" y1="437.019" y2="74.98"><stop offset="0" stop-color="#ff2f2b"/><stop offset="1" stop-color="#ffbdab"/></linearGradient><radialGradient id="SVGID_2_" cx="256.001" cy="256" gradientUnits="userSpaceOnUse" r="256"><stop offset="0" stop-color="#ff2f2b"/><stop offset=".1344" stop-color="#ff3935" stop-opacity=".866"/><stop offset=".3677" stop-color="#ff564e" stop-opacity=".632"/><stop offset=".6719" stop-color="#ff8478" stop-opacity=".328"/><stop offset="1" stop-color="#ffbdab" stop-opacity="0"/></radialGradient><linearGradient id="lg1"><stop offset="0" stop-color="#ffa9d4"/><stop offset=".0183" stop-color="#ffaad5"/><stop offset=".6661" stop-color="#ffd3e9"/><stop offset="1" stop-color="#ffe3f1"/></linearGradient><linearGradient id="SVGID_3_" gradientUnits="userSpaceOnUse" x1="214.688" x2="446.714" xlink:href="#lg1" y1="297.311" y2="65.285"/><linearGradient id="SVGID_4_" gradientTransform="matrix(0 1 -1 0 512 0)" gradientUnits="userSpaceOnUse" x1="524.432" x2="197.556" xlink:href="#lg1" y1="485.312" y2="158.437"/><linearGradient id="lg2"><stop offset="0" stop-color="#ffa9d4"/><stop offset=".2953" stop-color="#ffc6e3"/><stop offset=".7601" stop-color="#ffeff7"/><stop offset="1" stop-color="#fff"/></linearGradient><linearGradient id="SVGID_5_" gradientTransform="matrix(0 1 -1 0 512 0)" gradientUnits="userSpaceOnUse" x1="590.306" x2="128.859" xlink:href="#lg2" y1="473.057" y2="11.61"/><linearGradient id="lg3"><stop offset="0" stop-color="#ff2f2b"/><stop offset=".2856" stop-color="#ff6168"/><stop offset=".6256" stop-color="#ff98aa"/><stop offset=".873" stop-color="#ffbbd3"/><stop offset="1" stop-color="#ffc8e3"/></linearGradient><linearGradient id="SVGID_6_" gradientUnits="userSpaceOnUse" x1="352.61" x2="398.102" xlink:href="#lg3" y1="347.651" y2="302.158"/><linearGradient id="SVGID_7_" gradientUnits="userSpaceOnUse" x1="331.859" x2="377.438" xlink:href="#lg3" y1="368.276" y2="322.697"/><linearGradient id="SVGID_8_" gradientUnits="userSpaceOnUse" x1="372.53" x2="418.196" xlink:href="#lg3" y1="367.576" y2="321.91"/><linearGradient id="SVGID_9_" gradientUnits="userSpaceOnUse" x1="351.692" x2="397.44" xlink:href="#lg3" y1="388.262" y2="342.514"/><linearGradient id="SVGID_10_" gradientUnits="userSpaceOnUse" x1="94.372" x2="172.836" xlink:href="#lg3" y1="381.422" y2="302.958"/><linearGradient id="SVGID_11_" gradientUnits="userSpaceOnUse" x1="95.728" x2="389.24" xlink:href="#lg2" y1="333.05" y2="39.538"/><linearGradient id="SVGID_12_" gradientTransform="matrix(0 1 -1 0 512 0)" gradientUnits="userSpaceOnUse" x1="329.035" x2="112.084" xlink:href="#lg2" y1="352.509" y2="135.558"/><linearGradient id="lg4"><stop offset="0" stop-color="#ff91bb"/><stop offset=".2665" stop-color="#fac"/><stop offset=".7504" stop-color="#ffd3e7"/><stop offset="1" stop-color="#ffe3f1"/></linearGradient><linearGradient id="SVGID_13_" gradientUnits="userSpaceOnUse" x1="156.128" x2="397.506" xlink:href="#lg4" y1="270.119" y2="28.741"/><linearGradient id="SVGID_14_" gradientUnits="userSpaceOnUse" x1="138.287" x2="299.978" xlink:href="#lg3" y1="272.183" y2="110.493"/><linearGradient id="SVGID_15_" gradientUnits="userSpaceOnUse" x1="14.927" x2="367.152" xlink:href="#lg3" y1="410.96" y2="58.736"/><linearGradient id="SVGID_16_" gradientUnits="userSpaceOnUse" x1="166.453" x2="382.878" xlink:href="#lg4" y1="431.623" y2="215.199"/><linearGradient id="SVGID_17_" gradientUnits="userSpaceOnUse" x1="154.331" x2="313.447" xlink:href="#lg3" y1="444.054" y2="284.939"/><linearGradient id="SVGID_18_" gradientUnits="userSpaceOnUse" x1="62.764" x2="350.657" xlink:href="#lg3" y1="535.621" y2="247.728"/><linearGradient id="lg5"><stop offset="0" stop-color="#ffc8e3"/><stop offset=".3492" stop-color="#ffb8d8"/><stop offset="1" stop-color="#ff91bb"/></linearGradient><radialGradient id="SVGID_19_" cx="401.941" cy="225.809" gradientUnits="userSpaceOnUse" r="27.385" xlink:href="#lg5"/><radialGradient id="SVGID_20_" cx="371.217" cy="225.599" gradientUnits="userSpaceOnUse" r="27.479" xlink:href="#lg5"/><radialGradient id="SVGID_21_" cx="401.577" cy="195.618" gradientUnits="userSpaceOnUse" r="27.353" xlink:href="#lg5"/><radialGradient id="SVGID_22_" cx="370.929" cy="195.197" gradientUnits="userSpaceOnUse" r="27.446" xlink:href="#lg5"/><radialGradient id="SVGID_23_" cx="400.97" cy="165.428" gradientUnits="userSpaceOnUse" r="27.3" xlink:href="#lg5"/><radialGradient id="SVGID_24_" cx="370.45" cy="164.796" gradientUnits="userSpaceOnUse" r="27.391" xlink:href="#lg5"/><linearGradient id="lg6"><stop offset="0" stop-color="#ffb5d3"/><stop offset=".3245" stop-color="#ffa5c6"/><stop offset=".9541" stop-color="#ff7ca5"/><stop offset="1" stop-color="#ff79a2"/></linearGradient><radialGradient id="SVGID_25_" cx="140.783" cy="225.599" gradientUnits="userSpaceOnUse" r="27.479" xlink:href="#lg6"/><radialGradient id="SVGID_26_" cx="110.059" cy="225.809" gradientUnits="userSpaceOnUse" r="27.385" xlink:href="#lg6"/><radialGradient id="SVGID_27_" cx="141.071" cy="195.197" gradientUnits="userSpaceOnUse" r="27.446" xlink:href="#lg6"/><radialGradient id="SVGID_28_" cx="110.423" cy="195.618" gradientUnits="userSpaceOnUse" r="27.353" xlink:href="#lg6"/><radialGradient id="SVGID_29_" cx="141.55" cy="164.796" gradientUnits="userSpaceOnUse" r="27.391" xlink:href="#lg6"/><radialGradient id="SVGID_30_" cx="111.03" cy="165.428" gradientUnits="userSpaceOnUse" r="27.3" xlink:href="#lg6"/><g><circle cx="256" cy="256" fill="url(#SVGID_1_)" r="256"/><circle cx="256" cy="256" fill="url(#SVGID_2_)" r="256"/><path d="m409.742 263.533c-51.29 20.19-102.708 41.155-153.742 61.655-51.034-20.5-102.452-41.465-153.742-61.655-4.245-.011-7.696-3.382-7.695-7.533 0-4.15 3.45-7.524 7.695-7.533 51.29-20.19 102.708-41.155 153.742-61.655 51.034 20.5 102.452 41.465 153.742 61.655 4.246.01 7.696 3.384 7.695 7.533 0 4.148-3.449 7.523-7.695 7.533z" fill="url(#SVGID_3_)"/><path d="m163.755 263.632c-20.499-.024-40.998-.058-61.497-.099-8.49-.009-15.364 6.688-15.304 14.967.293 41.667 1.399 83.333 3.32 125 .388 8.277 7.45 15.329 15.726 15.705 71.667 3.208 143.333 4.117 215 2.727-50.633-51.756-104.224-105.662-157.245-158.3z" fill="url(#SVGID_4_)"/><path d="m409.742 263.533c-81.996.165-163.992.198-245.987.099.573 86.667 72.411 159.869 157.245 158.3 28.333-.549 56.667-1.459 85-2.727 8.242-.375 15.34-7.463 15.726-15.705 1.92-41.667 3.027-83.333 3.32-125 .059-8.243-6.848-14.978-15.304-14.967z" fill="url(#SVGID_5_)"/><path d="m388.73 321.616c-.09 5.573-4.739 10.175-10.369 10.267-5.63.094-10.124-4.379-10.051-9.98.074-5.602 4.699-10.188 10.346-10.255 5.647-.065 10.163 4.396 10.074 9.968z" fill="url(#SVGID_6_)"/><path d="m367.998 342.18c-.099 5.597-4.74 10.224-10.352 10.322s-10.09-4.387-10.011-10.01c.078-5.623 4.701-10.233 10.333-10.306 5.632-.076 10.129 4.397 10.03 9.994z" fill="url(#SVGID_7_)"/><path d="m408.724 341.369c-.135 5.544-4.809 10.159-10.42 10.296-5.613.138-10.057-4.281-9.943-9.859.114-5.579 4.76-10.174 10.394-10.281 5.632-.105 10.104 4.3 9.969 9.844z" fill="url(#SVGID_8_)"/><path d="m387.893 361.995c-.145 5.574-4.806 10.217-10.396 10.359s-10.014-4.294-9.896-9.896c.119-5.601 4.757-10.226 10.373-10.339 5.617-.114 10.064 4.304 9.919 9.876z" fill="url(#SVGID_9_)"/><path d="m159.131 332.253c-5.099-.065-10.197-.136-15.295-.212-.078-5.069-.148-10.139-.211-15.208-.034-2.799-2.347-5.096-5.171-5.126-3.407-.039-6.814-.079-10.221-.121-2.823-.035-5.08 2.195-5.04 4.983.074 5.047.157 10.095.249 15.142-5.098-.09-10.197-.184-15.295-.284-2.816-.054-5.051 2.147-4.988 4.92.076 3.347.156 6.696.241 10.043.071 2.774 2.407 5.08 5.214 5.15 5.082.126 10.164.247 15.247.36.117 5.048.243 10.095.378 15.143.075 2.786 2.405 5.11 5.201 5.182 3.375.088 6.75.172 10.125.253 2.796.068 5.008-2.15 4.945-4.95-.115-5.069-.221-10.139-.32-15.208 5.082.096 10.165.185 15.247.268 2.806.046 5.046-2.196 5.004-5.007-.051-3.392-.099-6.783-.145-10.175-.038-2.811-2.349-5.117-5.165-5.153z" fill="url(#SVGID_10_)"/><path d="m265.622 89.451c-53.207-.152-106.415.962-159.622 3.344-8.242.376-15.34 7.462-15.726 15.705-1.92 41.667-3.026 83.333-3.32 125-.059 8.244 6.848 14.979 15.304 14.967 102.495-.207 204.99-.207 307.484 0 8.456.011 15.363-6.725 15.304-14.967-.085-12.036-.237-24.073-.458-36.11-53.553-35.55-107.071-72.297-158.966-107.939z" fill="url(#SVGID_11_)"/><path d="m424.588 197.39c-.543-29.63-1.497-59.26-2.862-88.89-.386-8.242-7.483-15.328-15.726-15.705-46.793-2.095-93.585-3.209-140.378-3.344 32.695 56.771 91.087 97.639 158.966 107.939z" fill="url(#SVGID_12_)"/><path d="m165.246 121.173c-.715 32.223-1.174 64.445-1.376 96.668-.054 8.426 6.803 15.234 15.291 15.212 51.226-.155 102.452-.155 153.678 0 8.487.023 15.346-6.786 15.291-15.212-.202-32.223-.661-64.445-1.376-96.668-.192-8.424-7.111-15.427-15.424-15.599-50.22-1.016-100.44-1.016-150.66 0-8.313.171-15.231 7.174-15.424 15.599z" fill="url(#SVGID_13_)"/><path d="m180.372 120.872c-.596 32.295-.978 64.589-1.147 96.884 40.947-.207 81.894-.248 122.84-.124-41.048-32.523-81.954-65.195-121.693-96.76z" fill="url(#SVGID_14_)"/><path d="m180.372 120.872c28.8 42.666 72.643 77.007 121.693 96.76 10.237.031 20.474.073 30.71.124-.168-32.295-.551-64.589-1.147-96.884-50.419-.913-100.837-.913-151.256 0z" fill="url(#SVGID_15_)"/><path d="m179.225 294.244c.168 32.295.551 64.589 1.147 96.884.162 8.443 7.051 15.436 15.364 15.572 40.176.65 80.352.65 120.528 0 8.313-.135 15.203-7.127 15.364-15.572.596-32.295.978-64.589 1.147-96.884.047-8.444-6.816-15.275-15.304-15.256-40.981.099-81.962.099-122.942 0-8.489-.018-15.35 6.811-15.304 15.256z" fill="url(#SVGID_16_)"/><path d="m194.58 294.313c.135 32.354.441 64.708.917 97.061 40.335.584 80.671.584 121.006 0-39.859-31.769-80.842-64.541-121.923-97.061z" fill="url(#SVGID_17_)"/><path d="m194.58 294.313c30.288 43.421 74.011 78.206 121.923 97.061.477-32.354.782-64.708.917-97.061-40.947.166-81.893.166-122.84 0z" fill="url(#SVGID_18_)"/><path d="m409.622 225.87c.036 4.159-3.385 7.509-7.628 7.488-4.244-.025-7.702-3.428-7.734-7.605-.031-4.177 3.373-7.533 7.613-7.49 4.24.04 7.714 3.449 7.749 7.607z" fill="url(#SVGID_19_)"/><path d="m378.898 225.647c.03 4.189-3.395 7.57-7.639 7.552-4.244-.019-7.698-3.441-7.723-7.645-.025-4.205 3.388-7.587 7.627-7.555 4.24.031 7.706 3.46 7.735 7.648z" fill="url(#SVGID_20_)"/><path d="m409.239 195.74c.072 4.157-3.313 7.483-7.548 7.427-4.236-.056-7.713-3.484-7.776-7.662-.062-4.178 3.306-7.506 7.533-7.433 4.226.074 7.719 3.509 7.791 7.668z" fill="url(#SVGID_21_)"/><path d="m378.591 195.293c.056 4.188-3.336 7.548-7.572 7.504-4.236-.043-7.702-3.487-7.752-7.69-.049-4.205 3.334-7.57 7.56-7.51 4.227.059 7.707 3.505 7.764 7.696z" fill="url(#SVGID_22_)"/><path d="m408.6 165.609c.108 4.158-3.235 7.455-7.455 7.366-4.22-.087-7.71-3.542-7.805-7.719-.095-4.178 3.233-7.482 7.44-7.376 4.207.107 7.713 3.572 7.82 7.729z" fill="url(#SVGID_23_)"/><path d="m378.08 164.94c.086 4.189-3.273 7.525-7.492 7.456-4.22-.07-7.694-3.53-7.768-7.735-.073-4.205 3.273-7.55 7.48-7.466 4.207.085 7.694 3.557 7.78 7.745z" fill="url(#SVGID_24_)"/><path d="m148.464 225.554c-.025 4.205-3.48 7.627-7.723 7.645-4.244.018-7.668-3.362-7.639-7.552s3.497-7.615 7.735-7.648c4.24-.033 7.652 3.348 7.627 7.555z" fill="url(#SVGID_25_)"/><path d="m117.74 225.752c-.032 4.178-3.489 7.581-7.734 7.605-4.245.021-7.663-3.328-7.628-7.488.036-4.157 3.511-7.566 7.749-7.608 4.241-.042 7.644 3.313 7.613 7.491z" fill="url(#SVGID_26_)"/><path d="m148.733 195.107c-.049 4.206-3.516 7.647-7.752 7.69-4.235.042-7.629-3.315-7.572-7.504.056-4.19 3.537-7.636 7.764-7.696 4.227-.059 7.608 3.305 7.56 7.51z" fill="url(#SVGID_27_)"/><path d="m118.085 195.504c-.063 4.178-3.54 7.607-7.776 7.662-4.235.055-7.619-3.266-7.548-7.427.071-4.16 3.564-7.594 7.791-7.669 4.228-.072 7.595 3.257 7.533 7.434z" fill="url(#SVGID_28_)"/><path d="m149.18 164.661c-.073 4.205-3.548 7.665-7.768 7.735-4.219.069-7.578-3.265-7.492-7.456.085-4.19 3.573-7.66 7.78-7.745 4.206-.083 7.553 3.262 7.48 7.466z" fill="url(#SVGID_29_)"/><path d="m118.66 165.256c-.094 4.179-3.584 7.632-7.805 7.719-4.22.087-7.561-3.208-7.455-7.366.107-4.158 3.613-7.623 7.82-7.729 4.207-.109 7.535 3.199 7.44 7.376z" fill="url(#SVGID_30_)"/></g></svg>