<svg id="Capa_1" enable-background="new 0 0 512 512" height="512" viewBox="0 0 512 512" width="512" xmlns="http://www.w3.org/2000/svg" xmlns:xlink="http://www.w3.org/1999/xlink"><linearGradient id="lg1"><stop offset="0" stop-color="#364aff"/><stop offset="1" stop-color="#fc54ff"/></linearGradient><linearGradient id="SVGID_1_" gradientUnits="userSpaceOnUse" x1="74.981" x2="437.019" xlink:href="#lg1" y1="437.019" y2="74.981"/><radialGradient id="SVGID_2_" cx="256" cy="256" gradientUnits="userSpaceOnUse" r="258.6"><stop offset=".095" stop-color="#8d00db" stop-opacity=".66"/><stop offset=".2822" stop-color="#9f0de1" stop-opacity=".523"/><stop offset=".6541" stop-color="#cc30f0" stop-opacity=".252"/><stop offset="1" stop-color="#fc54ff" stop-opacity="0"/></radialGradient><linearGradient id="lg2"><stop offset="0" stop-color="#b31de7"/><stop offset="1" stop-color="#fda0ff"/></linearGradient><linearGradient id="SVGID_3_" gradientUnits="userSpaceOnUse" x1="-140.094" x2="366.643" xlink:href="#lg2" y1="736.724" y2="229.988"/><linearGradient id="SVGID_4_" gradientUnits="userSpaceOnUse" x1="-238.463" x2="268.273" xlink:href="#lg2" y1="665.832" y2="159.096"/><linearGradient id="SVGID_5_" gradientUnits="userSpaceOnUse" x1="3.45" x2="402.421" xlink:href="#lg2" y1="568.503" y2="169.532"/><linearGradient id="SVGID_6_" gradientUnits="userSpaceOnUse" x1="148.713" x2="377.797" xlink:href="#lg2" y1="219.824" y2="-9.26"/><linearGradient id="SVGID_7_" gradientUnits="userSpaceOnUse" x1="139.041" x2="361.128" xlink:href="#lg2" y1="229.496" y2="7.409"/><linearGradient id="SVGID_8_" gradientUnits="userSpaceOnUse" x1="212.448" x2="361.94" y1="208.475" y2="58.983"><stop offset="0" stop-color="#8d00db"/><stop offset="1" stop-color="#fda0ff"/></linearGradient><linearGradient id="SVGID_9_" gradientUnits="userSpaceOnUse" x1="202.286" x2="355.83" y1="182.253" y2="28.709"><stop offset="0" stop-color="#8d00db"/><stop offset=".3195" stop-color="#ae30e6"/><stop offset="1" stop-color="#fda0ff"/></linearGradient><linearGradient id="lg3"><stop offset="0" stop-color="#fda0ff"/><stop offset="1" stop-color="#fff"/></linearGradient><linearGradient id="SVGID_10_" gradientUnits="userSpaceOnUse" x1="177.092" x2="322.552" xlink:href="#lg3" y1="464.807" y2="319.347"/><linearGradient id="SVGID_11_" gradientUnits="userSpaceOnUse" x1="216.476" x2="289.335" xlink:href="#lg2" y1="426.014" y2="353.156"/><linearGradient id="SVGID_12_" gradientUnits="userSpaceOnUse" x1="227.266" x2="276.609" xlink:href="#lg1" y1="415.372" y2="366.029"/><linearGradient id="SVGID_13_" gradientUnits="userSpaceOnUse" x1="176.716" x2="322.868" xlink:href="#lg3" y1="327.643" y2="181.491"/><linearGradient id="SVGID_14_" gradientUnits="userSpaceOnUse" x1="216.286" x2="289.495" xlink:href="#lg2" y1="288.038" y2="214.829"/><linearGradient id="SVGID_15_" gradientUnits="userSpaceOnUse" x1="227.127" x2="276.708" xlink:href="#lg1" y1="277.188" y2="227.607"/><radialGradient id="SVGID_16_" cx="309.093" cy="103.187" gradientUnits="userSpaceOnUse" r="28.851"><stop offset="0" stop-color="#fff"/><stop offset="1" stop-color="#fc54ff"/></radialGradient><g><circle cx="256" cy="256" fill="url(#SVGID_1_)" r="256"/><circle cx="256" cy="256" fill="url(#SVGID_2_)" r="256"/><path d="m346 52.157c-5-.413-10-.792-15-1.136-23.75 66.605-49.375 135.792-75 204.98 25.625 69.188 51.25 138.375 75 204.98 5-.344 10-.723 15-1.136 8.278-.694 15.17-8.072 15.374-16.343 3.001-125 3.001-250 0-375-.204-8.272-7.096-15.653-15.374-16.345z" fill="url(#SVGID_3_)"/><path d="m166 52.157c-8.278.692-15.17 8.071-15.375 16.343-3.001 125-3.001 250 0 375 .204 8.271 7.096 15.65 15.375 16.343 5 .413 10 .792 15 1.136 23.75-66.605 49.375-135.792 75-204.98-25.625-69.188-51.25-138.375-75-204.98-5 .346-10 .725-15 1.138z" fill="url(#SVGID_4_)"/><path d="m179.436 172.49c-.717 96.163-.196 192.327 1.564 288.49 50 3.444 100 3.444 150 0 1.759-96.163 2.281-192.327 1.564-288.49-25.634-15.885-51.187-31.802-76.564-47.177-25.377 15.374-50.929 31.292-76.564 47.177z" fill="url(#SVGID_5_)"/><path d="m181 51.02c-.741 40.49-1.262 80.98-1.564 121.469 51.043-1.403 102.085-1.403 153.128 0-51.345-41.892-102.305-84.423-151.564-121.469z" fill="url(#SVGID_6_)"/><path d="m331 51.02c.741 40.49 1.262 80.98 1.564 121.469-42.745-12.804-80.939-35.756-110.549-65.48-16.601-16.684-30.506-35.469-41.015-55.989 50-3.443 100-3.443 150 0z" fill="url(#SVGID_7_)"/><path d="m317.152 156.858c-.071-10.168-.154-20.337-.247-30.505-24.811-.848-49.623-1.178-74.434-.99 14.85 11.929 31.249 22.352 48.83 30.964 8.618.13 17.234.307 25.851.531z" fill="url(#SVGID_8_)"/><path d="m194.848 156.858c32.151-.837 64.303-1.014 96.454-.531-16.336-10.468-32.622-20.841-48.83-30.964-15.792.12-31.584.45-47.377.99-.094 10.168-.176 20.337-.247 30.505z" fill="url(#SVGID_9_)"/><path d="m316.905 385.647c-.382 33.561-27.739 62.502-60.905 62.541-33.166-.038-60.523-28.979-60.905-62.541-.352-33.598 27.005-60.385 60.905-60.459 33.9.073 61.257 26.862 60.905 60.459z" fill="url(#SVGID_10_)"/><path d="m286.453 386.427c-.094 16.93-13.739 31.008-30.453 31.01-16.714-.002-30.359-14.081-30.453-31.01-.09-16.939 13.555-30.478 30.453-30.49 16.897.012 30.543 13.551 30.453 30.49z" fill="url(#SVGID_11_)"/><path d="m271.226 386.623c-.023 8.483-6.842 15.441-15.226 15.44-8.385 0-15.203-6.956-15.226-15.44-.023-8.486 6.796-15.307 15.226-15.31 8.431.001 15.249 6.823 15.226 15.31z" fill="url(#SVGID_12_)"/><path d="m317.498 248.374c.006 33.581-27.616 61.382-61.498 61.439-33.882-.058-61.504-27.858-61.498-61.439.037-33.578 27.659-61.506 61.498-61.561 33.839.055 61.461 27.982 61.498 61.561z" fill="url(#SVGID_13_)"/><path d="m286.749 248.328c.004 16.936-13.774 30.727-30.749 30.735-16.975-.007-30.752-13.8-30.749-30.735.007-16.935 13.785-30.759 30.749-30.765 16.964.006 30.742 13.83 30.749 30.765z" fill="url(#SVGID_14_)"/><path d="m271.374 248.316c.001 8.486-6.884 15.37-15.374 15.371-8.491-.001-15.376-6.885-15.374-15.371.001-8.484 6.886-15.379 15.374-15.379 8.488.001 15.373 6.894 15.374 15.379z" fill="url(#SVGID_15_)"/><path d="m316.677 103.474c.046 4.211-3.319 7.492-7.514 7.354-4.195-.139-7.622-3.662-7.655-7.889-.033-4.228 3.329-7.549 7.511-7.392 4.181.156 7.611 3.718 7.658 7.927z" fill="url(#SVGID_16_)"/></g></svg>