<svg id="Capa_1" enable-background="new 0 0 512 512" height="512" viewBox="0 0 512 512" width="512" xmlns="http://www.w3.org/2000/svg" xmlns:xlink="http://www.w3.org/1999/xlink"><linearGradient id="SVGID_1_" gradientUnits="userSpaceOnUse" x1="74.981" x2="437.019" y1="437.019" y2="74.981"><stop offset="0" stop-color="#ff4c4c"/><stop offset="1" stop-color="#fff200"/></linearGradient><radialGradient id="SVGID_2_" cx="256" cy="256" gradientUnits="userSpaceOnUse" r="256"><stop offset="0" stop-color="#ff4c4c"/><stop offset=".1081" stop-color="#ff544e" stop-opacity=".887"/><stop offset=".2693" stop-color="#ff6853" stop-opacity=".718"/><stop offset=".4637" stop-color="#ff895c" stop-opacity=".514"/><stop offset=".6838" stop-color="#ffb767" stop-opacity=".283"/><stop offset=".9228" stop-color="#fff276" stop-opacity=".033"/><stop offset=".9537" stop-color="#fffa78" stop-opacity="0"/></radialGradient><linearGradient id="lg1"><stop offset="0" stop-color="#ffb11d"/><stop offset="1" stop-color="#feffd6"/></linearGradient><linearGradient id="SVGID_3_" gradientUnits="userSpaceOnUse" x1="-69.089" x2="456.285" xlink:href="#lg1" y1="581.048" y2="55.674"/><linearGradient id="SVGID_4_" gradientUnits="userSpaceOnUse" x1="128.349" x2="451.1" y1="477.634" y2="154.883"><stop offset="0" stop-color="#ffcb00"/><stop offset="1" stop-color="#fff"/></linearGradient><linearGradient id="SVGID_5_" gradientUnits="userSpaceOnUse" x1="44.899" x2="336.731" xlink:href="#lg1" y1="360.62" y2="68.788"/><linearGradient id="SVGID_6_" gradientUnits="userSpaceOnUse" x1="8.412" x2="251.914" xlink:href="#lg1" y1="396.759" y2="153.257"/><linearGradient id="lg2"><stop offset="0" stop-color="#ff8c00"/><stop offset=".5829" stop-color="#ffce48"/><stop offset="1" stop-color="#fffa78"/></linearGradient><linearGradient id="SVGID_8_" gradientUnits="userSpaceOnUse" x1="106.315" x2="227.134" xlink:href="#lg2" y1="327.354" y2="206.535"/><linearGradient id="SVGID_9_" gradientUnits="userSpaceOnUse" x1="106.951" x2="227.903" xlink:href="#lg2" y1="297.582" y2="176.63"/><linearGradient id="SVGID_10_" gradientUnits="userSpaceOnUse" x1="221.04" x2="512.87" xlink:href="#lg1" y1="397.441" y2="105.611"/><linearGradient id="SVGID_11_" gradientTransform="matrix(.707 .707 -.707 .707 286.754 -180.285)" gradientUnits="userSpaceOnUse" x1="324.313" x2="324.313" xlink:href="#lg1" y1="506.12" y2="128.579"/><linearGradient id="SVGID_12_" gradientUnits="userSpaceOnUse" x1="328.991" x2="404.928" xlink:href="#lg2" y1="236.157" y2="160.22"/><linearGradient id="SVGID_13_" gradientUnits="userSpaceOnUse" x1="296.434" x2="373.131" xlink:href="#lg2" y1="268.826" y2="192.129"/><linearGradient id="SVGID_14_" gradientTransform="matrix(.707 .707 -.707 .707 286.754 -180.285)" gradientUnits="userSpaceOnUse" x1="400.973" x2="400.973" xlink:href="#lg1" y1="497.976" y2="116.84"/><linearGradient id="SVGID_15_" gradientUnits="userSpaceOnUse" x1="383.352" x2="460.092" xlink:href="#lg2" y1="290.44" y2="213.7"/><linearGradient id="SVGID_16_" gradientUnits="userSpaceOnUse" x1="350.228" x2="427.572" xlink:href="#lg2" y1="323.061" y2="245.717"/><g><circle cx="256" cy="256" fill="url(#SVGID_1_)" r="256"/><circle cx="256" cy="256" fill="url(#SVGID_2_)" r="256"/><path d="m301.745 133.124c-50.248-.272-100.496-.096-150.745.529-65.522 1.077-125.326 56.428-125.625 122.347.299 65.92 60.103 121.27 125.625 122.347 30.398.39 57.811-11.038 79.082-30.126 17.279.039 34.557.039 51.836 0 21.271 19.088 48.684 30.516 79.082 30.126 50.624-.694 97.118-33.908 116.617-78.867-56.512-54.034-117.781-110.274-175.872-166.356z" fill="url(#SVGID_3_)"/><path d="m361 133.653c-19.752-.246-39.504-.422-59.255-.529-.396 5.049-.564 10.172-.481 15.356 1.309 84.906 69.703 153.756 153.926 152.8 7.601-.063 15.087-.686 22.427-1.8 5.78-13.535 9.011-28.175 9.008-43.48-.299-65.919-60.102-121.27-125.625-122.347z" fill="url(#SVGID_4_)"/><path d="m240.625 256c-.17 50.945-40.797 92.27-90.773 91.76-49.926-.592-93.607-41.916-93.727-91.76.12-49.843 43.801-91.169 93.727-91.76 49.976-.512 90.603 40.815 90.773 91.76z" fill="url(#SVGID_5_)"/><path d="m225.25 256c-.101 42.45-33.952 76.826-75.85 76.467-41.862-.407-77.834-34.782-77.9-76.467.067-41.683 36.038-76.06 77.9-76.467 41.898-.359 75.749 34.017 75.85 76.467z" fill="url(#SVGID_6_)"/><path d="m225.25 256c-.101 42.45-33.952 76.826-75.85 76.467-41.862-.407-77.834-34.782-77.9-76.467.067-41.683 36.038-76.06 77.9-76.467 41.898-.359 75.749 34.017 75.85 76.467z" fill="url(#SVGID_6_)"/><path d="m189.4 240.656c-8.538.008-17.077.018-25.615.029-.047 10.21-.047 20.42 0 30.63 8.538.011 17.077.021 25.615.029 2.829.003 5.116-2.285 5.11-5.111-.014-6.821-.014-13.643 0-20.464.006-2.828-2.28-5.115-5.11-5.113z" fill="url(#SVGID_8_)"/><path d="m168.89 266.214c-.02-6.809-.02-13.619 0-20.428.008-2.821-2.275-5.105-5.105-5.101.039-8.509.111-17.017.215-25.525.034-2.819-2.221-5.096-5.041-5.084-6.81.028-13.62.059-20.43.093-2.82.015-5.15 2.304-5.196 5.115-.139 8.482-.234 16.965-.286 25.447-8.538.015-17.077.031-25.615.049-2.829.007-5.141 2.281-5.156 5.081-.035 6.759-.035 13.518 0 20.278.014 2.8 2.327 5.073 5.156 5.081 8.538.018 17.077.034 25.615.049.052 8.482.148 16.965.286 25.447.046 2.81 2.376 5.101 5.196 5.115 6.81.034 13.62.065 20.43.093 2.82.012 5.075-2.265 5.041-5.084-.104-8.509-.176-17.017-.215-25.525 2.829.004 5.113-2.28 5.105-5.101z" fill="url(#SVGID_9_)"/><path d="m455.875 256c-.12 49.843-43.801 91.168-93.727 91.76-49.977.51-90.603-40.815-90.773-91.76.17-50.945 40.797-92.269 90.773-91.76 49.926.593 93.607 41.916 93.727 91.76z" fill="url(#SVGID_10_)"/><path d="m373.684 191.189c-12.228-12-31.48-12.163-43.189-.252-10.626 10.795-21.369 21.625-32.173 32.474-11.916 11.965-11.907 31.478.065 43.451 11.963 11.978 31.442 11.934 43.479-.028 10.902-10.844 21.768-21.662 32.541-32.438 11.909-11.884 11.507-31.206-.723-43.207z" fill="url(#SVGID_11_)"/><path d="m367.786 212.764c.137 8.44-6.674 15.265-15.156 15.245-8.483-.019-15.405-6.897-15.5-15.364-.092-8.466 6.643-15.299 15.083-15.255 8.438.047 15.437 6.934 15.573 15.374z" fill="url(#SVGID_12_)"/><path d="m335.498 245.16c.024 8.465-6.872 15.332-15.362 15.335-8.491.004-15.367-6.872-15.382-15.355-.013-8.483 6.833-15.352 15.313-15.337 8.479.014 15.406 6.893 15.431 15.357z" fill="url(#SVGID_13_)"/><path d="m428.823 245.277c-12.087-11.847-31.566-11.952-43.479-.065-10.82 10.774-21.727 21.592-32.664 32.438-12.057 11.958-12.244 31.431-.59 43.3 11.651 11.875 30.903 11.677 43.189-.308 11.118-10.865 22.23-21.695 33.281-32.474 12.221-11.891 12.359-31.042.263-42.891z" fill="url(#SVGID_14_)"/><path d="m422.455 266.734c-.05 8.379-7.033 15.203-15.511 15.238-8.481.034-15.271-6.769-15.233-15.192.041-8.423 6.904-15.245 15.396-15.236 8.49.009 15.399 6.81 15.348 15.19z" fill="url(#SVGID_15_)"/><path d="m389.464 299.13c-.163 8.419-7.19 15.296-15.629 15.353-8.44.057-15.145-6.756-15.027-15.208.121-8.451 7.055-15.32 15.538-15.344 8.482-.023 15.281 6.781 15.118 15.199z" fill="url(#SVGID_16_)"/></g></svg>