<svg id="Capa_1" enable-background="new 0 0 512 512" height="512" viewBox="0 0 512 512" width="512" xmlns="http://www.w3.org/2000/svg" xmlns:xlink="http://www.w3.org/1999/xlink"><linearGradient id="lg1"><stop offset="0" stop-color="#0072ff"/><stop offset="1" stop-color="#00e5a1"/></linearGradient><linearGradient id="SVGID_1_" gradientUnits="userSpaceOnUse" x1="74.981" x2="437.019" xlink:href="#lg1" y1="437.019" y2="74.981"/><radialGradient id="SVGID_2_" cx="256" cy="256" gradientUnits="userSpaceOnUse" r="256"><stop offset="0" stop-color="#0072ff"/><stop offset=".1353" stop-color="#0a7dfd" stop-opacity=".865"/><stop offset=".3702" stop-color="#2599f6" stop-opacity=".63"/><stop offset=".6764" stop-color="#50c7ec" stop-opacity=".324"/><stop offset="1" stop-color="#85ffe0" stop-opacity="0"/></radialGradient><linearGradient id="SVGID_3_" gradientUnits="userSpaceOnUse" x1="195.83" x2="348.02" xlink:href="#lg1" y1="168.276" y2="16.086"/><linearGradient id="lg2"><stop offset="0" stop-color="#009ed8"/><stop offset=".2136" stop-color="#33b3df"/><stop offset=".5977" stop-color="#89d6ea"/><stop offset=".8688" stop-color="#bfecf1"/><stop offset="1" stop-color="#d4f4f4"/></linearGradient><linearGradient id="SVGID_4_" gradientUnits="userSpaceOnUse" x1="7.975" x2="517.607" xlink:href="#lg2" y1="510.934" y2="1.301"/><linearGradient id="SVGID_5_" gradientUnits="userSpaceOnUse" x1="-100.79" x2="422.238" xlink:href="#lg2" y1="522.436" y2="-.592"/><linearGradient id="SVGID_6_" gradientUnits="userSpaceOnUse" x1="-49.128" x2="1006.624" xlink:href="#lg2" y1="801.389" y2="-254.363"/><linearGradient id="SVGID_7_" gradientUnits="userSpaceOnUse" x1="21.952" x2="489.929" xlink:href="#lg2" y1="546.106" y2="78.13"/><linearGradient id="lg3"><stop offset="0" stop-color="#3dcbcd"/><stop offset=".137" stop-color="#58d2d4"/><stop offset="1" stop-color="#fff"/></linearGradient><linearGradient id="SVGID_8_" gradientUnits="userSpaceOnUse" x1="154.683" x2="478.47" xlink:href="#lg3" y1="510.806" y2="187.019"/><linearGradient id="SVGID_9_" gradientUnits="userSpaceOnUse" x1="-96.745" x2="374.746" xlink:href="#lg3" y1="604.982" y2="133.492"/><linearGradient id="SVGID_10_" gradientUnits="userSpaceOnUse" x1="160.621" x2="363.16" y1="275.717" y2="73.177"><stop offset="0" stop-color="#00babd"/><stop offset=".0384" stop-color="#0dbdc0"/><stop offset=".2356" stop-color="#4bced0"/><stop offset=".4246" stop-color="#7edcde"/><stop offset=".6005" stop-color="#a6e7e8"/><stop offset=".7603" stop-color="#c3eff0"/><stop offset=".8987" stop-color="#d5f3f4"/><stop offset="1" stop-color="#dbf5f6"/></linearGradient><linearGradient id="SVGID_11_" gradientUnits="userSpaceOnUse" x1="152.327" x2="307.137" xlink:href="#lg1" y1="319.309" y2="164.499"/><radialGradient id="SVGID_12_" cx="255.481" cy="198.441" gradientUnits="userSpaceOnUse" r="68.1"><stop offset="0" stop-color="#0072ff"/><stop offset=".9286" stop-color="#00e5a1" stop-opacity="0"/></radialGradient><linearGradient id="SVGID_13_" gradientUnits="userSpaceOnUse" x1="108.036" x2="293.789" y1="308.924" y2="123.171"><stop offset="0" stop-color="#00e5a1"/><stop offset=".342" stop-color="#58eec1"/><stop offset="1" stop-color="#fff"/></linearGradient><g><circle cx="256" cy="256" fill="url(#SVGID_1_)" r="256"/><circle cx="256" cy="256" fill="url(#SVGID_2_)" r="256"/><path d="m308.628 57.904c.39 33.175.684 66.349.882 99.524-35.673-.564-71.346-.564-107.019 0 .197-33.175.491-66.349.882-99.524 35.084-1.116 70.17-1.116 105.255 0z" fill="url(#SVGID_3_)"/><path d="m125.404 294.5c.078 15 .206 30 .384 45 .318 26.845 9.269 52.138 24.003 73.577 17.701.862 35.403 1.509 53.104 1.94-25.651-40.545-51.681-81.055-77.491-120.517z" fill="url(#SVGID_4_)"/><path d="m198.235 53.08c-12.312 6.666-24.672 13.432-37.075 20.259-20.628 11.41-34.149 33.073-34.595 55.741-1.061 55.14-1.448 110.28-1.162 165.42.254 48.481 26.051 92.637 63.992 120.146 2.75.084 5.5.163 8.25.236-1.205-120.6-1.009-241.201.59-361.802z" fill="url(#SVGID_5_)"/><path d="m362.209 413.077c3.313-4.814 6.316-9.841 9.011-15.026-18.996 5.76-37.954 11.394-56.866 16.831 15.952-.426 31.904-1.028 47.855-1.805z" fill="url(#SVGID_6_)"/><path d="m385.434 129.08c-.447-22.668-13.966-44.332-34.595-55.741-12.402-6.827-24.763-13.593-37.075-20.259 1.599 120.601 1.795 241.202.589 361.803 12.865-.344 25.73-.802 38.596-1.374 6.463-4.691 12.575-9.867 18.27-15.457 9.295-17.886 14.746-37.731 14.992-58.551.832-70.141.573-140.281-.777-210.421z" fill="url(#SVGID_7_)"/><path d="m359.288 408.662c-65.435-3.373-131.088-9.995-196.919-18.765-3.389 8.281-7.608 16.059-12.578 23.18 23.958 34.698 62.735 59.152 106.209 59.115 35.178.029 67.185-15.947 90.898-40.403 5.602-5.797 10.732-12.064 15.311-18.712-1.007-1.442-1.975-2.919-2.921-4.415z" fill="url(#SVGID_8_)"/><path d="m339.308 94.956c-.27-17.163-10.138-33.382-25.331-41.766-.09-.055-.181-.098-.272-.152-3.117-1.687-6.231-3.368-9.342-5.042-5.014-2.703-10.841.861-10.796 6.566.204 23.992.372 47.983.505 71.974-25.381-.375-50.762-.375-76.143 0 .132-23.99.301-47.981.505-71.972.045-5.706-5.783-9.27-10.797-6.565-3.107 1.672-6.217 3.352-9.331 5.038-.02.011-.051.022-.071.043-15.322 8.348-25.271 24.642-25.543 41.876-1.251 81.903-1.566 163.807-.947 245.71.133 17.564-3.239 34.232-9.376 49.232 26.983 31.129 65.747 51.882 108.731 51.483 32.976-.249 63.473-12.828 88.187-32.719-12.175-19.245-19.223-42.704-19.033-67.997.62-81.903.304-163.806-.946-245.709z" fill="url(#SVGID_9_)"/><path d="m256 272.321c-21.19-.009-38.447-17.253-38.424-38.384.038-35.8.155-71.601.353-107.401.141-21.126 17.241-38.715 38.071-38.719 20.83.004 37.929 17.592 38.071 38.719.198 35.8.315 71.601.353 107.401.023 21.131-17.234 38.373-38.424 38.384z" fill="url(#SVGID_10_)"/><path d="m233.001 187.809c-.027 15.363-.046 30.727-.055 46.09-.009 12.676 10.365 23.042 23.054 23.043 12.689-.003 23.063-10.368 23.054-23.043-.01-15.363-.028-30.727-.055-46.09-15.333-.073-30.665-.073-45.998 0z" fill="url(#SVGID_11_)"/><path d="m233.001 187.809c-.027 15.363-.046 30.727-.055 46.09-.009 12.676 10.365 23.042 23.054 23.043 12.689-.003 23.063-10.368 23.054-23.043-.01-15.363-.028-30.727-.055-46.09-15.333-.073-30.665-.073-45.998 0z" fill="url(#SVGID_12_)"/><path d="m233.133 134.037c-.056 17.924-.1 35.848-.132 53.772-.027 12.723 10.276 23.005 22.999 23.008 12.724-.003 23.025-10.285 22.999-23.008-.032-17.924-.076-35.848-.132-53.772-.048-12.721-10.29-23.159-22.867-23.158s-22.819 10.438-22.867 23.158z" fill="url(#SVGID_13_)"/></g></svg>