<svg id="Capa_1" enable-background="new 0 0 512 512" height="512" viewBox="0 0 512 512" width="512" xmlns="http://www.w3.org/2000/svg" xmlns:xlink="http://www.w3.org/1999/xlink"><linearGradient id="lg1"><stop offset="0" stop-color="#ff2f2b"/><stop offset="1" stop-color="#ffbdab"/></linearGradient><linearGradient id="SVGID_1_" gradientUnits="userSpaceOnUse" x1="74.981" x2="437.02" xlink:href="#lg1" y1="437.019" y2="74.98"/><radialGradient id="SVGID_2_" cx="256.001" cy="256" gradientUnits="userSpaceOnUse" r="256"><stop offset="0" stop-color="#ff2f2b"/><stop offset=".1553" stop-color="#ff4d47" stop-opacity=".845"/><stop offset=".4298" stop-color="#ff7d72" stop-opacity=".57"/><stop offset=".6721" stop-color="#ffa091" stop-opacity=".328"/><stop offset=".8704" stop-color="#ffb5a4" stop-opacity=".13"/><stop offset="1" stop-color="#ffbdab" stop-opacity="0"/></radialGradient><linearGradient id="lg2"><stop offset="0" stop-color="#ffa9d4"/><stop offset=".0183" stop-color="#ffaad5"/><stop offset=".6661" stop-color="#ffd3e9"/><stop offset="1" stop-color="#ffe3f1"/></linearGradient><linearGradient id="SVGID_3_" gradientUnits="userSpaceOnUse" x1="-14.768" x2="266.954" xlink:href="#lg2" y1="360.267" y2="78.545"/><linearGradient id="SVGID_4_" gradientTransform="matrix(-1 0 0 1 512 0)" gradientUnits="userSpaceOnUse" x1="289.15" x2="7.427" xlink:href="#lg2" y1="455.651" y2="173.929"/><linearGradient id="SVGID_5_" gradientUnits="userSpaceOnUse" x1="386.424" x2="456.962" xlink:href="#lg1" y1="305.402" y2="234.864"/><linearGradient id="SVGID_6_" gradientUnits="userSpaceOnUse" x1="-1.098" x2="395.593" y1="513.097" y2="116.407"><stop offset="0" stop-color="#ff2f2b"/><stop offset=".2856" stop-color="#ff6168"/><stop offset=".6256" stop-color="#ff98aa"/><stop offset=".873" stop-color="#ffbbd3"/><stop offset="1" stop-color="#ffc8e3"/></linearGradient><linearGradient id="SVGID_7_" gradientUnits="userSpaceOnUse" x1="155.664" x2="432.59" xlink:href="#lg1" y1="345.031" y2="68.105"/><linearGradient id="SVGID_8_" gradientUnits="userSpaceOnUse" x1="153.891" x2="395.098" xlink:href="#lg1" y1="358.109" y2="116.902"/><linearGradient id="SVGID_9_" gradientUnits="userSpaceOnUse" x1="35.7" x2="106.237" xlink:href="#lg1" y1="296.474" y2="225.937"/><g><circle cx="256" cy="256" fill="url(#SVGID_1_)" r="256"/><circle cx="256" cy="256" fill="url(#SVGID_2_)" r="256"/><path d="m110.5 142.097c17.413 40.111 37.273 80.716 57.872 121.558-20.409 35.708-40.135 71.199-57.872 106.248-10-.194-20-.408-30-.641-16.52-.407-31.233-14.217-32.375-30.761-3.684-55-3.684-110 0-165 1.141-16.545 15.854-30.353 32.375-30.761 10-.235 20-.449 30-.643z" fill="url(#SVGID_3_)"/><path d="m401.5 142.097c-17.737 35.049-37.463 70.539-57.872 106.248 20.599 40.842 40.458 81.447 57.872 121.558 10-.194 20-.408 30-.641 16.52-.407 31.233-14.217 32.375-30.761 3.684-55 3.684-110 0-165-1.141-16.545-15.854-30.353-32.375-30.761-10-.235-20-.449-30-.643z" fill="url(#SVGID_4_)"/><path d="m451.262 256c0 8.308-6.968 15.071-15.453 15.102-8.487.031-15.295-6.732-15.297-15.102.001-8.37 6.81-15.132 15.297-15.102 8.486.032 15.454 6.794 15.453 15.102z" fill="url(#SVGID_5_)"/><path d="m256 371.313c-48.264 0-97.218-.475-145.5-1.41-4.826-75.58-4.826-152.225 0-227.806 48.282-.936 97.236-1.41 145.5-1.41s97.218.475 145.5 1.41c4.826 75.58 4.826 152.225 0 227.805-48.282.936-97.236 1.411-145.5 1.411z" fill="url(#SVGID_6_)"/><path d="m139.165 172.089c-2.07 55.941-2.07 111.881 0 167.822 70.276.784 140.553.86 210.829.23-68.61-55.464-142.623-112.895-210.829-168.052z" fill="url(#SVGID_7_)"/><path d="m139.165 172.089c49.15 74.236 128.232 134.885 210.829 168.052 7.613-.068 15.227-.145 22.84-.23 2.07-55.941 2.07-111.881 0-167.822-77.889-.869-155.779-.869-233.669 0z" fill="url(#SVGID_8_)"/><path d="m91.488 256c-.001 8.369-6.81 15.132-15.297 15.102-8.483-.031-15.454-6.794-15.453-15.102-.001-8.309 6.969-15.07 15.453-15.102 8.486-.03 15.294 6.733 15.297 15.102z" fill="url(#SVGID_9_)"/></g></svg>