<svg id="Capa_1" enable-background="new 0 0 512 512" height="512" viewBox="0 0 512 512" width="512" xmlns="http://www.w3.org/2000/svg" xmlns:xlink="http://www.w3.org/1999/xlink"><linearGradient id="lg1"><stop offset="0" stop-color="#00aa45"/><stop offset="1" stop-color="#d3ff33"/></linearGradient><linearGradient id="SVGID_1_" gradientUnits="userSpaceOnUse" x1="74.981" x2="437.019" xlink:href="#lg1" y1="437.019" y2="74.981"/><radialGradient id="SVGID_2_" cx="256" cy="256" gradientUnits="userSpaceOnUse" r="256"><stop offset="0" stop-color="#00aa45"/><stop offset=".1286" stop-color="#1eb642" stop-opacity=".871"/><stop offset=".5581" stop-color="#7fdd3a" stop-opacity=".442"/><stop offset=".8579" stop-color="#bbf535" stop-opacity=".142"/><stop offset="1" stop-color="#d3ff33" stop-opacity="0"/></radialGradient><linearGradient id="lg2"><stop offset="0" stop-color="#95e12e"/><stop offset=".3557" stop-color="#c0ed83"/><stop offset=".664" stop-color="#e2f7c6"/><stop offset=".8861" stop-color="#f7fdef"/><stop offset="1" stop-color="#fff"/></linearGradient><linearGradient id="SVGID_3_" gradientUnits="userSpaceOnUse" x1="91.144" x2="590.893" xlink:href="#lg2" y1="422.351" y2="-77.398"/><linearGradient id="SVGID_4_" gradientUnits="userSpaceOnUse" x1="-38.24" x2="456.242" xlink:href="#lg2" y1="550.24" y2="55.758"/><linearGradient id="SVGID_5_" gradientUnits="userSpaceOnUse" x1="87.754" x2="412.783" y1="427.965" y2="102.936"><stop offset="0" stop-color="#95e12e"/><stop offset="1" stop-color="#fff"/></linearGradient><linearGradient id="SVGID_6_" gradientUnits="userSpaceOnUse" x1="169.216" x2="327.919" xlink:href="#lg1" y1="342.785" y2="184.081"/><linearGradient id="SVGID_7_" gradientUnits="userSpaceOnUse" x1="208.156" x2="324.861" y1="303.844" y2="187.14"><stop offset="0" stop-color="#00aa45"/><stop offset=".1362" stop-color="#12b147"/><stop offset=".41" stop-color="#41c24d"/><stop offset=".7925" stop-color="#8cdf57"/><stop offset="1" stop-color="#b8ef5c"/></linearGradient><linearGradient id="SVGID_8_" gradientUnits="userSpaceOnUse" x1="233.536" x2="292.947" y1="278.48" y2="219.07"><stop offset="0" stop-color="#00aa45"/><stop offset=".11" stop-color="#07ad46"/><stop offset=".2695" stop-color="#1ab448"/><stop offset=".459" stop-color="#3ac04c"/><stop offset=".6717" stop-color="#66d052"/><stop offset=".9009" stop-color="#9ee559"/><stop offset="1" stop-color="#b8ef5c"/></linearGradient><linearGradient id="SVGID_9_" gradientUnits="userSpaceOnUse" x1="138.413" x2="190.876" xlink:href="#lg1" y1="281.357" y2="228.894"/><linearGradient id="SVGID_10_" gradientUnits="userSpaceOnUse" x1="322.874" x2="375.337" xlink:href="#lg1" y1="281.356" y2="228.893"/><g><circle cx="256" cy="256" fill="url(#SVGID_1_)" r="256"/><circle cx="256" cy="256" fill="url(#SVGID_2_)" r="256"/><path d="m367.292 286.52c3.879-.016 7.758-.033 11.637-.051 10.286-9.201 20.564-18.366 30.819-27.478-10.244-11.095-20.524-22.254-30.819-33.46-8.657-.039-17.314-.075-25.971-.106-3.039-.011-6.014-.919-8.546-2.608-15.124-10.094-30.245-20.223-45.339-30.35-12.307-8.405-27.124-13.342-43.074-13.342-15.949 0-30.766 4.937-43.074 13.342-15.094 10.127-30.216 20.256-45.339 30.35-2.534 1.69-5.507 2.597-8.546 2.608-8.657.031-17.313.067-25.97.106-10.291 10.203-20.57 20.366-30.82 30.469 10.25 10.104 20.53 20.266 30.82 30.469 3.879.018 7.758.035 11.637.051 44.516.137 80.635 36.258 80.773 80.773 10.216 10.287 20.395 20.564 30.52 30.814 10.125-10.25 20.304-20.527 30.52-30.814.137-44.517 36.256-80.636 80.772-80.773z" fill="url(#SVGID_3_)"/><path d="m256 55.1c-107.095.56-200.339 93.807-200.9 200.9.561 107.095 93.806 200.34 200.9 200.9 107.094-.56 200.34-93.806 200.9-200.9-.56-107.094-93.806-200.34-200.9-200.9zm133.234 241.129c-13.804 43.832-49.172 79.2-93.005 93.005-4.887 1.534-9.798-2.148-9.774-7.303.023-4.879.044-9.759.064-14.638-20.346.085-40.693.085-61.039 0 .02 4.879.042 9.759.065 14.638.023 5.155-4.886 8.837-9.774 7.303-43.831-13.805-79.199-49.174-93.005-93.005-1.534-4.889 2.149-9.796 7.303-9.774 1 .005 2 .009 3.001.014-.094-20.312-.094-40.625 0-60.938-1 .005-2 .009-3 .014-5.164.022-8.836-4.899-7.298-9.796 17.923-56.512 71.339-99.118 133.228-99.149 61.889.031 115.301 42.637 133.228 99.149 1.536 4.896-2.133 9.818-7.298 9.796-1-.005-2-.009-3-.014.093 20.313.093 40.625 0 60.938 1-.005 2-.009 3.001-.014 5.155-.023 8.837 4.885 7.303 9.774z" fill="url(#SVGID_4_)"/><path d="m271.106 426.126c-108.022-.146-200.878-92.654-200.525-200.236.178-25.59 5.587-50.091 15.108-72.79-19.225 30.388-30.601 65.467-30.589 102.9.561 107.095 93.806 200.34 200.9 200.9 82.258-.033 155.188-55.45 186.205-128.45-36.383 56.939-100.05 97.455-171.099 97.676z" fill="url(#SVGID_5_)"/><path d="m317.5 256c-.016 33.855-27.644 61.483-61.5 61.5-33.855-.017-61.484-27.646-61.5-61.5.019-33.855 27.644-61.484 61.5-61.5 33.854.015 61.483 27.645 61.5 61.5z" fill="url(#SVGID_6_)"/><path d="m286.75 256c-.001 16.969-13.781 30.748-30.75 30.75-16.971-.001-30.747-13.782-30.75-30.75.003-16.969 13.779-30.748 30.75-30.75 16.967.002 30.748 13.78 30.75 30.75z" fill="url(#SVGID_7_)"/><path d="m263.687 271.375c-16.977.001-30.753-13.769-30.746-30.745 0-1.883.18-3.722.505-5.51-5.084 5.486-8.197 12.82-8.196 20.88.003 16.969 13.779 30.748 30.75 30.75 15.089 0 27.644-10.9 30.247-25.241-5.617 6.061-13.646 9.865-22.56 9.866z" fill="url(#SVGID_8_)"/><path d="m163.763 240.704c-8.49.019-15.388 6.867-15.388 15.296s6.9 15.279 15.388 15.296c8.491.017 15.362-6.834 15.362-15.296-.002-8.464-6.872-15.312-15.362-15.296z" fill="url(#SVGID_9_)"/><path d="m348.237 240.704c-8.49-.018-15.362 6.833-15.362 15.296.002 8.464 6.872 15.313 15.362 15.296 8.488-.019 15.388-6.867 15.388-15.296 0-8.428-6.898-15.279-15.388-15.296z" fill="url(#SVGID_10_)"/></g></svg>