<svg id="Capa_1" enable-background="new 0 0 512 512" height="512" viewBox="0 0 512 512" width="512" xmlns="http://www.w3.org/2000/svg" xmlns:xlink="http://www.w3.org/1999/xlink"><linearGradient id="lg1"><stop offset="0" stop-color="#364aff"/><stop offset="1" stop-color="#fc54ff"/></linearGradient><linearGradient id="SVGID_1_" gradientUnits="userSpaceOnUse" x1="74.981" x2="437.019" xlink:href="#lg1" y1="437.019" y2="74.981"/><radialGradient id="SVGID_2_" cx="256" cy="256" gradientUnits="userSpaceOnUse" r="258.6"><stop offset=".095" stop-color="#8d00db" stop-opacity=".66"/><stop offset=".2822" stop-color="#9f0de1" stop-opacity=".523"/><stop offset=".6541" stop-color="#cc30f0" stop-opacity=".252"/><stop offset="1" stop-color="#fc54ff" stop-opacity="0"/></radialGradient><linearGradient id="SVGID_3_" gradientUnits="userSpaceOnUse" x1="-23.922" x2="366.559" y1="412.99" y2="22.51"><stop offset="0" stop-color="#b31de7"/><stop offset=".3983" stop-color="#d153f1"/><stop offset="1" stop-color="#fda0ff"/></linearGradient><linearGradient id="SVGID_4_" gradientUnits="userSpaceOnUse" x1="24.604" x2="397.058" y1="531.273" y2="158.819"><stop offset="0" stop-color="#b31de7"/><stop offset=".3399" stop-color="#cf4ef0"/><stop offset=".7861" stop-color="#f089fb"/><stop offset="1" stop-color="#fda0ff"/></linearGradient><linearGradient id="SVGID_5_" gradientUnits="userSpaceOnUse" x1="-110.848" x2="431.38" xlink:href="#lg1" y1="622.848" y2="80.62"/><linearGradient id="SVGID_6_" gradientUnits="userSpaceOnUse" x1="149.716" x2="391.311" y1="362.284" y2="120.689"><stop offset="0" stop-color="#fc54ff"/><stop offset=".1022" stop-color="#fd77ff"/><stop offset=".2431" stop-color="#fda0ff"/><stop offset=".3875" stop-color="#fec3ff"/><stop offset=".5338" stop-color="#feddff"/><stop offset=".6827" stop-color="#fff0ff"/><stop offset=".8359" stop-color="#fffbff"/><stop offset="1" stop-color="#fff"/></linearGradient><linearGradient id="SVGID_7_" gradientUnits="userSpaceOnUse" x1="101.485" x2="347.809" y1="410.516" y2="164.192"><stop offset="0" stop-color="#fc54ff"/><stop offset=".4935" stop-color="#feaaff"/><stop offset="1" stop-color="#fff"/></linearGradient><linearGradient id="SVGID_8_" gradientUnits="userSpaceOnUse" x1="90.486" x2="357.77" y1="403.999" y2="136.715"><stop offset="0" stop-color="#fc54ff"/><stop offset=".5" stop-color="#fda0ff"/></linearGradient><g><circle cx="256" cy="256" fill="url(#SVGID_1_)" r="256"/><circle cx="256" cy="256" fill="url(#SVGID_2_)" r="256"/><path d="m91 111.766c-11.03.392-20.575 9.7-21.199 20.734-4.568 82.333-4.568 164.667 0 247 .625 11.033 10.17 20.342 21.199 20.734 30 1.038 60 1.793 90 2.264-2.5-97.665-2.5-195.331 0-292.996-30 .472-60 1.227-90 2.264z" fill="url(#SVGID_3_)"/><path d="m160.384 381.773c-2.345-83.849-2.345-167.698 0-251.547.328-11.242 9.585-20.546 20.616-20.725 80-1.258 160-.503 240 2.264 11.03.392 20.574 9.7 21.199 20.734 4.568 82.333 4.568 164.667 0 247-.625 11.033-10.17 20.342-21.199 20.734-80 2.767-160 3.522-240 2.264-11.03-.178-20.288-9.481-20.616-20.724z" fill="url(#SVGID_4_)"/><path d="m256 372.337c-51.606 0-103.929-.662-155.517-1.968l-.935-.023-.039-.934c-3.165-75.254-3.165-151.569 0-226.823l.039-.934.935-.023c51.587-1.306 103.911-1.968 155.517-1.968s103.929.662 155.517 1.968l.935.023.039.934c3.165 75.254 3.165 151.569 0 226.823l-.039.934-.935.023c-51.588 1.306-103.911 1.968-155.517 1.968z" fill="url(#SVGID_5_)"/><path d="m140.479 325.57c-10.11-56.637-19.187-113.04-26.33-169.122 94.567-1.88 189.135-1.88 283.702 0 2.199 66.368 2.199 132.736 0 199.105-85.226-8.406-171.109-18.869-257.372-29.983z" fill="url(#SVGID_6_)"/><path d="m127.239 340.609c-5.281-30.177-10.235-60.284-14.733-90.31.059-31.284.607-62.567 1.644-93.851 81.987 82.876 183.708 155.435 283.702 199.105 0 .345-129.188 1.745-129.188 1.399-46.987-5.042-94.142-10.56-141.425-16.343z" fill="url(#SVGID_7_)"/><path d="m112.579 234.27c-.292 40.427.231 80.855 1.57 121.282 0 .01 83.824 1.806 171.069 1.35-35.716-62.823-98.987-109.188-172.639-122.632z" fill="url(#SVGID_8_)"/></g></svg>