<svg id="Capa_1" enable-background="new 0 0 512 512" height="512" viewBox="0 0 512 512" width="512" xmlns="http://www.w3.org/2000/svg" xmlns:xlink="http://www.w3.org/1999/xlink"><linearGradient id="SVGID_1_" gradientUnits="userSpaceOnUse" x1="74.981" x2="437.019" y1="437.019" y2="74.981"><stop offset="0" stop-color="#ff4c4c"/><stop offset="1" stop-color="#fff200"/></linearGradient><radialGradient id="SVGID_2_" cx="256" cy="256" gradientTransform="matrix(1 0 0 2.395 0 -357)" gradientUnits="userSpaceOnUse" r="256"><stop offset="0" stop-color="#ff4c4c"/><stop offset=".3182" stop-color="#ff8b5c" stop-opacity=".666"/><stop offset=".7536" stop-color="#ffda70" stop-opacity=".21"/><stop offset=".9537" stop-color="#fffa78" stop-opacity="0"/></radialGradient><linearGradient id="lg1"><stop offset="0" stop-color="#ffcb00"/><stop offset="1" stop-color="#fff"/></linearGradient><linearGradient id="SVGID_3_" gradientUnits="userSpaceOnUse" x1="-247.749" x2="396.985" xlink:href="#lg1" y1="809.136" y2="164.402"/><linearGradient id="SVGID_4_" gradientUnits="userSpaceOnUse" x1="-212.211" x2="471.436" xlink:href="#lg1" y1="674.824" y2="-8.822"/><linearGradient id="SVGID_5_" gradientUnits="userSpaceOnUse" x1="-373.843" x2="464.671" xlink:href="#lg1" y1="885.843" y2="47.329"/><linearGradient id="lg2"><stop offset="0" stop-color="#ffcb00"/><stop offset=".5829" stop-color="#ffe748"/><stop offset="1" stop-color="#fffa78"/></linearGradient><linearGradient id="SVGID_6_" gradientUnits="userSpaceOnUse" x1="237.79" x2="289.699" xlink:href="#lg2" y1="405.087" y2="353.179"/><linearGradient id="SVGID_7_" gradientUnits="userSpaceOnUse" x1="237.852" x2="289.582" xlink:href="#lg2" y1="451.129" y2="399.399"/><linearGradient id="SVGID_8_" gradientUnits="userSpaceOnUse" x1="141.2" x2="219.634" y1="120.668" y2="42.234"><stop offset="0" stop-color="#fffa78"/><stop offset="1" stop-color="#fff"/></linearGradient><linearGradient id="SVGID_9_" gradientUnits="userSpaceOnUse" x1="78.81" x2="384.897" xlink:href="#lg1" y1="425.783" y2="119.696"/><linearGradient id="SVGID_10_" gradientUnits="userSpaceOnUse" x1="209.424" x2="329.288" xlink:href="#lg2" y1="295.153" y2="175.289"/><linearGradient id="SVGID_11_" gradientUnits="userSpaceOnUse" x1="211.086" x2="307.326" y1="293.508" y2="197.268"><stop offset="0" stop-color="#ffb11d"/><stop offset=".4622" stop-color="#ffd449"/><stop offset="1" stop-color="#fffa78"/></linearGradient><linearGradient id="SVGID_12_" gradientUnits="userSpaceOnUse" x1="221.613" x2="332.246" xlink:href="#lg2" y1="204.734" y2="94.102"/><linearGradient id="SVGID_13_" gradientUnits="userSpaceOnUse" x1="228.048" x2="324.691" y1="169.022" y2="72.379"><stop offset="0" stop-color="#ffcb00"/><stop offset=".1935" stop-color="#ffd212"/><stop offset=".5798" stop-color="#ffe440"/><stop offset="1" stop-color="#fffa78"/></linearGradient><g><circle cx="256" cy="256" fill="url(#SVGID_1_)" r="256"/><circle cx="256" cy="256" fill="url(#SVGID_2_)" r="256"/><path d="m316 35.479c-10-.806-20-1.41-30-1.813 1 148.222 1 296.444 0 444.667 10-.403 20-1.007 30-1.813 16.546-1.37 30.263-16.516 30.578-33.021 2.229-125 2.229-250 0-375-.316-16.504-14.032-31.65-30.578-33.02z" fill="url(#SVGID_3_)"/><path d="m196 35.479c-16.546 1.369-30.263 16.516-30.578 33.021-2.229 125-2.229 250 0 375 .315 16.505 14.032 31.651 30.578 33.021 10 .806 20 1.41 30 1.813-1-148.222-1-296.444 0-444.667-10 .402-20 1.007-30 1.812z" fill="url(#SVGID_4_)"/><path d="m286 33.667c-20-.806-40-.806-60 0-16.547.685-30.168 15.476-30.385 32.229-1.486 126.736-1.486 253.472 0 380.208.217 16.753 13.839 31.543 30.385 32.229 20 .806 40 .806 60 0 16.547-.686 30.169-15.476 30.385-32.229 1.486-126.736 1.486-253.472 0-380.208-.216-16.753-13.838-31.544-30.385-32.229z" fill="url(#SVGID_5_)"/><path d="m271.495 386.596c-.02 8.482-6.848 15.465-15.247 15.466-8.399.003-15.226-6.979-15.246-15.461-.019-8.485 6.808-15.286 15.247-15.289 8.439.002 15.266 6.799 15.246 15.284z" fill="url(#SVGID_6_)"/><path d="m271.386 432.689c-.027 8.481-6.807 15.498-15.14 15.499-8.333.003-15.112-7.009-15.138-15.491-.026-8.485 6.753-15.254 15.14-15.259 8.387.001 15.166 6.765 15.138 15.251z" fill="url(#SVGID_7_)"/><path d="m210.958 64.972c-.069 8.45-6.901 15.595-15.267 16.117-8.365.515-15.053-5.702-14.926-14.042.127-8.336 6.974-15.751 15.281-16.377 8.307-.628 14.98 5.857 14.912 14.302z" fill="url(#SVGID_8_)"/><path d="m302.375 248.36c.005 25.251-20.678 46.043-46.124 46.078-25.446-.031-46.129-20.823-46.123-46.079.016-25.254 20.698-46.143 46.123-46.171 25.425.033 46.108 20.922 46.124 46.172z" fill="url(#SVGID_9_)"/><path d="m287 248.334c.003 16.917-13.774 30.718-30.749 30.729-16.976-.009-30.752-13.811-30.749-30.73.006-16.917 13.783-30.763 30.749-30.771 16.967.011 30.743 13.856 30.749 30.772z" fill="url(#SVGID_10_)"/><path d="m263.938 263.686c-16.981 0-30.753-13.771-30.744-30.714.001-1.88.18-3.718.505-5.506-5.082 5.497-8.196 12.824-8.198 20.867-.003 16.918 13.773 30.72 30.749 30.73 15.094-.005 27.649-10.932 30.248-25.232-5.615 6.044-13.643 9.852-22.56 9.855z" fill="url(#SVGID_11_)"/><path d="m296.905 125.95c-8.47-.264-16.94-.446-25.41-.546.021 10.243.039 20.486.054 30.728 8.5.076 17 .216 25.499.417 2.817.066 5.09-2.153 5.076-4.965-.033-6.791-.069-13.583-.108-20.374-.015-2.81-2.304-5.172-5.111-5.26z" fill="url(#SVGID_12_)"/><path d="m276.639 151.067c-.015-6.825-.031-13.65-.048-20.475-.007-2.827-2.289-5.155-5.095-5.188-.017-8.536-.036-17.071-.056-25.607-.007-2.828-2.278-5.157-5.072-5.183-6.746-.066-13.492-.068-20.238-.005-2.794.027-5.064 2.353-5.072 5.181-.02 8.536-.038 17.072-.055 25.608-8.47.097-16.94.276-25.41.536-2.806.087-5.095 2.447-5.112 5.26-.039 6.792-.074 13.584-.106 20.376-.014 2.813 2.26 5.032 5.076 4.967 8.5-.199 17-.336 25.499-.41-.013 8.536-.024 17.072-.033 25.608-.003 2.828 2.284 5.107 5.108 5.096 6.817-.027 13.635-.026 20.452.002 2.824.011 5.111-2.266 5.107-5.095-.01-8.536-.021-17.071-.034-25.607 2.817.027 5.095-2.237 5.089-5.064z" fill="url(#SVGID_13_)"/></g></svg>