<svg id="Capa_1" enable-background="new 0 0 512 512" height="512" viewBox="0 0 512 512" width="512" xmlns="http://www.w3.org/2000/svg" xmlns:xlink="http://www.w3.org/1999/xlink"><linearGradient id="lg1"><stop offset="0" stop-color="#0072ff"/><stop offset="1" stop-color="#00e5a1"/></linearGradient><linearGradient id="SVGID_1_" gradientUnits="userSpaceOnUse" x1="74.981" x2="437.019" xlink:href="#lg1" y1="437.019" y2="74.981"/><radialGradient id="SVGID_2_" cx="256" cy="256" gradientTransform="matrix(1 0 0 1.087 0 -22.352)" gradientUnits="userSpaceOnUse" r="256"><stop offset="0" stop-color="#0072ff"/><stop offset=".1494" stop-color="#0d80fc" stop-opacity=".851"/><stop offset=".4316" stop-color="#30a5f4" stop-opacity=".568"/><stop offset=".8137" stop-color="#68e0e7" stop-opacity=".186"/><stop offset="1" stop-color="#85ffe0" stop-opacity="0"/></radialGradient><linearGradient id="SVGID_3_" gradientUnits="userSpaceOnUse" x1="137.504" x2="435.364" y1="489.215" y2="191.355"><stop offset="0" stop-color="#00babd"/><stop offset=".342" stop-color="#58d2d4"/><stop offset="1" stop-color="#fff"/></linearGradient><linearGradient id="lg2"><stop offset="0" stop-color="#3dcbcd"/><stop offset=".137" stop-color="#58d2d4"/><stop offset="1" stop-color="#fff"/></linearGradient><linearGradient id="SVGID_4_" gradientUnits="userSpaceOnUse" x1="9.733" x2="478.161" xlink:href="#lg2" y1="465.125" y2="-3.303"/><linearGradient id="SVGID_5_" gradientUnits="userSpaceOnUse" x1="18.432" x2="403.58" xlink:href="#lg2" y1="449.242" y2="64.094"/><linearGradient id="SVGID_6_" gradientUnits="userSpaceOnUse" x1="139.848" x2="410.409" y1="319.029" y2="48.468"><stop offset="0" stop-color="#009ed8"/><stop offset=".2136" stop-color="#33b3df"/><stop offset=".5977" stop-color="#89d6ea"/><stop offset=".8688" stop-color="#bfecf1"/><stop offset="1" stop-color="#d4f4f4"/></linearGradient><linearGradient id="SVGID_7_" gradientUnits="userSpaceOnUse" x1="182.698" x2="380.543" xlink:href="#lg1" y1="275.645" y2="77.8"/><linearGradient id="SVGID_8_" gradientUnits="userSpaceOnUse" x1="170.093" x2="319.349" y1="288.127" y2="138.87"><stop offset="0" stop-color="#00e5a1"/><stop offset="1" stop-color="#85ffe0"/></linearGradient><linearGradient id="SVGID_9_" gradientUnits="userSpaceOnUse" x1="208.835" x2="325.991" y1="249.425" y2="132.27"><stop offset="0" stop-color="#00e5a1"/><stop offset=".1413" stop-color="#06e7a3"/><stop offset=".3291" stop-color="#17eaab"/><stop offset=".5431" stop-color="#32efb9"/><stop offset=".7746" stop-color="#59f6cb"/><stop offset="1" stop-color="#85ffe0"/></linearGradient><g><circle cx="256" cy="256" fill="url(#SVGID_1_)" r="256"/><circle cx="256" cy="256" fill="url(#SVGID_2_)" r="256"/><path d="m137.918 339.455c5.972 20.444 11.994 40.954 18.032 61.514 13.401 45.122 54.296 77.787 100.049 77.781 45.754.006 86.649-32.658 100.049-77.781 6.038-20.56 12.06-41.07 18.032-61.514-78.719 1.226-157.441 1.226-236.162 0z" fill="url(#SVGID_3_)"/><path d="m241.508 48.649c-49.24 2.645-95.644 19.04-136.931 44.35-9.465 5.81-15.479 15.987-15.767 26.65-1.44 53.531-2.077 107.061-1.909 160.591.026 8.444 3.722 16.525 10.158 22.298 13.612 12.206 27.241 24.529 40.859 36.917 5.928 15.921 11.882 31.892 17.84 47.9 13.182 35.134 54.136 60.654 100.242 60.645 46.106.008 87.06-25.511 100.242-60.645 5.958-16.008 11.912-31.979 17.84-47.9 13.617-12.388 27.246-24.711 40.859-36.917 6.436-5.773 10.133-13.854 10.158-22.298.063-20 .013-40-.149-60-61.711-56.248-123.797-115.086-183.442-171.591z" fill="url(#SVGID_4_)"/><path d="m407.422 92.999c-45.322-27.789-96.765-44.802-151.422-44.749-4.859 0-9.689.138-14.492.399 6.347 95.234 86.265 170.637 183.442 171.591-.271-33.531-.858-67.061-1.761-100.592-.288-10.663-6.302-20.839-15.767-26.649z" fill="url(#SVGID_5_)"/><path d="m378.755 202.793c.53 66.694-55.089 122.013-122.755 122.207-67.666-.195-123.286-55.512-122.755-122.207.755-66.668 56.373-123.624 122.755-123.793 66.381.169 122 57.126 122.755 123.793z" fill="url(#SVGID_6_)"/><path d="m332.722 202.31c.223 42.157-34.287 76.515-76.722 76.565-42.434-.049-76.945-34.408-76.722-76.565.278-42.146 34.789-77.146 76.722-77.185 41.933.039 76.444 35.039 76.722 77.185z" fill="url(#SVGID_7_)"/><path d="m317.378 202.198c.147 33.813-27.415 61.275-61.378 61.302-33.962-.026-61.524-27.488-61.378-61.302.175-33.807 27.737-61.679 61.378-61.698 33.642.019 61.203 27.893 61.378 61.698z" fill="url(#SVGID_8_)"/><path d="m271.367 232.756c-33.958-.045-61.461-27.466-61.286-61.339.016-3.759.389-7.434 1.052-11.012-10.156 11.035-16.446 25.718-16.511 41.793-.147 33.813 27.415 61.275 61.378 61.302 30.195-.012 55.318-21.759 60.414-50.318-11.18 12.029-27.222 19.588-45.047 19.574z" fill="url(#SVGID_9_)"/></g></svg>