<svg id="Capa_1" enable-background="new 0 0 512 512" height="512" viewBox="0 0 512 512" width="512" xmlns="http://www.w3.org/2000/svg" xmlns:xlink="http://www.w3.org/1999/xlink"><linearGradient id="SVGID_1_" gradientUnits="userSpaceOnUse" x1="74.981" x2="437.02" y1="437.019" y2="74.98"><stop offset="0" stop-color="#ff2f2b"/><stop offset="1" stop-color="#ffbdab"/></linearGradient><radialGradient id="SVGID_2_" cx="258.259" cy="298.315" gradientTransform="matrix(1 0 0 1.734 .446 -220.134)" gradientUnits="userSpaceOnUse" r="256"><stop offset="0" stop-color="#ff2f2b"/><stop offset=".0368" stop-color="#ff4741" stop-opacity=".963"/><stop offset=".0949" stop-color="#ff675d" stop-opacity=".905"/><stop offset=".1609" stop-color="#ff8276" stop-opacity=".839"/><stop offset=".2354" stop-color="#ff9889" stop-opacity=".765"/><stop offset=".3224" stop-color="#ffa998" stop-opacity=".678"/><stop offset=".43" stop-color="#ffb4a3" stop-opacity=".57"/><stop offset=".581" stop-color="#ffbba9" stop-opacity=".419"/><stop offset="1" stop-color="#ffbdab" stop-opacity="0"/></radialGradient><radialGradient id="SVGID_3_" cx="258.029" cy="132.281" gradientUnits="userSpaceOnUse" r="177.038"><stop offset="0" stop-color="#ff2f2b" stop-opacity=".5"/><stop offset=".2521" stop-color="#ff4240" stop-opacity=".374"/><stop offset=".738" stop-color="#ff6263" stop-opacity=".131"/><stop offset="1" stop-color="#ff6e70" stop-opacity="0"/></radialGradient><linearGradient id="lg1"><stop offset="0" stop-color="#ffa9d4"/><stop offset="1" stop-color="#fff"/></linearGradient><linearGradient id="SVGID_4_" gradientUnits="userSpaceOnUse" x1="81.684" x2="295.827" xlink:href="#lg1" y1="444.766" y2="230.623"/><linearGradient id="SVGID_5_" gradientUnits="userSpaceOnUse" x1="125.829" x2="339.983" xlink:href="#lg1" y1="323.87" y2="109.716"/><linearGradient id="SVGID_6_" gradientUnits="userSpaceOnUse" x1="40.027" x2="315.169" xlink:href="#lg1" y1="409.672" y2="134.53"/><radialGradient id="SVGID_7_" cx="256.693" cy="116.6" gradientUnits="userSpaceOnUse" r="149.96"><stop offset="0" stop-color="#ff79a2"/><stop offset=".1591" stop-color="#ff80a7" stop-opacity=".841"/><stop offset=".3964" stop-color="#ff95b7" stop-opacity=".604"/><stop offset=".6829" stop-color="#ffb6cf" stop-opacity=".317"/><stop offset="1" stop-color="#ffe3f1" stop-opacity="0"/></radialGradient><linearGradient id="SVGID_8_" gradientUnits="userSpaceOnUse" x1="104.979" x2="322.859" y1="484.533" y2="266.654"><stop offset="0" stop-color="#ff2f2b"/><stop offset="1" stop-color="#ffc8e3"/></linearGradient><linearGradient id="lg2"><stop offset="0" stop-color="#ff79a2"/><stop offset="1" stop-color="#fff"/></linearGradient><linearGradient id="SVGID_9_" gradientUnits="userSpaceOnUse" x1="165.095" x2="414.914" xlink:href="#lg2" y1="553.072" y2="303.254"/><linearGradient id="lg3"><stop offset="0" stop-color="#ff79a2"/><stop offset="1" stop-color="#ffe3f1"/></linearGradient><linearGradient id="SVGID_10_" gradientUnits="userSpaceOnUse" x1="107.484" x2="342.99" xlink:href="#lg3" y1="500.112" y2="264.605"/><linearGradient id="SVGID_11_" gradientUnits="userSpaceOnUse" x1="61.011" x2="414.592" xlink:href="#lg2" y1="711.879" y2="358.297"/><linearGradient id="SVGID_12_" gradientUnits="userSpaceOnUse" x1="104.541" x2="294.667" xlink:href="#lg3" y1="524.389" y2="334.263"/><linearGradient id="SVGID_13_" gradientUnits="userSpaceOnUse" x1="148.342" x2="341.856" xlink:href="#lg2" y1="225.483" y2="31.969"/><linearGradient id="SVGID_14_" gradientUnits="userSpaceOnUse" x1="161.946" x2="310.511" xlink:href="#lg3" y1="212.193" y2="63.629"/><g><circle cx="256" cy="256" fill="url(#SVGID_1_)" r="256"/><circle cx="256" cy="256" fill="url(#SVGID_2_)" r="256"/><circle cx="256" cy="256" fill="url(#SVGID_3_)" r="256"/><path d="m232.943 222.126c-.017 32.242.01 64.484.08 96.726 15.318.063 30.637.063 45.956 0 .07-32.242.097-64.484.08-96.726-15.373-.015-30.745-.015-46.116 0z" fill="url(#SVGID_4_)"/><path d="m233.018 165.196c-.04 18.977-.065 37.953-.075 56.93 7.428 1.614 15.141 2.474 23.057 2.474s15.629-.86 23.057-2.474c-.01-18.977-.035-37.953-.075-56.93-15.321-.061-30.643-.061-45.964 0z" fill="url(#SVGID_5_)"/><path d="m233.018 165.196c-.04 18.977-.065 37.953-.075 56.93 7.428 1.614 15.141 2.474 23.057 2.474s15.629-.86 23.057-2.474c-.01-18.977-.035-37.953-.075-56.93-15.321-.061-30.643-.061-45.964 0z" fill="url(#SVGID_6_)"/><path d="m278.978 318.853c-15.318.063-30.637.063-45.956 0-.111-51.219-.113-102.438-.004-153.657 15.321-.062 30.643-.062 45.965 0 .108 51.219.106 102.438-.005 153.657z" fill="url(#SVGID_7_)"/><path d="m340.118 333.513c-7.141-7.058-14.307-14.163-21.493-21.304-5.718-5.68-13.51-8.852-21.646-8.804-27.319.161-54.638.161-81.957 0-8.136-.047-15.929 3.124-21.646 8.804-7.186 7.141-14.353 14.246-21.493 21.304 28.137 10.675 56.193 21.262 84.118 31.513 27.924-10.251 55.98-20.839 84.117-31.513z" fill="url(#SVGID_8_)"/><path d="m386 332.454c-15.294.429-30.588.781-45.882 1.059-.196 20.332-.455 40.665-.78 60.997 20.365-10.78 40.833-21.661 61.366-32.51.112-5 .218-10 .316-15 .166-8.277-6.57-14.775-15.02-14.546z" fill="url(#SVGID_9_)"/><path d="m340.118 333.513c-71.373 1.294-142.746.941-214.118-1.059-8.449-.228-15.186 6.27-15.02 14.546.098 5 .204 10 .316 15 81.574 18.396 162.645 35.196 242.894 47.207.421-20.266.766-40.532 1.036-60.798.112-8.389-6.659-15.044-15.108-14.896z" fill="url(#SVGID_10_)"/><path d="m355.009 363.609c-5.461 25.478-10.983 51.034-16.509 76.649 15-.597 30-1.357 45-2.28 8.278-.516 15.241-7.702 15.524-15.977.671-20 1.231-40 1.68-60-15.231.636-30.463 1.172-45.695 1.608z" fill="url(#SVGID_11_)"/><path d="m353.859 424.407c.459-20.266.843-40.532 1.15-60.798-81.238 2.324-162.476 1.788-243.713-1.609.449 20 1.009 40 1.68 60 .283 8.275 7.247 15.461 15.524 15.977 70 4.307 140 5.067 210 2.28 8.278-.333 15.163-7.462 15.359-15.85z" fill="url(#SVGID_12_)"/><path d="m332.16 117.813c.55 42.062-33.734 75.963-76.16 76.037-42.427-.073-76.71-33.975-76.16-76.037.612-42.033 34.895-77.668 76.16-77.713 41.265.045 75.548 35.68 76.16 77.713z" fill="url(#SVGID_13_)"/><path d="m271.319 163.121c-42.351-.172-76.5-34.036-75.928-76.227.072-6.225.899-12.286 2.355-18.115-10.927 13.499-17.69 30.596-17.906 49.034-.55 42.062 33.734 75.963 76.16 76.037 36.165-.03 66.439-24.776 74.196-58.058-13.839 16.718-35.076 27.391-58.877 27.329z" fill="url(#SVGID_14_)"/></g></svg>