<svg id="Capa_1" enable-background="new 0 0 512 512" height="512" viewBox="0 0 512 512" width="512" xmlns="http://www.w3.org/2000/svg" xmlns:xlink="http://www.w3.org/1999/xlink"><linearGradient id="SVGID_1_" gradientUnits="userSpaceOnUse" x1="74.981" x2="437.019" y1="437.019" y2="74.981"><stop offset="0" stop-color="#00aa45"/><stop offset="1" stop-color="#d3ff33"/></linearGradient><radialGradient id="SVGID_2_" cx="256" cy="256" gradientUnits="userSpaceOnUse" r="256"><stop offset="0" stop-color="#00aa45"/><stop offset=".109" stop-color="#0fb044" stop-opacity=".891"/><stop offset=".3171" stop-color="#35bf40" stop-opacity=".683"/><stop offset=".6028" stop-color="#73d83b" stop-opacity=".397"/><stop offset=".9518" stop-color="#c7fa34" stop-opacity=".048"/><stop offset="1" stop-color="#d3ff33" stop-opacity="0"/></radialGradient><linearGradient id="lg1"><stop offset="0" stop-color="#95e12e"/><stop offset="1" stop-color="#fff"/></linearGradient><linearGradient id="SVGID_3_" gradientUnits="userSpaceOnUse" x1="-469.322" x2="413.692" xlink:href="#lg1" y1="972.047" y2="89.034"/><linearGradient id="lg2"><stop offset="0" stop-color="#95e12e"/><stop offset="1" stop-color="#f9fcca"/></linearGradient><linearGradient id="SVGID_4_" gradientUnits="userSpaceOnUse" x1="161.995" x2="290.864" xlink:href="#lg2" y1="460.479" y2="331.61"/><linearGradient id="lg3"><stop offset="0" stop-color="#5ccd38"/><stop offset="1" stop-color="#e6fe7f"/></linearGradient><linearGradient id="SVGID_5_" gradientUnits="userSpaceOnUse" x1="137.182" x2="267.136" xlink:href="#lg3" y1="454.285" y2="324.331"/><linearGradient id="SVGID_6_" gradientUnits="userSpaceOnUse" x1="147.188" x2="278.105" xlink:href="#lg2" y1="413.359" y2="282.442"/><linearGradient id="SVGID_7_" gradientUnits="userSpaceOnUse" x1="135.802" x2="267.557" xlink:href="#lg3" y1="393.912" y2="262.157"/><linearGradient id="SVGID_8_" gradientUnits="userSpaceOnUse" x1="146.217" x2="278.686" xlink:href="#lg2" y1="352.752" y2="220.282"/><linearGradient id="SVGID_9_" gradientUnits="userSpaceOnUse" x1="134.982" x2="268.042" xlink:href="#lg3" y1="333.327" y2="200.267"/><linearGradient id="SVGID_10_" gradientUnits="userSpaceOnUse" x1="145.763" x2="279.29" xlink:href="#lg2" y1="291.973" y2="158.446"/><linearGradient id="SVGID_11_" gradientUnits="userSpaceOnUse" x1="134.722" x2="268.592" xlink:href="#lg3" y1="272.529" y2="138.659"/><linearGradient id="SVGID_12_" gradientUnits="userSpaceOnUse" x1="145.829" x2="279.918" xlink:href="#lg2" y1="231.023" y2="96.934"/><linearGradient id="lg4"><stop offset="0" stop-color="#00aa45"/><stop offset="1" stop-color="#b8ef5c"/></linearGradient><linearGradient id="SVGID_13_" gradientUnits="userSpaceOnUse" x1="137.85" x2="272.035" xlink:href="#lg4" y1="208.689" y2="74.505"/><linearGradient id="SVGID_14_" gradientUnits="userSpaceOnUse" x1="174.986" x2="279.757" xlink:href="#lg4" y1="141.328" y2="36.558"/><linearGradient id="SVGID_15_" gradientUnits="userSpaceOnUse" x1="144.074" x2="249.923" xlink:href="#lg4" y1="142.102" y2="36.253"/><linearGradient id="SVGID_16_" gradientUnits="userSpaceOnUse" x1="106.826" x2="506.305" xlink:href="#lg1" y1="415.141" y2="15.662"/><linearGradient id="SVGID_17_" gradientUnits="userSpaceOnUse" x1="209.292" x2="410.647" xlink:href="#lg3" y1="363.656" y2="162.3"/><linearGradient id="SVGID_18_" gradientUnits="userSpaceOnUse" x1="265.273" x2="384.615" xlink:href="#lg3" y1="212.079" y2="92.737"/><linearGradient id="SVGID_19_" gradientUnits="userSpaceOnUse" x1="226.253" x2="394.162" xlink:href="#lg3" y1="239.534" y2="71.625"/><g><circle cx="256" cy="256" fill="url(#SVGID_1_)" r="256"/><circle cx="256" cy="256" fill="url(#SVGID_2_)" r="256"/><path d="m396 80.171c-56.667-2.972-113.333-4.14-170-3.503-10.917 10.362-21.917 20.77-32.978 31.191-10.771-9.997-21.452-19.898-32.022-29.669-15 .534-30 1.194-45 1.981-8.278.442-15.285 7.552-15.619 15.829-3.552 90-4.198 180-1.938 270 .211 8.276 7.218 15.256 15.612 15.553 5.069.175 10.139.34 15.208.496.347 15.131.759 30.262 1.237 45.393.271 8.35 7.221 15.445 15.499 15.791 5 .206 10 .398 15 .576 10.57-9.77 21.251-19.671 32.022-29.669 11.061 10.421 22.061 20.829 32.978 31.191 46.667.524 93.333-.175 140-2.098 8.277-.346 15.23-7.441 15.499-15.791.478-15.131.889-30.262 1.237-45.393 5.069-.156 10.139-.322 15.208-.496 8.394-.296 15.401-7.276 15.612-15.553 2.26-90 1.615-180-1.938-270-.331-8.276-7.341-15.387-15.617-15.829z" fill="url(#SVGID_3_)"/><path d="m226 445.331c-21.667-.243-43.333-.751-65-1.522-.264-10.156-.506-20.312-.726-30.468 10.696-9.835 21.49-19.789 32.358-29.829 11.099 10.378 22.153 20.755 33.139 31.097.069 10.241.146 20.482.229 30.722z" fill="url(#SVGID_4_)"/><path d="m225.771 414.609c-21.832-.203-43.664-.626-65.496-1.268-.22-10.156-.418-20.312-.594-30.468 10.808-9.899 21.698-19.906 32.648-29.989 11.123 10.336 22.216 20.682 33.255 31.003.055 10.241.117 20.482.187 30.722z" fill="url(#SVGID_5_)"/><path d="m225.583 383.888c-21.967-.162-43.935-.5-65.903-1.015-.176-10.156-.33-20.312-.462-30.468 10.904-9.963 21.876-20.024 32.892-30.149 11.132 10.294 22.249 20.608 33.326 30.91.043 10.24.092 20.481.147 30.722z" fill="url(#SVGID_6_)"/><path d="m225.438 353.166c-22.073-.122-44.146-.375-66.219-.761-.132-10.156-.242-20.312-.33-30.468 10.986-10.028 22.024-20.141 33.092-30.308 11.126 10.252 22.25 20.535 33.352 30.816.028 10.239.063 20.48.105 30.721z" fill="url(#SVGID_7_)"/><path d="m225.333 322.444c-22.148-.081-44.296-.25-66.444-.507-.088-10.156-.154-20.312-.198-30.468 11.053-10.092 22.142-20.259 33.247-30.468 11.104 10.209 22.223 20.461 33.333 30.722.014 10.24.035 20.48.062 30.721z" fill="url(#SVGID_8_)"/><path d="m225.271 291.722c-22.193-.041-44.386-.125-66.58-.254-.044-10.156-.066-20.312-.066-30.468 11.104-10.156 22.23-20.376 33.356-30.628 11.068 10.167 22.165 20.387 33.269 30.628 0 10.241.007 20.481.021 30.722z" fill="url(#SVGID_9_)"/><path d="m225.25 261c-22.208 0-44.417 0-66.625 0 0-10.156.022-20.312.066-30.468 11.141-10.22 22.289-20.494 33.42-30.788 11.016 10.125 22.077 20.314 33.16 30.534-.014 10.241-.021 20.481-.021 30.722z" fill="url(#SVGID_10_)"/><path d="m225.271 230.278c-22.193.041-44.386.125-66.58.254.044-10.156.11-20.312.198-30.468 11.162-10.285 22.316-20.611 33.439-30.948 10.95 10.082 21.959 20.24 33.005 30.44-.027 10.241-.048 20.481-.062 30.722z" fill="url(#SVGID_11_)"/><path d="m225.333 199.556c-22.148.081-44.296.25-66.444.507.088-10.156.198-20.312.33-30.468 11.169-10.349 22.313-20.729 33.413-31.107 10.868 10.04 21.81 20.167 32.805 30.347-.041 10.24-.076 20.481-.104 30.721z" fill="url(#SVGID_12_)"/><path d="m225.438 168.834c-22.073.122-44.146.375-66.219.761.132-10.156.286-20.312.462-30.468 11.159-10.413 22.281-20.846 33.342-31.267 10.771 9.998 21.633 20.093 32.561 30.253-.056 10.24-.105 20.481-.146 30.721z" fill="url(#SVGID_13_)"/><path d="m225.583 138.112c-21.967.162-43.935.5-65.903 1.015.176-10.156.374-20.312.594-30.468 11.136-10.477 22.219-20.964 33.226-31.427 10.66 9.956 21.424 20.02 32.271 30.159-.07 10.24-.132 20.481-.188 30.721z" fill="url(#SVGID_14_)"/><path d="m225.771 107.391c-21.832.203-43.664.626-65.496 1.268.22-10.156.462-20.312.726-30.468 21.667-.771 43.333-1.278 65-1.522-.084 10.24-.161 20.481-.23 30.722z" fill="url(#SVGID_15_)"/><path d="m368.063 352.117c-37.354.755-74.708 1.133-112.063 1.133-8.437 0-15.293-6.904-15.31-15.393-.148-87.105-.044-174.21.31-261.315 46.667-.262 93.333.699 140 2.885 2.951 85.743 3.813 171.486 2.583 257.229-.123 8.35-7.085 15.285-15.52 15.461z" fill="url(#SVGID_16_)"/><path d="m271.333 322.486c.055-40.991.055-81.981 0-122.972 13.616-10.223 27.191-20.4 40.698-30.481 13.66 10.356 27.363 20.716 41.08 31.03.352 40.624.352 81.249 0 121.873-27.259.317-54.518.5-81.778.55z" fill="url(#SVGID_17_)"/><path d="m271.187 130.342c.066 23.057.115 46.115.146 69.172 27.26.05 54.518.233 81.778.549-27.457-23.167-54.859-46.557-81.924-69.721z" fill="url(#SVGID_18_)"/><path d="m271.115 107.285c.026 7.686.05 15.372.072 23.057 14.451 33.996 46.192 60.083 81.924 69.721-.264-30.468-.726-60.937-1.385-91.405-26.871-.79-53.741-1.248-80.611-1.373z" fill="url(#SVGID_19_)"/></g></svg>