<svg id="Capa_1" enable-background="new 0 0 512 512" height="512" viewBox="0 0 512 512" width="512" xmlns="http://www.w3.org/2000/svg" xmlns:xlink="http://www.w3.org/1999/xlink"><linearGradient id="SVGID_1_" gradientUnits="userSpaceOnUse" x1="74.98" x2="437.019" y1="437.019" y2="74.98"><stop offset="0" stop-color="#ff4c4c"/><stop offset="1" stop-color="#fff200"/></linearGradient><radialGradient id="SVGID_2_" cx="256" cy="256" gradientUnits="userSpaceOnUse" r="256"><stop offset="0" stop-color="#ff4c4c"/><stop offset=".1081" stop-color="#ff544e" stop-opacity=".887"/><stop offset=".2693" stop-color="#ff6853" stop-opacity=".718"/><stop offset=".4637" stop-color="#ff895c" stop-opacity=".514"/><stop offset=".6838" stop-color="#ffb767" stop-opacity=".283"/><stop offset=".9228" stop-color="#fff276" stop-opacity=".033"/><stop offset=".9537" stop-color="#fffa78" stop-opacity="0"/></radialGradient><linearGradient id="lg1"><stop offset="0" stop-color="#ffcb00"/><stop offset=".1941" stop-color="#ffd212"/><stop offset=".5824" stop-color="#ffe440"/><stop offset="1" stop-color="#fffa78"/></linearGradient><linearGradient id="SVGID_3_" gradientUnits="userSpaceOnUse" x1="224.42" x2="303.457" xlink:href="#lg1" y1="174.722" y2="95.685"/><linearGradient id="lg2"><stop offset="0" stop-color="#ff8c00"/><stop offset=".0818" stop-color="#ffa334" stop-opacity=".918"/><stop offset=".1684" stop-color="#ffb963" stop-opacity=".832"/><stop offset=".2605" stop-color="#ffcc8d" stop-opacity=".74"/><stop offset=".3563" stop-color="#ffdbb0" stop-opacity=".644"/><stop offset=".4569" stop-color="#ffe8cd" stop-opacity=".543"/><stop offset=".564" stop-color="#fff2e3" stop-opacity=".436"/><stop offset=".6806" stop-color="#fffaf3" stop-opacity=".319"/><stop offset=".8137" stop-color="#fffefc" stop-opacity=".186"/><stop offset="1" stop-color="#fff" stop-opacity="0"/></linearGradient><linearGradient id="SVGID_4_" gradientUnits="userSpaceOnUse" x1="256" x2="256" xlink:href="#lg2" y1="135.381" y2="80.949"/><linearGradient id="SVGID_5_" gradientUnits="userSpaceOnUse" x1="270.164" x2="348.291" xlink:href="#lg1" y1="174.517" y2="96.391"/><linearGradient id="SVGID_6_" gradientUnits="userSpaceOnUse" x1="301.548" x2="301.548" xlink:href="#lg2" y1="135.544" y2="81.067"/><linearGradient id="SVGID_7_" gradientUnits="userSpaceOnUse" x1="178.738" x2="258.531" xlink:href="#lg1" y1="175.183" y2="95.39"/><linearGradient id="SVGID_8_" gradientUnits="userSpaceOnUse" x1="210.452" x2="210.452" xlink:href="#lg2" y1="135.544" y2="81.067"/><linearGradient id="lg3"><stop offset="0" stop-color="#fff200"/><stop offset="1" stop-color="#fff"/></linearGradient><linearGradient id="SVGID_9_" gradientUnits="userSpaceOnUse" x1="-116.152" x2="669.083" xlink:href="#lg3" y1="628.028" y2="-157.206"/><linearGradient id="SVGID_10_" gradientUnits="userSpaceOnUse" x1="-230.688" x2="316.992" xlink:href="#lg3" y1="608.185" y2="60.506"/><linearGradient id="SVGID_11_" gradientUnits="userSpaceOnUse" x1="-151.036" x2="499.345" xlink:href="#lg3" y1="820.847" y2="170.466"/><linearGradient id="SVGID_12_" gradientUnits="userSpaceOnUse" x1="-101.5" x2="552.266" xlink:href="#lg3" y1="733.431" y2="79.665"/><linearGradient id="lg4"><stop offset="0" stop-color="#ffcb00"/><stop offset=".5" stop-color="#fffa78"/><stop offset="1" stop-color="#fff"/></linearGradient><linearGradient id="SVGID_13_" gradientUnits="userSpaceOnUse" x1="137.949" x2="587.422" xlink:href="#lg4" y1="374.077" y2="-75.396"/><linearGradient id="SVGID_14_" gradientUnits="userSpaceOnUse" x1="72.503" x2="218.152" xlink:href="#lg4" y1="388.632" y2="242.982"/><linearGradient id="SVGID_15_" gradientUnits="userSpaceOnUse" x1="62.174" x2="163.123" xlink:href="#lg4" y1="321.467" y2="220.517"/><linearGradient id="lg5"><stop offset="0" stop-color="#ffcb00"/><stop offset=".097" stop-color="#ffd212"/><stop offset=".2912" stop-color="#ffe440"/><stop offset=".5" stop-color="#fffa78"/><stop offset="1" stop-color="#fff"/></linearGradient><linearGradient id="SVGID_16_" gradientUnits="userSpaceOnUse" x1="88.677" x2="202.936" xlink:href="#lg5" y1="372.474" y2="258.216"/><linearGradient id="SVGID_17_" gradientUnits="userSpaceOnUse" x1="339.313" x2="492.836" xlink:href="#lg4" y1="405.281" y2="251.758"/><linearGradient id="SVGID_18_" gradientUnits="userSpaceOnUse" x1="358.843" x2="479.067" xlink:href="#lg5" y1="385.759" y2="265.535"/><linearGradient id="SVGID_19_" gradientUnits="userSpaceOnUse" x1="183.121" x2="482.402" xlink:href="#lg5" y1="329.858" y2="30.577"/><g><circle cx="256" cy="256" fill="url(#SVGID_1_)" r="256"/><circle cx="256" cy="256" fill="url(#SVGID_2_)" r="256"/><path d="m271.254 171.544c-10.169-.017-20.339-.017-30.508 0 .054-17.935.125-35.869.215-53.804.023-4.245 3.399-7.697 7.539-7.703 5-.008 10-.008 15 0 4.14.007 7.516 3.459 7.539 7.703.09 17.935.162 35.87.215 53.804z" fill="url(#SVGID_3_)"/><path d="m271.254 171.544c-10.169-.017-20.339-.017-30.508 0 .054-17.935.125-35.869.215-53.804.023-4.245 3.399-7.697 7.539-7.703 5-.008 10-.008 15 0 4.14.007 7.516 3.459 7.539 7.703.09 17.935.162 35.87.215 53.804z" fill="url(#SVGID_4_)"/><path d="m317.017 171.738c-10.169-.069-20.339-.121-30.508-.155-.107-17.926-.251-35.852-.43-53.778-.04-4.243 3.281-7.663 7.421-7.631 5 .038 10 .084 15 .137 4.14.044 7.571 3.519 7.658 7.753.358 17.891.644 35.783.859 53.674z" fill="url(#SVGID_5_)"/><path d="m317.017 171.738c-10.169-.069-20.339-.121-30.508-.155-.107-17.926-.251-35.852-.43-53.778-.04-4.243 3.281-7.663 7.421-7.631 5 .038 10 .084 15 .137 4.14.044 7.571 3.519 7.658 7.753.358 17.891.644 35.783.859 53.674z" fill="url(#SVGID_6_)"/><path d="m225.492 171.583c-10.169.035-20.339.086-30.508.155.215-17.891.501-35.783.859-53.674.087-4.234 3.518-7.709 7.658-7.753 5-.053 10-.099 15-.137 4.14-.032 7.461 3.388 7.421 7.631-.18 17.926-.323 35.852-.43 53.778z" fill="url(#SVGID_7_)"/><path d="m225.492 171.583c-10.169.035-20.339.086-30.508.155.215-17.891.501-35.783.859-53.674.087-4.234 3.518-7.709 7.658-7.753 5-.053 10-.099 15-.137 4.14-.032 7.461 3.388 7.421 7.631-.18 17.926-.323 35.852-.43 53.778z" fill="url(#SVGID_8_)"/><path d="m391.355 385.034c-90.237 2.33-180.473 2.33-270.71 0-3.912-85.993-4.023-171.987-.335-257.98 90.46-2.197 180.92-2.197 271.381 0 3.687 85.993 3.576 171.987-.336 257.98z" fill="url(#SVGID_9_)"/><path d="m133.002 256.054c-.045-28.863 10.582-55.467 27.87-76.621 2.263-2.768 3.578-6.177 3.644-9.709.27-14.529.611-29.057 1.023-43.586.118-4.222-3.145-7.587-7.296-7.508-24.23.452-48.46 1.072-72.691 1.859-8.297.276-15.462 7.233-15.931 15.51-4.468 80-4.324 160 .432 240 .5 8.277 7.671 15.249 15.946 15.54 24.167.833 48.333 1.488 72.5 1.966 4.14.083 7.388-3.279 7.263-7.501-.437-14.529-.803-29.057-1.098-43.586-.072-3.531-1.391-6.942-3.655-9.712-17.3-21.171-27.984-47.789-28.007-76.652z" fill="url(#SVGID_10_)"/><path d="m426.447 120.49c-10.026-.326-20.053-.623-30.079-.892 4.295 90.961 4.172 181.923-.368 272.884 10-.284 20-.598 30-.943 8.275-.291 15.446-7.262 15.946-15.54 4.757-80 4.901-160 .432-240-.469-8.277-7.633-15.234-15.931-15.509z" fill="url(#SVGID_11_)"/><path d="m396.368 119.598c-14.204-.38-28.408-.703-42.612-.968-4.151-.078-7.414 3.286-7.296 7.508.412 14.529.754 29.058 1.023 43.586.066 3.531 1.38 6.941 3.644 9.709 17.289 21.154 27.916 47.758 27.87 76.621-.022 28.863-10.707 55.481-28.007 76.652-2.265 2.77-3.584 6.181-3.655 9.712-.295 14.529-.661 29.057-1.098 43.586-.125 4.222 3.123 7.583 7.263 7.501 14.167-.28 28.333-.621 42.5-1.023 8.275-.24 15.373-7.22 15.793-15.56 3.985-80.596 4.106-161.192.362-241.788-.394-8.341-7.489-15.309-15.787-15.536z" fill="url(#SVGID_12_)"/><path d="m363.623 256.064c-.242 58.773-49.439 107.558-107.623 107.655-58.184-.096-107.381-48.882-107.623-107.655.102-58.774 49.298-107.498 107.623-107.595 58.325.097 107.522 48.821 107.623 107.595z" fill="url(#SVGID_13_)"/><path d="m144.505 347.515c.414 16.85-12.596 30.244-29.221 29.807-16.619-.44-30.884-14.349-31.594-30.957-.707-16.61 12.642-29.877 29.549-29.684 16.912.2 30.839 13.982 31.266 30.834z" fill="url(#SVGID_14_)"/><path d="m112.707 286.361c.098 8.377-6.64 15.099-15.104 15.003-8.462-.097-15.477-6.922-15.602-15.232-.126-8.311 6.706-15.021 15.194-14.992 8.49.03 15.411 6.843 15.512 15.221z" fill="url(#SVGID_15_)"/><path d="m122.222 362.324c-16.698-.368-30.905-14.235-31.476-30.874-.061-1.847.058-3.649.326-5.4-4.882 5.297-7.71 12.416-7.382 20.315.71 16.608 14.974 30.518 31.594 30.957 14.79.385 26.686-10.156 28.873-24.35-5.38 5.924-13.152 9.537-21.935 9.352z" fill="url(#SVGID_16_)"/><path d="m428.31 346.365c-.71 16.608-14.974 30.518-31.594 30.957-16.625.437-29.636-12.957-29.221-29.807.428-16.852 14.354-30.634 31.267-30.834 16.906-.194 30.255 13.073 29.548 29.684z" fill="url(#SVGID_17_)"/><path d="m404.922 361.99c-16.704.407-29.803-12.986-29.431-29.816.044-1.864.263-3.688.624-5.464-5.167 5.492-8.41 12.808-8.62 20.805-.414 16.85 12.596 30.244 29.221 29.807 14.784-.385 27.673-11.442 30.869-25.547-5.808 6.073-13.883 10.011-22.663 10.215z" fill="url(#SVGID_18_)"/><path d="m271.254 332.956c-58.7.025-107.681-48.531-107.424-107.457.066-11.106 1.875-21.823 5.147-31.923-12.901 17.683-20.63 39.228-20.601 62.488.242 58.773 49.439 107.559 107.623 107.655 47.356-.014 88.44-32.343 102.604-75.809-19.801 27.025-51.696 44.987-87.349 45.046z" fill="url(#SVGID_19_)"/></g></svg>