<svg id="Capa_1" enable-background="new 0 0 518.025 518.025" height="512" viewBox="0 0 518.025 518.025" width="512" xmlns="http://www.w3.org/2000/svg" xmlns:xlink="http://www.w3.org/1999/xlink"><linearGradient id="SVGID_1_" gradientUnits="userSpaceOnUse" x1="77.993" x2="440.032" y1="443.044" y2="81.006"><stop offset="0" stop-color="#0072ff"/><stop offset="1" stop-color="#00e5a1"/></linearGradient><radialGradient id="SVGID_2_" cx="261.041" cy="338.081" gradientTransform="matrix(1 0 0 1.615 0 -207.786)" gradientUnits="userSpaceOnUse" r="275.086"><stop offset="0" stop-color="#0072ff"/><stop offset=".1454" stop-color="#2397f7" stop-opacity=".855"/><stop offset=".3204" stop-color="#46bcef" stop-opacity=".68"/><stop offset=".4953" stop-color="#62d9e8" stop-opacity=".505"/><stop offset=".6681" stop-color="#75eee4" stop-opacity=".332"/><stop offset=".8376" stop-color="#81fbe1" stop-opacity=".162"/><stop offset="1" stop-color="#85ffe0" stop-opacity="0"/></radialGradient><radialGradient id="SVGID_3_" cx="259.013" cy="107.625" gradientUnits="userSpaceOnUse" r="107.213"><stop offset=".2402" stop-color="#85ffe0"/><stop offset=".4248" stop-color="#7af9dc" stop-opacity=".757"/><stop offset=".7438" stop-color="#5eead1" stop-opacity=".337"/><stop offset="1" stop-color="#43dcc7" stop-opacity="0"/></radialGradient><linearGradient id="lg1"><stop offset="0" stop-color="#85ffe0"/><stop offset=".3414" stop-color="#b3ffec"/><stop offset=".7847" stop-color="#eafffa"/><stop offset="1" stop-color="#fff"/></linearGradient><linearGradient id="SVGID_4_" gradientUnits="userSpaceOnUse" x1="194.254" x2="341.522" xlink:href="#lg1" y1="173.572" y2="26.303"/><linearGradient id="SVGID_5_" gradientUnits="userSpaceOnUse" x1="199.578" x2="298.697" xlink:href="#lg1" y1="160.138" y2="61.018"/><linearGradient id="SVGID_6_" gradientUnits="userSpaceOnUse" x1="120.78" x2="324.158" y1="247.408" y2="44.03"><stop offset="0" stop-color="#00e5a1"/><stop offset=".2072" stop-color="#2aedb4"/><stop offset=".6144" stop-color="#85ffe0"/><stop offset=".6823" stop-color="#9fffe7"/><stop offset=".8286" stop-color="#d3fff4"/><stop offset=".939" stop-color="#f3fffc"/><stop offset="1" stop-color="#fff"/></linearGradient><linearGradient id="SVGID_7_" gradientUnits="userSpaceOnUse" x1="199.445" x2="304.349" y1="256.365" y2="151.461"><stop offset="0" stop-color="#00e5a1"/><stop offset=".3372" stop-color="#2aedb4"/><stop offset="1" stop-color="#85ffe0"/></linearGradient><linearGradient id="SVGID_8_" gradientUnits="userSpaceOnUse" x1="259.013" x2="259.013" y1="218.808" y2="171.229"><stop offset="0" stop-color="#009ed8"/><stop offset=".329" stop-color="#37c6db" stop-opacity=".671"/><stop offset=".6281" stop-color="#61e5de" stop-opacity=".372"/><stop offset=".8613" stop-color="#7bf8df" stop-opacity=".139"/><stop offset="1" stop-color="#85ffe0" stop-opacity="0"/></linearGradient><linearGradient id="lg2"><stop offset="0" stop-color="#00babd"/><stop offset="1" stop-color="#a7e7e8"/></linearGradient><linearGradient id="SVGID_9_" gradientUnits="userSpaceOnUse" x1="200.393" x2="366.854" xlink:href="#lg2" y1="488.663" y2="322.202"/><linearGradient id="SVGID_10_" gradientUnits="userSpaceOnUse" x1="110.165" x2="382.997" y1="479.875" y2="207.043"><stop offset="0" stop-color="#00babd"/><stop offset=".3209" stop-color="#5bd3d4"/><stop offset=".6528" stop-color="#b2eaeb"/><stop offset=".8871" stop-color="#eaf9f9"/><stop offset="1" stop-color="#fff"/></linearGradient><linearGradient id="SVGID_11_" gradientUnits="userSpaceOnUse" x1="205.197" x2="310.142" xlink:href="#lg2" y1="340.29" y2="235.345"/><linearGradient id="SVGID_12_" gradientUnits="userSpaceOnUse" x1="215.981" x2="317.314" xlink:href="#lg1" y1="329.541" y2="228.208"/><g><circle cx="259.013" cy="262.025" fill="url(#SVGID_1_)" r="256"/><circle cx="259.013" cy="262.025" fill="url(#SVGID_2_)" r="256"/><path d="m365.802 111.025c.789 57.43-47.358 103.868-106.789 104.225-59.432-.358-107.579-46.795-106.789-104.225.903-57.313 49.049-110.782 106.789-111.025 57.739.243 105.885 53.712 106.789 111.025z" fill="url(#SVGID_3_)"/><path d="m335.239 107.843c-30.693-25.698-61.187-51.289-91.28-75.453-34.418 7.693-60.859 40.409-61.224 76.97-.411 41.733 33.861 75.002 76.278 75.14 42.416-.139 76.689-33.407 76.278-75.14-.005-.508-.038-1.011-.052-1.517z" fill="url(#SVGID_4_)"/><path d="m259.013 30.75c-5.153 0-10.186.568-15.054 1.64.618 41.693 34.397 74.835 76.076 76.345 5.211.19 10.295-.127 15.204-.892-1.261-41.027-35.175-77.021-76.226-77.093z" fill="url(#SVGID_5_)"/><path d="m274.334 153.796c-42.35-.362-76.527-33.597-76.11-75.566.053-6.202.862-12.259 2.302-18.101-10.924 13.72-17.632 30.906-17.792 49.231-.411 41.733 33.861 75.002 76.278 75.14 36.158-.057 66.417-24.416 74.263-57.309-13.891 16.337-35.136 26.743-58.941 26.605z" fill="url(#SVGID_6_)"/><path d="m289.75 215.313c-20.492-.084-40.983-.084-61.475 0 .01-12.36.025-24.719.046-37.079 20.461-.183 40.922-.183 61.383 0 .021 12.36.036 24.72.046 37.079z" fill="url(#SVGID_7_)"/><path d="m289.75 215.313c-20.492-.084-40.983-.084-61.475 0 .01-12.36.025-24.719.046-37.079 20.461-.183 40.922-.183 61.383 0 .021 12.36.036 24.72.046 37.079z" fill="url(#SVGID_8_)"/><path d="m196.96 402.857c-.691 4.585-1.38 9.166-2.065 13.744-5.776 38.926 24.866 77.325 64.118 77.449 29.029.005 53.188-21.148 61.657-47.656-40.959-12.296-82.227-27.292-123.71-43.537z" fill="url(#SVGID_9_)"/><path d="m323.126 416.602c-5.433-36.301-11.061-72.814-16.797-109.469-.806-10.069.039-20.234 2.511-30.049 1.112-4.405 2.223-8.807 3.333-13.206 5.39-21.413 2.874-43.936-7.077-63.791-30.723-.282-61.445-.282-92.168 0-9.951 19.855-12.466 42.378-7.077 63.791 1.11 4.399 2.221 8.801 3.333 13.206 2.472 9.814 3.317 19.979 2.511 30.049-5.013 32.033-9.943 63.957-14.733 95.726 3.957 13.899 11.442 26.509 21.348 36.613 14.498 14.757 34.132 24.046 55.789 23.721 17.327-.241 33.369-6.582 46.569-16.797 3.009-9.42 3.996-19.531 2.458-29.794z" fill="url(#SVGID_10_)"/><path d="m259.013 240.391c-12.736.003-23.064 10.327-23.06 23.044.005 15.358.016 30.716.034 46.073.019 12.716 10.331 23.131 23.026 23.133 12.696-.002 23.009-10.417 23.026-23.133.018-15.358.029-30.716.034-46.073.003-12.717-10.324-23.04-23.06-23.044z" fill="url(#SVGID_11_)"/><path d="m259.013 317.267c-4.23 0-7.674-3.457-7.675-7.695-.006-15.373-.01-30.746-.011-46.119-.001-4.238 3.448-7.685 7.687-7.685s7.688 3.447 7.687 7.685c-.002 15.373-.005 30.746-.011 46.119-.004 4.238-3.447 7.695-7.677 7.695z" fill="url(#SVGID_12_)"/></g></svg>