<svg id="Capa_1" enable-background="new 0 0 512 512" height="512" viewBox="0 0 512 512" width="512" xmlns="http://www.w3.org/2000/svg" xmlns:xlink="http://www.w3.org/1999/xlink"><linearGradient id="SVGID_1_" gradientUnits="userSpaceOnUse" x1="74.981" x2="437.02" y1="437.019" y2="74.98"><stop offset="0" stop-color="#ff2f2b"/><stop offset="1" stop-color="#ffbdab"/></linearGradient><radialGradient id="SVGID_2_" cx="256.001" cy="256" gradientUnits="userSpaceOnUse" r="256"><stop offset="0" stop-color="#ff2f2b"/><stop offset=".1344" stop-color="#ff3935" stop-opacity=".866"/><stop offset=".3677" stop-color="#ff564e" stop-opacity=".632"/><stop offset=".6719" stop-color="#ff8478" stop-opacity=".328"/><stop offset="1" stop-color="#ffbdab" stop-opacity="0"/></radialGradient><linearGradient id="lg1"><stop offset="0" stop-color="#ffa9d4"/><stop offset="1" stop-color="#fff"/></linearGradient><linearGradient id="SVGID_3_" gradientUnits="userSpaceOnUse" x1="88.02" x2="414.009" xlink:href="#lg1" y1="514.008" y2="188.019"/><linearGradient id="lg2"><stop offset="0" stop-color="#ff2f2b"/><stop offset="1" stop-color="#ffc8e3"/></linearGradient><linearGradient id="SVGID_4_" gradientUnits="userSpaceOnUse" x1="-81.15" x2="172.377" xlink:href="#lg2" y1="371.47" y2="117.943"/><linearGradient id="SVGID_5_" gradientUnits="userSpaceOnUse" x1="64.004" x2="130.348" y1="173.543" y2="173.543"><stop offset="0" stop-color="#ffc8e3" stop-opacity="0"/><stop offset=".1332" stop-color="#ffc4de" stop-opacity=".133"/><stop offset=".2814" stop-color="#ffb9d1" stop-opacity=".281"/><stop offset=".4369" stop-color="#ffa6bb" stop-opacity=".437"/><stop offset=".5974" stop-color="#ff8c9c" stop-opacity=".597"/><stop offset=".7619" stop-color="#ff6b73" stop-opacity=".762"/><stop offset=".9271" stop-color="#ff4343" stop-opacity=".927"/><stop offset="1" stop-color="#ff2f2b"/></linearGradient><linearGradient id="SVGID_6_" gradientUnits="userSpaceOnUse" x1="-55.873" x2="409.356" xlink:href="#lg1" y1="562.079" y2="96.85"/><linearGradient id="SVGID_7_" gradientUnits="userSpaceOnUse" x1="121.817" x2="558.979" xlink:href="#lg1" y1="342.552" y2="-94.61"/><linearGradient id="SVGID_8_" gradientUnits="userSpaceOnUse" x1="79.081" x2="362.909" xlink:href="#lg2" y1="384.979" y2="101.151"/><radialGradient id="SVGID_9_" cx="256.349" cy="207.199" gradientUnits="userSpaceOnUse" r="115.2"><stop offset=".3743" stop-color="#ff2f2b"/><stop offset=".4584" stop-color="#ff3935" stop-opacity=".866"/><stop offset=".6043" stop-color="#ff564e" stop-opacity=".632"/><stop offset=".7947" stop-color="#ff8478" stop-opacity=".328"/><stop offset="1" stop-color="#ffbdab" stop-opacity="0"/></radialGradient><linearGradient id="SVGID_10_" gradientUnits="userSpaceOnUse" x1="182.851" x2="429.137" y1="281.082" y2="34.796"><stop offset="0" stop-color="#ffa9d4"/><stop offset=".2096" stop-color="#ffb5da"/><stop offset=".5903" stop-color="#ffd5ea"/><stop offset="1" stop-color="#fff"/></linearGradient><linearGradient id="SVGID_11_" gradientUnits="userSpaceOnUse" x1="160.887" x2="411.887" y1="303.873" y2="52.873"><stop offset="0" stop-color="#ff91bb"/><stop offset=".1723" stop-color="#ff9dc3"/><stop offset=".4852" stop-color="#ffbdd7"/><stop offset=".9006" stop-color="#fff1f7"/><stop offset="1" stop-color="#fff"/></linearGradient><g><circle cx="256" cy="256" fill="url(#SVGID_1_)" r="256"/><circle cx="256" cy="256" fill="url(#SVGID_2_)" r="256"/><path d="m117.036 281.065c5.218 49.905 10.999 99.987 17.129 150.213 1.921 15.583 15.142 27.98 30.535 28.452 60.867 1.825 121.733 1.466 182.6-1.077-74.166-56.008-152.449-118.243-230.264-177.588z" fill="url(#SVGID_3_)"/><path d="m94.985 238.398c15.37-.097 30.74-.179 46.11-.245.123-43.155.593-86.311 1.41-129.466-15.153.442-30.306.986-45.459 1.633-8.364.363-15.361 7.404-15.596 15.68-.909 32.5-1.489 65-1.742 97.5-.067 8.277 6.787 14.944 15.277 14.898z" fill="url(#SVGID_4_)"/><path d="m94.985 238.398c15.37-.097 30.74-.179 46.11-.245.123-43.155.593-86.311 1.41-129.466-15.153.442-30.306.986-45.459 1.633-8.364.363-15.361 7.404-15.596 15.68-.909 32.5-1.489 65-1.742 97.5-.067 8.277 6.787 14.944 15.277 14.898z" fill="url(#SVGID_5_)"/><path d="m368.5 64.32c-75-3.758-150-4.201-225-1.326-16.543.654-30.427 14.901-30.905 31.585-1.037 37.823-1.721 75.646-2.051 113.469.202 4.793.41 9.587.625 14.382 1.861 19.517 3.821 39.063 5.868 58.636 44.658 92.411 131.507 163.457 230.264 177.589 15.392-.658 28.706-13.124 30.729-28.606 8.99-69.492 17.023-138.618 23.524-207.29.207-4.754.407-9.506.599-14.258-.408-37.5-1.252-75-2.534-112.5-.588-16.537-14.575-30.826-31.119-31.681z" fill="url(#SVGID_6_)"/><path d="m402.152 208.5c.786 77.969-65.914 144.1-145.857 144.73-79.95-.074-146.368-66.408-145.752-145.182 1.059-78.738 67.346-147.091 145.457-146.879 78.105.843 144.937 69.399 146.152 147.331z" fill="url(#SVGID_7_)"/><path d="m371.456 208.048c.532 62.301-51.711 114.111-115.117 114.439-63.411-.023-115.5-51.993-115.1-114.796.618-62.78 52.603-115.975 114.867-115.778 62.26.502 114.608 53.856 115.35 116.135z" fill="url(#SVGID_8_)"/><path d="m371.456 208.048c.532 62.301-51.711 114.111-115.117 114.439-63.411-.023-115.5-51.993-115.1-114.796.618-62.78 52.603-115.975 114.867-115.778 62.26.502 114.608 53.856 115.35 116.135z" fill="url(#SVGID_9_)"/><path d="m356.109 207.857c.418 54.266-44.709 99.039-99.754 99.258-55.047-.012-100.072-44.924-99.768-99.567.446-54.626 45.378-100.439 99.566-100.264 54.183.372 99.401 46.325 99.956 100.573z" fill="url(#SVGID_10_)"/><path d="m271.746 276.361c-55.152-.012-100.059-44.745-99.631-99.545.071-9.9 1.604-19.476 4.37-28.543-12.328 16.711-19.776 37.2-19.898 59.274-.304 54.643 44.72 99.555 99.768 99.567 45.141-.099 83.563-30.405 95.75-71.024-18.122 24.217-47.414 40.237-80.359 40.271z" fill="url(#SVGID_11_)"/></g></svg>