<svg id="Capa_1" enable-background="new 0 0 512 512" height="512" viewBox="0 0 512 512" width="512" xmlns="http://www.w3.org/2000/svg" xmlns:xlink="http://www.w3.org/1999/xlink"><linearGradient id="SVGID_1_" gradientUnits="userSpaceOnUse" x1="74.981" x2="437.019" y1="437.019" y2="74.981"><stop offset="0" stop-color="#00aa45"/><stop offset="1" stop-color="#d3ff33"/></linearGradient><radialGradient id="SVGID_2_" cx="256" cy="256" gradientUnits="userSpaceOnUse" r="256"><stop offset="0" stop-color="#00aa45"/><stop offset=".109" stop-color="#0fb044" stop-opacity=".891"/><stop offset=".3171" stop-color="#35bf40" stop-opacity=".683"/><stop offset=".6028" stop-color="#73d83b" stop-opacity=".397"/><stop offset=".9518" stop-color="#c7fa34" stop-opacity=".048"/><stop offset="1" stop-color="#d3ff33" stop-opacity="0"/></radialGradient><linearGradient id="SVGID_3_" gradientUnits="userSpaceOnUse" x1="-24.864" x2="406.393" y1="488.887" y2="57.63"><stop offset="0" stop-color="#b8ef5c"/><stop offset=".1177" stop-color="#bbf064"/><stop offset=".299" stop-color="#c5f279"/><stop offset=".5213" stop-color="#d4f59d"/><stop offset=".7736" stop-color="#e9facd"/><stop offset="1" stop-color="#fff"/></linearGradient><linearGradient id="SVGID_4_" gradientUnits="userSpaceOnUse" x1="103.866" x2="290.957" y1="256.217" y2="69.127"><stop offset="0" stop-color="#e6fe7f"/><stop offset=".1395" stop-color="#e8fe87"/><stop offset=".3544" stop-color="#ecfe9c"/><stop offset=".6178" stop-color="#f3ffc0"/><stop offset=".9172" stop-color="#fcfff0"/><stop offset="1" stop-color="#fff"/></linearGradient><linearGradient id="lg1"><stop offset="0" stop-color="#95e12e"/><stop offset=".0988" stop-color="#99e236"/><stop offset=".251" stop-color="#a4e54b"/><stop offset=".4377" stop-color="#b6ea6f"/><stop offset=".6517" stop-color="#cff1a0"/><stop offset=".8856" stop-color="#eefade"/><stop offset="1" stop-color="#fff"/></linearGradient><linearGradient id="SVGID_5_" gradientUnits="userSpaceOnUse" x1="7.37" x2="345.936" xlink:href="#lg1" y1="364.511" y2="25.945"/><linearGradient id="SVGID_6_" gradientUnits="userSpaceOnUse" x1="145.119" x2="273.045" xlink:href="#lg1" y1="399.028" y2="271.102"/><linearGradient id="SVGID_7_" gradientUnits="userSpaceOnUse" x1="158.31" x2="278.338" xlink:href="#lg1" y1="366.118" y2="246.09"/><linearGradient id="SVGID_8_" gradientUnits="userSpaceOnUse" x1="54.512" x2="393.352" xlink:href="#lg1" y1="426.554" y2="87.714"/><linearGradient id="SVGID_9_" gradientUnits="userSpaceOnUse" x1="149.896" x2="383.111" y1="331.341" y2="98.126"><stop offset="0" stop-color="#5ccd38"/><stop offset=".1486" stop-color="#62d038"/><stop offset=".3567" stop-color="#75d737"/><stop offset=".5996" stop-color="#92e436"/><stop offset=".867" stop-color="#bcf534"/><stop offset="1" stop-color="#d3ff33"/></linearGradient><linearGradient id="lg2"><stop offset="0" stop-color="#5ccd38"/><stop offset=".1349" stop-color="#62cf3b"/><stop offset=".3237" stop-color="#75d645"/><stop offset=".5443" stop-color="#93e054"/><stop offset=".7868" stop-color="#bcef69"/><stop offset="1" stop-color="#e6fe7f"/></linearGradient><linearGradient id="SVGID_10_" gradientUnits="userSpaceOnUse" x1="150.91" x2="310.239" xlink:href="#lg2" y1="465.88" y2="306.551"/><linearGradient id="SVGID_11_" gradientUnits="userSpaceOnUse" x1="144.567" x2="346.275" xlink:href="#lg2" y1="548.216" y2="346.508"/><g><circle cx="256" cy="256" fill="url(#SVGID_1_)" r="256"/><circle cx="256" cy="256" fill="url(#SVGID_2_)" r="256"/><path d="m226 26.281c-10 .479-20 1.198-30 2.157-8.279.803-15.112 8.379-15.25 16.683-.08 5.022-.157 10.043-.232 15.065 9.507 36.63 19.404 74.086 29.49 111.996-10.354 38.407-20.697 76.524-30.828 113.98.03 10.043.072 20.087.125 30.13 5.14 5.208 10.277 10.438 15.41 15.679-5.081 4.877-10.153 9.698-15.214 14.451.077 10.043.167 20.087.268 30.13 50.821 3.512 101.641 3.512 152.461 0 .808-80.347.856-160.694.143-241.041-35.952-37.321-71.614-75.148-106.373-109.23z" fill="url(#SVGID_3_)"/><path d="m316 28.439c-30-2.876-60-3.595-90-2.157 4.984 56.154 49.796 100.244 106.374 109.23-.268-30.13-.642-60.26-1.124-90.391-.137-8.303-6.971-15.879-15.25-16.682z" fill="url(#SVGID_4_)"/><path d="m179.181 286.163c-.223-75.325.223-150.651 1.338-225.976 10.064-1.033 20.128-1.859 30.192-2.479 8.332-.522 15.052 6.085 15.011 14.551-.356 66.41-.51 132.82-.464 199.23.005 8.469-6.865 15.28-15.35 15.17-10.242-.124-20.485-.29-30.727-.496z" fill="url(#SVGID_5_)"/><path d="m217.653 317.339c-5.113-.093-10.226-.205-15.339-.335.037 10.149.083 20.298.137 30.446 5.1.188 10.199.349 15.3.483 4.222.113 7.639-3.248 7.628-7.481-.014-5.108-.027-10.217-.039-15.325-.009-4.233-3.452-7.712-7.687-7.788z" fill="url(#SVGID_6_)"/><path d="m202.314 317.004c-7.669-.195-15.339-.432-23.008-.711.053 10.043.119 20.087.196 30.13 7.65.403 15.3.745 22.949 1.027 4.224.158 7.634-3.153 7.616-7.37-.021-5.088-.041-10.176-.059-15.263-.013-4.217-3.458-7.707-7.694-7.813z" fill="url(#SVGID_7_)"/><path d="m278.949 348.256c-12.648.206-22.943-10.168-22.949-22.881 0-82 0-164 0-246 .009-12.711 10.171-23.108 22.645-22.714 12.475.393 22.725 11.34 22.833 23.941.628 81.405.799 162.81.514 244.215-.049 12.604-10.396 23.228-23.043 23.439z" fill="url(#SVGID_8_)"/><path d="m271.33 325.313c.095-81.934.038-163.868-.171-245.802-.008-4.243 3.369-7.623 7.55-7.503 4.179.119 7.587 3.682 7.61 7.912.418 81.736.533 163.471.343 245.207-.011 4.23-3.448 7.725-7.679 7.782-4.231.058-7.658-3.353-7.653-7.596z" fill="url(#SVGID_9_)"/><path d="m179.769 376.553c-4.212-.287-7.587 2.808-7.537 6.947.294 25 .67 50 1.128 75 .078 4.138 3.5 7.945 7.64 8.444 10 1.198 20 2.157 30 2.876-.31-30.527-.556-61.054-.739-91.581-10.163-.421-20.327-.983-30.492-1.686z" fill="url(#SVGID_10_)"/><path d="m332.231 376.553c-40.657 2.81-81.313 3.372-121.969 1.686-4.211-.172-7.6 3.067-7.568 7.269.188 25.372.427 50.744.718 76.116.049 4.201 3.449 7.897 7.589 8.196 40 2.876 80 1.917 120-2.876 4.14-.499 7.563-4.306 7.64-8.444.458-25 .834-50 1.128-75 .05-4.139-3.329-7.234-7.538-6.947z" fill="url(#SVGID_11_)"/></g></svg>