<svg id="Capa_1" enable-background="new 0 0 512 512" height="512" viewBox="0 0 512 512" width="512" xmlns="http://www.w3.org/2000/svg" xmlns:xlink="http://www.w3.org/1999/xlink"><linearGradient id="lg1"><stop offset="0" stop-color="#364aff"/><stop offset="1" stop-color="#fc54ff"/></linearGradient><linearGradient id="SVGID_1_" gradientUnits="userSpaceOnUse" x1="74.981" x2="437.019" xlink:href="#lg1" y1="437.019" y2="74.981"/><radialGradient id="SVGID_2_" cx="256" cy="256" gradientUnits="userSpaceOnUse" r="258.6"><stop offset=".095" stop-color="#8d00db" stop-opacity=".66"/><stop offset=".2822" stop-color="#9f0de1" stop-opacity=".523"/><stop offset=".6541" stop-color="#cc30f0" stop-opacity=".252"/><stop offset="1" stop-color="#fc54ff" stop-opacity="0"/></radialGradient><linearGradient id="lg2"><stop offset="0" stop-color="#b31de7"/><stop offset=".3399" stop-color="#cf4ef0"/><stop offset=".7861" stop-color="#f089fb"/><stop offset="1" stop-color="#fda0ff"/></linearGradient><linearGradient id="SVGID_3_" gradientUnits="userSpaceOnUse" x1="-40.809" x2="526.854" xlink:href="#lg2" y1="593.469" y2="25.805"/><linearGradient id="SVGID_4_" gradientUnits="userSpaceOnUse" x1="256" x2="256" y1="470.008" y2="290.139"><stop offset="0" stop-color="#fda0ff" stop-opacity="0"/><stop offset=".3272" stop-color="#fb9fff" stop-opacity=".327"/><stop offset=".4732" stop-color="#f49cff" stop-opacity=".473"/><stop offset=".5831" stop-color="#e796ff" stop-opacity=".583"/><stop offset=".6751" stop-color="#d58fff" stop-opacity=".675"/><stop offset=".7558" stop-color="#bd85ff" stop-opacity=".756"/><stop offset=".8285" stop-color="#a178ff" stop-opacity=".829"/><stop offset=".8954" stop-color="#7e69ff" stop-opacity=".895"/><stop offset=".9558" stop-color="#5758ff" stop-opacity=".956"/><stop offset="1" stop-color="#364aff"/></linearGradient><linearGradient id="SVGID_5_" gradientUnits="userSpaceOnUse" x1="-48.485" x2="313.433" xlink:href="#lg2" y1="469.305" y2="107.387"/><linearGradient id="SVGID_6_" gradientUnits="userSpaceOnUse" x1="179.125" x2="179.125" y1="372.376" y2="200.791"><stop offset="0" stop-color="#fda0ff" stop-opacity="0"/><stop offset=".3917" stop-color="#fb9fff" stop-opacity=".392"/><stop offset=".5328" stop-color="#f49cff" stop-opacity=".533"/><stop offset=".6334" stop-color="#e997ff" stop-opacity=".633"/><stop offset=".7147" stop-color="#d890ff" stop-opacity=".715"/><stop offset=".7845" stop-color="#c286ff" stop-opacity=".785"/><stop offset=".8461" stop-color="#a67bff" stop-opacity=".846"/><stop offset=".9019" stop-color="#866dff" stop-opacity=".902"/><stop offset=".9515" stop-color="#625dff" stop-opacity=".952"/><stop offset=".9973" stop-color="#394bff" stop-opacity=".997"/><stop offset="1" stop-color="#364aff"/></linearGradient><linearGradient id="lg3"><stop offset="0" stop-color="#fc54ff"/><stop offset=".4062" stop-color="#fd9bff"/><stop offset="1" stop-color="#fff"/></linearGradient><linearGradient id="SVGID_7_" gradientUnits="userSpaceOnUse" x1="-12.958" x2="243.743" xlink:href="#lg3" y1="314" y2="57.299"/><linearGradient id="SVGID_8_" gradientUnits="userSpaceOnUse" x1="-34.703" x2="277.328" xlink:href="#lg3" y1="398.712" y2="86.681"/><linearGradient id="SVGID_9_" gradientUnits="userSpaceOnUse" x1="-11.128" x2="240.094" xlink:href="#lg3" y1="401.273" y2="150.05"/><linearGradient id="SVGID_10_" gradientUnits="userSpaceOnUse" x1="-66.491" x2="290.308" xlink:href="#lg3" y1="503.842" y2="147.043"/><linearGradient id="SVGID_11_" gradientUnits="userSpaceOnUse" x1="134.213" x2="473.854" xlink:href="#lg3" y1="466.01" y2="126.37"/><linearGradient id="SVGID_12_" gradientUnits="userSpaceOnUse" x1="120.784" x2="447.666" xlink:href="#lg3" y1="479.834" y2="152.952"/><linearGradient id="SVGID_13_" gradientUnits="userSpaceOnUse" x1="381.163" x2="450.748" xlink:href="#lg1" y1="276.859" y2="207.274"/><g><circle cx="256" cy="256" fill="url(#SVGID_1_)" r="256"/><circle cx="256" cy="256" fill="url(#SVGID_2_)" r="256"/><path d="m56.125 256c0 27.595 1.365 55.189 4.096 82.784.414 4.155 4.14 7.592 8.279 7.672 125 2.392 250 2.392 375 0 4.138-.081 7.865-3.517 8.279-7.672 2.731-27.595 4.096-55.189 4.096-82.784-133.25 0-266.5 0-399.75 0z" fill="url(#SVGID_3_)"/><path d="m56.125 256c0 27.595 1.365 55.189 4.096 82.784.414 4.155 4.14 7.592 8.279 7.672 125 2.392 250 2.392 375 0 4.138-.081 7.865-3.517 8.279-7.672 2.731-27.595 4.096-55.189 4.096-82.784-133.25 0-266.5 0-399.75 0z" fill="url(#SVGID_4_)"/><path d="m57.344 210.845c-1.083 20.069-1.444 40.138-1.083 60.207 81.944.265 163.889.367 245.833.306.083-20.477 0-40.954-.25-61.431-81.5-.184-163 .122-244.5.918z" fill="url(#SVGID_5_)"/><path d="m57.344 210.845c-1.083 20.069-1.444 40.138-1.083 60.207 81.944.265 163.889.367 245.833.306.083-20.477 0-40.954-.25-61.431-81.5-.184-163 .122-244.5.918z" fill="url(#SVGID_6_)"/><path d="m45.161 173.5c-1.604 15-2.771 30-3.5 45-.203 4.141 3.104 7.475 7.339 7.447 36.339-.245 72.678-.425 109.016-.541-38.583-17.722-76.525-35.153-112.855-51.906z" fill="url(#SVGID_7_)"/><path d="m53.5 165.842c-4.138.087-7.893 3.517-8.339 7.658 25.245 32.733 68.134 52.039 112.855 51.906 42.883-.137 85.767-.184 128.65-.141-10.333-20.5-20.666-41.015-30.666-61.515-67.5 0-135 .697-202.5 2.092z" fill="url(#SVGID_8_)"/><path d="m40.786 263.5c.146 15 .729 30 1.75 45 .283 4.141 3.954 7.547 8.151 7.605 36.043.49 72.085.85 108.128 1.082-39.198-18.094-78.865-36.119-118.029-53.687z" fill="url(#SVGID_9_)"/><path d="m48.438 256c-4.245.001-7.692 3.359-7.651 7.5 29.831 33.352 73.762 53.4 118.029 53.687 32.395.208 64.79.313 97.185.313 10.139-20.5 20.5-41.01 30.75-61.5-79.438 0-158.876 0-238.313 0z" fill="url(#SVGID_10_)"/><path d="m310.087 163.899c-18.029-.1-36.058-.149-54.087-.149v153.75c68.438 0 136.875-.465 205.313-1.395 4.197-.058 7.868-3.464 8.151-7.605 1.191-17.5 1.786-35 1.786-52.5-53.27-30-108.291-61.114-161.163-92.101z" fill="url(#SVGID_11_)"/><path d="m458.5 165.842c-49.471-1.022-98.942-1.67-148.413-1.943 32.892 55.309 93.04 92.244 161.163 92.101 0-27.5-1.47-55-4.411-82.5-.446-4.141-4.201-7.571-8.339-7.658z" fill="url(#SVGID_12_)"/><path d="m394.281 240.78c.159 12.617 10.393 22.827 23.129 22.802 12.727-.027 23.177-10.184 22.965-22.682s-10.955-22.718-23.621-22.811c-12.674-.091-22.615 10.074-22.473 22.691z" fill="url(#SVGID_13_)"/></g></svg>