<svg id="Capa_1" enable-background="new 0 0 512 512" height="512" viewBox="0 0 512 512" width="512" xmlns="http://www.w3.org/2000/svg" xmlns:xlink="http://www.w3.org/1999/xlink"><linearGradient id="SVGID_1_" gradientUnits="userSpaceOnUse" x1="74.981" x2="437.019" y1="437.019" y2="74.981"><stop offset="0" stop-color="#ff4c4c"/><stop offset="1" stop-color="#fff200"/></linearGradient><radialGradient id="SVGID_2_" cx="259.042" cy="342.197" gradientTransform="matrix(1 0 0 1.867 0 -296.533)" gradientUnits="userSpaceOnUse" r="266.477"><stop offset="0" stop-color="#ff4c4c"/><stop offset=".3065" stop-color="#ff8e5d" stop-opacity=".679"/><stop offset=".6109" stop-color="#ffc86c" stop-opacity=".36"/><stop offset=".8346" stop-color="#ffec75" stop-opacity=".125"/><stop offset=".9537" stop-color="#fffa78" stop-opacity="0"/></radialGradient><linearGradient id="SVGID_3_" gradientUnits="userSpaceOnUse" x1="118.574" x2="341.123" y1="485.235" y2="262.685"><stop offset="0" stop-color="#fffa78"/><stop offset="1" stop-color="#fff"/></linearGradient><linearGradient id="lg1"><stop offset="0" stop-color="#ffcb00"/><stop offset=".5" stop-color="#fffa7d"/><stop offset="1" stop-color="#fff"/></linearGradient><linearGradient id="SVGID_4_" gradientUnits="userSpaceOnUse" x1="67.72" x2="369.444" xlink:href="#lg1" y1="572.202" y2="270.477"/><linearGradient id="SVGID_5_" gradientUnits="userSpaceOnUse" x1="147.395" x2="371.445" xlink:href="#lg1" y1="490.317" y2="266.267"/><linearGradient id="lg2"><stop offset="0" stop-color="#ffcb00"/><stop offset="1" stop-color="#fffa78"/></linearGradient><linearGradient id="SVGID_6_" gradientUnits="userSpaceOnUse" x1="222.036" x2="309.9" xlink:href="#lg2" y1="415.8" y2="327.936"/><linearGradient id="SVGID_7_" gradientUnits="userSpaceOnUse" x1="217.726" x2="294.274" xlink:href="#lg2" y1="118.313" y2="41.766"/><linearGradient id="SVGID_8_" gradientUnits="userSpaceOnUse" x1="149.345" x2="293.666" y1="268.372" y2="124.051"><stop offset="0" stop-color="#ffcb00"/><stop offset=".9665" stop-color="#fffdf6"/><stop offset="1" stop-color="#fff"/></linearGradient><linearGradient id="SVGID_9_" gradientUnits="userSpaceOnUse" x1="213.422" x2="327.448" xlink:href="#lg2" y1="290.766" y2="176.739"/><linearGradient id="lg3"><stop offset="0" stop-color="#ffcb00"/><stop offset=".5829" stop-color="#ffe748"/><stop offset="1" stop-color="#fffa78"/></linearGradient><linearGradient id="SVGID_10_" gradientUnits="userSpaceOnUse" x1="272.157" x2="332.756" xlink:href="#lg3" y1="446.985" y2="386.387"/><linearGradient id="SVGID_11_" gradientUnits="userSpaceOnUse" x1="287.48" x2="348.038" xlink:href="#lg3" y1="401.008" y2="340.449"/><g><circle cx="256" cy="256" fill="url(#SVGID_1_)" r="256"/><circle cx="256" cy="256" fill="url(#SVGID_2_)" r="256"/><path d="m347.645 321.223c-4.946-4.905-9.901-9.844-14.861-14.809.078-21.557.105-43.113.083-64.67-.008-8.177-6.364-15.281-14.62-15.745-8.824-.496-16.132 6.499-16.127 15.206.003 5.106.005 10.212.005 15.318 0 4.229-3.443 7.663-7.689 7.668-25.624.028-51.248.028-76.873 0-4.245-.006-7.689-3.439-7.689-7.668 0-4.958.001-9.916.004-14.874.004-8.242-6.326-15.313-14.581-15.66-8.823-.369-16.156 6.678-16.166 15.314-.023 21.704.005 43.407.083 65.111-4.96 4.966-9.915 9.904-14.861 14.809-15.953 15.796-25.679 37.377-25.324 61.596.993 54.137 53.735 104.601 116.971 104.831 63.236-.23 115.978-50.693 116.97-104.831.354-24.219-9.372-45.8-25.325-61.596z" fill="url(#SVGID_3_)"/><path d="m271.093 456.817c-63.665.53-116.439-48.856-117.134-103.407-.079-8.37 1.026-16.437 3.161-24.079-11.602 14.755-18.384 33.18-18.09 53.489.992 54.136 53.734 104.6 116.97 104.83 53.875-.026 99.884-36.971 113.234-80.895-21.255 28.659-57.38 49.635-98.141 50.062z" fill="url(#SVGID_4_)"/><path d="m256 322.211c-12.715.004-23.007 10.257-22.979 22.979.046 24.373.11 48.747.193 73.12.052 12.717 10.258 23.214 22.786 23.214s22.734-10.497 22.786-23.214c.083-24.373.147-48.747.193-73.12.027-12.721-10.264-22.975-22.979-22.979z" fill="url(#SVGID_5_)"/><path d="m256 426.15c-4.182 0-7.59-3.466-7.595-7.704-.028-24.394-.049-48.787-.064-73.181-.003-4.239 3.433-7.678 7.66-7.678s7.663 3.439 7.66 7.678c-.015 24.394-.037 48.787-.064 73.181-.007 4.238-3.415 7.704-7.597 7.704z" fill="url(#SVGID_6_)"/><path d="m271 24.446c-10-.128-20-.128-30 0-8.279.107-15.04 7.165-15.096 15.638-.117 19.258-.218 38.516-.303 57.774-.011 2.383.529 4.724 1.576 6.839 2.22 4.481 4.445 8.97 6.674 13.465 1.189 2.398 1.729 5.08 1.562 7.773 6.837 10.177 13.702 20.402 20.586 30.652 6.884-10.25 13.75-20.475 20.586-30.652-.167-2.693.373-5.374 1.562-7.773 2.229-4.495 4.454-8.983 6.674-13.465 1.048-2.115 1.587-4.456 1.577-6.839-.085-19.258-.186-38.516-.303-57.774-.055-8.473-6.816-15.531-15.095-15.638z" fill="url(#SVGID_7_)"/><path d="m276.586 125.935c-13.724-.131-27.449-.131-41.173 0-1.269 20.496-2.534 40.988-3.791 61.474 8.11 10.191 16.239 20.428 24.377 30.678 8.138-10.25 16.267-20.487 24.377-30.678-1.255-20.486-2.521-40.978-3.79-61.474z" fill="url(#SVGID_8_)"/><path d="m280.377 187.408c-16.252-.096-32.503-.096-48.755 0-2.275 37.092-4.519 74.164-6.696 111.208-.259 4.409 3.255 8.152 7.676 8.171 15.599.065 31.197.065 46.796 0 4.421-.019 7.934-3.762 7.676-8.171-2.177-37.044-4.422-74.116-6.697-111.208z" fill="url(#SVGID_9_)"/><path d="m324.434 409.475c-.086 8.413-6.954 15.534-15.33 15.811-8.376.278-15.128-6.44-15.085-14.911.043-8.473 6.899-15.461 15.318-15.682 8.419-.219 15.183 6.366 15.097 14.782z" fill="url(#SVGID_10_)"/><path d="m340.109 363.286c-.073 8.377-6.976 15.435-15.405 15.697s-15.222-6.434-15.18-14.885c.043-8.453 6.93-15.419 15.39-15.607 8.46-.184 15.268 6.417 15.195 14.795z" fill="url(#SVGID_11_)"/></g></svg>