<svg id="Capa_1" enable-background="new 0 0 512 512" height="512" viewBox="0 0 512 512" width="512" xmlns="http://www.w3.org/2000/svg" xmlns:xlink="http://www.w3.org/1999/xlink"><linearGradient id="lg1"><stop offset="0" stop-color="#0072ff"/><stop offset="1" stop-color="#00e5a1"/></linearGradient><linearGradient id="SVGID_1_" gradientUnits="userSpaceOnUse" x1="74.981" x2="437.019" xlink:href="#lg1" y1="437.019" y2="74.981"/><radialGradient id="SVGID_2_" cx="256" cy="256" gradientTransform="matrix(1 0 0 1.965 0 -246.972)" gradientUnits="userSpaceOnUse" r="256"><stop offset="0" stop-color="#0072ff"/><stop offset=".0755" stop-color="#198cf9" stop-opacity=".925"/><stop offset=".1958" stop-color="#3aaff2" stop-opacity=".804"/><stop offset=".3237" stop-color="#55cceb" stop-opacity=".676"/><stop offset=".4592" stop-color="#6ae3e6" stop-opacity=".541"/><stop offset=".606" stop-color="#79f3e3" stop-opacity=".394"/><stop offset=".7724" stop-color="#82fce1" stop-opacity=".228"/><stop offset="1" stop-color="#85ffe0" stop-opacity="0"/></radialGradient><linearGradient id="lg2"><stop offset="0" stop-color="#3dcbcd"/><stop offset=".1288" stop-color="#4fd0d2"/><stop offset=".3866" stop-color="#7ddcdd"/><stop offset=".7456" stop-color="#c7f0f1"/><stop offset="1" stop-color="#fff"/></linearGradient><linearGradient id="SVGID_3_" gradientUnits="userSpaceOnUse" x1="146.2" x2="335.49" xlink:href="#lg2" y1="222.975" y2="33.685"/><linearGradient id="SVGID_4_" gradientUnits="userSpaceOnUse" x1="256" x2="256" y1="173.651" y2="41.96"><stop offset="0" stop-color="#0072ff"/><stop offset=".0321" stop-color="#1285fb" stop-opacity=".968"/><stop offset=".0967" stop-color="#31a6f4" stop-opacity=".903"/><stop offset=".1693" stop-color="#4bc2ed" stop-opacity=".831"/><stop offset=".2504" stop-color="#61d8e9" stop-opacity=".75"/><stop offset=".3441" stop-color="#71eae5" stop-opacity=".656"/><stop offset=".4581" stop-color="#7cf6e2" stop-opacity=".542"/><stop offset=".6136" stop-color="#83fde0" stop-opacity=".386"/><stop offset="1" stop-color="#85ffe0" stop-opacity="0"/></linearGradient><linearGradient id="SVGID_5_" gradientUnits="userSpaceOnUse" x1="169.108" x2="300.112" y1="254.685" y2="123.681"><stop offset="0" stop-color="#80ddde"/><stop offset=".1849" stop-color="#92e2e3"/><stop offset=".5549" stop-color="#c0eeef"/><stop offset="1" stop-color="#fff"/></linearGradient><linearGradient id="lg3"><stop offset="0" stop-color="#009ed8"/><stop offset=".102" stop-color="#12a5db"/><stop offset=".3062" stop-color="#40b6e2"/><stop offset=".5939" stop-color="#8bd3ed"/><stop offset=".9511" stop-color="#f1f9fd"/><stop offset="1" stop-color="#fff"/></linearGradient><linearGradient id="SVGID_6_" gradientUnits="userSpaceOnUse" x1="41.531" x2="345.959" xlink:href="#lg3" y1="538.28" y2="233.852"/><linearGradient id="SVGID_7_" gradientUnits="userSpaceOnUse" x1="-102.785" x2="275.48" xlink:href="#lg3" y1="692.99" y2="314.725"/><linearGradient id="SVGID_8_" gradientUnits="userSpaceOnUse" x1="-71.75" x2="306.836" xlink:href="#lg3" y1="670.675" y2="292.089"/><linearGradient id="SVGID_9_" gradientUnits="userSpaceOnUse" x1="159.985" x2="346.644" xlink:href="#lg2" y1="362.665" y2="176.005"/><linearGradient id="SVGID_10_" gradientUnits="userSpaceOnUse" x1="122.876" x2="314.239" xlink:href="#lg2" y1="289.588" y2="98.225"/><linearGradient id="SVGID_11_" gradientUnits="userSpaceOnUse" x1="113.802" x2="285.501" y1="205.339" y2="33.64"><stop offset="0" stop-color="#3dcbcd"/><stop offset=".3318" stop-color="#81dddf"/><stop offset=".7915" stop-color="#dbf5f6"/><stop offset="1" stop-color="#fff"/></linearGradient><linearGradient id="SVGID_12_" gradientUnits="userSpaceOnUse" x1="216.65" x2="273.541" xlink:href="#lg1" y1="102.265" y2="45.374"/><linearGradient id="SVGID_13_" gradientUnits="userSpaceOnUse" x1="225.189" x2="281.655" xlink:href="#lg1" y1="93.728" y2="37.262"/><g><circle cx="256" cy="256" fill="url(#SVGID_1_)" r="256"/><circle cx="256" cy="256" fill="url(#SVGID_2_)" r="256"/><path d="m225.772 63.082c-.18 33.262-.313 66.524-.4 99.785 20.419-.19 40.838-.19 61.257 0-.087-33.262-.22-66.524-.4-99.785-20.153-.393-40.305-.393-60.457 0z" fill="url(#SVGID_3_)"/><path d="m225.772 63.082c-.18 33.262-.313 66.524-.4 99.785 20.419-.19 40.838-.19 61.257 0-.087-33.262-.22-66.524-.4-99.785-20.153-.393-40.305-.393-60.457 0z" fill="url(#SVGID_4_)"/><path d="m301.878 147.723c-30.585-.497-61.17-.497-91.755 0-8.444.141-15.332 7.137-15.379 15.571-.027 5.094-.051 10.188-.074 15.281 40.887-.633 81.774-.633 122.661 0-.022-5.094-.047-10.188-.074-15.281-.047-8.434-6.936-15.43-15.379-15.571z" fill="url(#SVGID_5_)"/><path d="m315.789 424.065c-9.066-79.396-19.031-159.341-29.111-239.488-20.452-.145-40.905-.145-61.357 0-1.288 10.243-2.575 20.483-3.857 30.719 6.391-.029 12.782-.05 19.172-.063-.046 80.53.044 161.06.27 241.589 5.061 10.299 10.094 20.578 15.094 30.828 3.839 0 7.679-1.521 10.617-4.547 14.786-15.223 29.709-30.673 44.729-46.2 3.331-3.445 4.974-8.183 4.443-12.838z" fill="url(#SVGID_6_)"/><path d="m250.762 483.136c-3.903-89.321-7.964-178.64-11.8-267.899-5.832.013-11.665.033-17.498.059-8.754 69.854-17.346 139.52-25.253 208.768-.531 4.655 1.112 9.393 4.444 12.838 15.019 15.527 29.943 30.977 44.728 46.2 2.939 3.026 6.779 4.547 10.617 4.547-1.894.001-3.788-1.505-5.238-4.513z" fill="url(#SVGID_7_)"/><path d="m238.962 215.238c-4.319 69.926-8.557 139.806-12.459 209.585-.262 4.691.549 9.407 2.192 12.781 7.41 15.208 14.772 30.398 22.067 45.533 1.45 3.008 3.344 4.514 5.238 4.514 0-90.811 0-181.621 0-272.431-5.679-.001-11.359.005-17.038.018z" fill="url(#SVGID_8_)"/><path d="m363.199 164.467c-15.314-.498-30.628-.889-45.943-1.173.053 10.188.098 20.375.134 30.563 15.348.191 30.695.453 46.043.786 8.478.175 15.303-6.368 15.227-14.643-.074-8.274-7.006-15.25-15.461-15.533z" fill="url(#SVGID_9_)"/><path d="m332.663 178.842c-.048-8.404-6.95-15.386-15.406-15.548-56.152-1.043-112.304-.652-168.456 1.173-8.455.284-15.386 7.259-15.461 15.533-.075 8.275 6.749 14.817 15.227 14.643 56.275-1.223 112.55-1.485 168.825-.786 8.477.099 15.319-6.61 15.271-15.015z" fill="url(#SVGID_10_)"/><path d="m293.785 63.248c.167 21.164-16.767 37.959-37.785 37.977-21.018-.018-37.952-16.813-37.785-37.977.173-21.149 17.107-38.895 37.785-38.898 20.677.003 37.612 17.749 37.785 38.898z" fill="url(#SVGID_11_)"/><path d="m278.671 62.953c.06 12.724-10.093 22.892-22.671 22.897-12.578-.005-22.732-10.173-22.671-22.897.062-12.719 10.216-23.229 22.671-23.228 12.456-.001 22.609 10.51 22.671 23.228z" fill="url(#SVGID_12_)"/><path d="m263.567 70.493c-12.547-.062-22.686-10.269-22.638-23.001.002-.634.035-1.261.087-1.882-4.68 4.274-7.659 10.482-7.687 17.343-.061 12.724 10.093 22.892 22.671 22.897 11.951-.004 21.709-9.188 22.597-21.018-3.987 3.549-9.252 5.687-15.03 5.661z" fill="url(#SVGID_13_)"/></g></svg>