<svg id="Capa_1" enable-background="new 0 0 512 512" height="512" viewBox="0 0 512 512" width="512" xmlns="http://www.w3.org/2000/svg" xmlns:xlink="http://www.w3.org/1999/xlink"><linearGradient id="lg1"><stop offset="0" stop-color="#ff2f2b"/><stop offset="1" stop-color="#ffbdab"/></linearGradient><linearGradient id="SVGID_1_" gradientUnits="userSpaceOnUse" x1="74.981" x2="437.02" xlink:href="#lg1" y1="437.019" y2="74.98"/><radialGradient id="SVGID_2_" cx="255.555" cy="257.076" gradientTransform="matrix(1 0 0 1.299 .446 -78.003)" gradientUnits="userSpaceOnUse" r="256"><stop offset="0" stop-color="#ff2f2b"/><stop offset=".4761" stop-color="#ff7a6e" stop-opacity=".524"/><stop offset=".8267" stop-color="#ffaa9a" stop-opacity=".173"/><stop offset="1" stop-color="#ffbdab" stop-opacity="0"/></radialGradient><linearGradient id="SVGID_3_" gradientTransform="matrix(0 1 -1 0 512 0)" gradientUnits="userSpaceOnUse" x1="222.54" x2="-98.286" y1="387.109" y2="66.283"><stop offset="0" stop-color="#ff91bb"/><stop offset=".1806" stop-color="#ffa7c9"/><stop offset=".7367" stop-color="#ffe6f0"/><stop offset="1" stop-color="#fff"/></linearGradient><linearGradient id="lg2"><stop offset="0" stop-color="#ff91bb"/><stop offset=".4249" stop-color="#ffc6dc"/><stop offset=".8049" stop-color="#ffeff5"/><stop offset="1" stop-color="#fff"/></linearGradient><linearGradient id="SVGID_4_" gradientUnits="userSpaceOnUse" x1="141.279" x2="292.726" xlink:href="#lg2" y1="173.571" y2="22.124"/><linearGradient id="SVGID_5_" gradientUnits="userSpaceOnUse" x1="63.483" x2="375.372" xlink:href="#lg2" y1="405.408" y2="93.52"/><linearGradient id="SVGID_6_" gradientUnits="userSpaceOnUse" x1="130.165" x2="392.276" xlink:href="#lg2" y1="330.726" y2="68.615"/><linearGradient id="SVGID_7_" gradientUnits="userSpaceOnUse" x1="193.652" x2="328.993" xlink:href="#lg1" y1="267.02" y2="131.679"/><linearGradient id="SVGID_8_" gradientUnits="userSpaceOnUse" x1="184.688" x2="314.2" xlink:href="#lg1" y1="275.985" y2="146.472"/><linearGradient id="SVGID_9_" gradientUnits="userSpaceOnUse" x1="184.29" x2="426.081" xlink:href="#lg2" y1="376.897" y2="135.106"/><linearGradient id="SVGID_10_" gradientUnits="userSpaceOnUse" x1="114.228" x2="419.536" xlink:href="#lg2" y1="476.525" y2="171.216"/><linearGradient id="SVGID_11_" gradientUnits="userSpaceOnUse" x1="77.054" x2="385.7" xlink:href="#lg2" y1="581.52" y2="272.873"/><linearGradient id="SVGID_12_" gradientUnits="userSpaceOnUse" x1="219.948" x2="381.772" y1="431.699" y2="269.876"><stop offset="0" stop-color="#ff91bb"/><stop offset="1" stop-color="#fff"/></linearGradient><linearGradient id="SVGID_13_" gradientUnits="userSpaceOnUse" x1="226.925" x2="303.478" y1="440.416" y2="363.863"><stop offset="0" stop-color="#ff2f2b"/><stop offset="1" stop-color="#ffb5d3"/></linearGradient><linearGradient id="SVGID_14_" gradientUnits="userSpaceOnUse" x1="128.457" x2="305.852" xlink:href="#lg2" y1="213.548" y2="36.153"/><linearGradient id="SVGID_15_" gradientUnits="userSpaceOnUse" x1="152.931" x2="306.358" xlink:href="#lg2" y1="226.781" y2="73.354"/><g><circle cx="256" cy="256" fill="url(#SVGID_1_)" r="256"/><circle cx="256" cy="256" fill="url(#SVGID_2_)" r="256"/><path d="m338.5 44.625c-55-3.684-110-3.684-165 0-8.278.562-15.155 7.864-15.343 16.189-.484 22.137-.884 44.274-1.2 66.411 32.727 18.566 65.81 38.662 99.043 59.162 33.233-20.5 66.316-40.596 99.043-59.162-.316-22.137-.716-44.274-1.2-66.411-.188-8.325-7.064-15.627-15.343-16.189z" fill="url(#SVGID_3_)"/><path d="m173.21 59.799c-.317 17.196-.59 34.393-.822 51.589 38.178-1.713 76.355-2.252 114.533-1.619-38.263-18.027-76.225-35.113-113.711-49.97z" fill="url(#SVGID_4_)"/><path d="m156.957 127.225c-.812 56.852-1.071 113.703-.778 170.555 66.547 1.127 133.094 1.127 199.641 0 .293-56.852.034-113.703-.778-170.555-66.028-3.117-132.056-3.117-198.085 0z" fill="url(#SVGID_5_)"/><path d="m171.438 252.5c0-31.864.145-63.728.436-95.592.079-8.372 6.989-15.412 15.418-15.66 45.806-1.314 91.611-1.314 137.417 0 8.429.248 15.338 7.288 15.418 15.66.291 31.864.436 63.728.436 95.592 0 8.372-6.895 15.2-15.384 15.24-46.119.18-92.238.18-138.357 0-8.489-.04-15.385-6.868-15.384-15.24z" fill="url(#SVGID_6_)"/><path d="m187.169 156.488c-.238 32.004-.357 64.008-.357 96.012h138.375c-46.124-32.004-92.368-65.142-138.018-96.012z" fill="url(#SVGID_7_)"/><path d="m187.169 156.488c28.633 50.235 79.709 86.419 138.018 96.012 0-32.004-.119-64.008-.357-96.012-45.887-1.134-91.773-1.134-137.661 0z" fill="url(#SVGID_8_)"/><path d="m355.885 282.687c-66.59.751-133.181.751-199.771 0-5.088 10.004-10.153 19.947-15.187 29.813 38.478 16 76.88 32.25 115.073 47.625 38.193-15.375 76.595-31.625 115.073-47.625-5.035-9.867-10.1-19.809-15.188-29.813z" fill="url(#SVGID_9_)"/><path d="m140.927 312.5c.12 15 .285 30 .495 45 38.333 11.75 76.545 23.125 114.578 33.375 38.033-10.25 76.246-21.625 114.578-33.375.21-15 .375-30 .495-45-76.715 2-153.431 2-230.146 0z" fill="url(#SVGID_10_)"/><path d="m158.5 459.279c65 5.145 130 5.145 195 0 8.278-.664 15.18-8.006 15.396-16.279.723-28.5 1.284-57 1.683-85.5-25.462 1.167-50.924 1.944-76.385 2.333-12.778 10.417-25.515 20.792-38.193 31.042-12.678-10.25-25.415-20.625-38.193-31.042-25.462-.389-50.924-1.167-76.385-2.333.399 28.5.959 57 1.683 85.5.215 8.272 7.116 15.615 15.394 16.279z" fill="url(#SVGID_11_)"/><path d="m218.246 431.9c-.183-24.022-.329-48.044-.439-72.067 25.462.389 50.924.389 76.385 0-.11 24.022-.256 48.044-.439 72.067-25.168.65-50.338.65-75.507 0z" fill="url(#SVGID_12_)"/><path d="m263.573 416.995c.019-13.836.036-27.672.05-41.508 5.082-.018 10.165-.053 15.247-.107-.043 13.824-.094 27.648-.151 41.472-5.048.071-10.097.119-15.146.143z" fill="url(#SVGID_13_)"/><path d="m266.533 57.279c-31.108-.245-62.215.595-93.323 2.52 2.19 2.421 4.479 4.766 6.831 7.039 27.803 26.702 66.478 42.276 106.88 42.932 17.564.291 35.127.831 52.691 1.619-.068-5.058-.14-10.116-.215-15.173-24.444-13.349-48.75-26.45-72.864-38.937z" fill="url(#SVGID_14_)"/><path d="m266.533 57.279c16.514 22.54 43.085 37.473 72.864 38.936-.181-12.139-.383-24.277-.607-36.416-24.086-1.491-48.171-2.33-72.257-2.52z" fill="url(#SVGID_15_)"/></g></svg>