<svg id="Capa_1" enable-background="new 0 0 512 512" height="512" viewBox="0 0 512 512" width="512" xmlns="http://www.w3.org/2000/svg" xmlns:xlink="http://www.w3.org/1999/xlink"><linearGradient id="SVGID_1_" gradientUnits="userSpaceOnUse" x1="74.981" x2="437.019" y1="437.019" y2="74.981"><stop offset="0" stop-color="#00aa45"/><stop offset="1" stop-color="#d3ff33"/></linearGradient><radialGradient id="SVGID_2_" cx="256" cy="256" gradientUnits="userSpaceOnUse" r="256"><stop offset="0" stop-color="#00aa45"/><stop offset=".109" stop-color="#0fb044" stop-opacity=".891"/><stop offset=".3171" stop-color="#35bf40" stop-opacity=".683"/><stop offset=".6028" stop-color="#73d83b" stop-opacity=".397"/><stop offset=".9518" stop-color="#c7fa34" stop-opacity=".048"/><stop offset="1" stop-color="#d3ff33" stop-opacity="0"/></radialGradient><linearGradient id="lg1"><stop offset="0" stop-color="#b8ef5c"/><stop offset="1" stop-color="#fff"/></linearGradient><linearGradient id="SVGID_3_" gradientUnits="userSpaceOnUse" x1="-551.532" x2="508.324" xlink:href="#lg1" y1="1061.162" y2="1.307"/><linearGradient id="lg2"><stop offset="0" stop-color="#00aa45"/><stop offset=".5913" stop-color="#5bcb37"/><stop offset="1" stop-color="#95e12e"/></linearGradient><linearGradient id="SVGID_4_" gradientUnits="userSpaceOnUse" x1="202.801" x2="297.584" xlink:href="#lg2" y1="120.721" y2="25.937"/><linearGradient id="SVGID_5_" gradientUnits="userSpaceOnUse" x1="48.983" x2="207.385" xlink:href="#lg2" y1="231.648" y2="73.246"/><linearGradient id="SVGID_6_" gradientUnits="userSpaceOnUse" x1="15.405" x2="174.477" xlink:href="#lg2" y1="269.751" y2="110.679"/><linearGradient id="SVGID_7_" gradientUnits="userSpaceOnUse" x1="132.81" x2="250.772" y1="421.174" y2="303.212"><stop offset="0" stop-color="#00aa45"/><stop offset=".1369" stop-color="#0daf43"/><stop offset=".3885" stop-color="#2ebb3e"/><stop offset=".7238" stop-color="#64cf36"/><stop offset="1" stop-color="#95e12e"/></linearGradient><linearGradient id="SVGID_8_" gradientUnits="userSpaceOnUse" x1="122.479" x2="210.146" xlink:href="#lg2" y1="424.575" y2="336.908"/><linearGradient id="SVGID_9_" gradientUnits="userSpaceOnUse" x1="327.535" x2="471.547" xlink:href="#lg2" y1="438.662" y2="294.649"/><linearGradient id="SVGID_10_" gradientUnits="userSpaceOnUse" x1="294.347" x2="415.977" xlink:href="#lg2" y1="447.419" y2="325.789"/><linearGradient id="SVGID_11_" gradientUnits="userSpaceOnUse" x1="362.234" x2="469.752" xlink:href="#lg2" y1="271.205" y2="163.687"/><linearGradient id="SVGID_12_" gradientUnits="userSpaceOnUse" x1="175.758" x2="369.238" xlink:href="#lg2" y1="342.252" y2="148.772"/><linearGradient id="SVGID_13_" gradientUnits="userSpaceOnUse" x1="-64.136" x2="238.271" xlink:href="#lg1" y1="391.37" y2="88.963"/><linearGradient id="SVGID_14_" gradientUnits="userSpaceOnUse" x1="319.357" x2="587.806" xlink:href="#lg1" y1="459.943" y2="191.493"/><linearGradient id="SVGID_15_" gradientUnits="userSpaceOnUse" x1="233.056" x2="423.264" xlink:href="#lg1" y1="440.466" y2="250.258"/><linearGradient id="SVGID_16_" gradientUnits="userSpaceOnUse" x1="141.364" x2="394.414" xlink:href="#lg1" y1="345.819" y2="92.769"/><linearGradient id="SVGID_17_" gradientUnits="userSpaceOnUse" x1="173.557" x2="461.443" xlink:href="#lg1" y1="503.35" y2="215.464"/><linearGradient id="SVGID_18_" gradientUnits="userSpaceOnUse" x1="72.139" x2="362.314" xlink:href="#lg1" y1="563.592" y2="273.417"/><linearGradient id="SVGID_19_" gradientUnits="userSpaceOnUse" x1="13.436" x2="189.837" xlink:href="#lg1" y1="395.12" y2="218.72"/><linearGradient id="SVGID_20_" gradientUnits="userSpaceOnUse" x1="-116.348" x2="224.143" xlink:href="#lg1" y1="549.066" y2="208.575"/><g><circle cx="256" cy="256" fill="url(#SVGID_1_)" r="256"/><circle cx="256" cy="256" fill="url(#SVGID_2_)" r="256"/><path d="m413.167 134.634c-23.614-29.784-54.982-53.561-90.43-67.11-44.491-.709-88.983-.709-133.474 0-35.448 13.548-66.815 37.326-90.43 67.11-14.932 42.9-29.598 85.494-43.569 127.645 1.285 38.383 14.532 74.16 35.802 104.649 37.096 27.12 74.006 54.556 110.3 81.717 36.422.486 72.845.486 109.267 0 36.294-27.162 73.204-54.598 110.301-81.717 8.357-11.974 15.474-24.786 21.117-38.242 8.717-20.784 13.9-43.099 14.686-66.407-13.972-42.151-28.638-84.746-43.57-127.645z" fill="url(#SVGID_3_)"/><path d="m256 55.1c-23.359-.003-45.777 4.419-66.735 12.422 21.988 16.117 44.266 32.504 66.735 49.022 22.469-16.518 44.748-32.905 66.735-49.022-20.957-8.003-43.375-12.425-66.735-12.422z" fill="url(#SVGID_4_)"/><path d="m65.421 195.287c-7.713 22.385-10.983 44.948-10.212 67.032 5.599-3.967 11.205-7.951 16.817-11.95 4.202-32.291 8.763-64.674 13.61-97.139-8.21 13.043-15.062 27.098-20.215 42.057z" fill="url(#SVGID_5_)"/><path d="m98.816 134.584c-4.705 5.949-9.108 12.175-13.181 18.647-9.487 22.663-14.877 47.118-15.054 72.659-.059 8.291.438 16.457 1.445 24.48 17.141-12.216 34.329-24.571 51.522-37.006-8.486-26.389-16.764-52.66-24.732-78.78z" fill="url(#SVGID_6_)"/><path d="m91.025 366.927c13.038 18.713 29.41 35.822 48.8 50.235 19.394 14.411 40.206 24.917 61.542 31.486-4.585-13.897-9.195-27.788-13.814-41.669-18.482-13.066-37.075-26.167-55.728-39.23-13.6-.235-27.2-.509-40.8-.822z" fill="url(#SVGID_7_)"/><path d="m131.825 367.749c16.31 15.945 35.148 29.321 55.728 39.23-4.287-12.882-8.582-25.754-12.875-38.615-14.284-.162-28.568-.367-42.853-.615z" fill="url(#SVGID_8_)"/><path d="m320.307 419.431c-3.233 9.735-6.459 19.475-9.674 29.218 21.337-6.569 42.146-17.074 61.542-31.486 19.388-14.413 35.762-31.522 48.8-50.235-3.429.079-6.857.155-10.286.229-30.303 17.404-60.478 34.913-90.382 52.274z" fill="url(#SVGID_9_)"/><path d="m410.689 367.156c-24.456.527-48.912.93-73.367 1.209-5.676 17.003-11.356 34.028-17.015 51.066 34.201-9.309 65.244-27.837 90.382-52.275z" fill="url(#SVGID_10_)"/><path d="m446.579 195.287c-7.71-22.38-19.207-42.762-33.396-60.704-7.968 26.121-16.246 52.391-24.731 78.78 22.821 16.505 45.634 32.87 68.339 48.956.77-22.084-2.5-44.647-10.212-67.032z" fill="url(#SVGID_11_)"/><path d="m256 167.07c-28.057 20.481-56.3 41.09-84.536 61.562-.122-.076 32.374 99.129 32.44 99.194 34.731.158 69.461.158 104.192 0 10.888-33.138 21.766-66.224 32.44-99.194-28.237-20.471-56.479-41.08-84.536-61.562z" fill="url(#SVGID_12_)"/><path d="m256 116.542v50.528c-28.057 20.481-56.302 41.09-84.539 61.561-15.987-5.134-31.962-10.229-47.917-15.264-8.478-26.373-16.749-52.628-24.711-78.734 23.613-29.784 54.982-53.561 90.429-67.11 21.989 16.117 44.269 32.503 66.738 49.019z" fill="url(#SVGID_13_)"/><path d="m420.934 366.928c8.357-11.974 15.474-24.786 21.117-38.242-10.442 12.756-20.905 25.586-31.361 38.47 3.415-.074 6.829-.15 10.244-.228z" fill="url(#SVGID_14_)"/><path d="m388.456 213.367c-15.955 5.035-31.93 10.13-47.917 15.264-10.673 32.97-21.551 66.056-32.439 99.194 9.803 13.558 19.553 27.077 29.221 40.536 24.456-.278 48.913-.68 73.37-1.206 11.916-11.598 22.491-24.521 31.361-38.47 8.717-20.784 13.9-43.099 14.686-66.407-22.688-16.071-45.481-32.421-68.282-48.911z" fill="url(#SVGID_15_)"/><path d="m413.167 134.634c-7.962 26.105-16.233 52.361-24.711 78.734-15.955 5.035-31.93 10.13-47.917 15.264-28.237-20.471-56.481-41.08-84.539-61.561 0-16.843 0-33.685 0-50.528 22.469-16.517 44.749-32.903 66.737-49.019 35.447 13.548 66.814 37.326 90.43 67.11z" fill="url(#SVGID_16_)"/><path d="m187.555 406.98c4.618 13.88 9.227 27.77 13.811 41.665 17.41 5.356 35.709 8.256 54.634 8.255 18.925.001 37.222-2.898 54.634-8.255 3.214-9.741 6.439-19.48 9.672-29.214-44.142-3.552-88.396-7.748-132.751-12.451z" fill="url(#SVGID_17_)"/><path d="m308.099 327.825c-34.733.158-69.466.158-104.198 0-9.803 13.558-19.553 27.077-29.221 40.536 4.293 12.862 8.589 25.736 12.875 38.619 25.564 12.306 53.79 19.248 83.551 19.146 16.96-.054 33.421-2.403 49.199-6.695 5.658-17.039 11.339-34.065 17.015-51.07-9.667-13.459-19.418-26.978-29.221-40.536z" fill="url(#SVGID_18_)"/><path d="m72.026 250.368c-5.593 3.986-11.181 7.956-16.762 11.91 1.284 38.383 14.53 74.16 35.802 104.649 13.586.312 27.172.585 40.758.82-20.137-39.482-40.236-78.691-59.798-117.379z" fill="url(#SVGID_19_)"/><path d="m203.901 327.825c-10.888-33.138-21.766-66.224-32.439-99.194-15.987-5.134-31.962-10.229-47.917-15.264-17.191 12.433-34.379 24.786-51.519 37.001 5.665 45.229 27.865 86.103 59.798 117.379 14.285.247 28.571.452 42.856.614 9.667-13.459 19.418-26.978 29.221-40.536z" fill="url(#SVGID_20_)"/></g></svg>