<svg id="Capa_1" enable-background="new 0 0 512 512" height="512" viewBox="0 0 512 512" width="512" xmlns="http://www.w3.org/2000/svg" xmlns:xlink="http://www.w3.org/1999/xlink"><linearGradient id="SVGID_1_" gradientUnits="userSpaceOnUse" x1="74.981" x2="437.019" y1="437.019" y2="74.981"><stop offset="0" stop-color="#364aff"/><stop offset="1" stop-color="#fc54ff"/></linearGradient><radialGradient id="SVGID_2_" cx="256" cy="256" gradientUnits="userSpaceOnUse" r="258.6"><stop offset="0" stop-color="#8d00db" stop-opacity=".66"/><stop offset=".1644" stop-color="#9204dd" stop-opacity=".552"/><stop offset=".3665" stop-color="#a10fe2" stop-opacity=".418"/><stop offset=".5883" stop-color="#ba22ea" stop-opacity=".272"/><stop offset=".8226" stop-color="#dd3cf5" stop-opacity=".117"/><stop offset="1" stop-color="#fc54ff" stop-opacity="0"/></radialGradient><linearGradient id="lg1"><stop offset="0" stop-color="#b31de7"/><stop offset=".3219" stop-color="#cd4bef"/><stop offset=".7811" stop-color="#f088fb"/><stop offset="1" stop-color="#fda0ff"/></linearGradient><linearGradient id="SVGID_3_" gradientUnits="userSpaceOnUse" x1="42.489" x2="290.132" xlink:href="#lg1" y1="470.472" y2="222.829"/><linearGradient id="SVGID_4_" gradientUnits="userSpaceOnUse" x1="203.975" x2="381.766" xlink:href="#lg1" y1="374.559" y2="196.768"/><linearGradient id="SVGID_5_" gradientUnits="userSpaceOnUse" x1="271.048" x2="271.048" y1="338.862" y2="222.219"><stop offset="0" stop-color="#fda0ff" stop-opacity="0"/><stop offset=".1279" stop-color="#f99afe" stop-opacity=".128"/><stop offset=".2934" stop-color="#ee8afa" stop-opacity=".293"/><stop offset=".4796" stop-color="#db6ff4" stop-opacity=".48"/><stop offset=".6808" stop-color="#c14aec" stop-opacity=".681"/><stop offset=".8919" stop-color="#a01be1" stop-opacity=".892"/><stop offset="1" stop-color="#8d00db"/></linearGradient><linearGradient id="SVGID_6_" gradientUnits="userSpaceOnUse" x1="-54.972" x2="302.697" xlink:href="#lg1" y1="504.442" y2="146.774"/><linearGradient id="SVGID_7_" gradientUnits="userSpaceOnUse" x1="-1.719" x2="255.575" xlink:href="#lg1" y1="464.629" y2="207.336"/><linearGradient id="lg2"><stop offset="0" stop-color="#8d00db"/><stop offset=".5001" stop-color="#c652ed"/><stop offset="1" stop-color="#fda0ff"/></linearGradient><linearGradient id="SVGID_8_" gradientUnits="userSpaceOnUse" x1="201.245" x2="312.543" xlink:href="#lg2" y1="311.468" y2="200.17"/><linearGradient id="SVGID_9_" gradientUnits="userSpaceOnUse" x1="47.16" x2="196.172" y1="213.205" y2="64.192"><stop offset="0" stop-color="#fc54ff"/><stop offset=".2463" stop-color="#fd7fff"/><stop offset="1" stop-color="#fff"/></linearGradient><linearGradient id="SVGID_10_" gradientUnits="userSpaceOnUse" x1="395.834" x2="499.259" xlink:href="#lg2" y1="211.301" y2="107.876"/><linearGradient id="lg3"><stop offset="0" stop-color="#fc54ff"/><stop offset=".4935" stop-color="#feaaff"/><stop offset="1" stop-color="#fff"/></linearGradient><linearGradient id="SVGID_11_" gradientUnits="userSpaceOnUse" x1="335.268" x2="463.428" xlink:href="#lg3" y1="215.804" y2="87.644"/><linearGradient id="SVGID_12_" gradientUnits="userSpaceOnUse" x1="347.741" x2="476.899" xlink:href="#lg3" y1="199.501" y2="70.343"/><linearGradient id="SVGID_13_" gradientUnits="userSpaceOnUse" x1="34.115" x2="247.079" xlink:href="#lg1" y1="322.02" y2="109.056"/><linearGradient id="SVGID_14_" gradientUnits="userSpaceOnUse" x1="208.996" x2="439.033" xlink:href="#lg1" y1="377.122" y2="147.085"/><linearGradient id="SVGID_15_" gradientUnits="userSpaceOnUse" x1="76.967" x2="467.869" xlink:href="#lg1" y1="424.009" y2="33.107"/><linearGradient id="SVGID_16_" gradientUnits="userSpaceOnUse" x1="267.937" x2="492.704" y1="372.175" y2="147.407"><stop offset="0" stop-color="#8d00db"/><stop offset=".25" stop-color="#c652ed"/><stop offset=".5" stop-color="#fda0ff"/><stop offset=".6623" stop-color="#fec3ff"/><stop offset=".886" stop-color="#fef"/><stop offset="1" stop-color="#fff"/></linearGradient><linearGradient id="SVGID_17_" gradientUnits="userSpaceOnUse" x1="-110.614" x2="311.312" xlink:href="#lg2" y1="574.025" y2="152.098"/><linearGradient id="SVGID_18_" gradientUnits="userSpaceOnUse" x1="390.805" x2="317.751" y1="203.181" y2="276.235"><stop offset="0" stop-color="#fff"/><stop offset=".4701" stop-color="#feb1ff"/><stop offset="1" stop-color="#fc54ff"/></linearGradient><g><circle cx="256" cy="256" fill="url(#SVGID_1_)" r="256"/><circle cx="256" cy="256" fill="url(#SVGID_2_)" r="256"/><path d="m195.093 373.288c-31.426-17.158-63.217-34.411-95.085-51.449-1.408 4.714-2.8 9.423-4.175 14.127-4.673 16.003-7.207 32.49-7.582 49.199-.185 8.733 7.149 16.445 15.879 16.723 29.977.932 59.953 1.588 89.93 1.968 8.282.107 14.878-6.709 14.762-15.184-.057-3.96-1.587-7.585-4.046-10.327-2.47-2.742-5.879-4.601-9.683-5.057z" fill="url(#SVGID_3_)"/><path d="m335.532 302.075c.106 0 .228-61.235.123-61.235-10.245-.023-20.49-.041-30.735-.055.036 15.35.031 30.7-.015 46.05-.027 8.463-6.946 15.369-15.404 15.385-30.177.057-60.354.037-90.531-.06.029 5.114.063 10.227.102 15.341 0 .195 130.705.12 136.318-.119 4.229-.027 7.693-3.474 7.737-7.697.044-4.22-3.359-7.625-7.595-7.61z" fill="url(#SVGID_4_)"/><path d="m335.532 302.075c.106 0 .228-61.235.123-61.235-10.245-.023-20.49-.041-30.735-.055.036 15.35.031 30.7-.015 46.05-.027 8.463-6.946 15.369-15.404 15.385-30.177.057-60.354.037-90.531-.06.029 5.114.063 10.227.102 15.341 0 .195 130.705.12 136.318-.119 4.229-.027 7.693-3.474 7.737-7.697.044-4.22-3.359-7.625-7.595-7.61z" fill="url(#SVGID_5_)"/><path d="m191.088 225.479c-38.888 10.343-77.853 20.69-116.764 30.757 22.833-.076 39.037 21.843 32.462 43.269-2.297 7.457-4.557 14.902-6.778 22.335 24.631 27.932 58.641 46.893 95.085 51.449 1.492-12.231 4.019-24.306 7.64-36.121 3.563-11.644 7.175-23.3 10.821-34.965-7.584-25.613-15.126-51.196-22.466-76.724z" fill="url(#SVGID_6_)"/><path d="m153.904 256.161c6.805 26.322 31.056 45.956 59.65 46.042 4.796-15.345 9.65-30.705 14.526-46.074-12.359-10.242-24.704-20.469-36.992-30.65-12.401 10.259-24.809 20.496-37.184 30.682z" fill="url(#SVGID_7_)"/><path d="m243.463 240.755c-.008 12.813-.008 25.626-.001 38.439.003 4.245 3.444 7.682 7.686 7.683s7.682-3.442 7.683-7.687c.002-12.812.001-25.625 0-38.437-5.123 0-10.246.001-15.368.002z" fill="url(#SVGID_8_)"/><path d="m138.444 126.77c-.695 17.761-1.252 35.523-1.67 53.284-20.098-9.875-40.028-19.578-59.722-29.027.374-7.515.785-15.03 1.235-22.545.25-4.147 3.825-7.636 7.963-7.781 15-.521 30-.973 45-1.357 4.138-.107 7.356 3.223 7.194 7.426z" fill="url(#SVGID_9_)"/><path d="m442.896 158.745c.484 10 .896 20 1.238 30 .143 4.139-3.182 7.439-7.404 7.371-12.745-.21-25.491-.398-38.236-.564 9.849-15.028 19.502-29.949 28.883-44.735 2.524.068 5.048.138 7.572.209 4.177.12 7.746 3.58 7.947 7.719z" fill="url(#SVGID_10_)"/><path d="m419.074 135.532c-10.051-.297-20.102-.566-30.152-.807 3.146 15.243 6.214 30.466 9.184 45.668 9.883-9.944 19.652-19.808 29.27-29.574-.119-2.51-.243-5.019-.37-7.529-.212-4.156-3.773-7.634-7.932-7.758z" fill="url(#SVGID_11_)"/><path d="m388.922 134.724c-1.471-.035-2.942-.07-4.412-.104-2-.046-3.888.71-5.252 2.109-4.127 4.233-8.28 8.48-12.456 12.74 10.404 10.338 20.851 20.652 31.304 30.923-.357-12.634-.797-25.267-1.322-37.901-.175-4.183-3.703-7.665-7.862-7.767z" fill="url(#SVGID_12_)"/><path d="m77.052 151.027c-.747 15.03-1.341 30.06-1.782 45.089 60.884 9.011 122.135 19.002 183.544 29.26-10.241-25.626-20.421-51.248-30.326-76.815-50.478.219-100.957 1.041-151.436 2.466z" fill="url(#SVGID_13_)"/><path d="m427.376 150.818c-10.096-.273-20.192-.522-30.287-.746-9.114 25.043-18.775 50.263-28.765 75.612 20.371-10.05 40.647-19.973 60.759-29.69-.422-15.06-.991-30.118-1.707-45.176z" fill="url(#SVGID_14_)"/><path d="m228.489 148.561c-.191 25.611-.317 51.223-.378 76.834 56.972-.077 113.945.082 170.917.478-.311-25.267-.957-50.535-1.939-75.802-56.2-1.251-112.4-1.754-168.6-1.51z" fill="url(#SVGID_15_)"/><path d="m429.083 195.993c-10.196-.161-20.393-.308-30.589-.44-9.965 9.974-20.033 20.024-30.17 30.13 10.332 10.218 20.649 20.395 30.916 30.511 10.25.01 20.499.021 30.749.032-.041-20.077-.344-40.155-.906-60.233z" fill="url(#SVGID_16_)"/><path d="m75.27 196.116c-.441 15.03-.728 30.06-.863 45.089-4.251.022-7.717 3.401-7.741 7.539-.025 4.138 3.414 7.494 7.657 7.491 108.305-.13 216.611-.144 324.916-.041-.034-20.214-.283-40.428-.746-60.642-107.74-1.4-215.482-1.212-323.223.564z" fill="url(#SVGID_17_)"/><path d="m352.972 225.605c-.067-8.44 6.711-15.235 15.174-15.165 8.461.07 15.436 6.94 15.53 15.332s-6.749 15.175-15.237 15.153c-8.489-.022-15.398-6.88-15.467-15.32z" fill="url(#SVGID_18_)"/></g></svg>