<svg id="Capa_1" enable-background="new 0 0 512 512" height="512" viewBox="0 0 512 512" width="512" xmlns="http://www.w3.org/2000/svg" xmlns:xlink="http://www.w3.org/1999/xlink"><linearGradient id="SVGID_1_" gradientUnits="userSpaceOnUse" x1="74.981" x2="437.019" y1="437.019" y2="74.981"><stop offset="0" stop-color="#ff4c4c"/><stop offset="1" stop-color="#fff200"/></linearGradient><radialGradient id="SVGID_2_" cx="174.873" cy="261.408" gradientTransform="matrix(1 0 0 1.438 0 -114.467)" gradientUnits="userSpaceOnUse" r="256"><stop offset="0" stop-color="#ff4c4c"/><stop offset=".9593" stop-color="#ffcb00" stop-opacity="0"/></radialGradient><radialGradient id="SVGID_3_" cx="342.535" cy="256" gradientTransform="matrix(1 0 0 1.438 0 -112.099)" gradientUnits="userSpaceOnUse" r="256"><stop offset="0" stop-color="#ff4c4c"/><stop offset=".1008" stop-color="#ff5f51" stop-opacity=".894"/><stop offset=".9537" stop-color="#fffa78" stop-opacity="0"/></radialGradient><linearGradient id="lg1"><stop offset="0" stop-color="#ffb11d"/><stop offset="1" stop-color="#fffa78"/></linearGradient><linearGradient id="SVGID_4_" gradientUnits="userSpaceOnUse" x1="315.577" x2="413.167" xlink:href="#lg1" y1="416.934" y2="319.345"/><linearGradient id="lg2"><stop offset="0" stop-color="#fffa78" stop-opacity="0"/><stop offset=".1462" stop-color="#fff370" stop-opacity=".146"/><stop offset=".3747" stop-color="#ffde5a" stop-opacity=".375"/><stop offset=".6568" stop-color="#ffbd35" stop-opacity=".657"/><stop offset=".979" stop-color="#ff8f04" stop-opacity=".979"/><stop offset="1" stop-color="#ff8c00"/></linearGradient><linearGradient id="SVGID_5_" gradientUnits="userSpaceOnUse" x1="339.462" x2="339.462" xlink:href="#lg2" y1="434.887" y2="373.851"/><linearGradient id="lg3"><stop offset="0" stop-color="#fffa78"/><stop offset=".6266" stop-color="#fffdcf"/><stop offset="1" stop-color="#fff"/></linearGradient><linearGradient id="SVGID_6_" gradientUnits="userSpaceOnUse" x1="304.684" x2="412.476" xlink:href="#lg3" y1="158.659" y2="50.867"/><linearGradient id="SVGID_7_" gradientUnits="userSpaceOnUse" x1="247.976" x2="400.6" xlink:href="#lg3" y1="214.686" y2="62.061"/><linearGradient id="SVGID_8_" gradientUnits="userSpaceOnUse" x1="294.146" x2="385.792" xlink:href="#lg3" y1="236.896" y2="145.25"/><linearGradient id="lg4"><stop offset="0" stop-color="#ffcb00"/><stop offset="1" stop-color="#fffa78"/></linearGradient><linearGradient id="SVGID_9_" gradientUnits="userSpaceOnUse" x1="242.73" x2="413.329" xlink:href="#lg4" y1="421.942" y2="251.343"/><linearGradient id="SVGID_10_" gradientUnits="userSpaceOnUse" x1="220.631" x2="433.015" xlink:href="#lg4" y1="387.615" y2="175.23"/><linearGradient id="SVGID_11_" gradientUnits="userSpaceOnUse" x1="300.2" x2="398.999" xlink:href="#lg4" y1="494.622" y2="395.822"/><linearGradient id="SVGID_12_" gradientUnits="userSpaceOnUse" x1="287.155" x2="402.894" xlink:href="#lg4" y1="453.507" y2="337.769"/><linearGradient id="SVGID_13_" gradientUnits="userSpaceOnUse" x1="150.701" x2="243.653" xlink:href="#lg1" y1="415.821" y2="322.87"/><linearGradient id="SVGID_14_" gradientUnits="userSpaceOnUse" x1="172.538" x2="172.538" xlink:href="#lg2" y1="434.887" y2="373.851"/><linearGradient id="lg5"><stop offset="0" stop-color="#ffcb00"/><stop offset=".3303" stop-color="#ffdd58"/><stop offset=".7944" stop-color="#fff5cf"/><stop offset="1" stop-color="#fff"/></linearGradient><linearGradient id="SVGID_15_" gradientUnits="userSpaceOnUse" x1="90.361" x2="201.599" xlink:href="#lg5" y1="206.015" y2="94.778"/><linearGradient id="SVGID_16_" gradientUnits="userSpaceOnUse" x1="76.771" x2="235.975" xlink:href="#lg3" y1="218.911" y2="59.707"/><linearGradient id="SVGID_17_" gradientUnits="userSpaceOnUse" x1="125.514" x2="218.549" xlink:href="#lg3" y1="237.59" y2="144.555"/><linearGradient id="SVGID_18_" gradientUnits="userSpaceOnUse" x1="75.437" x2="246.283" xlink:href="#lg4" y1="422.792" y2="251.946"/><linearGradient id="SVGID_19_" gradientUnits="userSpaceOnUse" x1="56.054" x2="265.207" xlink:href="#lg4" y1="385.807" y2="176.654"/><linearGradient id="SVGID_20_" gradientUnits="userSpaceOnUse" x1="138.373" x2="232.531" xlink:href="#lg4" y1="493.525" y2="399.367"/><linearGradient id="SVGID_21_" gradientUnits="userSpaceOnUse" x1="123.859" x2="232.827" xlink:href="#lg4" y1="450.418" y2="341.45"/><linearGradient id="SVGID_24_" gradientUnits="userSpaceOnUse" x1="259.437" x2="367.23" xlink:href="#lg5" y1="203.906" y2="96.113"/><g><circle cx="256" cy="256" fill="url(#SVGID_1_)" r="256"/><circle cx="256" cy="256" fill="url(#SVGID_2_)" r="256"/><circle cx="256" cy="256" fill="url(#SVGID_3_)" r="256"/><path d="m286.402 372.178c-.081 15.36-.177 30.72-.287 46.08 35.134-.404 70.268-1.515 105.402-3.332.495-15.071.926-30.143 1.293-45.214-35.469 1.345-70.939 2.167-106.408 2.466z" fill="url(#SVGID_4_)"/><path d="m286.402 372.178c-.081 15.36-.177 30.72-.287 46.08 35.134-.404 70.268-1.515 105.402-3.332.495-15.071.926-30.143 1.293-45.214-35.469 1.345-70.939 2.167-106.408 2.466z" fill="url(#SVGID_5_)"/><path d="m302.944 76.994c-10.362 14.138-16.537 31.875-16.451 51.128.035 7.766.067 15.531.095 23.297 17.88 10.342 35.819 20.739 53.782 31.097 17.83-9.99 35.599-19.825 53.275-29.413-30.441-25.189-60.785-50.77-90.701-76.109z" fill="url(#SVGID_6_)"/><path d="m338.5 49.617c-14.228 5.419-26.489 15.014-35.556 27.377 8.399 42.682 45.887 75.048 90.701 76.109-.22-13.247-.431-22.859-.429-22.859-.778-35.313-23.722-66.801-54.716-80.627z" fill="url(#SVGID_7_)"/><path d="m286.588 151.419c.094 26.026.147 52.052.159 78.079 35.872.026 71.744.098 107.616.216.041 0-.157-47.241-.718-76.611-35.686-.919-71.371-1.48-107.057-1.684z" fill="url(#SVGID_8_)"/><path d="m394.06 183.245c-10.227-.172-20.453-.326-30.68-.46.57 67.714.145 135.428-1.275 203.142 10.105-.334 20.211-.716 30.316-1.145 8.366-.363 15.36-7.404 15.589-15.68 1.544-56.862 2.06-113.723 1.548-170.585-.075-8.275-7.029-15.121-15.498-15.272z" fill="url(#SVGID_9_)"/><path d="m377.609 370.256c1.235-57.373 1.648-114.747 1.238-172.12-.061-8.352-6.997-15.234-15.467-15.351-25.567-.335-51.134-.551-76.7-.647-8.47-.033-15.33 6.839-15.324 15.328.051 58.269 0 116.538-.155 174.807-.018 8.489 6.748 15.345 15.115 15.264 25.263-.239 50.526-.775 75.79-1.61 8.366-.281 15.318-7.319 15.503-15.671z" fill="url(#SVGID_10_)"/><path d="m391.991 399.854c-10.073.474-20.147.896-30.22 1.265-.235 10.128-.491 20.255-.771 30.382 10-.439 20-.94 30-1.505 8.278-.474 15.265-7.618 15.574-15.893.31-8.277-6.233-14.634-14.583-14.249z" fill="url(#SVGID_11_)"/><path d="m376.459 415.661c.249-8.354-6.339-14.841-14.689-14.542-25.184.922-50.367 1.515-75.55 1.779-8.35.087-15.138 6.999-15.163 15.49-.024 8.489 6.664 15.337 14.943 15.23 25-.314 50-1.019 75-2.116 8.278-.369 15.21-7.489 15.459-15.841z" fill="url(#SVGID_12_)"/><path d="m119.19 369.712c.367 15.071.798 30.143 1.293 45.214 35.134 1.818 70.268 2.928 105.402 3.332-.11-15.36-.206-30.72-.287-46.08-35.469-.299-70.939-1.121-106.408-2.466z" fill="url(#SVGID_13_)"/><path d="m119.19 369.712c.367 15.071.798 30.143 1.293 45.214 35.134 1.818 70.268 2.928 105.402 3.332-.11-15.36-.206-30.72-.287-46.08-35.469-.299-70.939-1.121-106.408-2.466z" fill="url(#SVGID_14_)"/><path d="m136.818 79.104c-10.886 14.575-17.638 32.255-18.033 51.14-.159 7.62-.302 15.24-.429 22.859 17.676 9.588 35.445 19.423 53.275 29.413 17.964-10.359 35.902-20.755 53.782-31.097-29.946-24.712-59.588-49.028-88.595-72.315z" fill="url(#SVGID_15_)"/><path d="m173.5 49.617c-14.483 6.413-27.158 16.753-36.682 29.487 6.843 41.477 43.796 72.477 88.595 72.315.049-13.5.096-23.297.095-23.297.118-36.08-21.564-66.893-52.008-78.505z" fill="url(#SVGID_16_)"/><path d="m118.355 153.103c-.424 25.537-.664 51.074-.718 76.611 35.872-.118 71.744-.19 107.616-.216-.009 0 .035-48.146.16-78.079-35.686.204-71.372.765-107.058 1.684z" fill="url(#SVGID_17_)"/><path d="m225.32 182.139c-10.227.038-20.453.096-30.68.172-.326 68.266-.083 136.532.728 204.797 10.105.191 20.211.334 30.316.429 8.367.08 15.133-6.775 15.115-15.264-.154-58.269-.206-116.538-.155-174.807.006-8.489-6.854-15.36-15.324-15.327z" fill="url(#SVGID_18_)"/><path d="m210.397 372.018c-.463-58.155-.618-116.311-.464-174.466.021-8.475-6.822-15.307-15.292-15.241-25.567.192-51.134.503-76.7.934-8.47.15-15.423 6.997-15.499 15.273-.512 56.862.004 113.723 1.548 170.585.229 8.276 7.223 15.317 15.589 15.68 25.263 1.073 50.526 1.848 75.79 2.325 8.366.161 15.091-6.616 15.028-15.09z" fill="url(#SVGID_19_)"/><path d="m225.78 402.898c-10.073-.105-20.147-.264-30.22-.474.134 10.21.281 20.42.44 30.63 10 .251 20 .439 30 .564 8.278.106 14.967-6.741 14.943-15.23-.026-8.491-6.813-15.404-15.163-15.49z" fill="url(#SVGID_20_)"/><path d="m210.828 418.041c-.086-8.475-6.918-15.446-15.268-15.618-25.183-.527-50.367-1.383-75.55-2.569-8.35-.385-14.893 5.972-14.584 14.249.31 8.275 7.297 15.42 15.574 15.894 25 1.411 50 2.43 75 3.057 8.278.21 14.913-6.538 14.828-15.013z" fill="url(#SVGID_21_)"/><path d="m286.402 372.178c-.081 15.36-.177 30.72-.287 46.08 35.134-.404 70.268-1.515 105.402-3.332.495-15.071.926-30.143 1.293-45.214-35.469 1.345-70.939 2.167-106.408 2.466z" fill="url(#SVGID_4_)"/><path d="m286.402 372.178c-.081 15.36-.177 30.72-.287 46.08 35.134-.404 70.268-1.515 105.402-3.332.495-15.071.926-30.143 1.293-45.214-35.469 1.345-70.939 2.167-106.408 2.466z" fill="url(#SVGID_5_)"/><path d="m302.944 76.994c-10.362 14.138-16.537 31.875-16.451 51.128.035 7.766.067 15.531.095 23.297 17.88 10.342 35.819 20.739 53.782 31.097 17.83-9.99 35.599-19.825 53.275-29.413-30.441-25.189-60.785-50.77-90.701-76.109z" fill="url(#SVGID_24_)"/><path d="m338.5 49.617c-14.228 5.419-26.489 15.014-35.556 27.377 8.399 42.682 45.887 75.048 90.701 76.109-.22-13.247-.431-22.859-.429-22.859-.778-35.313-23.722-66.801-54.716-80.627z" fill="url(#SVGID_7_)"/><path d="m286.588 151.419c.094 26.026.147 52.052.159 78.079 35.872.026 71.744.098 107.616.216.041 0-.157-47.241-.718-76.611-35.686-.919-71.371-1.48-107.057-1.684z" fill="url(#SVGID_8_)"/><path d="m394.06 183.245c-10.227-.172-20.453-.326-30.68-.46.57 67.714.145 135.428-1.275 203.142 10.105-.334 20.211-.716 30.316-1.145 8.366-.363 15.36-7.404 15.589-15.68 1.544-56.862 2.06-113.723 1.548-170.585-.075-8.275-7.029-15.121-15.498-15.272z" fill="url(#SVGID_9_)"/><path d="m377.609 370.256c1.235-57.373 1.648-114.747 1.238-172.12-.061-8.352-6.997-15.234-15.467-15.351-25.567-.335-51.134-.551-76.7-.647-8.47-.033-15.33 6.839-15.324 15.328.051 58.269 0 116.538-.155 174.807-.018 8.489 6.748 15.345 15.115 15.264 25.263-.239 50.526-.775 75.79-1.61 8.366-.281 15.318-7.319 15.503-15.671z" fill="url(#SVGID_10_)"/><path d="m391.991 399.854c-10.073.474-20.147.896-30.22 1.265-.235 10.128-.491 20.255-.771 30.382 10-.439 20-.94 30-1.505 8.278-.474 15.265-7.618 15.574-15.893.31-8.277-6.233-14.634-14.583-14.249z" fill="url(#SVGID_11_)"/><path d="m376.459 415.661c.249-8.354-6.339-14.841-14.689-14.542-25.184.922-50.367 1.515-75.55 1.779-8.35.087-15.138 6.999-15.163 15.49-.024 8.489 6.664 15.337 14.943 15.23 25-.314 50-1.019 75-2.116 8.278-.369 15.21-7.489 15.459-15.841z" fill="url(#SVGID_12_)"/></g></svg>