<svg id="Capa_1" enable-background="new 0 0 512 512" height="512" viewBox="0 0 512 512" width="512" xmlns="http://www.w3.org/2000/svg" xmlns:xlink="http://www.w3.org/1999/xlink"><linearGradient id="SVGID_1_" gradientUnits="userSpaceOnUse" x1="74.981" x2="437.019" y1="437.019" y2="74.981"><stop offset="0" stop-color="#0072ff"/><stop offset="1" stop-color="#00e5a1"/></linearGradient><radialGradient id="SVGID_2_" cx="256" cy="256" gradientUnits="userSpaceOnUse" r="256"><stop offset="0" stop-color="#0072ff"/><stop offset=".1353" stop-color="#0a7dfd" stop-opacity=".865"/><stop offset=".3702" stop-color="#2599f6" stop-opacity=".63"/><stop offset=".6764" stop-color="#50c7ec" stop-opacity=".324"/><stop offset="1" stop-color="#85ffe0" stop-opacity="0"/></radialGradient><linearGradient id="SVGID_3_" gradientUnits="userSpaceOnUse" x1="138.944" x2="335.782" y1="250.422" y2="53.583"><stop offset="0" stop-color="#009ed8"/><stop offset=".1764" stop-color="#12abd9"/><stop offset=".5293" stop-color="#40cddc"/><stop offset=".9921" stop-color="#85ffe0"/></linearGradient><linearGradient id="SVGID_4_" gradientUnits="userSpaceOnUse" x1="256" x2="256" y1="148.949" y2="71.296"><stop offset="0" stop-color="#0072ff"/><stop offset=".0527" stop-color="#1083fb" stop-opacity=".947"/><stop offset=".187" stop-color="#34a9f3" stop-opacity=".812"/><stop offset=".3272" stop-color="#51c8ec" stop-opacity=".67"/><stop offset=".4727" stop-color="#68e0e7" stop-opacity=".524"/><stop offset=".6257" stop-color="#78f2e3" stop-opacity=".369"/><stop offset=".7913" stop-color="#82fce1" stop-opacity=".203"/><stop offset=".9921" stop-color="#85ffe0" stop-opacity="0"/></linearGradient><linearGradient id="lg1"><stop offset="0" stop-color="#3dcbcd"/><stop offset=".1288" stop-color="#4fd0d2"/><stop offset=".3866" stop-color="#7ddcdd"/><stop offset=".7456" stop-color="#c7f0f1"/><stop offset="1" stop-color="#fff"/></linearGradient><linearGradient id="SVGID_5_" gradientUnits="userSpaceOnUse" x1="-273.609" x2="415.295" xlink:href="#lg1" y1="784.891" y2="95.986"/><linearGradient id="SVGID_6_" gradientUnits="userSpaceOnUse" x1="81.787" x2="384.843" y1="407.159" y2="104.103"><stop offset="0" stop-color="#00babd"/><stop offset=".102" stop-color="#12bfc2"/><stop offset=".3062" stop-color="#40cbce"/><stop offset=".5939" stop-color="#8be0e1"/><stop offset=".9511" stop-color="#f1fbfb"/><stop offset="1" stop-color="#fff"/></linearGradient><linearGradient id="SVGID_7_" gradientUnits="userSpaceOnUse" x1="92.566" x2="504.693" xlink:href="#lg1" y1="425.35" y2="13.223"/><linearGradient id="SVGID_8_" gradientUnits="userSpaceOnUse" x1="160.338" x2="465.043" xlink:href="#lg1" y1="427.288" y2="122.583"/><g><circle cx="256" cy="256" fill="url(#SVGID_1_)" r="256"/><circle cx="256" cy="256" fill="url(#SVGID_2_)" r="256"/><path d="m301 97.665c-30-.22-60-.22-90 0-8.276.062-15.138 6.999-15.304 15.472-.287 15.344-.522 30.687-.706 46.031 40.673-.223 81.347-.223 122.02 0-.184-15.344-.419-30.687-.706-46.031-.165-8.473-7.029-15.41-15.304-15.472z" fill="url(#SVGID_3_)"/><path d="m301 97.665c-30-.22-60-.22-90 0-8.276.062-15.138 6.999-15.304 15.472-.287 15.344-.522 30.687-.706 46.031 40.673-.223 81.347-.223 122.02 0-.184-15.344-.419-30.687-.706-46.031-.165-8.473-7.029-15.41-15.304-15.472z" fill="url(#SVGID_4_)"/><path d="m403.5 382.731c-25.025.6-50.049 1.048-75.074 1.342-7.955.094-15.509-3.065-21.058-8.78-11.901-12.26-23.977-24.58-36.167-36.931-10.135.017-20.27.017-30.405 0-12.19 12.351-24.266 24.671-36.167 36.931-5.549 5.715-13.103 8.874-21.058 8.78-25.025-.295-50.049-.742-75.074-1.342-32.981-.87-61.991-28.691-63.491-61.731-1.835-43.333-2.179-86.667-1.032-130 .945-33.042 29.785-60.66 63.115-61.36 99.274-1.853 198.548-1.853 297.822 0 33.33.701 62.17 28.319 63.115 61.36 1.147 43.333.803 86.667-1.032 130-1.499 33.041-30.51 60.862-63.494 61.731z" fill="url(#SVGID_5_)"/><path d="m106.017 160.011c-16.824.244-31 13.994-31.388 30.654-.981 43.624-.687 87.248.883 130.872.621 16.659 14.881 30.495 31.578 30.824 88.185 1.646 176.369 1.83 264.554.551-86.15-63.156-178.714-129.982-265.627-192.901z" fill="url(#SVGID_6_)"/><path d="m300.28 159.088c-64.755-.258-129.509.05-194.264.922 53.832 98.165 155.555 175.318 265.626 192.901 11.089-.161 22.179-.344 33.268-.551 16.697-.33 30.957-14.165 31.578-30.824.519-14.427.899-28.854 1.139-43.281-.051.001-.102.003-.152.003-44.985-38.925-91.496-79.054-137.195-119.17z" fill="url(#SVGID_7_)"/><path d="m405.983 160.011c-35.234-.475-70.469-.782-105.703-.922 9.579 67.732 67.316 119.864 137.195 119.171.051 0 .102-.003.152-.003.486-29.197.401-58.394-.256-87.591-.388-16.661-14.563-30.411-31.388-30.655z" fill="url(#SVGID_8_)"/></g></svg>