<svg id="Capa_1" enable-background="new 0 0 512 512" height="512" viewBox="0 0 512 512" width="512" xmlns="http://www.w3.org/2000/svg" xmlns:xlink="http://www.w3.org/1999/xlink"><linearGradient id="lg1"><stop offset="0" stop-color="#ff2f2b"/><stop offset="1" stop-color="#ffbdab"/></linearGradient><linearGradient id="SVGID_1_" gradientUnits="userSpaceOnUse" x1="74.981" x2="437.02" xlink:href="#lg1" y1="437.019" y2="74.98"/><radialGradient id="SVGID_2_" cx="256.001" cy="256" gradientUnits="userSpaceOnUse" r="256"><stop offset="0" stop-color="#ff2f2b"/><stop offset=".2789" stop-color="#ff5f56" stop-opacity=".721"/><stop offset=".61" stop-color="#ff9284" stop-opacity=".39"/><stop offset=".8609" stop-color="#ffb1a0" stop-opacity=".139"/><stop offset="1" stop-color="#ffbdab" stop-opacity="0"/></radialGradient><linearGradient id="lg2"><stop offset="0" stop-color="#ff2f2b" stop-opacity=".6"/><stop offset=".0735" stop-color="#ff4842" stop-opacity=".556"/><stop offset=".1973" stop-color="#ff6c62" stop-opacity=".482"/><stop offset=".3281" stop-color="#ff897c" stop-opacity=".403"/><stop offset=".4661" stop-color="#ffa091" stop-opacity=".32"/><stop offset=".6144" stop-color="#ffb0a0" stop-opacity=".231"/><stop offset=".7803" stop-color="#ffbaa8" stop-opacity=".132"/><stop offset="1" stop-color="#ffbdab" stop-opacity="0"/></linearGradient><radialGradient id="SVGID_3_" cx="256.001" cy="256" gradientUnits="userSpaceOnUse" r="256" xlink:href="#lg2"/><radialGradient id="SVGID_4_" cx="104.902" cy="257.014" gradientUnits="userSpaceOnUse" r="256"><stop offset="0" stop-color="#ff2f2b" stop-opacity=".6"/><stop offset=".1065" stop-color="#ff3f3c" stop-opacity=".536"/><stop offset=".2891" stop-color="#ff5353" stop-opacity=".427"/><stop offset=".4865" stop-color="#ff6263" stop-opacity=".308"/><stop offset=".7074" stop-color="#ff6b6d" stop-opacity=".176"/><stop offset="1" stop-color="#ff6e70" stop-opacity="0"/></radialGradient><radialGradient id="SVGID_5_" cx="406.085" cy="251.943" gradientUnits="userSpaceOnUse" r="256" xlink:href="#lg2"/><linearGradient id="lg3"><stop offset="0" stop-color="#ffb5d3"/><stop offset=".1651" stop-color="#ffc2db"/><stop offset="1" stop-color="#fff"/></linearGradient><linearGradient id="SVGID_6_" gradientUnits="userSpaceOnUse" x1="-58.66" x2="280.818" xlink:href="#lg3" y1="402.705" y2="63.227"/><linearGradient id="SVGID_7_" gradientUnits="userSpaceOnUse" x1="28.636" x2="171.843" xlink:href="#lg1" y1="314.459" y2="171.252"/><linearGradient id="SVGID_8_" gradientUnits="userSpaceOnUse" x1="40.042" x2="161.494" xlink:href="#lg1" y1="328.377" y2="206.925"/><linearGradient id="SVGID_9_" gradientUnits="userSpaceOnUse" x1="93.441" x2="431.957" xlink:href="#lg3" y1="402.129" y2="63.613"/><linearGradient id="SVGID_10_" gradientUnits="userSpaceOnUse" x1="181.178" x2="324.32" xlink:href="#lg1" y1="314.24" y2="171.098"/><linearGradient id="SVGID_11_" gradientUnits="userSpaceOnUse" x1="194.614" x2="313.917" xlink:href="#lg1" y1="326.48" y2="207.177"/><linearGradient id="SVGID_12_" gradientUnits="userSpaceOnUse" x1="246.945" x2="525.94" xlink:href="#lg3" y1="400.379" y2="121.385"/><linearGradient id="SVGID_13_" gradientUnits="userSpaceOnUse" x1="329.282" x2="462.236" y1="318.666" y2="185.712"><stop offset="0" stop-color="#ff79a2"/><stop offset=".4087" stop-color="#ffa6c3"/><stop offset="1" stop-color="#ffe3f1"/></linearGradient><linearGradient id="SVGID_14_" gradientUnits="userSpaceOnUse" x1="358.567" x2="506.924" y1="315.518" y2="167.162"><stop offset="0" stop-color="#ff91bb"/><stop offset=".4294" stop-color="#ffc2d9"/><stop offset="1" stop-color="#fff"/></linearGradient><g><circle cx="256" cy="256" fill="url(#SVGID_1_)" r="256"/><circle cx="256" cy="256" fill="url(#SVGID_2_)" r="256"/><circle cx="256" cy="256" fill="url(#SVGID_3_)" r="256"/><circle cx="256" cy="256" fill="url(#SVGID_4_)" r="256"/><circle cx="256" cy="256" fill="url(#SVGID_5_)" r="256"/><path d="m98.246 325.379c-.691-.401-17.957-10.136-35.524-25.355-25.2-21.843-37.948-43.826-36.813-65.747 1.406-26.858 27.211-49.113 53.894-49.492 9.424-.116 18.129 2.494 25.432 7.418 8.243-5.067 17.542-7.884 26.963-7.966 26.744-.257 47.4 22.027 47.106 49.553-.311 22.413-12.285 44.955-34.644 66.756-15.564 15.195-30.679 24.594-31.33 24.986-4.396 2.699-10.121 2.635-15.084-.153z" fill="url(#SVGID_6_)"/><path d="m103.65 212.31c-5.807-7.661-14.857-12.484-25.521-12.38-18.757.203-35.994 15.571-36.88 34.274-1.739 42.489 63.814 78.028 63.326 78.101-.021.012 27.007-16.326 44.879-40.768-15.986-19.849-31.516-39.612-45.804-59.227z" fill="url(#SVGID_7_)"/><path d="m131.021 199.499c-10.653.073-20.57 5.075-27.371 12.811-1.915 28.678 18.733 52.708 45.804 59.227 8.152-11.194 14.25-24.065 14.51-37.719.307-19.071-14.156-34.459-32.943-34.319z" fill="url(#SVGID_8_)"/><path d="m248.458 326.217c-.671-.401-16.862-10.072-33.427-25.446-23.779-22.061-36.141-44.567-35.728-66.977.555-27.493 23.786-50.005 50.5-50.066 9.422-.018 18.425 2.727 26.197 7.777 7.773-5.05 16.775-7.794 26.197-7.777 26.714.061 49.943 22.574 50.5 50.063.413 22.412-11.95 44.919-35.728 66.98-16.566 15.374-32.756 25.045-33.427 25.446-4.679 2.773-10.404 2.773-15.084 0z" fill="url(#SVGID_9_)"/><path d="m256 211.831c-6.305-7.783-15.786-12.75-26.446-12.734-18.772.032-34.622 15.578-34.911 34.672-.265 43.494 61.772 79.167 61.358 79.152-.069.007 28.586-16.752 47.029-41.319-15.541-19.898-31.479-39.842-47.03-59.771z" fill="url(#SVGID_10_)"/><path d="m282.446 199.097c-10.659-.016-20.142 4.951-26.446 12.734-.034 29.022 20.106 53.315 47.029 59.771 8.407-11.262 14.51-24.151 14.329-37.833-.29-19.094-16.141-34.639-34.912-34.672z" fill="url(#SVGID_11_)"/><path d="m398.671 325.532c-.652-.392-15.765-9.791-31.33-24.986-22.358-21.801-34.332-44.342-34.644-66.753-.295-27.529 20.362-49.812 47.106-49.556 9.42.081 18.72 2.898 26.963 7.966 7.303-4.924 16.006-7.535 25.432-7.418 26.684.38 52.489 22.633 53.894 49.489 1.136 21.925-11.614 43.907-36.813 65.75-17.568 15.219-34.832 24.954-35.524 25.355-4.962 2.787-10.687 2.852-15.084.153z" fill="url(#SVGID_12_)"/><path d="m408.35 212.31c-6.802-7.736-16.718-12.738-27.371-12.811-18.786-.139-33.25 15.249-32.943 34.319 1.209 43.555 59.73 78.588 59.389 78.487-.117.004 30.166-16.816 49.178-40.975-15.092-19.516-31.439-39.209-48.253-59.02z" fill="url(#SVGID_13_)"/><path d="m433.872 199.93c-10.664-.104-19.714 4.719-25.521 12.38 1.848 28.736 21.479 52.766 48.253 59.019 8.663-11.085 14.77-23.713 14.148-37.125-.888-18.703-18.123-34.071-36.88-34.274z" fill="url(#SVGID_14_)"/></g></svg>