<svg id="Capa_1" enable-background="new 0 0 512 512" height="512" viewBox="0 0 512 512" width="512" xmlns="http://www.w3.org/2000/svg" xmlns:xlink="http://www.w3.org/1999/xlink"><linearGradient id="SVGID_1_" gradientUnits="userSpaceOnUse" x1="74.981" x2="437.019" y1="437.019" y2="74.981"><stop offset="0" stop-color="#00aa45"/><stop offset="1" stop-color="#d3ff33"/></linearGradient><radialGradient id="SVGID_2_" cx="256" cy="256" gradientUnits="userSpaceOnUse" r="256"><stop offset="0" stop-color="#00aa45"/><stop offset=".109" stop-color="#0fb044" stop-opacity=".891"/><stop offset=".3171" stop-color="#35bf40" stop-opacity=".683"/><stop offset=".6028" stop-color="#73d83b" stop-opacity=".397"/><stop offset=".9518" stop-color="#c7fa34" stop-opacity=".048"/><stop offset="1" stop-color="#d3ff33" stop-opacity="0"/></radialGradient><linearGradient id="SVGID_3_" gradientUnits="userSpaceOnUse" x1="14.476" x2="444.356" y1="462.229" y2="32.35"><stop offset="0" stop-color="#5ccd38"/><stop offset=".2504" stop-color="#84d95d"/><stop offset=".9988" stop-color="#f9fcca"/></linearGradient><linearGradient id="lg1"><stop offset="0" stop-color="#95e12e"/><stop offset=".1776" stop-color="#b0e963"/><stop offset=".3859" stop-color="#ccf19a"/><stop offset=".5797" stop-color="#e2f7c6"/><stop offset=".7528" stop-color="#f2fbe5"/><stop offset=".8987" stop-color="#fcfef8"/><stop offset="1" stop-color="#fff"/></linearGradient><linearGradient id="SVGID_4_" gradientUnits="userSpaceOnUse" x1="160.264" x2="321.793" xlink:href="#lg1" y1="450.292" y2="288.763"/><linearGradient id="lg2"><stop offset="0" stop-color="#b8ef5c"/><stop offset=".4619" stop-color="#daf7a9"/><stop offset="1" stop-color="#fff"/></linearGradient><linearGradient id="SVGID_5_" gradientUnits="userSpaceOnUse" x1="137.012" x2="290.953" xlink:href="#lg2" y1="473.493" y2="319.551"/><linearGradient id="SVGID_6_" gradientUnits="userSpaceOnUse" x1="18.09" x2="183.023" xlink:href="#lg1" y1="319.387" y2="154.453"/><linearGradient id="SVGID_7_" gradientUnits="userSpaceOnUse" x1="-.51" x2="154.833" xlink:href="#lg2" y1="338.152" y2="182.808"/><linearGradient id="SVGID_8_" gradientUnits="userSpaceOnUse" x1="289.983" x2="453.187" xlink:href="#lg1" y1="320.799" y2="157.595"/><linearGradient id="SVGID_9_" gradientUnits="userSpaceOnUse" x1="274.798" x2="423.216" xlink:href="#lg2" y1="335.946" y2="187.527"/><linearGradient id="SVGID_10_" gradientUnits="userSpaceOnUse" x1="157.892" x2="322.497" xlink:href="#lg1" y1="315.579" y2="150.974"/><linearGradient id="SVGID_11_" gradientUnits="userSpaceOnUse" x1="138.501" x2="291.154" xlink:href="#lg2" y1="334.995" y2="182.342"/><g><circle cx="256" cy="256" fill="url(#SVGID_1_)" r="256"/><circle cx="256" cy="256" fill="url(#SVGID_2_)" r="256"/><path d="m443.5 142.777c-35-1.06-70-1.824-105-2.29-5.757-.078-10.955 2.085-14.866 5.695-4.075-3.692-9.376-5.973-15.134-6.022-35-.297-70-.297-105 0-5.757.049-11.059 2.329-15.134 6.022-3.911-3.61-9.108-5.771-14.866-5.695-35 .466-70 1.23-105 2.29-12.385.387-23.243 10.83-24.027 23.223-2.172 35-3.393 70-3.665 105-.099 12.393 10.306 22.507 23.017 22.538 35.873.056 71.745.096 107.618.121 3.559.002 6.932-.803 9.942-2.245-1.443 3.004-2.25 6.365-2.24 9.913.097 35.763.533 71.527 1.309 107.29.291 12.672 10.659 23.113 23.045 23.222 35 .297 70 .297 105 0 12.387-.108 22.754-10.551 23.045-23.222.775-35.763 1.211-71.527 1.309-107.29.01-3.548-.796-6.91-2.24-9.913 3.011 1.441 6.384 2.246 9.942 2.245 35.873-.025 71.745-.065 107.618-.121 12.712-.031 23.115-10.144 23.017-22.538-.272-35-1.493-70-3.665-105-.784-12.393-11.641-22.835-24.025-23.223z" fill="url(#SVGID_3_)"/><path d="m194.517 301.344c.077 35.803.427 71.607 1.047 107.411.075 4.237 3.513 7.702 7.675 7.733 35.175.266 70.349.266 105.523 0-37.069-38.094-75.735-76.744-114.245-115.144z" fill="url(#SVGID_4_)"/><path d="m309.809 293.676c-35.873.016-71.745.016-107.618 0-4.246-.001-7.684 3.432-7.675 7.669 19.704 53.47 62.158 96.063 114.245 115.144 4.16-.032 7.599-3.497 7.675-7.733.62-35.804.969-71.607 1.047-107.411.009-4.237-3.429-7.671-7.674-7.669z" fill="url(#SVGID_5_)"/><path d="m59.582 165.587c-2.017 35.121-3.151 70.241-3.403 105.362-.031 4.155 3.402 7.519 7.646 7.514 35.873-.056 71.745-.096 107.618-.12-38.378-38.268-76.249-76.122-111.861-112.756z" fill="url(#SVGID_6_)"/><path d="m173.089 155.804c-35.175.417-70.349 1.1-105.524 2.049-4.161.114-7.743 3.578-7.983 7.733 16.11 51.87 58.327 93.297 111.861 112.755 4.247-.002 7.693-3.435 7.703-7.669.097-35.763.533-71.527 1.309-107.29.089-4.232-3.205-7.628-7.366-7.578z" fill="url(#SVGID_7_)"/><path d="m331.545 163.383c.775 35.763 1.211 71.527 1.309 107.29.011 4.233 3.457 7.666 7.703 7.669 35.873.025 71.745.065 107.618.12-38.565-37.75-78.026-76.379-116.63-115.079z" fill="url(#SVGID_8_)"/><path d="m444.435 157.854c-35.175-.949-70.349-1.632-105.523-2.049-4.163-.05-7.456 3.345-7.366 7.578 20.294 53.645 62.99 95.923 116.629 115.079 4.245.006 7.676-3.358 7.646-7.514-.252-35.121-1.387-70.241-3.403-105.362-.241-4.154-3.822-7.619-7.983-7.732z" fill="url(#SVGID_9_)"/><path d="m195.564 163.245c-.62 35.803-.969 71.607-1.047 107.411-.009 4.237 3.429 7.67 7.675 7.669 35.873-.016 71.745-.016 107.618 0-38.472-38.396-77.139-77.025-114.246-115.08z" fill="url(#SVGID_10_)"/><path d="m308.762 155.512c-35.175-.266-70.349-.266-105.523 0-4.161.031-7.598 3.496-7.675 7.733 18.203 53.298 60.659 95.575 114.245 115.079 4.247.001 7.683-3.431 7.675-7.669-.077-35.804-.427-71.607-1.047-107.411-.077-4.236-3.516-7.701-7.675-7.732z" fill="url(#SVGID_11_)"/></g></svg>