<svg id="Capa_1" enable-background="new 0 0 512 512" height="512" viewBox="0 0 512 512" width="512" xmlns="http://www.w3.org/2000/svg" xmlns:xlink="http://www.w3.org/1999/xlink"><linearGradient id="lg1"><stop offset="0" stop-color="#364aff"/><stop offset="1" stop-color="#fc54ff"/></linearGradient><linearGradient id="SVGID_1_" gradientUnits="userSpaceOnUse" x1="74.981" x2="437.019" xlink:href="#lg1" y1="437.019" y2="74.981"/><radialGradient id="SVGID_2_" cx="256" cy="256" gradientUnits="userSpaceOnUse" r="258.6"><stop offset=".095" stop-color="#8d00db" stop-opacity=".66"/><stop offset=".2822" stop-color="#9f0de1" stop-opacity=".523"/><stop offset=".6541" stop-color="#cc30f0" stop-opacity=".252"/><stop offset="1" stop-color="#fc54ff" stop-opacity="0"/></radialGradient><linearGradient id="lg2"><stop offset="0" stop-color="#b31de7"/><stop offset=".5" stop-color="#d960f3"/><stop offset="1" stop-color="#fda0ff"/></linearGradient><linearGradient id="SVGID_3_" gradientUnits="userSpaceOnUse" x1="-82.026" x2="313.478" xlink:href="#lg2" y1="643.706" y2="248.203"/><linearGradient id="SVGID_4_" gradientUnits="userSpaceOnUse" x1="-124.532" x2="492.505" y1="655.049" y2="38.012"><stop offset="0" stop-color="#b31de7"/><stop offset=".2015" stop-color="#d152f1"/><stop offset=".5" stop-color="#fb9cfe"/><stop offset=".6749" stop-color="#fcc0fe"/><stop offset="1" stop-color="#fff"/></linearGradient><linearGradient id="SVGID_5_" gradientUnits="userSpaceOnUse" x1="31.174" x2="345.97" xlink:href="#lg2" y1="560.711" y2="245.915"/><linearGradient id="lg3"><stop offset="0" stop-color="#fc54ff"/><stop offset=".6113" stop-color="#febfff"/><stop offset="1" stop-color="#fff"/></linearGradient><linearGradient id="SVGID_6_" gradientUnits="userSpaceOnUse" x1="70.602" x2="327.999" xlink:href="#lg3" y1="292.386" y2="34.989"/><linearGradient id="SVGID_7_" gradientUnits="userSpaceOnUse" x1="92.668" x2="321.461" xlink:href="#lg3" y1="224.601" y2="-4.192"/><linearGradient id="SVGID_8_" gradientUnits="userSpaceOnUse" x1="256" x2="256" y1="328.395" y2="109.033"><stop offset="0" stop-color="#fda0ff" stop-opacity="0"/><stop offset=".3356" stop-color="#fc9eff" stop-opacity=".336"/><stop offset=".5" stop-color="#f796fd" stop-opacity=".5"/><stop offset=".6273" stop-color="#f089fb" stop-opacity=".627"/><stop offset=".7355" stop-color="#e676f7" stop-opacity=".736"/><stop offset=".8315" stop-color="#d85ef3" stop-opacity=".832"/><stop offset=".9175" stop-color="#c741ee" stop-opacity=".918"/><stop offset=".9969" stop-color="#b41ee7" stop-opacity=".997"/><stop offset="1" stop-color="#b31de7"/></linearGradient><linearGradient id="SVGID_9_" gradientUnits="userSpaceOnUse" x1="124.772" x2="306.337" xlink:href="#lg2" y1="289.22" y2="107.655"/><linearGradient id="SVGID_10_" gradientUnits="userSpaceOnUse" x1="110.707" x2="295.19" xlink:href="#lg2" y1="239.431" y2="54.949"/><linearGradient id="SVGID_11_" gradientUnits="userSpaceOnUse" x1="148.718" x2="415.785" y1="478.863" y2="211.796"><stop offset="0" stop-color="#364aff"/><stop offset=".1184" stop-color="#464bff"/><stop offset=".3485" stop-color="#6e4dff"/><stop offset=".6673" stop-color="#b050ff"/><stop offset="1" stop-color="#fc54ff"/></linearGradient><linearGradient id="SVGID_12_" gradientUnits="userSpaceOnUse" x1="113.62" x2="383.235" xlink:href="#lg1" y1="499.211" y2="229.597"/><linearGradient id="SVGID_13_" gradientUnits="userSpaceOnUse" x1="181.1" x2="425.285" y1="493.497" y2="249.311"><stop offset="0" stop-color="#364aff"/><stop offset=".58" stop-color="#fc54ff"/></linearGradient><linearGradient id="SVGID_14_" gradientUnits="userSpaceOnUse" x1="9.332" x2="314.558" xlink:href="#lg1" y1="548.664" y2="243.439"/><g><circle cx="256" cy="256" fill="url(#SVGID_1_)" r="256"/><circle cx="256" cy="256" fill="url(#SVGID_2_)" r="256"/><path d="m365.356 223.757c-18.608-18.484-37.231-37.155-55.784-55.838-.086-17.024-.194-34.049-.326-51.073-35.498-.578-70.995-.578-106.493 0-.131 17.024-.24 34.049-.326 51.073-18.553 18.683-37.176 37.355-55.784 55.838-61.128 60.397-59.461 153.604 1.612 216.216 60.837 63.22 154.652 63.22 215.489 0 61.073-62.612 62.74-155.817 1.612-216.216z" fill="url(#SVGID_3_)"/><path d="m343.684 245.155c-21.576-21.448-43.186-43.118-64.699-64.736-.04-21.309-.095-42.618-.165-63.927-15.213-.106-30.427-.106-45.64 0-.07 21.309-.125 42.618-.165 63.927-21.513 21.618-43.124 43.288-64.699 64.736-23.467 23.352-36.341 53.887-36.052 86.471 82.491 1.445 164.982 1.445 247.473 0 .289-32.585-12.585-63.12-36.053-86.471z" fill="url(#SVGID_4_)"/><path d="m271.139 441.316c-83.688.131-153.97-72.222-154.502-155.189-.027-8.451.678-16.732 2.036-24.812-11.151 20.978-17.359 44.571-17.087 69.706 1.263 82.477 71.611 156.06 154.415 156.463 74.564-.163 138.665-60.175 152.04-131.707-26.527 48.986-78.255 85.204-136.902 85.539z" fill="url(#SVGID_5_)"/><path d="m297.703 39.954c-9.89-.198-19.779-.325-29.669-.382-4.414 25.595-8.916 51.214-13.467 76.841 15.691-.007 31.382.099 47.073.318 3.729-19.399 7.4-38.769 10.994-58.104 1.746-9.428-5.474-18.479-14.931-18.673z" fill="url(#SVGID_6_)"/><path d="m268.034 39.572c-17.912-.103-35.825.024-53.737.382-9.457.194-16.677 9.245-14.931 18.673 3.594 19.334 7.265 38.705 10.994 58.104 19.807-.276 39.613-.373 59.42-.29 1.778-19.484 3.533-38.962 5.256-58.435.838-9.501-2.548-18.408-7.002-18.434z" fill="url(#SVGID_7_)"/><path d="m365.356 223.757c-18.608-18.484-37.231-37.155-55.784-55.838-.086-17.024-.194-34.049-.326-51.073-35.498-.578-70.995-.578-106.493 0-.131 17.024-.24 34.049-.326 51.073-18.553 18.683-37.176 37.355-55.784 55.838-61.128 60.397-59.461 153.604 1.612 216.216 60.837 63.22 154.652 63.22 215.489 0 61.073-62.612 62.74-155.817 1.612-216.216z" fill="url(#SVGID_8_)"/><path d="m316.711 101.663c-15.178-.313-30.355-.508-45.533-.587.025 10.247.047 20.495.068 30.743 15.245.063 30.491.222 45.736.476 8.423.135 15.182-6.561 15.085-14.997-.098-8.436-6.978-15.459-15.356-15.635z" fill="url(#SVGID_9_)"/><path d="m271.178 101.076c-25.296-.13-50.592.065-75.888.587-8.378.175-15.259 7.199-15.356 15.634-.097 8.437 6.663 15.133 15.085 14.997 25.409-.423 50.818-.581 76.226-.476 8.423.033 15.222-6.783 15.181-15.265-.041-8.48-6.87-15.433-15.248-15.477z" fill="url(#SVGID_10_)"/><path d="m135.479 358.268c13.065 54.757 62.579 98.393 120.521 98.444 30.184.014 57.877-11.816 79.524-30.821-66.052-20.472-132.881-43.941-200.045-67.623z" fill="url(#SVGID_11_)"/><path d="m379.736 331.604c-82.491 1.445-164.982 1.445-247.473 0 .077 9.134 1.193 18.051 3.216 26.664 26.658 48.424 77.67 83.412 135.659 83.048 22.936-.126 44.705-5.731 64.385-15.425 26.529-23.37 43.897-57.202 44.213-94.287z" fill="url(#SVGID_12_)"/><path d="m333.314 296.433c3.183.859-58.748 81.796-58.658 81.812 59.167-3.705 104.854-24.05 105.081-46.642.126-14.347-18.012-26.899-46.423-35.17z" fill="url(#SVGID_13_)"/><path d="m333.314 296.433c-21.182-6.153-48.063-9.873-77.314-9.871-68.489.101-123.974 20.118-123.736 45.042.267 24.886 55.752 47.143 123.736 47.208 6.342 0 12.571-.194 18.656-.567 32.178-17.459 54.871-47.498 58.658-81.812z" fill="url(#SVGID_14_)"/></g></svg>