<svg id="Capa_1" enable-background="new 0 0 512 512" height="512" viewBox="0 0 512 512" width="512" xmlns="http://www.w3.org/2000/svg" xmlns:xlink="http://www.w3.org/1999/xlink"><linearGradient id="SVGID_1_" gradientUnits="userSpaceOnUse" x1="74.981" x2="437.019" y1="437.019" y2="74.981"><stop offset="0" stop-color="#ff4c4c"/><stop offset="1" stop-color="#fff200"/></linearGradient><radialGradient id="SVGID_2_" cx="286.423" cy="252.958" gradientUnits="userSpaceOnUse" r="256"><stop offset="0" stop-color="#ff4c4c"/><stop offset=".6616" stop-color="#ffc46a" stop-opacity=".306"/><stop offset=".9537" stop-color="#fffa78" stop-opacity="0"/></radialGradient><linearGradient id="SVGID_3_" gradientUnits="userSpaceOnUse" x1="-15.599" x2="397.163" y1="389.927" y2="-22.835"><stop offset=".0056" stop-color="#ffcb00"/><stop offset=".334" stop-color="#ffdd58"/><stop offset=".7956" stop-color="#fff5cf"/><stop offset="1" stop-color="#fff"/></linearGradient><linearGradient id="SVGID_4_" gradientUnits="userSpaceOnUse" x1="-21.535" x2="388.281" y1="672.008" y2="262.191"><stop offset="0" stop-color="#ffcb00"/><stop offset=".3303" stop-color="#ffdd58"/><stop offset=".7944" stop-color="#fff5cf"/><stop offset="1" stop-color="#fff"/></linearGradient><linearGradient id="lg1"><stop offset="0" stop-color="#ffb11d"/><stop offset=".2603" stop-color="#ffc315"/><stop offset="1" stop-color="#fff200"/></linearGradient><linearGradient id="SVGID_5_" gradientUnits="userSpaceOnUse" x1="152.358" x2="385.33" xlink:href="#lg1" y1="260.334" y2="27.362"/><linearGradient id="SVGID_6_" gradientTransform="matrix(1 0 0 -1 0 512)" gradientUnits="userSpaceOnUse" x1="182.71" x2="427.29" xlink:href="#lg1" y1="32.473" y2="277.053"/><linearGradient id="SVGID_7_" gradientUnits="userSpaceOnUse" x1="165.701" x2="530.782" y1="399.591" y2="34.51"><stop offset="0" stop-color="#ffcb00"/><stop offset=".6562" stop-color="#fffa78"/></linearGradient><linearGradient id="SVGID_8_" gradientUnits="userSpaceOnUse" x1="279.063" x2="279.063" y1="567.899" y2="29.259"><stop offset="0" stop-color="#ff8c00"/><stop offset=".1331" stop-color="#ffac22" stop-opacity=".867"/><stop offset=".2825" stop-color="#ffc841" stop-opacity=".718"/><stop offset=".4391" stop-color="#ffde59" stop-opacity=".561"/><stop offset=".604" stop-color="#ffee6b" stop-opacity=".396"/><stop offset=".7826" stop-color="#fff775" stop-opacity=".217"/><stop offset="1" stop-color="#fffa78" stop-opacity="0"/></linearGradient><g><circle cx="256" cy="256" fill="url(#SVGID_1_)" r="256"/><circle cx="256" cy="256" fill="url(#SVGID_2_)" r="256"/><path d="m150 65.11c-24.69 1.139-45.786 22.718-46.587 47.39-.076 2.5-.15 5-.223 7.5-.121 4.14 3.191 7.355 7.39 7.189 12.667-.505 25.335-.945 38.002-1.318 71.229 18.143 143.314 39.382 215.719 60.761-.409-40.507-1.175-81.014-2.3-121.522-70.668-3.097-141.334-3.097-212.001 0z" fill="url(#SVGID_3_)"/><path d="m148.581 386.13c-12.667-.373-25.335-.813-38.002-1.318-4.198-.166-7.511 3.048-7.39 7.189.072 2.5.146 5 .223 7.5.802 24.672 21.897 46.252 46.587 47.39 70.667 3.096 141.333 3.096 212 0 1.125-40.507 1.891-81.014 2.3-121.522-72.403 21.379-144.488 42.617-215.718 60.761z" fill="url(#SVGID_4_)"/><path d="m358.004 65.117c-23.25 1.084-40.599 21.212-40.353 45.157.028 2.294.054 4.587.081 6.881.049 4.228-3.317 7.598-7.515 7.536-32.561-.484-65.122-.533-97.683-.144-2.016.024-3.943-.76-5.355-2.178-2.51-2.522-5.016-5.039-7.518-7.55-2.931-2.944-7.728-2.852-10.729.196-2.561 2.601-5.125 5.202-7.691 7.802-1.444 1.463-3.388 2.307-5.404 2.353-9.084.2-18.169.433-27.253.701-.192 10.127-.361 20.254-.508 30.38 71.804 8.509 143.924 19.128 216.226 30.38 4.709-39.552 9.018-78.961 12.783-118.199-5.952-2.405-12.403-3.633-19.081-3.315z" fill="url(#SVGID_5_)"/><path d="m358.004 446.883c-23.25-1.084-40.599-21.212-40.353-45.157.028-2.294.054-4.587.081-6.881.049-4.228-3.317-7.598-7.515-7.536-6.551.098-13.102.177-19.653.239-2.016.02-3.954.844-5.386 2.297-2.546 2.581-5.088 5.16-7.628 7.738-2.975 3.02-7.772 3.045-10.729.051-2.524-2.554-5.051-5.111-7.582-7.672-1.424-1.441-3.357-2.249-5.373-2.251-35.095-.021-70.189-.548-105.284-1.582-.192-10.127-.361-20.254-.508-30.381 71.804-8.509 143.924-19.128 216.226-30.38 4.709 39.552 9.018 78.961 12.783 118.199-5.95 2.406-12.401 3.634-19.079 3.316z" fill="url(#SVGID_6_)"/><path d="m408.587 112.5c-.609-19.461-13.884-36.911-31.505-44.068-17.225 5.395-29.465 21.969-29.126 41.783.23 12.699.429 25.398.599 38.097.057 4.208-3.32 7.552-7.538 7.478-64.315-1.139-128.629-.986-192.944.46-.058 4.015-.113 8.03-.164 12.044-.026 2.014.756 3.93 2.175 5.329 2.521 2.487 5.046 4.979 7.574 7.477 2.961 2.927 2.92 7.753-.098 10.764-2.577 2.57-5.154 5.138-7.732 7.703-1.45 1.443-2.274 3.383-2.289 5.399-.177 23.895-.23 47.79-.158 71.684.006 2.014.823 3.95 2.269 5.384 7.712 7.643 15.431 15.319 23.147 23.017 3.013 3.006 3.04 7.844.065 10.795-7.619 7.555-15.214 15.068-22.778 22.528-1.419 1.399-2.201 3.314-2.175 5.329.051 4.015.106 8.029.164 12.044 64.315 1.446 128.629 1.6 192.944.461 4.218-.074 7.595 3.271 7.538 7.478-.17 12.699-.369 25.398-.599 38.097-.339 19.814 11.901 36.388 29.126 41.783 17.62-7.158 30.895-24.605 31.505-44.068 1.056-34.631 1.73-69.262 2.021-103.894.017-1.989-.778-3.886-2.208-5.278-2.542-2.474-5.088-4.954-7.636-7.441-2.985-2.914-2.965-7.687.045-10.64 2.57-2.52 5.139-5.035 7.706-7.544 1.444-1.411 2.257-3.322 2.258-5.309.009-12.929-.035-25.858-.132-38.787-.015-1.988-.84-3.907-2.292-5.332-7.743-7.605-15.493-15.258-23.244-22.945-3.026-3.001-3.081-7.796-.129-10.686 7.56-7.403 15.088-14.746 22.576-22.015 1.404-1.363 2.169-3.244 2.126-5.234-.301-13.964-.665-27.929-1.091-41.893z" fill="url(#SVGID_7_)"/><path d="m408.587 112.5c-.609-19.461-13.884-36.911-31.505-44.068-5.95-2.405-12.401-3.633-19.079-3.315-23.25 1.084-40.599 21.212-40.353 45.157.028 2.294.054 4.587.081 6.881.049 4.228-3.317 7.598-7.515 7.536-32.561-.484-65.122-.533-97.683-.144-2.016.024-3.943-.76-5.355-2.178-2.51-2.522-5.016-5.039-7.518-7.55-2.931-2.944-7.728-2.852-10.729.196-2.561 2.601-5.125 5.202-7.691 7.802-1.444 1.463-3.388 2.307-5.404 2.353-9.084.2-18.169.433-27.253.701-.268 14.142-.492 28.283-.672 42.425-.026 2.014.756 3.93 2.175 5.329 2.521 2.487 5.046 4.979 7.574 7.477 2.961 2.927 2.92 7.753-.098 10.764-2.577 2.57-5.154 5.138-7.732 7.703-1.45 1.443-2.274 3.383-2.289 5.399-.177 23.895-.23 47.79-.158 71.684.006 2.014.823 3.95 2.269 5.384 7.712 7.643 15.431 15.319 23.147 23.017 3.013 3.006 3.04 7.844.065 10.795-7.619 7.555-15.214 15.068-22.778 22.528-1.419 1.399-2.201 3.314-2.175 5.329.18 14.142.404 28.283.672 42.425 35.095 1.035 70.189 1.562 105.284 1.582 2.016.002 3.949.81 5.373 2.251 2.531 2.56 5.058 5.117 7.582 7.672 2.957 2.993 7.754 2.97 10.729-.051 2.539-2.577 5.082-5.157 7.628-7.738 1.432-1.451 3.37-2.277 5.386-2.297 6.551-.062 13.102-.142 19.653-.239 4.199-.061 7.565 3.307 7.515 7.536-.026 2.294-.053 4.587-.081 6.881-.245 23.944 17.103 44.073 40.353 45.157 6.678.318 13.129-.911 19.079-3.315 17.62-7.158 30.895-24.605 31.505-44.068 1.056-34.631 1.73-69.262 2.021-103.894.017-1.989-.778-3.886-2.208-5.278-2.542-2.474-5.088-4.954-7.636-7.441-2.985-2.914-2.965-7.687.045-10.64 2.57-2.52 5.139-5.035 7.706-7.544 1.444-1.411 2.257-3.322 2.258-5.309.009-12.929-.035-25.858-.132-38.787-.015-1.988-.84-3.907-2.292-5.332-7.743-7.605-15.493-15.258-23.244-22.945-3.026-3.001-3.081-7.796-.129-10.686 7.56-7.403 15.088-14.746 22.576-22.015 1.404-1.363 2.169-3.244 2.126-5.234-.303-13.967-.667-27.932-1.093-41.896z" fill="url(#SVGID_8_)"/></g></svg>