<svg id="Capa_1" enable-background="new 0 0 512 512" height="512" viewBox="0 0 512 512" width="512" xmlns="http://www.w3.org/2000/svg" xmlns:xlink="http://www.w3.org/1999/xlink"><linearGradient id="lg1"><stop offset="0" stop-color="#0072ff"/><stop offset="1" stop-color="#00e5a1"/></linearGradient><linearGradient id="SVGID_1_" gradientUnits="userSpaceOnUse" x1="74.981" x2="437.019" xlink:href="#lg1" y1="437.019" y2="74.981"/><radialGradient id="SVGID_2_" cx="256" cy="256" gradientUnits="userSpaceOnUse" r="256"><stop offset="0" stop-color="#0072ff"/><stop offset=".1353" stop-color="#0a7dfd" stop-opacity=".865"/><stop offset=".3702" stop-color="#2599f6" stop-opacity=".63"/><stop offset=".6764" stop-color="#50c7ec" stop-opacity=".324"/><stop offset="1" stop-color="#85ffe0" stop-opacity="0"/></radialGradient><linearGradient id="SVGID_3_" gradientUnits="userSpaceOnUse" x1="132.175" x2="545.136" xlink:href="#lg1" y1="379.826" y2="-33.136"/><linearGradient id="lg2"><stop offset="0" stop-color="#3dcbcd"/><stop offset=".1947" stop-color="#76dadc"/><stop offset=".3893" stop-color="#a7e7e8"/><stop offset=".5721" stop-color="#cdf2f2"/><stop offset=".7402" stop-color="#e8f9f9"/><stop offset=".8881" stop-color="#f9fdfd"/><stop offset="1" stop-color="#fff"/></linearGradient><linearGradient id="SVGID_4_" gradientUnits="userSpaceOnUse" x1="24.169" x2="487.523" xlink:href="#lg2" y1="487.831" y2="24.477"/><linearGradient id="SVGID_5_" gradientUnits="userSpaceOnUse" x1="93.96" x2="442.446" xlink:href="#lg2" y1="419.142" y2="70.656"/><linearGradient id="SVGID_6_" gradientUnits="userSpaceOnUse" x1="192.678" x2="331.868" xlink:href="#lg2" y1="340.131" y2="200.941"/><linearGradient id="SVGID_7_" gradientUnits="userSpaceOnUse" x1="209.295" x2="348.485" xlink:href="#lg2" y1="302.704" y2="163.515"/><g><circle cx="256" cy="256" fill="url(#SVGID_1_)" r="256"/><circle cx="256" cy="256" fill="url(#SVGID_2_)" r="256"/><circle cx="256" cy="256" fill="url(#SVGID_3_)" r="124.025"/><path d="m256 55.1c-107.094.561-200.339 93.806-200.9 200.9.561 107.095 93.806 200.339 200.9 200.9 107.094-.56 200.339-93.807 200.9-200.9-.56-107.095-93.806-200.34-200.9-200.9zm22.736 353.914c.096-22.484.171-44.969.224-67.454.011-4.244-3.411-7.678-7.642-7.671-10.212.015-20.425.015-30.637 0-4.23-.006-7.653 3.427-7.642 7.671.054 22.484.128 44.969.224 67.454-65.868-10.434-119.844-64.41-130.278-130.278 22.484.096 44.969.171 67.454.224 4.244.011 7.677-3.411 7.671-7.642-.015-10.212-.015-20.425 0-30.637.006-4.23-3.427-7.653-7.671-7.642-22.485.054-44.969.128-67.454.224 10.434-65.866 64.41-119.844 130.278-130.278-.096 22.484-.171 44.969-.224 67.454-.01 4.244 3.411 7.677 7.642 7.671 10.212-.015 20.425-.015 30.637 0 4.23.005 7.653-3.427 7.642-7.671-.054-22.484-.128-44.969-.224-67.454 65.868 10.434 119.844 64.41 130.278 130.278-22.484-.096-44.969-.171-67.454-.224-4.244-.011-7.678 3.411-7.671 7.642.015 10.212.015 20.425 0 30.637-.006 4.23 3.427 7.653 7.671 7.642 22.484-.054 44.969-.128 67.454-.224-10.435 65.867-64.41 119.844-130.278 130.278z" fill="url(#SVGID_4_)"/><path d="m271.081 433.812c-107.802-.125-200.669-92.815-200.547-200.395.177-35.417 10.411-68.773 27.698-98.06-26.707 34.054-43.155 75.689-43.132 120.643.561 107.095 93.806 200.339 200.9 200.9 72.638.024 137.604-43.172 173.543-103.275-37.675 47.521-95.037 79.999-158.462 80.187z" fill="url(#SVGID_5_)"/><path d="m286.749 248.317c-7.687-.002-15.374-.004-23.062-.004v15.375c7.687-.001 15.375-.002 23.062-.004 4.246-.001 7.689-3.441 7.689-7.683-.001-4.243-3.443-7.682-7.689-7.684z" fill="url(#SVGID_6_)"/><path d="m271.375 256c0-4.245-3.442-7.687-7.688-7.687 0-7.687-.002-15.375-.004-23.062-.002-4.245-3.441-7.688-7.683-7.688s-7.682 3.444-7.683 7.688c-.002 7.687-.003 15.375-.004 23.062-7.687 0-15.375.002-23.062.004-4.246.002-7.688 3.44-7.689 7.683 0 4.242 3.443 7.681 7.689 7.683 7.687.002 15.375.004 23.062.004.001 7.687.002 15.374.004 23.062.001 4.246 3.442 7.689 7.683 7.689 4.242 0 7.682-3.443 7.683-7.689.002-7.687.004-15.374.004-23.062 4.246 0 7.688-3.442 7.688-7.687z" fill="url(#SVGID_7_)"/></g></svg>