<svg id="Capa_1" enable-background="new 0 0 512 512" height="512" viewBox="0 0 512 512" width="512" xmlns="http://www.w3.org/2000/svg" xmlns:xlink="http://www.w3.org/1999/xlink"><linearGradient id="SVGID_1_" gradientUnits="userSpaceOnUse" x1="74.981" x2="437.019" y1="437.019" y2="74.981"><stop offset="0" stop-color="#00aa45"/><stop offset="1" stop-color="#d3ff33"/></linearGradient><radialGradient id="SVGID_2_" cx="256" cy="256" gradientTransform="matrix(.707 .707 -1.346 1.346 419.558 -269.597)" gradientUnits="userSpaceOnUse" r="256"><stop offset="0" stop-color="#00aa45"/><stop offset=".1164" stop-color="#29bb41" stop-opacity=".884"/><stop offset=".2801" stop-color="#5ccf3d" stop-opacity=".72"/><stop offset=".4415" stop-color="#87e039" stop-opacity=".559"/><stop offset=".597" stop-color="#a8ee37" stop-opacity=".403"/><stop offset=".7452" stop-color="#c0f735" stop-opacity=".255"/><stop offset=".8829" stop-color="#cefd33" stop-opacity=".117"/><stop offset="1" stop-color="#d3ff33" stop-opacity="0"/></radialGradient><linearGradient id="lg1"><stop offset="0" stop-color="#5ccd38"/><stop offset=".498" stop-color="#99e735"/><stop offset="1" stop-color="#d3ff33"/></linearGradient><linearGradient id="SVGID_3_" gradientTransform="matrix(.707 .707 -.707 .707 256 -106.039)" gradientUnits="userSpaceOnUse" x1="288.669" x2="288.669" xlink:href="#lg1" y1="314.776" y2="22.198"/><linearGradient id="SVGID_4_" gradientTransform="matrix(.707 .707 -.707 .707 256 -106.039)" gradientUnits="userSpaceOnUse" x1="240.658" x2="240.658" y1="354.196" y2="130.422"><stop offset=".0802" stop-color="#5ccd38"/><stop offset=".5382" stop-color="#99e735"/><stop offset="1" stop-color="#d3ff33"/></linearGradient><linearGradient id="SVGID_5_" gradientTransform="matrix(.707 .707 -.707 .707 256 -106.039)" gradientUnits="userSpaceOnUse" x1="255.999" x2="255.999" y1="319.965" y2="-8.902"><stop offset="0" stop-color="#b8ef5c"/><stop offset="1" stop-color="#fff"/></linearGradient><linearGradient id="lg2"><stop offset="0" stop-color="#b8ef5c"/><stop offset=".4619" stop-color="#daf7a9"/><stop offset="1" stop-color="#fff"/></linearGradient><linearGradient id="SVGID_6_" gradientTransform="matrix(.707 .707 -.707 .707 256 -106.039)" gradientUnits="userSpaceOnUse" x1="289.904" x2="289.904" xlink:href="#lg2" y1="319.381" y2="45.615"/><linearGradient id="SVGID_7_" gradientTransform="matrix(.707 .707 -.707 .707 256 -106.039)" gradientUnits="userSpaceOnUse" x1="256" x2="256" xlink:href="#lg2" y1="240.754" y2="-31.9"/><linearGradient id="lg3"><stop offset="0" stop-color="#95e12e"/><stop offset=".2743" stop-color="#a7e740"/><stop offset=".8218" stop-color="#d5f86e"/><stop offset="1" stop-color="#e6fe7f"/></linearGradient><linearGradient id="SVGID_8_" gradientTransform="matrix(.707 .707 -.707 .707 256 -106.039)" gradientUnits="userSpaceOnUse" x1="241.185" x2="241.185" xlink:href="#lg3" y1="521.926" y2="248.843"/><linearGradient id="SVGID_9_" gradientTransform="matrix(.707 .707 -.707 .707 256 -106.039)" gradientUnits="userSpaceOnUse" x1="301.995" x2="301.995" xlink:href="#lg3" y1="519.78" y2="149.986"/><linearGradient id="lg4"><stop offset="0" stop-color="#00aa45"/><stop offset=".0311" stop-color="#07ad44"/><stop offset=".7061" stop-color="#99e738"/><stop offset="1" stop-color="#d3ff33"/></linearGradient><linearGradient id="SVGID_10_" gradientTransform="matrix(.707 .707 -.707 .707 256 -106.039)" gradientUnits="userSpaceOnUse" x1="292.338" x2="292.338" xlink:href="#lg4" y1="638.843" y2="214.771"/><linearGradient id="SVGID_11_" gradientTransform="matrix(.707 .707 -.707 .707 256 -106.039)" gradientUnits="userSpaceOnUse" x1="242.959" x2="242.959" xlink:href="#lg1" y1="507.813" y2="250.445"/><linearGradient id="SVGID_12_" gradientUnits="userSpaceOnUse" x1="145.987" x2="304.54" xlink:href="#lg4" y1="366.014" y2="207.46"/><linearGradient id="SVGID_13_" gradientUnits="userSpaceOnUse" x1="198.609" x2="257.469" xlink:href="#lg2" y1="313.391" y2="254.532"/><g><circle cx="256" cy="256" fill="url(#SVGID_1_)" r="256"/><circle cx="256" cy="256" fill="url(#SVGID_2_)" r="256"/><path d="m307.7 204.3c-21.628 21.628-43.406 43.406-65.139 65.139 22.137 7.648 44.266 15.292 66.362 22.86 7.782-6.733 15.569-13.458 23.351-20.17-8.124-22.558-16.342-45.178-24.574-67.829z" fill="url(#SVGID_3_)"/><path d="m307.7 204.3c-22.651-8.233-45.271-16.45-67.83-24.573-6.711 7.783-13.437 15.569-20.17 23.351 7.568 22.096 15.212 44.224 22.86 66.361 11.531 3.984 23.059 7.967 34.582 11.938 11.134-10.315 22.275-20.628 33.403-30.914-.923-15.384-1.873-30.772-2.845-46.163z" fill="url(#SVGID_4_)"/><path d="m384.06 80.111c-38.018-19.815-83.691-14.233-114.896 17.579 16.703 31.448 33.73 62.964 50.768 94.378 31.414 17.037 62.93 34.065 94.378 50.768 3.688-3.626 7.027-7.453 10.02-11.441-12.783-50.04-26.41-100.518-40.27-151.284z" fill="url(#SVGID_5_)"/><path d="m411.63 100.37c-8.383-8.381-17.719-15.152-27.57-20.259-13.996 51.17-.96 110.321 40.269 151.284 29.57-39.148 24.4-93.94-12.699-131.025z" fill="url(#SVGID_6_)"/><path d="m269.164 97.69c-22.003 22.408-31.964 52.745-29.294 82.036 30.653 30.766 61.637 61.751 92.404 92.403 29.292 2.671 59.629-7.291 82.036-29.294-48.441-47.614-97.532-96.704-145.146-145.145z" fill="url(#SVGID_7_)"/><path d="m219.7 203.078c-23.563 27.239-47.206 54.436-70.6 81.308 5.897 20.164 11.873 40.379 17.882 60.632 10.523 3.123 21.037 6.236 31.538 9.334 29.515-27.427 59.475-55.249 89.443-82.996-22.759-22.75-45.587-45.583-68.263-68.278z" fill="url(#SVGID_8_)"/><path d="m308.922 292.3c-6.976-6.969-13.964-13.953-20.959-20.945-29.969 27.747-59.928 55.569-89.443 82.996 9.709 2.864 19.408 5.715 29.094 8.548 26.872-23.393 54.069-47.036 81.308-70.599z" fill="url(#SVGID_9_)"/><path d="m209.226 344.404c-32.789 27.009-65.161 53.627-96.653 79.29 3.579 3.598 7.153 7.199 10.721 10.803 5.771 5.826 14.67 6.471 20.467 1.425 27.362-23.803 55.425-48.273 83.853-73.022-6.116-6.163-12.247-12.33-18.388-18.496z" fill="url(#SVGID_10_)"/><path d="m127.943 419.936c26.522-24.633 53.733-49.936 81.283-75.532-19.981-20.062-40.074-40.118-60.125-60.018-24.749 28.428-49.22 56.491-73.022 83.853-5.046 5.794-4.401 14.698 1.426 20.467 11.725 11.609 23.424 23.281 35.069 34.988 3.065 3.082 9.75 1.462 15.369-3.758z" fill="url(#SVGID_11_)"/><path d="m264.683 285.748c-.019 21.224-17.184 38.458-38.327 38.391-21.141-.076-38.42-17.356-38.496-38.496-.066-21.141 17.168-38.308 38.391-38.327 21.227-.007 38.44 17.207 38.432 38.432z" fill="url(#SVGID_12_)"/><path d="m249.319 285.748c.001 12.737-10.296 23.06-23.004 23.027-12.707-.033-23.056-10.383-23.09-23.09-.032-12.707 10.29-23.005 23.027-23.004 12.735.003 23.065 10.33 23.067 23.067z" fill="url(#SVGID_13_)"/></g></svg>