<svg id="Capa_1" enable-background="new 0 0 512 512" height="512" viewBox="0 0 512 512" width="512" xmlns="http://www.w3.org/2000/svg" xmlns:xlink="http://www.w3.org/1999/xlink"><linearGradient id="SVGID_1_" gradientUnits="userSpaceOnUse" x1="74.981" x2="437.019" y1="437.019" y2="74.981"><stop offset="0" stop-color="#364aff"/><stop offset="1" stop-color="#fc54ff"/></linearGradient><radialGradient id="SVGID_2_" cx="256" cy="256" gradientUnits="userSpaceOnUse" r="258.6"><stop offset=".095" stop-color="#8d00db" stop-opacity=".66"/><stop offset=".2822" stop-color="#9f0de1" stop-opacity=".523"/><stop offset=".6541" stop-color="#cc30f0" stop-opacity=".252"/><stop offset="1" stop-color="#fc54ff" stop-opacity="0"/></radialGradient><linearGradient id="SVGID_3_" gradientUnits="userSpaceOnUse" x1="185.845" x2="417.604" y1="275.385" y2="43.627"><stop offset="0" stop-color="#fc54ff"/><stop offset=".223" stop-color="#fd7bff"/><stop offset="1" stop-color="#fff"/></linearGradient><linearGradient id="lg1"><stop offset="0" stop-color="#fc54ff"/><stop offset=".6113" stop-color="#febfff"/><stop offset="1" stop-color="#fff"/></linearGradient><linearGradient id="SVGID_4_" gradientUnits="userSpaceOnUse" x1="160.35" x2="526.584" xlink:href="#lg1" y1="509.898" y2="143.665"/><linearGradient id="SVGID_5_" gradientUnits="userSpaceOnUse" x1="-63.166" x2="324.338" y1="451.055" y2="63.551"><stop offset="0" stop-color="#fc54ff"/><stop offset=".1174" stop-color="#fc5fff"/><stop offset=".3231" stop-color="#fd7cff"/><stop offset=".5929" stop-color="#feabff"/><stop offset=".913" stop-color="#ffecff"/><stop offset="1" stop-color="#fff"/></linearGradient><linearGradient id="SVGID_6_" gradientUnits="userSpaceOnUse" x1="25.761" x2="387.017" xlink:href="#lg1" y1="289.125" y2="-72.131"/><linearGradient id="SVGID_7_" gradientUnits="userSpaceOnUse" x1="189.409" x2="519.89" xlink:href="#lg1" y1="474.932" y2="144.45"/><linearGradient id="SVGID_8_" gradientUnits="userSpaceOnUse" x1="126.977" x2="387.576" xlink:href="#lg1" y1="452.029" y2="191.43"/><linearGradient id="SVGID_9_" gradientUnits="userSpaceOnUse" x1="77.065" x2="379.864" xlink:href="#lg1" y1="348.016" y2="45.216"/><linearGradient id="SVGID_10_" gradientUnits="userSpaceOnUse" x1="32.189" x2="329.114" xlink:href="#lg1" y1="460.281" y2="163.356"/><linearGradient id="SVGID_11_" gradientUnits="userSpaceOnUse" x1="171.491" x2="476.419" xlink:href="#lg1" y1="502.844" y2="197.916"/><linearGradient id="SVGID_12_" gradientUnits="userSpaceOnUse" x1="-10.291" x2="314.635" xlink:href="#lg1" y1="502.761" y2="177.835"/><g><circle cx="256" cy="256" fill="url(#SVGID_1_)" r="256"/><circle cx="256" cy="256" fill="url(#SVGID_2_)" r="256"/><path d="m434.173 146.088c-57.561-33.913-114.755-68.474-170.679-101.647-2.321-1.376-4.908-2.066-7.494-2.066-4.994 19.682-10.056 39.376-15.16 59.072 37.043 56.242 75.217 113.079 112.794 169.005 29.178-40.243 58.155-80.03 86.243-118.717-1.366-2.278-3.315-4.239-5.704-5.647z" fill="url(#SVGID_3_)"/><path d="m439.877 151.735c-38.637 21.096-77.733 43.231-116.996 65.741.106 38.129.055 76.258-.154 114.387 39.179 9.926 78.249 19.492 117.149 28.4 1.366-2.278 2.148-4.872 2.203-7.547 1.31-64.478 1.311-128.956.001-193.434-.054-2.675-.837-5.271-2.203-7.547z" fill="url(#SVGID_4_)"/><path d="m72.123 151.735c-1.366 2.278-2.149 4.872-2.203 7.548-1.31 64.478-1.31 128.956.001 193.434.054 2.678.837 5.269 2.203 7.547 49.075-8.626 98.355-18.195 147.766-28.232-.165-55.929-.148-111.857.051-167.785-49.354-4.758-98.632-9.006-147.818-12.512z" fill="url(#SVGID_5_)"/><path d="m256 42.375c-2.586-.001-5.173.69-7.494 2.066-55.924 33.173-113.117 67.734-170.679 101.647-2.389 1.408-4.338 3.369-5.704 5.647 38.637 21.097 77.733 43.231 116.996 65.741 22.4-38.604 44.854-77.41 66.881-116.054 0-19.683 0-39.365 0-59.047z" fill="url(#SVGID_6_)"/><path d="m194.774 333.085c20.639 45.462 41.252 91.094 61.226 136.54 2.586.002 5.173-.69 7.494-2.066 55.924-33.173 113.117-67.735 170.678-101.648 2.389-1.408 4.338-3.368 5.704-5.647-16.733-9.137-33.553-18.468-50.435-27.94-64.889.938-129.778 1.193-194.667.761z" fill="url(#SVGID_7_)"/><path d="m72.123 360.264c1.366 2.278 3.316 4.24 5.704 5.647 57.561 33.913 114.754 68.475 170.678 101.648 2.321 1.378 4.908 2.066 7.494 2.066 0-45.445 0-90.891 0-136.336-44.48 0-88.961-.322-133.441-.965-16.882 9.472-33.701 18.803-50.435 27.94z" fill="url(#SVGID_8_)"/><path d="m256 42.375c30.44 53.208 62.018 106.85 93.458 159.953-62.282-.44-124.563-.44-186.845-.001 31.416-53.102 62.97-106.744 93.387-159.952z" fill="url(#SVGID_9_)"/><path d="m162.613 202.328c-30.732 53.492-61.317 106.451-90.489 157.936 61.301 2.085 122.593 3.34 183.876 3.736-30.983-54-62.55-108.22-93.387-161.672z" fill="url(#SVGID_10_)"/><path d="m347.397 201.133c-30.859 53.466-62.444 107.688-93.442 161.679 61.974.019 123.948-.83 185.921-2.548-29.822-51.854-61.085-105.226-92.479-159.131z" fill="url(#SVGID_11_)"/><path d="m162.613 202.328c30.837 53.452 62.404 107.672 93.387 161.672 31.007-54 62.597-108.221 93.458-161.672-62.282-.439-124.564-.44-186.845 0z" fill="url(#SVGID_12_)"/></g></svg>