<svg id="Capa_1" enable-background="new 0 0 512 512" height="512" viewBox="0 0 512 512" width="512" xmlns="http://www.w3.org/2000/svg" xmlns:xlink="http://www.w3.org/1999/xlink"><linearGradient id="SVGID_1_" gradientUnits="userSpaceOnUse" x1="74.981" x2="437.019" y1="437.019" y2="74.981"><stop offset="0" stop-color="#0072ff"/><stop offset="1" stop-color="#00e5a1"/></linearGradient><radialGradient id="SVGID_2_" cx="256" cy="256" gradientUnits="userSpaceOnUse" r="256"><stop offset="0" stop-color="#0072ff"/><stop offset=".1353" stop-color="#0a7dfd" stop-opacity=".865"/><stop offset=".3702" stop-color="#2599f6" stop-opacity=".63"/><stop offset=".6764" stop-color="#50c7ec" stop-opacity=".324"/><stop offset="1" stop-color="#85ffe0" stop-opacity="0"/></radialGradient><linearGradient id="lg1"><stop offset="0" stop-color="#3dcbcd"/><stop offset=".1947" stop-color="#76dadc"/><stop offset=".3893" stop-color="#a7e7e8"/><stop offset=".5721" stop-color="#cdf2f2"/><stop offset=".7402" stop-color="#e8f9f9"/><stop offset=".8881" stop-color="#f9fdfd"/><stop offset="1" stop-color="#fff"/></linearGradient><linearGradient id="SVGID_3_" gradientUnits="userSpaceOnUse" x1="80.179" x2="499.945" xlink:href="#lg1" y1="615.619" y2="195.854"/><linearGradient id="lg2"><stop offset="0" stop-color="#00babd"/><stop offset=".1502" stop-color="#3acacc"/><stop offset=".3204" stop-color="#75dadb"/><stop offset=".4849" stop-color="#a7e7e8"/><stop offset=".6392" stop-color="#cdf1f2"/><stop offset=".781" stop-color="#e8f9f9"/><stop offset=".9056" stop-color="#f9fdfd"/><stop offset="1" stop-color="#fff"/></linearGradient><linearGradient id="SVGID_4_" gradientUnits="userSpaceOnUse" x1="213.736" x2="523.891" xlink:href="#lg2" y1="500.925" y2="190.77"/><linearGradient id="SVGID_5_" gradientUnits="userSpaceOnUse" x1="54.104" x2="355.605" xlink:href="#lg2" y1="371.943" y2="70.442"/><linearGradient id="SVGID_6_" gradientUnits="userSpaceOnUse" x1="29.284" x2="519.238" xlink:href="#lg1" y1="470.576" y2="-19.379"/><g><circle cx="256" cy="256" fill="url(#SVGID_1_)" r="256"/><circle cx="256" cy="256" fill="url(#SVGID_2_)" r="256"/><path d="m432.219 200.792c-1.675 29.198-3.349 58.397-5.024 87.596 29.842 11.881 64.466-7.183 67.162-39.402 2.699-32.246-29.969-56.615-62.138-48.194z" fill="url(#SVGID_3_)"/><path d="m297.82 374.504c-2.086 3.991-4.164 7.985-6.233 11.981-2.562 4.958 1.005 10.864 6.579 10.944 21.303.312 42.603.86 63.897 1.645 5.958.218 11.571-1.299 16.374-4.091-24.743-14.394-49.847-28.469-75.307-42.213.063 7.222-1.599 14.634-5.31 21.734z" fill="url(#SVGID_4_)"/><path d="m107.179 130.637c1.108 23.429 2.216 46.858 3.324 70.286.258 5.568-5.82 9.486-11.263 7.27-4.392-1.789-8.793-3.569-13.201-5.338-33.951-13.625-71.302 11.768-68.396 46.13 2.902 34.311 41.93 53.743 72.973 36.661 4.071-2.239 8.15-4.469 12.239-6.691 5.074-2.756 11.371.575 11.63 6.145 1.344 28.423 2.688 56.846 4.032 85.27.815 16.55 14.879 29.312 31.42 28.704 21.294-.785 42.594-1.333 63.897-1.645 5.574-.082 9.142-5.987 6.579-10.944-2.069-3.996-4.147-7.99-6.233-11.981-14.304-27.145 1.538-59.212 30.484-66.054-43.217-60.272-89.057-119.599-137.485-177.813z" fill="url(#SVGID_5_)"/><path d="m462.756 246.665c1.472-21.1-11.943-38.689-30.538-45.873-2.094.549-4.184 1.231-6.258 2.064-4.409 1.77-8.809 3.55-13.201 5.338-5.443 2.216-11.52-1.701-11.263-7.27 1.108-23.429 2.216-46.858 3.324-70.286.814-16.546-13.379-30.687-31.711-31.36-23.511-.866-47.031-1.472-70.552-1.816-6.166-.089-10.234 5.735-7.546 10.753 2.165 4.048 4.321 8.099 6.468 12.151 16.299 31.127-8.683 66.781-45.481 66.754-36.798.025-61.78-35.627-45.481-66.754 2.148-4.053 4.304-8.103 6.468-12.151 2.688-5.018-1.38-10.844-7.546-10.753-23.522.344-47.04.95-70.552 1.816-18.331.672-32.526 14.815-31.711 31.36 32.932 68.769 80.78 128.862 137.485 177.813 3.601-.851 7.386-1.329 11.336-1.329 27.386.002 46.995 21.774 47.131 45.649 23.969 15.896 49.116 30.016 75.307 42.213 8.55-4.975 14.54-14.012 15.046-24.613 1.344-28.423 2.688-56.846 4.032-85.27.258-5.573 6.556-8.9 11.63-6.145 4.088 2.222 8.168 4.452 12.239 6.691 1.913 1.052 3.854 1.961 5.81 2.74 18.698-5.049 34.092-20.613 35.564-41.722z" fill="url(#SVGID_6_)"/></g></svg>