<svg id="Capa_1" enable-background="new 0 0 512 512" height="512" viewBox="0 0 512 512" width="512" xmlns="http://www.w3.org/2000/svg" xmlns:xlink="http://www.w3.org/1999/xlink"><linearGradient id="SVGID_1_" gradientUnits="userSpaceOnUse" x1="74.981" x2="437.02" y1="437.019" y2="74.98"><stop offset="0" stop-color="#ff2f2b"/><stop offset="1" stop-color="#ffbdab"/></linearGradient><radialGradient id="SVGID_2_" cx="256.001" cy="256" gradientUnits="userSpaceOnUse" r="256"><stop offset="0" stop-color="#ff2f2b"/><stop offset=".1344" stop-color="#ff3935" stop-opacity=".866"/><stop offset=".3677" stop-color="#ff564e" stop-opacity=".632"/><stop offset=".6719" stop-color="#ff8478" stop-opacity=".328"/><stop offset="1" stop-color="#ffbdab" stop-opacity="0"/></radialGradient><linearGradient id="SVGID_3_" gradientUnits="userSpaceOnUse" x1="-88.811" x2="530.7" y1="600.811" y2="-18.7"><stop offset="0" stop-color="#ffbdab"/><stop offset=".0606" stop-color="#ffc2b4"/><stop offset=".5" stop-color="#ffe3f1"/><stop offset="1" stop-color="#fff"/></linearGradient><linearGradient id="lg1"><stop offset="0" stop-color="#ffb5d3"/><stop offset=".2266" stop-color="#ffb9d5"/><stop offset=".4631" stop-color="#ffc6dd"/><stop offset=".7042" stop-color="#ffdbe9"/><stop offset=".947" stop-color="#fff8fb"/><stop offset="1" stop-color="#fff"/></linearGradient><linearGradient id="SVGID_4_" gradientUnits="userSpaceOnUse" x1="86.3" x2="501.559" xlink:href="#lg1" y1="425.767" y2="10.509"/><linearGradient id="SVGID_5_" gradientUnits="userSpaceOnUse" x1="-86.974" x2="529.952" y1="599.056" y2="-17.87"><stop offset="0" stop-color="#ff91bb"/><stop offset=".1623" stop-color="#ff97be"/><stop offset=".3688" stop-color="#ffa6c8"/><stop offset=".5994" stop-color="#ffc0d8"/><stop offset=".8456" stop-color="#ffe4ef"/><stop offset="1" stop-color="#fff"/></linearGradient><linearGradient id="SVGID_6_" gradientUnits="userSpaceOnUse" x1="28.915" x2="440.822" xlink:href="#lg1" y1="446.435" y2="34.528"/><linearGradient id="lg2"><stop offset="0" stop-color="#ff6e70"/><stop offset="1" stop-color="#ff2f2b"/></linearGradient><radialGradient id="SVGID_7_" cx="257.951" cy="156" gradientTransform="matrix(.707 -.707 .707 .707 35.383 256)" gradientUnits="userSpaceOnUse" r="61.916" xlink:href="#lg2"/><radialGradient id="SVGID_8_" cx="257.951" cy="156" gradientTransform="matrix(-.707 -.707 .707 -.707 256 476.617)" gradientUnits="userSpaceOnUse" r="61.916" xlink:href="#lg2"/><radialGradient id="SVGID_9_" cx="257.951" cy="156" gradientTransform="matrix(-.707 .707 -.707 -.707 476.617 256)" gradientUnits="userSpaceOnUse" r="61.916" xlink:href="#lg2"/><radialGradient id="SVGID_10_" cx="257.951" cy="156" gradientTransform="matrix(.707 .707 -.707 .707 256 35.383)" gradientUnits="userSpaceOnUse" r="61.916" xlink:href="#lg2"/><radialGradient id="SVGID_11_" cx="256" cy="256" gradientUnits="userSpaceOnUse" r="62.2" xlink:href="#lg2"/><g><circle cx="256" cy="256" fill="url(#SVGID_1_)" r="256"/><circle cx="256" cy="256" fill="url(#SVGID_2_)" r="256"/><path d="m396 427.368c-93.333 3.843-186.667 3.843-280 0-16.538-.706-30.662-14.828-31.368-31.368-3.843-93.333-3.843-186.667 0-280 .706-16.538 14.83-30.663 31.368-31.368 93.333-3.843 186.667-3.843 280 0 16.539.705 30.663 14.829 31.368 31.368 3.843 93.333 3.843 186.667 0 280-.706 16.538-14.83 30.664-31.368 31.368z" fill="url(#SVGID_3_)"/><path d="m429.006 236.16c-80.584-46.051-161.712-94.916-239.578-140.054-61.44 27.816-107.661 89.931-107.678 159.894.486 92.887 81.362 173.765 174.25 174.25 92.887-.487 173.765-81.362 174.25-174.25.001-6.711-.432-13.325-1.244-19.84z" fill="url(#SVGID_4_)"/><path d="m286.344 384.028c-94.211.259-174.357-79.572-173.599-173.39.271-25.342 6.368-49.487 16.836-71.46-29.227 31.441-47.858 72.296-47.831 116.822.486 92.887 81.362 173.765 174.25 174.25 68.381-.005 129.182-44.16 157.942-103.464-32.413 34.237-77.82 56.938-127.598 57.242z" fill="url(#SVGID_5_)"/><path d="m256 81.75c-23.525-.004-45.956 5.162-66.572 14.356 23.58 83.084 102.434 144.583 194.673 144.722 15.436.051 30.464-1.593 44.905-4.667-11.051-83.941-86.637-154.13-173.006-154.411z" fill="url(#SVGID_6_)"/><path d="m349.55 162.45c12.104 12.104 12.381 31.347.477 43.177-11.897 11.829-31.37 11.778-43.397-.257-12.035-12.028-12.086-31.499-.257-43.397 11.829-11.905 31.074-11.627 43.177.477z" fill="url(#SVGID_7_)"/><path d="m162.45 162.45c12.104-12.104 31.348-12.383 43.177-.477 11.83 11.898 11.778 31.369-.257 43.397-12.029 12.036-31.5 12.085-43.397.257-11.905-11.828-11.626-31.073.477-43.177z" fill="url(#SVGID_8_)"/><path d="m162.45 349.55c-12.105-12.102-12.382-31.346-.477-43.177 11.898-11.829 31.369-11.778 43.397.257 12.036 12.027 12.086 31.499.257 43.397-11.829 11.906-31.073 11.627-43.177-.477z" fill="url(#SVGID_9_)"/><path d="m349.55 349.55c-12.104 12.105-31.348 12.382-43.177.477-11.829-11.897-11.779-31.369.257-43.397 12.028-12.036 31.5-12.084 43.397-.257 11.905 11.83 11.627 31.074-.477 43.177z" fill="url(#SVGID_10_)"/><path d="m286.75 256c-.003 16.964-13.785 30.748-30.75 30.75-16.965-.003-30.747-13.785-30.75-30.75.003-16.966 13.785-30.746 30.75-30.75 16.965.004 30.746 13.785 30.75 30.75z" fill="url(#SVGID_11_)"/></g></svg>