<svg id="Capa_1" enable-background="new 0 0 512 512" height="512" viewBox="0 0 512 512" width="512" xmlns="http://www.w3.org/2000/svg" xmlns:xlink="http://www.w3.org/1999/xlink"><linearGradient id="SVGID_1_" gradientUnits="userSpaceOnUse" x1="74.981" x2="437.019" y1="437.019" y2="74.981"><stop offset="0" stop-color="#364aff"/><stop offset="1" stop-color="#fc54ff"/></linearGradient><radialGradient id="SVGID_2_" cx="256" cy="256" gradientUnits="userSpaceOnUse" r="258.6"><stop offset=".095" stop-color="#8d00db" stop-opacity=".66"/><stop offset=".2822" stop-color="#9f0de1" stop-opacity=".523"/><stop offset=".6541" stop-color="#cc30f0" stop-opacity=".252"/><stop offset="1" stop-color="#fc54ff" stop-opacity="0"/></radialGradient><linearGradient id="SVGID_3_" gradientUnits="userSpaceOnUse" x1="81.611" x2="464.764" y1="430.389" y2="47.236"><stop offset="0" stop-color="#fda0ff"/><stop offset=".0076" stop-color="#fda1ff"/><stop offset="1" stop-color="#fff"/></linearGradient><linearGradient id="SVGID_4_" gradientUnits="userSpaceOnUse" x1="58.374" x2="414.858" y1="410.73" y2="54.245"><stop offset="0" stop-color="#b31de7"/><stop offset=".5" stop-color="#d960f3"/><stop offset="1" stop-color="#fda0ff"/></linearGradient><linearGradient id="lg1"><stop offset="0" stop-color="#b31de7"/><stop offset=".1529" stop-color="#a41be6"/><stop offset=".4483" stop-color="#7c16e4"/><stop offset=".8528" stop-color="#3c0ee1"/><stop offset="1" stop-color="#230be0"/></linearGradient><radialGradient id="SVGID_5_" cx="180.952" cy="-863.449" gradientTransform="matrix(-1 0 0 -1 527.91 -750.41)" gradientUnits="userSpaceOnUse" r="71.832" xlink:href="#lg1"/><radialGradient id="SVGID_6_" cx="226.431" cy="-862.276" gradientTransform="matrix(-1 0 0 -1 527.91 -750.41)" gradientUnits="userSpaceOnUse" r="72.108" xlink:href="#lg1"/><radialGradient id="SVGID_7_" cx="271.91" cy="-861.885" gradientTransform="matrix(-1 0 0 -1 527.91 -750.41)" gradientUnits="userSpaceOnUse" r="72.199"><stop offset="0" stop-color="#fc54ff"/><stop offset=".4199" stop-color="#c72cee"/><stop offset=".8039" stop-color="#9d0ce0"/><stop offset="1" stop-color="#8d00db"/></radialGradient><linearGradient id="SVGID_8_" gradientUnits="userSpaceOnUse" x1="124.775" x2="338.067" y1="366.305" y2="153.013"><stop offset="0" stop-color="#fc54ff"/><stop offset=".2435" stop-color="#fd8bff"/><stop offset=".4916" stop-color="#febdff"/><stop offset=".7095" stop-color="#fee1ff"/><stop offset=".8864" stop-color="#fff7ff"/><stop offset="1" stop-color="#fff"/></linearGradient><linearGradient id="SVGID_9_" gradientUnits="userSpaceOnUse" x1="125.595" x2="334.368" y1="365.485" y2="156.712"><stop offset="0" stop-color="#fc54ff"/><stop offset=".1263" stop-color="#fd75ff"/><stop offset=".3368" stop-color="#fda6ff"/><stop offset=".5362" stop-color="#fecdff"/><stop offset=".719" stop-color="#ffe8ff"/><stop offset=".8794" stop-color="#fff9ff"/><stop offset="1" stop-color="#fff"/></linearGradient><linearGradient id="SVGID_10_" gradientUnits="userSpaceOnUse" x1="123.377" x2="332.281" y1="352.022" y2="143.118"><stop offset="0" stop-color="#fc54ff"/><stop offset=".0023" stop-color="#fc55ff"/><stop offset=".3598" stop-color="#fd9dff"/><stop offset=".6567" stop-color="#fed2ff"/><stop offset=".8784" stop-color="#fff3ff"/><stop offset="1" stop-color="#fff"/></linearGradient><linearGradient id="SVGID_11_" gradientUnits="userSpaceOnUse" x1="45.738" x2="495.014" y1="594.47" y2="145.194"><stop offset="0" stop-color="#fc54ff"/><stop offset=".6266" stop-color="#fec2ff"/><stop offset="1" stop-color="#fff"/></linearGradient><g><circle cx="256" cy="256" fill="url(#SVGID_1_)" r="256"/><circle cx="256" cy="256" fill="url(#SVGID_2_)" r="256"/><path d="m361 443.837c-70 3.75-140 3.75-210 0-16.542-.915-30.475-15.308-31.001-31.837-3.166-104-3.166-208 0-312 .526-16.53 14.459-30.92 31.001-31.837 70-3.75 140-3.75 210 0 16.542.916 30.475 15.306 31.001 31.837 3.165 104 3.165 208 0 312-.526 16.528-14.459 30.922-31.001 31.837z" fill="url(#SVGID_3_)"/><path d="m361.406 83.311c-70.271-3.448-140.542-3.448-210.813 0-8.31.417-15.254 7.55-15.483 15.871-2.029 75.393-2.595 150.787-1.697 226.181.102 8.32 7.052 15.261 15.498 15.468 71.393 1.694 142.786 1.694 214.179 0 8.446-.208 15.396-7.148 15.498-15.468.897-75.394.332-150.787-1.697-226.181-.231-8.321-7.174-15.454-15.485-15.871z" fill="url(#SVGID_4_)"/><path d="m347.217 128.25c8.4.25 15.081-6.282 14.899-14.643-.182-8.359-7.109-15.449-15.449-15.774-8.341-.325-14.991 6.297-14.87 14.73.123 8.433 7.02 15.434 15.42 15.687z" fill="url(#SVGID_5_)"/><path d="m301.609 127.2c8.4.126 15.135-6.582 15.029-15.029-.106-8.444-6.964-15.477-15.304-15.638-8.34-.164-15.06 6.634-15.015 15.116.046 8.482 6.889 15.425 15.29 15.551z" fill="url(#SVGID_6_)"/><path d="m256 126.85c8.401-.002 15.189-6.844 15.159-15.332-.03-8.486-6.819-15.42-15.159-15.418-8.34 0-15.129 6.932-15.16 15.418-.029 8.488 6.759 15.331 15.16 15.332z" fill="url(#SVGID_7_)"/><path d="m149.31 143.904c-.436 26.113-.719 52.226-.85 78.339 34.795 34.151 70.025 69.469 104.912 104.482 36.631.017 73.261-.331 109.892-1.043-70.881-59.202-143.838-123.424-213.954-181.778z" fill="url(#SVGID_8_)"/><path d="m149.31 143.904c55.196 70.029 129.564 135.301 213.954 181.778.727.001.153-181.779-.574-181.778-71.127-2.238-142.253-2.238-213.38 0z" fill="url(#SVGID_9_)"/><path d="m148.46 222.242c-.173 34.479-.081 68.959.276 103.439 34.878.679 69.757 1.026 104.635 1.043-17.256-48.905-56.142-87.919-104.911-104.482z" fill="url(#SVGID_10_)"/><path d="m361.778 413.541c-70.519 3.146-141.038 3.146-211.557 0-.45-19.188-.817-38.375-1.103-57.563 71.254 1.996 142.508 1.996 213.763 0-.285 19.188-.653 38.375-1.103 57.563z" fill="url(#SVGID_11_)"/></g></svg>