<svg id="Capa_1" enable-background="new 0 0 512 512" height="512" viewBox="0 0 512 512" width="512" xmlns="http://www.w3.org/2000/svg" xmlns:xlink="http://www.w3.org/1999/xlink"><linearGradient id="SVGID_1_" gradientUnits="userSpaceOnUse" x1="74.981" x2="437.019" y1="437.019" y2="74.981"><stop offset="0" stop-color="#0072ff"/><stop offset="1" stop-color="#00e5a1"/></linearGradient><radialGradient id="SVGID_2_" cx="256" cy="256" gradientUnits="userSpaceOnUse" r="256"><stop offset="0" stop-color="#0072ff"/><stop offset=".1414" stop-color="#0577fe" stop-opacity=".859"/><stop offset=".3177" stop-color="#1487fa" stop-opacity=".682"/><stop offset=".5127" stop-color="#2ca0f5" stop-opacity=".487"/><stop offset=".721" stop-color="#4dc4ed" stop-opacity=".279"/><stop offset=".9379" stop-color="#77f1e3" stop-opacity=".062"/><stop offset="1" stop-color="#85ffe0" stop-opacity="0"/></radialGradient><linearGradient id="SVGID_3_" gradientUnits="userSpaceOnUse" x1="-114.226" x2="628.756" y1="626.227" y2="-116.756"><stop offset="0" stop-color="#3dcbcd"/><stop offset=".1288" stop-color="#4fd0d2"/><stop offset=".3866" stop-color="#7ddcdd"/><stop offset=".7456" stop-color="#c7f0f1"/><stop offset="1" stop-color="#fff"/></linearGradient><linearGradient id="lg1"><stop offset="0" stop-color="#0072ff"/><stop offset="1" stop-color="#3dcbcd"/></linearGradient><linearGradient id="SVGID_4_" gradientUnits="userSpaceOnUse" x1="125.617" x2="264.981" xlink:href="#lg1" y1="272.114" y2="132.751"/><linearGradient id="lg2"><stop offset="0" stop-color="#0072ff"/><stop offset=".2246" stop-color="#1d8bf7"/><stop offset="1" stop-color="#80ddde"/></linearGradient><linearGradient id="SVGID_5_" gradientUnits="userSpaceOnUse" x1="127.82" x2="260.035" xlink:href="#lg2" y1="269.912" y2="137.697"/><linearGradient id="SVGID_6_" gradientUnits="userSpaceOnUse" x1="240.424" x2="379.052" xlink:href="#lg1" y1="271.576" y2="132.948"/><linearGradient id="SVGID_7_" gradientUnits="userSpaceOnUse" x1="243.143" x2="373.558" xlink:href="#lg2" y1="268.857" y2="138.442"/><linearGradient id="SVGID_8_" gradientUnits="userSpaceOnUse" x1="182.861" x2="322.594" xlink:href="#lg1" y1="214.567" y2="74.834"/><linearGradient id="SVGID_9_" gradientUnits="userSpaceOnUse" x1="185.818" x2="316.587" xlink:href="#lg2" y1="211.61" y2="80.841"/><linearGradient id="SVGID_10_" gradientUnits="userSpaceOnUse" x1="298.153" x2="434.204" xlink:href="#lg1" y1="213.847" y2="77.796"/><linearGradient id="SVGID_11_" gradientUnits="userSpaceOnUse" x1="301.357" x2="428.229" xlink:href="#lg2" y1="210.643" y2="83.771"/><linearGradient id="SVGID_12_" gradientUnits="userSpaceOnUse" x1="68.814" x2="209.282" xlink:href="#lg1" y1="216.472" y2="76.004"/><linearGradient id="SVGID_13_" gradientUnits="userSpaceOnUse" x1="71.034" x2="204.297" xlink:href="#lg2" y1="214.252" y2="80.989"/><linearGradient id="lg3"><stop offset="0" stop-color="#85ffe0"/><stop offset=".1874" stop-color="#9cffe6"/><stop offset="1" stop-color="#fff"/></linearGradient><linearGradient id="SVGID_14_" gradientUnits="userSpaceOnUse" x1="255.85" x2="394.11" xlink:href="#lg3" y1="198.56" y2="60.3"/><linearGradient id="lg4"><stop offset="0" stop-color="#85ffe0"/><stop offset=".6782" stop-color="#dbfff6"/><stop offset="1" stop-color="#fff"/></linearGradient><linearGradient id="SVGID_15_" gradientUnits="userSpaceOnUse" x1="249.084" x2="336.565" xlink:href="#lg4" y1="205.326" y2="117.845"/><linearGradient id="SVGID_16_" gradientUnits="userSpaceOnUse" x1="141.429" x2="281.896" xlink:href="#lg3" y1="199.625" y2="59.157"/><linearGradient id="SVGID_17_" gradientUnits="userSpaceOnUse" x1="134.061" x2="223.71" xlink:href="#lg4" y1="206.993" y2="117.343"/><linearGradient id="SVGID_18_" gradientUnits="userSpaceOnUse" x1="126.567" x2="263.906" xlink:href="#lg1" y1="385.433" y2="248.094"/><linearGradient id="SVGID_19_" gradientUnits="userSpaceOnUse" x1="128.265" x2="259.488" xlink:href="#lg2" y1="383.736" y2="252.512"/><linearGradient id="SVGID_20_" gradientUnits="userSpaceOnUse" x1="239.886" x2="379.249" xlink:href="#lg1" y1="386.383" y2="247.019"/><linearGradient id="SVGID_21_" gradientUnits="userSpaceOnUse" x1="242.087" x2="374.304" xlink:href="#lg2" y1="384.181" y2="251.965"/><linearGradient id="SVGID_22_" gradientUnits="userSpaceOnUse" x1="85.362" x2="221.411" xlink:href="#lg3" y1="369.049" y2="232.999"/><linearGradient id="SVGID_23_" gradientUnits="userSpaceOnUse" x1="77.276" x2="165.578" xlink:href="#lg4" y1="377.134" y2="288.832"/><linearGradient id="SVGID_24_" gradientUnits="userSpaceOnUse" x1="183.331" x2="321.591" xlink:href="#lg1" y1="443.241" y2="304.981"/><linearGradient id="SVGID_25_" gradientUnits="userSpaceOnUse" x1="185.21" x2="316.785" xlink:href="#lg2" y1="441.363" y2="309.788"/><linearGradient id="SVGID_26_" gradientUnits="userSpaceOnUse" x1="295.528" x2="435.996" xlink:href="#lg1" y1="443.186" y2="302.718"/><linearGradient id="SVGID_27_" gradientUnits="userSpaceOnUse" x1="297.748" x2="431.011" xlink:href="#lg2" y1="440.966" y2="307.703"/><linearGradient id="SVGID_28_" gradientUnits="userSpaceOnUse" x1="129.696" x2="259.275" xlink:href="#lg3" y1="439.894" y2="310.315"/><linearGradient id="SVGID_29_" gradientUnits="userSpaceOnUse" x1="254.938" x2="394.67" xlink:href="#lg3" y1="428.009" y2="288.277"/><linearGradient id="SVGID_30_" gradientUnits="userSpaceOnUse" x1="247.129" x2="337.053" xlink:href="#lg4" y1="435.817" y2="345.894"/><linearGradient id="SVGID_31_" gradientUnits="userSpaceOnUse" x1="142.952" x2="279.002" xlink:href="#lg3" y1="426.639" y2="290.588"/><linearGradient id="SVGID_32_" gradientUnits="userSpaceOnUse" x1="134.866" x2="223.169" xlink:href="#lg4" y1="434.724" y2="346.422"/><linearGradient id="SVGID_33_" gradientUnits="userSpaceOnUse" x1="255.774" x2="395.137" xlink:href="#lg3" y1="313.512" y2="174.149"/><linearGradient id="SVGID_34_" gradientUnits="userSpaceOnUse" x1="248.371" x2="337.546" xlink:href="#lg4" y1="320.915" y2="231.74"/><linearGradient id="SVGID_35_" gradientUnits="userSpaceOnUse" x1="141.354" x2="279.981" xlink:href="#lg3" y1="313.36" y2="174.733"/><linearGradient id="SVGID_36_" gradientUnits="userSpaceOnUse" x1="133.512" x2="222.96" xlink:href="#lg4" y1="321.202" y2="231.754"/><linearGradient id="SVGID_37_" gradientUnits="userSpaceOnUse" x1="72.262" x2="205.736" xlink:href="#lg1" y1="439.738" y2="306.264"/><linearGradient id="SVGID_38_" gradientUnits="userSpaceOnUse" x1="73.428" x2="201.91" xlink:href="#lg2" y1="438.573" y2="310.09"/><linearGradient id="SVGID_39_" gradientUnits="userSpaceOnUse" x1="182.945" x2="321.941" xlink:href="#lg1" y1="329.056" y2="190.059"/><linearGradient id="SVGID_40_" gradientUnits="userSpaceOnUse" x1="185.142" x2="317.008" xlink:href="#lg2" y1="326.859" y2="194.992"/><linearGradient id="SVGID_41_" gradientUnits="userSpaceOnUse" x1="297.433" x2="437.166" xlink:href="#lg1" y1="329.139" y2="189.406"/><linearGradient id="SVGID_42_" gradientUnits="userSpaceOnUse" x1="300.39" x2="431.159" xlink:href="#lg2" y1="326.182" y2="195.413"/><linearGradient id="SVGID_43_" gradientUnits="userSpaceOnUse" x1="68.76" x2="207.018" xlink:href="#lg1" y1="328.668" y2="190.41"/><linearGradient id="SVGID_44_" gradientUnits="userSpaceOnUse" x1="70.637" x2="202.213" xlink:href="#lg2" y1="326.791" y2="195.216"/><linearGradient id="SVGID_45_" gradientUnits="userSpaceOnUse" x1="312.375" x2="452.843" xlink:href="#lg3" y1="370.572" y2="230.104"/><linearGradient id="SVGID_46_" gradientUnits="userSpaceOnUse" x1="305.007" x2="394.657" xlink:href="#lg4" y1="377.94" y2="288.29"/><linearGradient id="SVGID_47_" gradientUnits="userSpaceOnUse" x1="198.64" x2="337.267" xlink:href="#lg3" y1="370.646" y2="232.019"/><linearGradient id="SVGID_48_" gradientUnits="userSpaceOnUse" x1="190.799" x2="280.246" xlink:href="#lg4" y1="378.488" y2="289.04"/><linearGradient id="SVGID_49_" gradientUnits="userSpaceOnUse" x1="83.991" x2="223.723" xlink:href="#lg3" y1="257.062" y2="117.33"/><linearGradient id="SVGID_50_" gradientUnits="userSpaceOnUse" x1="76.183" x2="166.106" xlink:href="#lg4" y1="264.87" y2="174.947"/><linearGradient id="SVGID_51_" gradientUnits="userSpaceOnUse" x1="313.441" x2="451.699" xlink:href="#lg3" y1="256.149" y2="117.891"/><linearGradient id="SVGID_52_" gradientUnits="userSpaceOnUse" x1="306.674" x2="394.156" xlink:href="#lg4" y1="262.916" y2="175.435"/><linearGradient id="SVGID_53_" gradientUnits="userSpaceOnUse" x1="198.488" x2="337.851" xlink:href="#lg3" y1="256.226" y2="116.863"/><linearGradient id="SVGID_54_" gradientUnits="userSpaceOnUse" x1="191.084" x2="280.26" xlink:href="#lg4" y1="263.63" y2="174.454"/><g><circle cx="256" cy="256" fill="url(#SVGID_1_)" r="256"/><circle cx="256" cy="256" fill="url(#SVGID_2_)" r="256"/><path d="m396 427.368c-93.333 3.843-186.667 3.843-280 0-16.539-.706-30.662-14.83-31.368-31.368-3.843-93.333-3.843-186.667 0-280 .706-16.539 14.829-30.661 31.368-31.368 93.333-3.843 186.667-3.843 280 0 16.538.707 30.663 14.83 31.368 31.368 3.843 93.333 3.843 186.667 0 280-.707 16.54-14.828 30.661-31.368 31.368z" fill="url(#SVGID_3_)"/><path d="m227.319 227.319c-19.095-19.095-38.115-38.115-56.906-56.906-.228 19.02-.38 38.039-.456 57.058 19.121-.076 38.241-.127 57.362-.152z" fill="url(#SVGID_4_)"/><path d="m170.413 170.413c8.65 26.816 29.834 47.9 56.906 56.906-.023 0 .13-57.362.152-57.362-19.019.076-38.039.228-57.058.456z" fill="url(#SVGID_5_)"/><path d="m342.043 227.471c-19.196-19.095-38.418-38.317-57.514-57.514.076 19.12.127 38.241.152 57.362 19.121.025 38.241.076 57.362.152z" fill="url(#SVGID_6_)"/><path d="m284.529 169.957c9.081 27.121 30.393 48.433 57.514 57.514.068-.001-.388-57.058-.456-57.058-19.019-.228-38.038-.38-57.058-.456z" fill="url(#SVGID_7_)"/><path d="m284.529 169.957c-19.095-19.197-38.064-38.368-56.754-57.362-.127 19.121-.228 38.241-.304 57.362 19.019-.076 38.039-.076 57.058 0z" fill="url(#SVGID_8_)"/><path d="m227.775 112.595c8.687 27.017 29.767 48.223 56.754 57.362.023-.001-.281-57.363-.304-57.362-18.816-.127-37.633-.127-56.45 0z" fill="url(#SVGID_9_)"/><path d="m398.645 171.324c-19.399-19.196-38.773-38.571-57.97-57.97.38 19.02.684 38.039.911 57.058 19.021.228 38.04.532 57.059.912z" fill="url(#SVGID_10_)"/><path d="m340.676 113.354c9.405 27.133 30.838 48.565 57.97 57.97.113 0-1.406-56.45-1.519-56.451-18.818-.632-37.634-1.138-56.451-1.519z" fill="url(#SVGID_11_)"/><path d="m170.413 170.413c-18.791-18.792-37.355-37.355-55.539-55.539-.633 18.817-1.139 37.634-1.519 56.451 19.019-.381 38.038-.685 57.058-.912z" fill="url(#SVGID_12_)"/><path d="m114.874 114.874c7.969 26.323 28.696 46.86 55.539 55.539-.068 0 .844-57.059.912-57.058-18.818.379-37.634.885-56.451 1.519z" fill="url(#SVGID_13_)"/><path d="m341.587 170.413c-19.247-19.247-38.418-38.57-57.362-57.818.127 19.121.228 38.241.304 57.362 19.019.076 38.039.228 57.058.456z" fill="url(#SVGID_14_)"/><path d="m284.225 112.595c9.047 27.146 30.302 48.522 57.362 57.818.068 0-.844-57.059-.911-57.058-18.817-.38-37.634-.633-56.451-.76z" fill="url(#SVGID_15_)"/><path d="m227.471 169.957c-18.943-19.045-37.71-37.963-56.147-56.603-.38 19.02-.684 38.039-.911 57.058 19.019-.227 38.038-.379 57.058-.455z" fill="url(#SVGID_16_)"/><path d="m171.324 113.354c8.329 26.745 29.231 47.667 56.147 56.603-.022-.001.282-57.363.304-57.362-18.817.127-37.634.38-56.451.759z" fill="url(#SVGID_17_)"/><path d="m227.471 342.043c-19.095-19.197-38.317-38.418-57.514-57.514.076 19.02.228 38.038.456 57.058 19.019.228 38.038.38 57.058.456z" fill="url(#SVGID_18_)"/><path d="m169.957 284.529c9.148 26.958 30.557 48.366 57.514 57.514-.022-.002-.174-57.362-.152-57.362-19.121-.025-38.241-.076-57.362-.152z" fill="url(#SVGID_19_)"/><path d="m341.587 341.587c-18.792-18.792-37.811-37.812-56.906-56.906-.025 19.12-.076 38.241-.152 57.362 19.019-.076 38.039-.228 57.058-.456z" fill="url(#SVGID_20_)"/><path d="m284.681 284.681c9.006 27.073 30.092 48.258 56.906 56.906.068 0 .523-57.057.456-57.058-19.121.076-38.241.127-57.362.152z" fill="url(#SVGID_21_)"/><path d="m170.413 341.587c-19.247-19.248-38.57-38.419-57.818-57.362.127 18.817.38 37.634.76 56.451 19.019.38 38.038.684 57.058.911z" fill="url(#SVGID_22_)"/><path d="m112.595 284.225c9.219 26.684 30.791 48.038 57.818 57.362-.067 0-.523-57.057-.456-57.058-19.121-.076-38.241-.177-57.362-.304z" fill="url(#SVGID_23_)"/><path d="m284.225 399.405c-18.69-18.994-37.659-38.166-56.754-57.362.076 19.121.177 38.241.304 57.362 18.816.127 37.634.127 56.45 0z" fill="url(#SVGID_24_)"/><path d="m227.471 342.043c9.11 27.11 30.19 48.509 56.754 57.362.022.001.326-57.361.304-57.362-19.019.076-38.039.076-57.058 0z" fill="url(#SVGID_25_)"/><path d="m397.126 397.126c-18.184-18.184-36.747-36.747-55.539-55.539-.228 19.02-.532 38.039-.911 57.058 18.816-.379 37.634-.885 56.45-1.519z" fill="url(#SVGID_26_)"/><path d="m341.587 341.587c8.681 26.843 29.214 47.569 55.539 55.539.112.001 1.632-56.45 1.519-56.451-19.019.381-38.038.685-57.058.912z" fill="url(#SVGID_27_)"/><path d="m227.775 399.405c-18.817-.127-37.634-.38-56.451-.76-.38-19.02-.684-38.039-.911-57.058 19.019.228 38.039.379 57.058.456.076 19.121.177 38.241.304 57.362z" fill="url(#SVGID_28_)"/><path d="m340.676 398.646c-18.437-18.64-37.203-37.558-56.147-56.603-.076 19.121-.177 38.241-.304 57.362 18.817-.127 37.634-.38 56.451-.759z" fill="url(#SVGID_29_)"/><path d="m284.529 342.043c8.896 27.049 29.702 48.169 56.147 56.603.068 0 .978-57.058.912-57.058-19.02.227-38.039.379-57.059.455z" fill="url(#SVGID_30_)"/><path d="m227.775 399.405c-18.943-19.248-38.115-38.571-57.362-57.818.228 19.02.532 38.039.911 57.058 18.817.38 37.634.633 56.451.76z" fill="url(#SVGID_31_)"/><path d="m170.413 341.587c9.326 27.028 30.679 48.598 57.362 57.818-.023.001-.327-57.361-.304-57.362-19.019-.076-38.039-.228-57.058-.456z" fill="url(#SVGID_32_)"/><path d="m342.043 284.529c-19.045-18.944-38.216-38.064-57.362-57.21.025 19.121.025 38.241 0 57.362 19.121-.025 38.241-.076 57.362-.152z" fill="url(#SVGID_33_)"/><path d="m284.681 227.319c9.067 27.096 30.323 48.345 57.362 57.21.068 0 .068-57.059 0-57.059-19.121-.075-38.241-.126-57.362-.151z" fill="url(#SVGID_34_)"/><path d="m227.319 284.681c-19.146-19.146-38.317-38.266-57.362-57.21-.076 19.02-.076 38.039 0 57.059 19.121.075 38.241.126 57.362.151z" fill="url(#SVGID_35_)"/><path d="m169.957 227.471c8.922 26.885 30.276 48.132 57.362 57.21-.023 0-.022-57.362 0-57.362-19.121.025-38.241.076-57.362.152z" fill="url(#SVGID_36_)"/><path d="m171.324 398.646c-19.197-19.399-38.57-38.773-57.97-57.97.38 18.817.886 37.634 1.519 56.451 18.817.632 37.634 1.138 56.451 1.519z" fill="url(#SVGID_37_)"/><path d="m113.355 340.676c9.54 26.803 31.168 48.429 57.97 57.97-.068 0-.979-57.058-.911-57.058-19.021-.228-38.04-.532-57.059-.912z" fill="url(#SVGID_38_)"/><path d="m284.681 284.681c-19.095-19.096-38.267-38.267-57.362-57.362-.025 19.121-.025 38.241 0 57.362 19.121.026 38.241.026 57.362 0z" fill="url(#SVGID_39_)"/><path d="m227.319 227.319c8.995 27.063 30.3 48.368 57.362 57.362.022 0 .022-57.362 0-57.362-19.121-.026-38.241-.026-57.362 0z" fill="url(#SVGID_40_)"/><path d="m399.405 284.225c-18.994-18.69-38.165-37.659-57.362-56.754.076 19.02.076 38.039 0 57.059 19.121-.077 38.241-.178 57.362-.305z" fill="url(#SVGID_41_)"/><path d="m342.043 227.471c9.139 26.987 30.346 48.069 57.362 56.754.113 0 .112-56.45 0-56.45-19.121-.127-38.241-.228-57.362-.304z" fill="url(#SVGID_42_)"/><path d="m169.957 284.529c-19.197-19.096-38.368-38.064-57.362-56.754-.127 18.817-.127 37.634 0 56.45 19.121.127 38.241.228 57.362.304z" fill="url(#SVGID_43_)"/><path d="m112.595 227.775c8.85 26.564 30.252 47.643 57.362 56.754-.067 0-.067-57.059 0-57.059-19.121.077-38.241.178-57.362.305z" fill="url(#SVGID_44_)"/><path d="m398.646 340.676c-18.64-18.437-37.558-37.203-56.602-56.146-.076 19.02-.228 38.038-.456 57.058 19.019-.228 38.038-.532 57.058-.912z" fill="url(#SVGID_45_)"/><path d="m342.043 284.529c8.934 26.916 29.86 47.818 56.602 56.146.112.002.872-56.452.76-56.451-19.121.128-38.241.229-57.362.305z" fill="url(#SVGID_46_)"/><path d="m284.529 342.043c-18.943-19.045-38.064-38.216-57.21-57.362.025 19.12.076 38.241.152 57.362 19.019.076 38.039.076 57.058 0z" fill="url(#SVGID_47_)"/><path d="m227.319 284.681c9.077 27.084 30.325 48.441 57.21 57.362.022-.002.174-57.362.152-57.362-19.121.026-38.241.026-57.362 0z" fill="url(#SVGID_48_)"/><path d="m169.957 227.471c-19.045-18.943-37.963-37.709-56.602-56.146-.38 18.817-.633 37.634-.76 56.451 19.121-.128 38.241-.229 57.362-.305z" fill="url(#SVGID_49_)"/><path d="m113.355 171.324c8.434 26.445 29.554 47.25 56.602 56.146-.067-.001.388-57.058.456-57.058-19.02.228-38.039.532-57.058.912z" fill="url(#SVGID_50_)"/><path d="m399.405 227.775c-19.247-18.943-38.57-38.115-57.818-57.362.228 19.02.38 38.039.456 57.058 19.121.076 38.241.177 57.362.304z" fill="url(#SVGID_51_)"/><path d="m341.587 170.413c9.297 27.06 30.672 48.316 57.818 57.362.112 0-.647-56.451-.76-56.451-19.019-.38-38.038-.684-57.058-.911z" fill="url(#SVGID_52_)"/><path d="m284.681 227.319c-19.146-19.146-38.267-38.317-57.21-57.362-.076 19.12-.127 38.241-.152 57.362 19.121-.026 38.241-.026 57.362 0z" fill="url(#SVGID_53_)"/><path d="m227.471 169.957c8.865 27.04 30.113 48.295 57.21 57.362.023 0-.13-57.362-.152-57.362-19.019-.076-38.039-.076-57.058 0z" fill="url(#SVGID_54_)"/></g></svg>