<svg id="Capa_1" enable-background="new 0 0 512 512" height="512" viewBox="0 0 512 512" width="512" xmlns="http://www.w3.org/2000/svg" xmlns:xlink="http://www.w3.org/1999/xlink"><linearGradient id="SVGID_1_" gradientUnits="userSpaceOnUse" x1="74.981" x2="437.02" y1="437.019" y2="74.98"><stop offset="0" stop-color="#ff2f2b"/><stop offset="1" stop-color="#ffbdab"/></linearGradient><radialGradient id="SVGID_2_" cx="256.001" cy="256" gradientUnits="userSpaceOnUse" r="256"><stop offset="0" stop-color="#ff2f2b"/><stop offset=".1344" stop-color="#ff3935" stop-opacity=".866"/><stop offset=".3677" stop-color="#ff564e" stop-opacity=".632"/><stop offset=".6719" stop-color="#ff8478" stop-opacity=".328"/><stop offset="1" stop-color="#ffbdab" stop-opacity="0"/></radialGradient><linearGradient id="lg1"><stop offset="0" stop-color="#ffb5d3"/><stop offset=".2711" stop-color="#ffcde1"/><stop offset=".7469" stop-color="#fff1f7"/><stop offset="1" stop-color="#fff"/></linearGradient><linearGradient id="SVGID_3_" gradientUnits="userSpaceOnUse" x1="-6.833" x2="486.173" xlink:href="#lg1" y1="518.833" y2="25.827"/><linearGradient id="SVGID_4_" gradientUnits="userSpaceOnUse" x1="61.159" x2="560.697" xlink:href="#lg1" y1="450.84" y2="-48.698"/><linearGradient id="lg2"><stop offset="0" stop-color="#ffa9d4"/><stop offset=".6513" stop-color="#ffe4f2"/><stop offset="1" stop-color="#fff"/></linearGradient><linearGradient id="SVGID_5_" gradientUnits="userSpaceOnUse" x1="126.879" x2="484.299" xlink:href="#lg2" y1="385.121" y2="27.701"/><linearGradient id="SVGID_6_" gradientUnits="userSpaceOnUse" x1="163.817" x2="526.541" y1="348.183" y2="-14.541"><stop offset="0" stop-color="#ffa9d4"/><stop offset=".325" stop-color="#ffc1e0"/><stop offset="1" stop-color="#fff"/></linearGradient><linearGradient id="lg3"><stop offset="0" stop-color="#fff" stop-opacity="0"/><stop offset=".166" stop-color="#ffeff4" stop-opacity=".166"/><stop offset=".49" stop-color="#ffc6d7" stop-opacity=".49"/><stop offset=".9365" stop-color="#ff83a9" stop-opacity=".937"/><stop offset="1" stop-color="#ff79a2"/></linearGradient><radialGradient id="SVGID_7_" cx="288.595" cy="223.405" gradientUnits="userSpaceOnUse" r="239.287" xlink:href="#lg3"/><radialGradient id="SVGID_8_" cx="223.498" cy="289.194" gradientUnits="userSpaceOnUse" r="247.244"><stop offset="0" stop-color="#ff2f2b"/><stop offset=".0973" stop-color="#ff3734" stop-opacity=".903"/><stop offset=".2531" stop-color="#ff4e4b" stop-opacity=".747"/><stop offset=".4479" stop-color="#ff7471" stop-opacity=".552"/><stop offset=".674" stop-color="#ffa8a6" stop-opacity=".326"/><stop offset=".9236" stop-color="#ffe9e9" stop-opacity=".076"/><stop offset="1" stop-color="#fff" stop-opacity="0"/></radialGradient><linearGradient id="SVGID_9_" gradientUnits="userSpaceOnUse" x1="-73.892" x2="423.323" xlink:href="#lg1" y1="585.892" y2="88.676"/><linearGradient id="SVGID_10_" gradientUnits="userSpaceOnUse" x1="59.568" x2="421.457" xlink:href="#lg2" y1="452.432" y2="90.543"/><linearGradient id="SVGID_11_" gradientUnits="userSpaceOnUse" x1="12.274" x2="340.403" y1="501.535" y2="173.406"><stop offset="0" stop-color="#ff91bb"/><stop offset=".1554" stop-color="#ff99c0"/><stop offset=".3964" stop-color="#ffafcd"/><stop offset=".6931" stop-color="#ffd3e4"/><stop offset="1" stop-color="#fff"/></linearGradient><radialGradient id="SVGID_12_" cx="223.405" cy="288.595" gradientUnits="userSpaceOnUse" r="239.287" xlink:href="#lg3"/><g><circle cx="256" cy="256" fill="url(#SVGID_1_)" r="256"/><circle cx="256" cy="256" fill="url(#SVGID_2_)" r="256"/><path d="m287.82 53.363c-40.26-.346-77.232 14.792-106.635 39.63 77.417 78.412 159.411 160.405 237.822 237.823 24.839-29.404 39.975-66.374 39.63-106.635-1.177-90.867-79.952-169.639-170.817-170.818z" fill="url(#SVGID_3_)"/><path d="m118.552 223.751c-.272 92.354 77.344 169.969 169.697 169.697 51.994-.268 99.02-25.212 130.758-62.632 3.275-13.804 5.076-28.093 5.172-42.748.32-108.132-92.113-200.567-200.246-200.246-14.655.096-28.943 1.895-42.748 5.171-37.423 31.736-62.363 78.761-62.633 130.758z" fill="url(#SVGID_4_)"/><path d="m422.544 262.049c3.571-12.11 5.453-24.876 5.363-38.092-.768-75.174-64.69-139.096-139.864-139.864-13.216-.091-25.982 1.792-38.091 5.363 56.548 57.495 115.097 116.044 172.592 172.593z" fill="url(#SVGID_5_)"/><path d="m149.283 223.605c-.205 76.175 62.939 139.318 139.112 139.112 62.926-.339 117.163-43.649 134.149-100.668-11.954-87.802-84.791-160.637-172.593-172.593-57.018 16.986-100.33 71.224-100.668 134.149z" fill="url(#SVGID_6_)"/><path d="m288.043 84.093c-75.187-.413-138.174 63.352-138.76 139.512-.205 76.175 62.939 139.318 139.112 139.112 76.161-.585 139.924-63.573 139.512-138.76-.768-75.174-64.69-139.096-139.864-139.864z" fill="url(#SVGID_7_)"/><path d="m287.82 53.363c-90.884-.53-168.308 78.053-169.268 170.388-.272 92.354 77.344 169.969 169.697 169.697 92.336-.961 170.918-78.383 170.388-169.268-1.177-90.866-79.952-169.638-170.817-170.817z" fill="url(#SVGID_8_)"/><path d="m223.751 118.552c-92.335.96-170.916 78.382-170.388 169.268 1.178 90.865 79.953 169.64 170.818 170.817 90.885.529 168.308-78.054 169.268-170.388.27-92.353-77.344-169.97-169.698-169.697z" fill="url(#SVGID_9_)"/><path d="m223.605 149.283c-76.161.586-139.925 63.573-139.512 138.76.768 75.172 64.689 139.095 139.864 139.864 75.189.414 138.173-63.354 138.76-139.512.206-76.174-62.938-139.318-139.112-139.112z" fill="url(#SVGID_10_)"/><path d="m238.964 397.24c-75.69-.448-139.392-63.954-139.604-139.402-.006-16.041 2.865-31.439 8.103-45.812-14.88 21.934-23.567 47.985-23.37 76.017.768 75.172 64.689 139.095 139.864 139.864 59.441.422 110.804-39.368 130.533-93.326-25.311 37.51-67.73 62.817-115.526 62.659z" fill="url(#SVGID_11_)"/><path d="m223.605 149.283c-76.161.586-139.925 63.573-139.512 138.76.768 75.172 64.689 139.095 139.864 139.864 75.189.414 138.173-63.354 138.76-139.512.206-76.174-62.938-139.318-139.112-139.112z" fill="url(#SVGID_12_)"/></g></svg>