<svg id="Capa_1" enable-background="new 0 0 512 512" height="512" viewBox="0 0 512 512" width="512" xmlns="http://www.w3.org/2000/svg" xmlns:xlink="http://www.w3.org/1999/xlink"><linearGradient id="SVGID_1_" gradientUnits="userSpaceOnUse" x1="74.981" x2="437.019" y1="437.019" y2="74.981"><stop offset="0" stop-color="#00aa45"/><stop offset="1" stop-color="#d3ff33"/></linearGradient><radialGradient id="SVGID_2_" cx="256" cy="256" gradientUnits="userSpaceOnUse" r="256"><stop offset="0" stop-color="#00aa45"/><stop offset=".109" stop-color="#0fb044" stop-opacity=".891"/><stop offset=".3171" stop-color="#35bf40" stop-opacity=".683"/><stop offset=".6028" stop-color="#73d83b" stop-opacity=".397"/><stop offset=".9518" stop-color="#c7fa34" stop-opacity=".048"/><stop offset="1" stop-color="#d3ff33" stop-opacity="0"/></radialGradient><linearGradient id="SVGID_3_" gradientUnits="userSpaceOnUse" x1="-16.976" x2="507.677" y1="420.02" y2="104.777"><stop offset="0" stop-color="#00aa45"/><stop offset=".3577" stop-color="#22b740"/><stop offset="1" stop-color="#5ccd38"/></linearGradient><linearGradient id="SVGID_4_" gradientUnits="userSpaceOnUse" x1="365.692" x2="504.679" y1="291.408" y2="552.805"><stop offset="0" stop-color="#95e12e"/><stop offset=".9123" stop-color="#0daf43"/><stop offset="1" stop-color="#00aa45"/></linearGradient><linearGradient id="SVGID_5_" gradientUnits="userSpaceOnUse" x1="265.635" x2="345.373" y1="324.169" y2="468.019"><stop offset="0" stop-color="#d3ff33"/><stop offset=".502" stop-color="#99e735"/><stop offset="1" stop-color="#5ccd38"/></linearGradient><linearGradient id="SVGID_6_" gradientUnits="userSpaceOnUse" x1="353.926" x2="429.417" y1="168.764" y2="304.953"><stop offset="0" stop-color="#fff"/><stop offset="1" stop-color="#f9fcca"/></linearGradient><linearGradient id="SVGID_7_" gradientUnits="userSpaceOnUse" x1="241.148" x2="326.544" y1="175.685" y2="329.743"><stop offset="0" stop-color="#f9fcca"/><stop offset=".4036" stop-color="#eafd90"/><stop offset="1" stop-color="#d3ff33"/></linearGradient><linearGradient id="SVGID_8_" gradientUnits="userSpaceOnUse" x1="102.049" x2="182.707" y1="369.397" y2="223.886"><stop offset=".014" stop-color="#b8ef5c"/><stop offset=".592" stop-color="#d3ff33"/><stop offset=".6501" stop-color="#d4ff38"/><stop offset=".718" stop-color="#d8ff46"/><stop offset=".7908" stop-color="#defe5e"/><stop offset=".867" stop-color="#e6fe7e"/><stop offset=".9452" stop-color="#f0fda8"/><stop offset="1" stop-color="#f9fcca"/></linearGradient><linearGradient id="SVGID_9_" gradientUnits="userSpaceOnUse" x1="101.862" x2="182.518" y1="373.311" y2="227.804"><stop offset="0" stop-color="#d3ff33"/><stop offset=".1342" stop-color="#d6ff3f"/><stop offset=".3785" stop-color="#defe60"/><stop offset=".7027" stop-color="#ebfd94"/><stop offset="1" stop-color="#f9fcca"/></linearGradient><linearGradient id="lg1"><stop offset="0" stop-color="#e6fe7f"/><stop offset=".4451" stop-color="#f1feba"/><stop offset="1" stop-color="#fff"/></linearGradient><linearGradient id="SVGID_10_" gradientUnits="userSpaceOnUse" x1="190.533" x2="246.711" xlink:href="#lg1" y1="421.412" y2="320.064"/><linearGradient id="lg2"><stop offset="0" stop-color="#f9fcca"/><stop offset="1" stop-color="#fff"/></linearGradient><linearGradient id="SVGID_11_" gradientUnits="userSpaceOnUse" x1="186.743" x2="242.858" xlink:href="#lg2" y1="431.73" y2="330.496"/><linearGradient id="SVGID_12_" gradientUnits="userSpaceOnUse" x1="94.313" x2="154.345" xlink:href="#lg1" y1="280.177" y2="171.876"/><linearGradient id="SVGID_13_" gradientUnits="userSpaceOnUse" x1="88.553" x2="148.723" xlink:href="#lg2" y1="294.185" y2="185.636"/><linearGradient id="SVGID_14_" gradientUnits="userSpaceOnUse" x1="175.356" x2="310.981" xlink:href="#lg2" y1="148.391" y2="66.899"/><linearGradient id="SVGID_15_" gradientUnits="userSpaceOnUse" x1="4.5" x2="307.75" y1="355.152" y2="172.94"><stop offset="0" stop-color="#00aa45"/><stop offset=".5913" stop-color="#5bcb37"/><stop offset="1" stop-color="#95e12e"/></linearGradient><linearGradient id="lg3"><stop offset=".0802" stop-color="#5ccd38"/><stop offset=".5382" stop-color="#99e735"/><stop offset="1" stop-color="#d3ff33"/></linearGradient><linearGradient id="SVGID_16_" gradientUnits="userSpaceOnUse" x1="226.885" x2="383.527" xlink:href="#lg3" y1="222.928" y2="128.808"/><linearGradient id="SVGID_17_" gradientUnits="userSpaceOnUse" x1="51.974" x2="218.148" xlink:href="#lg3" y1="222.324" y2="122.477"/><linearGradient id="SVGID_18_" gradientUnits="userSpaceOnUse" x1="169.197" x2="266.122" xlink:href="#lg3" y1="355.512" y2="180.655"/><linearGradient id="SVGID_19_" gradientUnits="userSpaceOnUse" x1="154.707" x2="251.658" xlink:href="#lg3" y1="385.216" y2="210.312"/><g><circle cx="256" cy="256" fill="url(#SVGID_1_)" r="256"/><circle cx="256" cy="256" fill="url(#SVGID_2_)" r="256"/><path d="m248.375 43.104c-55.085 33.386-111.42 68.163-168.117 102.287-4.714 2.839-7.682 7.834-7.787 13.142-1.295 64.977-1.295 129.955 0 194.932.106 5.308 3.073 10.302 7.787 13.142 56.697 34.125 113.031 68.902 168.117 102.289 4.711 2.856 10.539 2.856 15.25 0 55.085-33.386 111.42-68.164 168.117-102.289 4.714-2.839 7.682-7.834 7.787-13.142 1.295-64.977 1.295-129.955 0-194.932-.105-5.308-3.075-10.304-7.787-13.142-56.697-34.124-113.032-68.902-168.117-102.287-4.711-2.856-10.539-2.856-15.25 0z" fill="url(#SVGID_3_)"/><path d="m353.826 311.045c21.82-12.93 43.663-25.799 65.478-38.489 2.566-1.493 5.796.307 5.785 3.22-.093 25.309-.365 50.618-.815 75.928-.024 1.332-.762 2.582-1.939 3.289-21.893 13.116-43.74 26.331-65.49 39.526-2.559 1.552-5.732-.22-5.691-3.174.357-25.665.613-51.331.766-76.997.008-1.352.731-2.608 1.906-3.303z" fill="url(#SVGID_4_)"/><path d="m265.52 363.562c21.662-12.878 43.418-25.854 65.214-38.811 2.563-1.523 5.782.292 5.762 3.251-.159 25.716-.404 51.432-.733 77.148-.018 1.354-.743 2.62-1.91 3.328-21.675 13.169-43.236 26.276-64.63 39.204-2.517 1.521-5.683-.318-5.679-3.293.04-25.838.071-51.676.094-77.514 0-1.36.717-2.622 1.882-3.313z" fill="url(#SVGID_5_)"/><path d="m353.861 207.46c21.689-12.609 43.309-25.05 64.809-37.205 2.528-1.431 5.78.45 5.824 3.363.388 25.311.597 50.62.627 75.931.002 1.331-.715 2.564-1.888 3.241-21.774 12.574-43.594 25.353-65.41 38.219-2.569 1.513-5.789-.304-5.781-3.26.083-25.671.066-51.343-.053-77.014-.006-1.351.705-2.599 1.872-3.275z" fill="url(#SVGID_6_)"/><path d="m265.578 259.275c21.781-12.846 43.563-25.685 65.295-38.398 2.555-1.497 5.795.358 5.802 3.318.071 25.719.055 51.438-.045 77.156-.006 1.355-.728 2.611-1.902 3.306-21.806 12.91-43.589 25.864-65.299 38.746-2.553 1.516-5.772-.329-5.771-3.303.018-25.838.027-51.677.028-77.515.002-1.36.72-2.619 1.892-3.31z" fill="url(#SVGID_7_)"/><path d="m86.911 275.776c.093 25.309.365 50.618.815 75.928.024 1.333.762 2.583 1.94 3.289 21.893 13.116 43.74 26.331 65.49 39.526-22.778-39.95-45.694-79.66-68.245-118.743z" fill="url(#SVGID_8_)"/><path d="m158.174 311.045c-21.819-12.93-43.663-25.799-65.478-38.489-2.567-1.493-5.795.306-5.785 3.22 10.217 41.306 31.784 79.85 61.711 111.774 2.179 2.322 4.357 4.645 6.534 6.969 2.558 1.552 5.731-.22 5.691-3.174-.357-25.665-.613-51.331-.766-76.997-.008-1.352-.733-2.605-1.907-3.303z" fill="url(#SVGID_9_)"/><path d="m175.504 328.003c.159 25.716.404 51.431.733 77.146.018 1.354.745 2.62 1.91 3.328 21.675 13.169 43.236 26.276 64.63 39.204-22.086-39.865-44.678-79.887-67.273-119.678z" fill="url(#SVGID_10_)"/><path d="m246.48 363.562c-21.662-12.878-43.417-25.854-65.214-38.811-2.564-1.523-5.781.293-5.762 3.251 10.305 42.014 31.571 81.042 60.878 112.763 2.134 2.307 4.266 4.613 6.395 6.917 2.517 1.522 5.682-.319 5.679-3.293-.04-25.838-.071-51.676-.094-77.514-.001-1.362-.716-2.62-1.882-3.313z" fill="url(#SVGID_11_)"/><path d="m87.506 173.629c-.388 25.307-.597 50.613-.627 75.92-.002 1.331.716 2.564 1.888 3.241 21.774 12.574 43.594 25.353 65.41 38.219-22.548-39.608-44.94-78.864-66.671-117.38z" fill="url(#SVGID_12_)"/><path d="m158.139 207.46c-21.689-12.609-43.309-25.05-64.809-37.205-2.528-1.431-5.779.45-5.824 3.363 9.39 41.065 30.332 79.087 60.157 110.525 2.17 2.287 4.342 4.576 6.514 6.867 2.567 1.511 5.792-.305 5.781-3.26-.083-25.671-.066-51.343.053-77.014.007-1.353-.707-2.6-1.872-3.276z" fill="url(#SVGID_13_)"/><path d="m189.248 96.776c21.755-13.218 43.386-26.353 64.839-39.286 1.181-.712 2.643-.712 3.825 0 21.453 12.933 43.083 26.068 64.84 39.286 2.504 1.52 2.547 5.156.073 6.6-21.491 12.551-43.137 25.342-64.886 38.254-1.196.71-2.683.71-3.879 0-21.749-12.912-43.395-25.704-64.886-38.254-2.475-1.443-2.429-5.079.074-6.6z" fill="url(#SVGID_14_)"/><path d="m188.447 200.728c21.919-12.997 43.806-26.018 65.609-38.944 1.2-.712 2.687-.712 3.888 0 21.803 12.926 43.69 25.947 65.609 38.944 2.523 1.496 2.538 5.129.024 6.6-21.83 12.773-43.723 25.677-65.625 38.596-1.205.71-2.7.71-3.906 0-21.902-12.918-43.794-25.823-65.625-38.596-2.513-1.472-2.497-5.105.026-6.6z" fill="url(#SVGID_15_)"/><path d="m276.619 148.428c21.738-12.844 43.375-25.552 64.857-38.004 1.182-.687 2.663-.658 3.862.072 21.835 13.258 43.778 26.556 65.775 39.776 2.532 1.521 2.596 5.102.114 6.506-21.57 12.198-43.271 24.691-65.052 37.356-1.199.697-2.691.685-3.898-.031-21.931-13.018-43.829-26.077-65.642-39.057-2.512-1.492-2.518-5.138-.016-6.618z" fill="url(#SVGID_16_)"/><path d="m100.887 150.273c21.997-13.22 43.94-26.518 65.775-39.776 1.201-.729 2.679-.757 3.862-.072 21.482 12.452 43.119 25.16 64.857 38.004 2.502 1.476 2.496 5.125-.015 6.619-21.813 12.98-43.711 26.039-65.642 39.057-1.207.716-2.698.727-3.897.031-21.781-12.666-43.482-25.158-65.053-37.356-2.484-1.404-2.418-4.984.113-6.507z" fill="url(#SVGID_17_)"/><path d="m175.325 224.197c-.071 25.718-.055 51.436.045 77.154.005 1.356.729 2.611 1.902 3.306 21.806 12.91 43.589 25.864 65.299 38.746-22.371-39.821-44.955-79.685-67.246-119.206z" fill="url(#SVGID_18_)"/><path d="m246.422 259.275c-21.781-12.846-43.563-25.685-65.295-38.398-2.556-1.496-5.794.358-5.802 3.318 9.945 41.899 31.086 80.68 60.767 112.307 2.161 2.301 4.321 4.601 6.479 6.901 2.555 1.516 5.772-.329 5.771-3.303-.018-25.838-.027-51.677-.028-77.515-.001-1.36-.719-2.618-1.892-3.31z" fill="url(#SVGID_19_)"/></g></svg>