<svg id="Capa_1" enable-background="new 0 0 512 512" height="512" viewBox="0 0 512 512" width="512" xmlns="http://www.w3.org/2000/svg" xmlns:xlink="http://www.w3.org/1999/xlink"><linearGradient id="SVGID_1_" gradientUnits="userSpaceOnUse" x1="74.981" x2="437.019" y1="437.019" y2="74.981"><stop offset="0" stop-color="#364aff"/><stop offset="1" stop-color="#fc54ff"/></linearGradient><radialGradient id="SVGID_2_" cx="256" cy="256" gradientUnits="userSpaceOnUse" r="258.6"><stop offset="0" stop-color="#8d00db" stop-opacity=".66"/><stop offset=".1875" stop-color="#a714e3" stop-opacity=".536"/><stop offset=".5542" stop-color="#d536f2" stop-opacity=".294"/><stop offset=".8371" stop-color="#f14cfc" stop-opacity=".108"/><stop offset="1" stop-color="#fc54ff" stop-opacity="0"/></radialGradient><linearGradient id="lg1"><stop offset="0" stop-color="#fda0ff"/><stop offset="1" stop-color="#fff"/></linearGradient><linearGradient id="SVGID_3_" gradientUnits="userSpaceOnUse" x1="271.585" x2="539.092" xlink:href="#lg1" y1="465.276" y2="197.769"/><linearGradient id="lg2"><stop offset="0" stop-color="#fc54ff"/><stop offset=".4159" stop-color="#fd9dff"/><stop offset="1" stop-color="#fff"/></linearGradient><linearGradient id="SVGID_4_" gradientUnits="userSpaceOnUse" x1="113.214" x2="518.293" xlink:href="#lg2" y1="553.289" y2="148.211"/><linearGradient id="SVGID_5_" gradientUnits="userSpaceOnUse" x1="107.69" x2="416.524" xlink:href="#lg2" y1="581.761" y2="272.926"/><linearGradient id="SVGID_6_" gradientUnits="userSpaceOnUse" x1="101.102" x2="398.182" xlink:href="#lg2" y1="515.171" y2="218.09"/><linearGradient id="SVGID_7_" gradientUnits="userSpaceOnUse" x1="-3.342" x2="361.224" xlink:href="#lg2" y1="421.183" y2="56.617"/><linearGradient id="SVGID_8_" gradientUnits="userSpaceOnUse" x1="8.866" x2="343.549" xlink:href="#lg2" y1="311.387" y2="-23.297"/><linearGradient id="SVGID_9_" gradientUnits="userSpaceOnUse" x1="90.722" x2="392.106" xlink:href="#lg2" y1="416.527" y2="115.143"/><linearGradient id="SVGID_10_" gradientUnits="userSpaceOnUse" x1="116.81" x2="354.216" y1="405.407" y2="168.001"><stop offset="0" stop-color="#fc54ff"/><stop offset=".4146" stop-color="#fd9dff"/><stop offset=".997" stop-color="#fff"/></linearGradient><linearGradient id="SVGID_11_" gradientUnits="userSpaceOnUse" x1="212.6" x2="427.973" xlink:href="#lg1" y1="267.911" y2="52.538"/><linearGradient id="SVGID_12_" gradientUnits="userSpaceOnUse" x1="86.389" x2="399.842" xlink:href="#lg2" y1="322.175" y2="8.722"/><g><circle cx="256" cy="256" fill="url(#SVGID_1_)" r="256"/><circle cx="256" cy="256" fill="url(#SVGID_2_)" r="256"/><path d="m374.991 410.506c-34.594-8.382-69.436-17.816-104.465-27.896 24.874 20.375 49.474 40.39 73.626 59.634 10-.431 20-.936 30-1.514 8.278-.484 15.226-7.666 15.492-15.964.268-8.296-6.305-14.655-14.653-14.26z" fill="url(#SVGID_3_)"/><path d="m344.778 411.787c-24.588-9.255-49.353-19.048-74.252-29.177-44.765 10.462-89.297 19.98-133.518 27.896-8.348-.397-14.92 5.961-14.654 14.261.267 8.296 7.215 15.479 15.492 15.964 68.768 3.974 137.536 4.479 206.305 1.514 8.278-.364 15.174-7.503 15.381-15.876.21-8.377-6.406-14.878-14.754-14.582z" fill="url(#SVGID_4_)"/><path d="m392.869 373.334c-12.816-12.394-25.761-25.037-38.797-37.858-25.378-9.592-50.864-19.575-76.413-29.74 15.573 35.807 30.969 71.475 45.855 106.729 17.768-.49 35.536-1.172 53.305-2.048 11.788-.597 21.65-10.661 21.972-22.359.15-5.629-1.978-10.91-5.922-14.724z" fill="url(#SVGID_5_)"/><path d="m338.106 390.463c.087-5.721-1.344-11.162-3.982-15.145-8.572-12.942-17.226-25.984-25.937-39.094-22.403-15.071-44.947-30.434-67.542-45.842-27.687 15.324-55.296 30.48-82.717 45.093-13.036 12.821-25.981 25.465-38.797 37.858-3.944 3.815-6.072 9.097-5.921 14.722.322 11.699 10.184 21.763 21.972 22.36 62.778 3.095 125.555 3.778 188.333 2.048 7.858-.22 14.405-10.096 14.591-22z" fill="url(#SVGID_6_)"/><path d="m308.599 52.731c.097 7.662.188 15.323.274 22.985-24.779 35.211-50.254 71.155-75.882 107.093 30.697-10.345 61.327-20.538 91.837-30.274 7.154-7.099 14.283-14.157 21.382-21.16 5.649-5.573 8.74-13.202 8.604-21.262-.312-18.598-.688-37.196-1.129-55.794-.101-4.196-3.543-7.758-7.684-7.942-10-.44-20-.807-30-1.101-4.142-.124-7.454 3.222-7.402 7.455z" fill="url(#SVGID_7_)"/><path d="m278.66 75.25c-.037-7.683-.076-15.366-.117-23.048-.024-4.242-3.402-7.722-7.542-7.751-10-.073-20-.073-30 0-4.14.031-7.518 3.51-7.542 7.751-.042 7.683-.081 15.366-.117 23.048-10.071.093-20.142.249-30.213.466.085-7.662.177-15.323.274-22.985.052-4.232-3.26-7.578-7.401-7.455-10 .293-20 .661-30 1.101-4.141.184-7.583 3.748-7.684 7.942-.441 18.598-.818 37.196-1.129 55.794-.136 8.061 2.955 15.688 8.604 21.262 7.099 7.003 14.228 14.061 21.382 21.16 15.215 9.964 30.497 20.081 45.819 30.274 15.357-10.294 30.683-20.563 45.952-30.731 7.191-7.208 14.363-14.389 21.508-21.534 5.686-5.684 8.83-13.426 8.757-21.552-.099-11.092-.211-22.183-.334-33.275-10.075-.219-20.146-.374-30.217-.467z" fill="url(#SVGID_8_)"/><path d="m186.972 183.113c-10.043 51.062-19.866 101.9-29.045 152.363 50.086 1.067 100.173 1.316 150.259.748-40.035-50.628-81.025-102.549-121.214-153.111z" fill="url(#SVGID_9_)"/><path d="m325.028 183.113c10.043 51.062 19.866 101.9 29.045 152.363-15.295.326-30.59.575-45.885.748-22.159-11.221-42.218-26.078-59.536-43.618-27.034-27.394-47.387-61.194-58.426-98.48-1.087-3.673-2.171-7.344-3.253-11.012.027-5.097.057-10.193.09-15.29 45.959-.571 91.917-.571 137.876 0 .032 5.096.062 10.192.089 15.289z" fill="url(#SVGID_10_)"/><path d="m324.828 152.534c-10.197-.153-20.394-.271-30.59-.355.044 10.232.081 20.465.111 30.697 10.226.056 20.453.135 30.679.237 8.473.078 15.299-6.662 15.23-15.078-.07-8.414-6.986-15.369-15.43-15.501z" fill="url(#SVGID_11_)"/><path d="m294.238 152.179c-35.689-.296-71.377-.178-107.066.355-8.444.131-15.359 7.084-15.429 15.501-.07 8.416 6.756 15.158 15.23 15.078 35.792-.356 71.584-.435 107.376-.237 8.473.045 15.315-6.763 15.27-15.222-.046-8.461-6.937-15.401-15.381-15.475z" fill="url(#SVGID_12_)"/></g></svg>