<svg id="Capa_1" enable-background="new 0 0 512 512" height="512" viewBox="0 0 512 512" width="512" xmlns="http://www.w3.org/2000/svg" xmlns:xlink="http://www.w3.org/1999/xlink"><linearGradient id="SVGID_1_" gradientUnits="userSpaceOnUse" x1="74.981" x2="437.019" y1="437.019" y2="74.981"><stop offset="0" stop-color="#ff4c4c"/><stop offset="1" stop-color="#fff200"/></linearGradient><radialGradient id="SVGID_2_" cx="256" cy="256" gradientUnits="userSpaceOnUse" r="256"><stop offset="0" stop-color="#ff4c4c"/><stop offset=".1081" stop-color="#ff544e" stop-opacity=".887"/><stop offset=".2693" stop-color="#ff6853" stop-opacity=".718"/><stop offset=".4637" stop-color="#ff895c" stop-opacity=".514"/><stop offset=".6838" stop-color="#ffb767" stop-opacity=".283"/><stop offset=".9228" stop-color="#fff276" stop-opacity=".033"/><stop offset=".9537" stop-color="#fffa78" stop-opacity="0"/></radialGradient><linearGradient id="SVGID_3_" gradientUnits="userSpaceOnUse" x1="200.254" x2="318.293" y1="417.036" y2="298.997"><stop offset="0" stop-color="#eaedc2"/><stop offset=".9193" stop-color="#fff"/></linearGradient><linearGradient id="SVGID_4_" gradientUnits="userSpaceOnUse" x1="-257.325" x2="402.429" y1="703.629" y2="43.874"><stop offset="0" stop-color="#fffa78"/><stop offset=".0964" stop-color="#fffb8f"/><stop offset=".2913" stop-color="#fffcb7"/><stop offset=".483" stop-color="#fffdd6"/><stop offset=".6681" stop-color="#fffeed"/><stop offset=".8438" stop-color="#fffffa"/><stop offset="1" stop-color="#fff"/></linearGradient><radialGradient id="SVGID_5_" cx="340.194" cy="383.813" gradientUnits="userSpaceOnUse" r="164.737"><stop offset="0" stop-color="#ffcb00"/><stop offset=".2005" stop-color="#ffd944" stop-opacity=".8"/><stop offset=".4155" stop-color="#ffe686" stop-opacity=".585"/><stop offset=".6108" stop-color="#fff1ba" stop-opacity=".389"/><stop offset=".7795" stop-color="#fff9e0" stop-opacity=".221"/><stop offset=".9148" stop-color="#fffdf7" stop-opacity=".085"/><stop offset="1" stop-color="#fff" stop-opacity="0"/></radialGradient><linearGradient id="SVGID_6_" gradientUnits="userSpaceOnUse" x1="382.67" x2="382.643" y1="310.264" y2="310.237"><stop offset="0" stop-color="#ffcb00"/><stop offset=".3752" stop-color="#ffdf61" stop-opacity=".625"/><stop offset="1" stop-color="#fff" stop-opacity="0"/></linearGradient><linearGradient id="SVGID_7_" gradientUnits="userSpaceOnUse" x1="-43.593" x2="653.374" y1="-6.863" y2="690.103"><stop offset="0" stop-color="#fff" stop-opacity="0"/><stop offset=".6248" stop-color="#ffdf61" stop-opacity=".625"/><stop offset="1" stop-color="#ffcb00"/></linearGradient><linearGradient id="lg1"><stop offset="0" stop-color="#ff4c4c"/><stop offset=".1657" stop-color="#ff5b44"/><stop offset=".4814" stop-color="#ff812d"/><stop offset=".911" stop-color="#ffbe08"/><stop offset="1" stop-color="#ffcb00"/></linearGradient><linearGradient id="SVGID_8_" gradientUnits="userSpaceOnUse" x1="374.804" x2="525.15" xlink:href="#lg1" y1="317.297" y2="166.952"/><linearGradient id="SVGID_9_" gradientUnits="userSpaceOnUse" x1="340.865" x2="517.435" xlink:href="#lg1" y1="346.779" y2="170.209"/><linearGradient id="lg2"><stop offset="0" stop-color="#fed991"/><stop offset="1" stop-color="#fff"/></linearGradient><linearGradient id="SVGID_10_" gradientTransform="matrix(0 -1 1 0 1044.752 79.25)" gradientUnits="userSpaceOnUse" x1="-228.415" x2="-106.086" xlink:href="#lg2" y1="-697.479" y2="-575.15"/><linearGradient id="SVGID_11_" gradientUnits="userSpaceOnUse" x1="356.548" x2="433.364" xlink:href="#lg2" y1="208.241" y2="285.056"/><linearGradient id="lg3"><stop offset="0" stop-color="#ff4c4c"/><stop offset=".0508" stop-color="#ff5048"/><stop offset=".688" stop-color="#ff7b14"/><stop offset="1" stop-color="#ff8c00"/></linearGradient><linearGradient id="SVGID_12_" gradientUnits="userSpaceOnUse" x1="39.253" x2="335.633" xlink:href="#lg3" y1="270.639" y2="-25.741"/><linearGradient id="SVGID_13_" gradientUnits="userSpaceOnUse" x1="2.985" x2="152.208" xlink:href="#lg3" y1="306.384" y2="157.16"/><linearGradient id="lg4"><stop offset="0" stop-color="#fed991"/><stop offset=".2694" stop-color="#fee2ab"/><stop offset=".8411" stop-color="#fff8ec"/><stop offset="1" stop-color="#fff"/></linearGradient><linearGradient id="SVGID_14_" gradientUnits="userSpaceOnUse" x1=".349" x2="363.549" xlink:href="#lg4" y1="371.434" y2="8.234"/><linearGradient id="SVGID_15_" gradientUnits="userSpaceOnUse" x1="-43.387" x2="220.128" xlink:href="#lg4" y1="394.481" y2="130.965"/><linearGradient id="lg5"><stop offset="0" stop-color="#ffb11d"/><stop offset=".1414" stop-color="#ffba37"/><stop offset=".4437" stop-color="#ffd179"/><stop offset=".8797" stop-color="#fff5e1"/><stop offset="1" stop-color="#fff"/></linearGradient><linearGradient id="SVGID_16_" gradientTransform="matrix(0 -1 1 0 1044.752 79.25)" gradientUnits="userSpaceOnUse" x1="-360.993" x2="126.638" xlink:href="#lg5" y1="-951.73" y2="-464.1"/><linearGradient id="SVGID_17_" gradientTransform="matrix(0 -1 1 0 1044.752 79.25)" gradientUnits="userSpaceOnUse" x1="-404.157" x2="83.33" xlink:href="#lg5" y1="-1031.33" y2="-543.842"/><g><circle cx="256" cy="256" fill="url(#SVGID_1_)" r="256"/><circle cx="256" cy="256" fill="url(#SVGID_2_)" r="256"/><path d="m383.163 309.741c-39.594 39.248-79.251 78.919-117.811 118.267-5.521-45.028-11.273-90.071-17.033-135.11 44.998 5.759 89.956 11.421 134.844 16.843z" fill="url(#SVGID_3_)"/><path d="m117.954 87.386c-3.855 112.409-3.855 224.818 0 337.228.295 8.409 7.269 15.399 15.546 15.582 33.333.724 66.667 1.152 100 1.285 12.416.051 23.66-5.115 31.853-13.472 8.185-8.36 13.332-19.916 13.392-32.642.086-18.787.154-37.574.205-56.361.02-8.49 6.897-15.382 15.363-15.401 18.731-.044 37.461-.121 56.192-.231 12.687-.073 24.248-5.299 32.658-13.633 8.408-8.338 13.674-19.796 13.728-32.411.275-63.315-.674-126.63-2.845-189.944-.294-8.41-7.269-15.401-15.546-15.582-81.667-1.772-163.333-1.772-245 0-8.277.18-15.252 7.172-15.546 15.582z" fill="url(#SVGID_4_)"/><path d="m117.954 87.386c-3.855 112.409-3.855 224.818 0 337.228.295 8.409 7.269 15.399 15.546 15.582 33.333.724 66.667 1.152 100 1.285 12.416.051 23.66-5.115 31.853-13.472 8.185-8.36 13.332-19.916 13.392-32.642.086-18.787.154-37.574.205-56.361.02-8.49 6.897-15.382 15.363-15.401 18.731-.044 37.461-.121 56.192-.231 12.687-.073 24.248-5.299 32.658-13.633 8.408-8.338 13.674-19.796 13.728-32.411.275-63.315-.674-126.63-2.845-189.944-.294-8.41-7.269-15.401-15.546-15.582-81.667-1.772-163.333-1.772-245 0-8.277.18-15.252 7.172-15.546 15.582z" fill="url(#SVGID_5_)"/><path d="m382.648 310.247c-.172.17.194-.168 0 0z" fill="url(#SVGID_6_)"/><path d="m255.4 335.21c.019.001 7.273 62.788 8.157 75.561.621 8.686-2.009 16.852-6.327 23.816 2.949-1.866 5.674-4.08 8.123-6.579 8.185-8.36 13.332-19.916 13.392-32.642.086-18.787.154-37.574.205-56.361.021-8.49 6.897-15.382 15.363-15.401 18.731-.044 37.461-.121 56.192-.231 12.687-.073 24.248-5.299 32.658-13.633 8.408-8.338 13.674-19.796 13.728-32.411.021-4.819.035-9.639.041-14.458-93.955.084-187.91.084-281.865 0 .028 20.055.179 40.112.452 60.167 46.824.407 93.648.611 140.472.611-.848 3.665-1.087 7.56-.591 11.561z" fill="url(#SVGID_7_)"/><path d="m486.423 233.528c-34.969-.169-69.939-.299-104.908-.391 15.451 19.873 30.826 39.648 46.007 59.268 14.49-.083 28.98-.178 43.47-.282 7.901-.063 14.59-5.968 15.431-13.652.809-7.392 1.226-14.889 1.227-22.47 0-7.585-.418-15.079-1.227-22.473z" fill="url(#SVGID_8_)"/><path d="m470.992 219.876c-14.49-.105-28.98-.199-43.47-.282-15.231 14.069-30.572 28.254-45.963 42.511 25.256-.018 50.512-.041 75.768-.069 16.11-.037 29.221-12.802 29.096-28.508-.841-7.682-7.53-13.592-15.431-13.652z" fill="url(#SVGID_9_)"/><path d="m396.801 292.566c10.24-.048 20.48-.102 30.72-.161.092-10.113.146-20.226.161-30.338-25.613-7.56-51.252-15.218-76.89-22.911 15.414 17.886 30.782 35.707 46.009 53.41z" fill="url(#SVGID_10_)"/><path d="m396.801 219.432c-15.254 14.148-30.605 28.393-45.992 42.692 25.624-.014 51.249-.033 76.873-.057.021-14.157-.032-28.315-.161-42.473-10.239-.06-20.479-.114-30.72-.162z" fill="url(#SVGID_11_)"/><path d="m24.35 255.999c0 3.969 2.617 7.495 6.483 8.756 11.007 3.583 22.02 7.189 33.034 10.814 13.627-14.034 27.354-28.176 41.128-42.393-26.891 7.692-53.782 15.323-80.645 22.823z" fill="url(#SVGID_12_)"/><path d="m63.866 236.43c-11.014 3.624-22.026 7.23-33.034 10.814-3.866 1.26-6.483 4.789-6.483 8.755 0 .662 2.608 1.25 6.47 1.459 17.019.924 34.038 1.858 51.058 2.797-6.029-7.965-12.035-15.908-18.011-23.825z" fill="url(#SVGID_13_)"/><path d="m63.866 275.569c17.109 5.63 34.223 11.302 51.332 16.997 15.278-11.021 30.62-22.119 45.99-33.263-32.458-.01-64.916-.023-97.374-.042.005 5.435.022 10.872.052 16.308z" fill="url(#SVGID_14_)"/><path d="m63.866 236.43c-.042 7.61-.059 15.22-.052 22.831 17.084.938 34.168 1.884 51.252 2.833 15.366-7.098 30.75-14.24 46.137-21.406-15.358-7.125-30.698-14.217-46.005-21.255-17.108 5.694-34.222 11.367-51.332 16.997z" fill="url(#SVGID_15_)"/><path d="m115.198 292.566c93.868.444 187.735.444 281.603 0 .076-10.157.12-20.315.132-30.473-7.678-7.612-15.375-15.247-23.083-22.9-78.567-.142-157.135-.142-235.702 0-7.708 7.653-15.405 15.288-23.083 22.9.014 10.158.058 20.315.133 30.473z" fill="url(#SVGID_16_)"/><path d="m115.198 219.432c-.106 14.22-.15 28.441-.132 42.661 93.956.074 187.912.074 281.867 0 .018-14.22-.026-28.441-.132-42.661-93.867-.444-187.735-.444-281.603 0z" fill="url(#SVGID_17_)"/></g></svg>