<svg id="Capa_1" enable-background="new 0 0 512 512" height="512" viewBox="0 0 512 512" width="512" xmlns="http://www.w3.org/2000/svg" xmlns:xlink="http://www.w3.org/1999/xlink"><linearGradient id="SVGID_1_" gradientUnits="userSpaceOnUse" x1="74.981" x2="437.019" y1="437.019" y2="74.981"><stop offset="0" stop-color="#0072ff"/><stop offset="1" stop-color="#00e5a1"/></linearGradient><radialGradient id="SVGID_2_" cx="256" cy="256" gradientUnits="userSpaceOnUse" r="256"><stop offset="0" stop-color="#0072ff"/><stop offset=".2939" stop-color="#30a4f4" stop-opacity=".706"/><stop offset=".6161" stop-color="#5ed5e9" stop-opacity=".384"/><stop offset=".8618" stop-color="#7af4e3" stop-opacity=".138"/><stop offset="1" stop-color="#85ffe0" stop-opacity="0"/></radialGradient><linearGradient id="lg1"><stop offset="0" stop-color="#3dcbcd"/><stop offset=".4837" stop-color="#9de5e6"/><stop offset="1" stop-color="#fff"/></linearGradient><linearGradient id="SVGID_3_" gradientUnits="userSpaceOnUse" x1="188.633" x2="409.453" xlink:href="#lg1" y1="349.244" y2="128.424"/><linearGradient id="SVGID_4_" gradientUnits="userSpaceOnUse" x1="159.22" x2="428.364" xlink:href="#lg1" y1="394.367" y2="125.223"/><linearGradient id="SVGID_5_" gradientUnits="userSpaceOnUse" x1="147.448" x2="427.766" xlink:href="#lg1" y1="485.298" y2="204.98"/><linearGradient id="SVGID_6_" gradientUnits="userSpaceOnUse" x1="172.11" x2="456.836" xlink:href="#lg1" y1="558.868" y2="274.142"/><linearGradient id="SVGID_7_" gradientUnits="userSpaceOnUse" x1="59.924" x2="375.426" xlink:href="#lg1" y1="605.02" y2="289.518"/><linearGradient id="SVGID_8_" gradientUnits="userSpaceOnUse" x1="46.731" x2="330.873" xlink:href="#lg1" y1="337.402" y2="53.26"/><linearGradient id="SVGID_9_" gradientUnits="userSpaceOnUse" x1="101.233" x2="343.753" xlink:href="#lg1" y1="283.518" y2="40.998"/><linearGradient id="SVGID_10_" gradientUnits="userSpaceOnUse" x1="116.235" x2="333.664" xlink:href="#lg1" y1="377.975" y2="160.545"/><linearGradient id="SVGID_11_" gradientUnits="userSpaceOnUse" x1="110.564" x2="328.597" xlink:href="#lg1" y1="334.424" y2="116.391"/><g><circle cx="256" cy="256" fill="url(#SVGID_1_)" r="256"/><circle cx="256" cy="256" fill="url(#SVGID_2_)" r="256"/><path d="m209.884 219.669c-10.743 41.614-21.346 83.115-31.452 124.383 20.675 10.527 41.269 21.014 61.74 31.35 20.406-10.158 40.942-20.509 61.565-30.936-30.194-41.305-61.153-83.242-91.853-124.797z" fill="url(#SVGID_3_)"/><path d="m302.116 219.669c-15.378-5.136-30.752-10.283-46.116-15.408-15.364 5.125-30.739 10.271-46.116 15.408.726 1.949 1.452 3.899 2.178 5.849 13.289 35.649 34.359 68.013 61.102 94.524 8.916 8.84 18.463 17.016 28.573 24.424 5.269 5.063 10.522 10.111 15.758 15.138 5.348-5.185 10.707-10.37 16.075-15.552-10.107-41.268-20.71-82.769-31.454-124.383z" fill="url(#SVGID_4_)"/><path d="m303.078 344.449c-41.549.413-83.098.279-124.646-.4-8.312 11.775-16.553 23.482-24.699 35.097-10.695 15.253-28.115 23.752-47.003 22.782.094 2.506.191 5.012.289 7.518 79.281 4.177 158.561 5.02 237.842 2.529.059-2.542.116-5.085.172-7.627-13.731-19.749-27.754-39.751-41.955-59.899z" fill="url(#SVGID_5_)"/><path d="m358.268 379.146c-8.146-11.615-16.387-23.323-24.699-35.097-10.164.167-20.327.3-30.491.4 4.863 11.908 9.684 23.792 14.448 35.645 6.257 15.553 16.448 24.592 27.506 24.254-.056 2.542-.114 5.085-.172 7.627 20.041-.63 40.081-1.473 60.122-2.529.099-2.506.195-5.012.289-7.518-18.889.97-36.306-7.531-47.003-22.782z" fill="url(#SVGID_6_)"/><path d="m404.68 416.964c-99.12 5.46-198.24 5.46-297.36 0-4.14-.231-7.644-3.782-7.817-7.924s3.066-7.318 7.226-7.112c99.514 5.007 199.029 5.007 298.543 0 4.16-.209 7.399 2.971 7.226 7.112-.174 4.139-3.678 7.693-7.818 7.924z" fill="url(#SVGID_7_)"/><path d="m332.233 127.993c.56 42.127-33.788 76.206-76.233 76.265-42.446-.06-76.793-34.138-76.233-76.265.634-42.106 34.982-77.446 76.233-77.485 41.252.042 75.6 35.378 76.233 77.485z" fill="url(#SVGID_8_)"/><path d="m271.309 158.151c-42.334-.143-76.435-34.1-75.766-76.336-9.662 12.976-15.571 28.973-15.777 46.179-.56 42.127 33.788 76.206 76.233 76.265 42.443-.061 76.789-34.135 76.233-76.259-13.682 18.333-35.881 30.203-60.923 30.151z" fill="url(#SVGID_9_)"/><path d="m302.053 188.978c-10.234-.042-20.468-.07-30.702-.084.01 10.248.018 20.495.021 30.743 10.248.005 20.496.015 30.744.029 8.491.01 15.365-6.837 15.34-15.294-.024-8.458-6.927-15.357-15.403-15.394z" fill="url(#SVGID_10_)"/><path d="m271.351 188.894c-20.468-.028-40.936 0-61.404.084-8.476.038-15.379 6.937-15.404 15.394-.024 8.458 6.85 15.305 15.34 15.294 20.496-.029 40.992-.039 61.489-.029 8.49.003 15.369-6.869 15.356-15.35-.013-8.482-6.901-15.381-15.377-15.393z" fill="url(#SVGID_11_)"/></g></svg>