<svg id="Capa_1" enable-background="new 0 0 512 512" height="512" viewBox="0 0 512 512" width="512" xmlns="http://www.w3.org/2000/svg" xmlns:xlink="http://www.w3.org/1999/xlink"><linearGradient id="lg1"><stop offset="0" stop-color="#ff2f2b"/><stop offset="1" stop-color="#ffbdab"/></linearGradient><linearGradient id="SVGID_1_" gradientUnits="userSpaceOnUse" x1="74.981" x2="437.02" xlink:href="#lg1" y1="437.019" y2="74.98"/><radialGradient id="SVGID_2_" cx="256.001" cy="256" gradientUnits="userSpaceOnUse" r="256"><stop offset="0" stop-color="#ff2f2b"/><stop offset=".1344" stop-color="#ff3935" stop-opacity=".866"/><stop offset=".3677" stop-color="#ff564e" stop-opacity=".632"/><stop offset=".6719" stop-color="#ff8478" stop-opacity=".328"/><stop offset="1" stop-color="#ffbdab" stop-opacity="0"/></radialGradient><linearGradient id="SVGID_3_" gradientUnits="userSpaceOnUse" x1="-194.833" x2="512.591" y1="706.833" y2="-.591"><stop offset=".0168" stop-color="#ffb5d3"/><stop offset=".2395" stop-color="#ffb9d5"/><stop offset=".4721" stop-color="#ffc6dd"/><stop offset=".7092" stop-color="#ffdbe9"/><stop offset=".9479" stop-color="#fff8fb"/><stop offset="1" stop-color="#fff"/></linearGradient><linearGradient id="lg2"><stop offset="0" stop-color="#ffebf1"/><stop offset="0" stop-color="#ffe7ef"/><stop offset="0" stop-color="#ffdaea"/><stop offset="0" stop-color="#ffc8e3"/><stop offset=".2568" stop-color="#ffcce5"/><stop offset=".539" stop-color="#ffdaec"/><stop offset=".8323" stop-color="#fff0f7"/><stop offset=".9944" stop-color="#fff"/></linearGradient><linearGradient id="SVGID_4_" gradientUnits="userSpaceOnUse" x1="-225.613" x2="520.963" xlink:href="#lg2" y1="804.551" y2="57.975"/><linearGradient id="SVGID_5_" gradientUnits="userSpaceOnUse" x1="-334.626" x2="428.837" xlink:href="#lg2" y1="846.626" y2="83.163"/><linearGradient id="SVGID_6_" gradientUnits="userSpaceOnUse" x1="-405.717" x2="337.842" xlink:href="#lg2" y1="877.092" y2="133.533"/><linearGradient id="SVGID_7_" gradientUnits="userSpaceOnUse" x1="156.137" x2="336.253" xlink:href="#lg1" y1="339.163" y2="159.047"/><linearGradient id="SVGID_8_" gradientUnits="userSpaceOnUse" x1="156.64" x2="336.328" xlink:href="#lg1" y1="364.473" y2="184.786"/><g><circle cx="256" cy="256" fill="url(#SVGID_1_)" r="256"/><circle cx="256" cy="256" fill="url(#SVGID_2_)" r="256"/><path d="m361 68.163c-70-3.75-140-3.75-210 0-16.542.916-30.474 15.307-31.001 31.837-3.166 104-3.166 208 0 312 .526 16.529 14.459 30.922 31.001 31.837 70 3.751 140 3.751 210 0 16.543-.916 30.474-15.308 31.001-31.837 3.166-104 3.166-208 0-312-.526-16.528-14.46-30.922-31.001-31.837z" fill="url(#SVGID_3_)"/><path d="m148.411 234.145c-.195 59.799.409 119.597 1.811 179.396 70.519 3.146 141.038 3.146 211.557 0-69.118-56.653-141.837-120.034-213.368-179.396z" fill="url(#SVGID_4_)"/><path d="m247.887 96.114c-32.555.111-65.11.893-97.666 2.345-1.06 45.229-1.664 90.457-1.811 135.686 42.59 86.954 121.698 156.99 213.368 179.396 1.394-59.461 1.999-118.923 1.814-178.384-38.756-45.79-77.823-92.929-115.705-139.043z" fill="url(#SVGID_5_)"/><path d="m247.887 96.114c16.965 60.908 59.83 111.703 115.706 139.043-.141-45.566-.746-91.132-1.814-136.698-37.964-1.694-75.928-2.475-113.892-2.345z" fill="url(#SVGID_6_)"/><path d="m256 211.831c-6.347-7.783-15.988-12.743-26.794-12.7-19.083.088-34.644 15.686-34.686 34.707-.03 43.306 61.537 79.127 61.479 79.083-.009.023 28.86-16.788 47.074-41.347-15.67-19.843-31.399-39.814-47.073-59.743z" fill="url(#SVGID_7_)"/><path d="m282.794 199.131c-10.806-.043-20.447 4.917-26.794 12.7-.004 29.017 20.067 53.333 47.074 59.743 8.345-11.255 14.428-24.099 14.405-37.736-.041-19.021-15.602-34.618-34.685-34.707z" fill="url(#SVGID_8_)"/></g></svg>