<svg id="Capa_1" enable-background="new 0 0 512 512" height="512" viewBox="0 0 512 512" width="512" xmlns="http://www.w3.org/2000/svg" xmlns:xlink="http://www.w3.org/1999/xlink"><linearGradient id="SVGID_1_" gradientUnits="userSpaceOnUse" x1="74.981" x2="437.019" y1="437.019" y2="74.981"><stop offset="0" stop-color="#00aa45"/><stop offset="1" stop-color="#d3ff33"/></linearGradient><radialGradient id="SVGID_2_" cx="256" cy="256" gradientUnits="userSpaceOnUse" r="256"><stop offset="0" stop-color="#00aa45"/><stop offset=".109" stop-color="#0fb044" stop-opacity=".891"/><stop offset=".3171" stop-color="#35bf40" stop-opacity=".683"/><stop offset=".6028" stop-color="#73d83b" stop-opacity=".397"/><stop offset=".9518" stop-color="#c7fa34" stop-opacity=".048"/><stop offset="1" stop-color="#d3ff33" stop-opacity="0"/></radialGradient><linearGradient id="lg1"><stop offset="0" stop-color="#b8ef5c"/><stop offset=".4074" stop-color="#d7f6a4"/><stop offset=".811" stop-color="#f4fce5"/><stop offset="1" stop-color="#fff"/></linearGradient><linearGradient id="SVGID_3_" gradientUnits="userSpaceOnUse" x1="87.671" x2="348.199" xlink:href="#lg1" y1="542.416" y2="281.887"/><linearGradient id="lg2"><stop offset="0" stop-color="#f9fcca"/><stop offset=".4845" stop-color="#fcfee6"/><stop offset="1" stop-color="#fff"/></linearGradient><linearGradient id="SVGID_4_" gradientUnits="userSpaceOnUse" x1="155.907" x2="417.431" xlink:href="#lg2" y1="451.631" y2="190.106"/><linearGradient id="lg3"><stop offset="0" stop-color="#95e12e"/><stop offset=".3014" stop-color="#6cd234"/><stop offset=".9771" stop-color="#04ab44"/><stop offset="1" stop-color="#00aa45"/></linearGradient><radialGradient id="SVGID_5_" cx="207.38" cy="306.955" gradientUnits="userSpaceOnUse" r="56.305" xlink:href="#lg3"/><radialGradient id="SVGID_6_" cx="208.001" cy="419.055" gradientUnits="userSpaceOnUse" r="55.965" xlink:href="#lg3"/><radialGradient id="SVGID_7_" cx="304.62" cy="306.955" gradientUnits="userSpaceOnUse" r="56.305" xlink:href="#lg3"/><radialGradient id="SVGID_8_" cx="303.999" cy="419.055" gradientUnits="userSpaceOnUse" r="55.965" xlink:href="#lg3"/><linearGradient id="SVGID_9_" gradientUnits="userSpaceOnUse" x1="103.299" x2="301.855" xlink:href="#lg1" y1="317.574" y2="119.018"/><linearGradient id="SVGID_10_" gradientUnits="userSpaceOnUse" x1="196.725" x2="391.894" y1="219.738" y2="24.57"><stop offset="0" stop-color="#f9fcca"/><stop offset=".5989" stop-color="#fcfee8"/><stop offset="1" stop-color="#fff"/></linearGradient><linearGradient id="SVGID_11_" gradientUnits="userSpaceOnUse" x1="106.777" x2="297.161" xlink:href="#lg2" y1="263.807" y2="73.423"/><radialGradient id="SVGID_12_" cx="207.38" cy="205.045" gradientUnits="userSpaceOnUse" r="56.305" xlink:href="#lg3"/><radialGradient id="SVGID_13_" cx="303.999" cy="92.945" gradientUnits="userSpaceOnUse" r="55.966" xlink:href="#lg3"/><radialGradient id="SVGID_14_" cx="256" cy="148.375" gradientUnits="userSpaceOnUse" r="56.333" xlink:href="#lg3"/><g><circle cx="256" cy="256" fill="url(#SVGID_1_)" r="256"/><circle cx="256" cy="256" fill="url(#SVGID_2_)" r="256"/><path d="m156.247 313.781c.26 40.74.796 81.48 1.606 122.219.349 16.511 14.101 31.466 30.647 32.734 44.249 3.299 88.497 3.354 132.746.165-53.461-47.531-109.173-102.771-164.999-155.118z" fill="url(#SVGID_3_)"/><path d="m256 209.875c-33.276 15.375-66.625 31.125-99.937 46.125 0 19.261.062 38.521.185 57.781 26.289 75.141 89.142 140.281 164.999 155.118.751-.054 1.503-.109 2.254-.165 16.545-1.269 30.298-16.223 30.647-32.734 1.194-60 1.791-120 1.791-180-33.314-15-66.664-30.75-99.939-46.125z" fill="url(#SVGID_4_)"/><path d="m227.852 307.151c.013 11.303-9.119 20.386-20.407 20.184-11.285-.204-20.493-9.51-20.536-20.684-.045-11.174 9.111-20.147 20.428-20.079 11.318.074 20.5 9.274 20.515 20.579z" fill="url(#SVGID_5_)"/><path d="m228.212 419.682c.046 11.306-8.915 20.257-20.027 19.75-11.111-.507-20.251-10.177-20.393-21.349-.141-11.175 8.841-19.785 20.048-19.414 11.208.382 20.322 9.705 20.372 21.013z" fill="url(#SVGID_6_)"/><path d="m325.092 306.651c-.047 11.172-9.249 20.48-20.536 20.684-11.29.202-20.421-8.879-20.407-20.184.017-11.305 9.197-20.504 20.515-20.579 11.316-.07 20.472 8.904 20.428 20.079z" fill="url(#SVGID_7_)"/><path d="m324.208 418.083c-.143 11.171-9.282 20.841-20.393 21.349-11.111.507-20.073-8.448-20.027-19.75.049-11.308 9.166-20.63 20.371-21.012 11.205-.37 20.191 8.237 20.049 19.413z" fill="url(#SVGID_8_)"/><path d="m157.353 103.205c-.86 50.932-1.29 101.863-1.29 152.795h169.125c-56.376-51.594-113.049-106.173-167.835-152.795z" fill="url(#SVGID_9_)"/><path d="m201.864 42.369c-4.455.266-8.909.566-13.364.897-16.546 1.27-30.296 16.223-30.647 32.734-.18 9.068-.347 18.137-.5 27.205 24.262 73.156 88.457 132.933 167.835 152.795h30.75c0-38.094-.241-76.187-.722-114.28-51.838-34.869-103.217-69.915-153.352-99.351z" fill="url(#SVGID_10_)"/><path d="m323.5 43.266c-40.545-3.022-81.091-3.322-121.636-.897 7.62 17.343 18.64 33.589 33.087 48.035 32.762 32.795 76.776 49.786 120.264 51.316-.277-21.906-.633-43.813-1.069-65.72-.349-16.512-14.1-31.465-30.646-32.734z" fill="url(#SVGID_11_)"/><path d="m227.852 204.849c-.015 11.305-9.197 20.502-20.515 20.579-11.318.07-20.472-8.904-20.428-20.079.044-11.173 9.25-20.479 20.536-20.684 11.287-.203 20.422 8.879 20.407 20.184z" fill="url(#SVGID_12_)"/><path d="m324.208 93.917c.142 11.178-8.843 19.786-20.048 19.414-11.206-.383-20.324-9.705-20.371-21.012-.046-11.304 8.915-20.258 20.027-19.75 11.11.505 20.248 10.178 20.392 21.348z" fill="url(#SVGID_13_)"/><path d="m276.375 148.486c.03 11.307-9.094 20.385-20.375 20.389-11.281-.004-20.405-9.083-20.375-20.389.033-11.301 9.156-20.607 20.375-20.611 11.218.002 20.343 9.307 20.375 20.611z" fill="url(#SVGID_14_)"/></g></svg>